M48
METRIC,LZ,000.000
;FILE_FORMAT=3:3
;TYPE=PLATED
;Layer: PTH_Through
;EasyEDA v6.5.22, 2023-02-28 18:31:49
;0f5abc17f4e243e5a26b6cc200d52bdd,5d2348555bc34ac8837521f0f1db218d,10
;Gerber Generator version 0.2
;Holesize 1 = 0.889 mm
T01C0.889
;Holesize 2 = 0.900 mm
T02C0.900
;Holesize 3 = 0.915 mm
T03C0.915
;Holesize 4 = 1.000 mm
T04C1.000
;Holesize 5 = 1.050 mm
T05C1.050
;Holesize 6 = 1.101 mm
T06C1.101
;Holesize 7 = 1.200 mm
T07C1.200
%
G05
G90
T01
X037211Y062865
X039751Y062865
X006858Y015367
X006858Y012827
X006858Y010287
X006858Y007747
X032385Y042545
X012700Y042545
X089281Y060579
X096012Y060706
X101854Y060706
T02
X078613Y044069
X086233Y044069
T03
X011811Y036195
X014351Y036195
X016891Y036195
X019431Y036195
X021971Y036195
X024511Y036195
X027051Y036195
X029591Y036195
X029591Y023495
X027051Y023495
X024511Y023495
X021971Y023495
X019431Y023495
X016891Y023495
X014351Y023495
X011811Y023495
X035179Y036322
X037719Y036322
X040259Y036322
X042799Y036322
X045339Y036322
X047879Y036322
X050419Y036322
X052959Y036322
X052959Y023622
X050419Y023622
X047879Y023622
X045339Y023622
X042799Y023622
X040259Y023622
X037719Y023622
X035179Y023622
X060071Y036195
X062611Y036195
X065151Y036195
X067691Y036195
X070231Y036195
X072771Y036195
X075311Y036195
X077851Y036195
X077851Y023495
X075311Y023495
X072771Y023495
X070231Y023495
X067691Y023495
X065151Y023495
X062611Y023495
X060071Y023495
X084074Y036068
X086614Y036068
X089154Y036068
X091694Y036068
X094234Y036068
X096774Y036068
X099314Y036068
X101854Y036068
X101854Y023368
X099314Y023368
X096774Y023368
X094234Y023368
X091694Y023368
X089154Y023368
X086614Y023368
X084074Y023368
T04
X010668Y048514
X013208Y048514
X015748Y048514
X018288Y048514
X020828Y048514
X023368Y048514
X025908Y048514
X028448Y048514
X028448Y063881
X025908Y063881
X023368Y063881
X020828Y063881
X018288Y063881
X015748Y063881
X013208Y063881
X010668Y063881
X028448Y053594
X028448Y056134
X028448Y058674
T05
X047438Y011684
X044938Y011684
X042438Y011684
X039938Y011684
X072330Y011684
X069830Y011684
X067330Y011684
X064830Y011684
X096968Y011684
X094468Y011684
X091968Y011684
X089468Y011684
X024577Y011685
X022077Y011685
X019577Y011685
X017077Y011685
T06
X090698Y048133
X093200Y048133
X077598Y050692
X077598Y053194
X067946Y050692
X067946Y053194
X058421Y050692
X058421Y053194
X048769Y050692
X048769Y053194
T07
X076494Y061722
X078994Y061722
X081494Y061722
X005461Y022519
X005461Y025019
X005461Y027519
M30
