G04 Layer: TopLayer*
G04 EasyEDA v6.5.22, 2023-02-28 18:31:49*
G04 0f5abc17f4e243e5a26b6cc200d52bdd,5d2348555bc34ac8837521f0f1db218d,10*
G04 Gerber Generator version 0.2*
G04 Scale: 100 percent, Rotated: No, Reflected: No *
G04 Dimensions in millimeters *
G04 leading zeros omitted , absolute positions ,4 integer and 5 decimal *
%FSLAX45Y45*%
%MOMM*%

%AMMACRO1*21,1,$1,$2,0,0,$3*%
%ADD10C,1.0000*%
%ADD11C,0.2540*%
%ADD12MACRO1,0.864X0.8065X-90.0000*%
%ADD13MACRO1,0.864X0.8065X90.0000*%
%ADD14R,1.5748X1.5748*%
%ADD15C,1.5748*%
%ADD16C,1.8000*%
%ADD17R,1.5000X1.5000*%
%ADD18C,1.7000*%
%ADD19C,1.8796*%
%ADD20C,1.5240*%
%ADD21R,3.0000X3.0000*%
%ADD22R,0.0137X3.0000*%

%LPD*%
G36*
X74168Y325882D02*
G01*
X70256Y326644D01*
X67005Y328879D01*
X64769Y332130D01*
X64008Y336042D01*
X64008Y6863842D01*
X64769Y6867753D01*
X67005Y6871004D01*
X70256Y6873240D01*
X74168Y6874002D01*
X10809732Y6874002D01*
X10813643Y6873240D01*
X10816894Y6871004D01*
X10819130Y6867753D01*
X10819892Y6863842D01*
X10819892Y336042D01*
X10819130Y332130D01*
X10816894Y328879D01*
X10813643Y326644D01*
X10809732Y325882D01*
G37*

%LPC*%
G36*
X7232650Y3527704D02*
G01*
X7232650Y3575050D01*
X7185304Y3575050D01*
X7191044Y3564585D01*
X7199122Y3553612D01*
X7208621Y3543808D01*
X7219340Y3535324D01*
X7231075Y3528364D01*
G37*
G36*
X3616451Y6332220D02*
G01*
X3675379Y6332220D01*
X3675379Y6391148D01*
X3642918Y6391148D01*
X3636619Y6390436D01*
X3631133Y6388506D01*
X3626256Y6385458D01*
X3622141Y6381343D01*
X3619093Y6376466D01*
X3617163Y6370980D01*
X3616451Y6364681D01*
G37*
G36*
X2770378Y6287211D02*
G01*
X2919222Y6287211D01*
X2925572Y6287922D01*
X2931007Y6289802D01*
X2935935Y6292900D01*
X2939999Y6296964D01*
X2943098Y6301892D01*
X2944977Y6307328D01*
X2945688Y6313678D01*
X2945688Y6462522D01*
X2944977Y6468872D01*
X2943098Y6474307D01*
X2939999Y6479235D01*
X2935935Y6483299D01*
X2931007Y6486398D01*
X2925572Y6488277D01*
X2919222Y6488988D01*
X2770378Y6488988D01*
X2764028Y6488277D01*
X2758592Y6486398D01*
X2753664Y6483299D01*
X2749600Y6479235D01*
X2746502Y6474307D01*
X2744622Y6468872D01*
X2743911Y6462522D01*
X2743911Y6313678D01*
X2744622Y6307328D01*
X2746502Y6301892D01*
X2749600Y6296964D01*
X2753664Y6292900D01*
X2758592Y6289802D01*
X2764028Y6287922D01*
G37*
G36*
X2516378Y6287211D02*
G01*
X2665222Y6287211D01*
X2671572Y6287922D01*
X2677007Y6289802D01*
X2681935Y6292900D01*
X2685999Y6296964D01*
X2689098Y6301892D01*
X2690977Y6307328D01*
X2691688Y6313678D01*
X2691688Y6462522D01*
X2690977Y6468872D01*
X2689098Y6474307D01*
X2685999Y6479235D01*
X2681935Y6483299D01*
X2677007Y6486398D01*
X2671572Y6488277D01*
X2665222Y6488988D01*
X2516378Y6488988D01*
X2510028Y6488277D01*
X2504592Y6486398D01*
X2499664Y6483299D01*
X2495600Y6479235D01*
X2492502Y6474307D01*
X2490622Y6468872D01*
X2489911Y6462522D01*
X2489911Y6313678D01*
X2490622Y6307328D01*
X2492502Y6301892D01*
X2495600Y6296964D01*
X2499664Y6292900D01*
X2504592Y6289802D01*
X2510028Y6287922D01*
G37*
G36*
X2008378Y6287211D02*
G01*
X2157222Y6287211D01*
X2163572Y6287922D01*
X2169007Y6289802D01*
X2173935Y6292900D01*
X2177999Y6296964D01*
X2181098Y6301892D01*
X2182977Y6307328D01*
X2183688Y6313678D01*
X2183688Y6462522D01*
X2182977Y6468872D01*
X2181098Y6474307D01*
X2177999Y6479235D01*
X2173935Y6483299D01*
X2169007Y6486398D01*
X2163572Y6488277D01*
X2157222Y6488988D01*
X2008378Y6488988D01*
X2002028Y6488277D01*
X1996592Y6486398D01*
X1991664Y6483299D01*
X1987600Y6479235D01*
X1984502Y6474307D01*
X1982622Y6468872D01*
X1981911Y6462522D01*
X1981911Y6313678D01*
X1982622Y6307328D01*
X1984502Y6301892D01*
X1987600Y6296964D01*
X1991664Y6292900D01*
X1996592Y6289802D01*
X2002028Y6287922D01*
G37*
G36*
X685800Y670052D02*
G01*
X699465Y670966D01*
X712876Y673658D01*
X725830Y678027D01*
X738124Y684072D01*
X749503Y691692D01*
X759764Y700735D01*
X768807Y710996D01*
X776427Y722376D01*
X782472Y734669D01*
X786841Y747623D01*
X789533Y761034D01*
X790448Y774700D01*
X789533Y788365D01*
X786841Y801776D01*
X782472Y814730D01*
X776427Y827024D01*
X768807Y838403D01*
X759764Y848664D01*
X749503Y857707D01*
X738124Y865327D01*
X725830Y871372D01*
X712876Y875741D01*
X699465Y878433D01*
X685800Y879348D01*
X672134Y878433D01*
X658723Y875741D01*
X645769Y871372D01*
X633476Y865327D01*
X622096Y857707D01*
X611835Y848664D01*
X602792Y838403D01*
X595172Y827024D01*
X589127Y814730D01*
X584758Y801776D01*
X582066Y788365D01*
X581152Y774700D01*
X582066Y761034D01*
X584758Y747623D01*
X589127Y734669D01*
X595172Y722376D01*
X602792Y710996D01*
X611835Y700735D01*
X622096Y691692D01*
X633476Y684072D01*
X645769Y678027D01*
X658723Y673658D01*
X672134Y670966D01*
G37*
G36*
X1754378Y6287211D02*
G01*
X1903222Y6287211D01*
X1909572Y6287922D01*
X1915007Y6289802D01*
X1919935Y6292900D01*
X1923999Y6296964D01*
X1927098Y6301892D01*
X1928977Y6307328D01*
X1929688Y6313678D01*
X1929688Y6462522D01*
X1928977Y6468872D01*
X1927098Y6474307D01*
X1923999Y6479235D01*
X1919935Y6483299D01*
X1915007Y6486398D01*
X1909572Y6488277D01*
X1903222Y6488988D01*
X1754378Y6488988D01*
X1748028Y6488277D01*
X1742592Y6486398D01*
X1737664Y6483299D01*
X1733600Y6479235D01*
X1730502Y6474307D01*
X1728622Y6468872D01*
X1727911Y6462522D01*
X1727911Y6313678D01*
X1728622Y6307328D01*
X1730502Y6301892D01*
X1733600Y6296964D01*
X1737664Y6292900D01*
X1742592Y6289802D01*
X1748028Y6287922D01*
G37*
G36*
X6729425Y1057554D02*
G01*
X6743649Y1058011D01*
X6757670Y1060297D01*
X6771284Y1064310D01*
X6784289Y1070102D01*
X6796430Y1077468D01*
X6807555Y1086307D01*
X6817410Y1096518D01*
X6825945Y1107897D01*
X6832904Y1120292D01*
X6838238Y1133449D01*
X6841845Y1147216D01*
X6843674Y1161288D01*
X6843674Y1175512D01*
X6841845Y1189583D01*
X6838238Y1203350D01*
X6832904Y1216507D01*
X6825945Y1228902D01*
X6817410Y1240282D01*
X6807555Y1250492D01*
X6796430Y1259332D01*
X6784289Y1266698D01*
X6771284Y1272438D01*
X6757670Y1276502D01*
X6743649Y1278788D01*
X6729425Y1279245D01*
X6715302Y1277874D01*
X6701434Y1274724D01*
X6688124Y1269796D01*
X6675526Y1263243D01*
X6663842Y1255115D01*
X6653326Y1245565D01*
X6644131Y1234744D01*
X6636359Y1222806D01*
X6630212Y1210005D01*
X6625742Y1196543D01*
X6622999Y1182573D01*
X6622135Y1168400D01*
X6622999Y1154226D01*
X6625742Y1140256D01*
X6630212Y1126794D01*
X6636359Y1113993D01*
X6644131Y1102055D01*
X6653326Y1091234D01*
X6663842Y1081684D01*
X6675526Y1073556D01*
X6688124Y1067003D01*
X6701434Y1062075D01*
X6715302Y1058926D01*
G37*
G36*
X4240225Y1057554D02*
G01*
X4254449Y1058011D01*
X4268470Y1060297D01*
X4282084Y1064310D01*
X4295089Y1070102D01*
X4307230Y1077468D01*
X4318355Y1086307D01*
X4328210Y1096518D01*
X4336745Y1107897D01*
X4343704Y1120292D01*
X4349038Y1133449D01*
X4352645Y1147216D01*
X4354474Y1161288D01*
X4354474Y1175512D01*
X4352645Y1189583D01*
X4349038Y1203350D01*
X4343704Y1216507D01*
X4336745Y1228902D01*
X4328210Y1240282D01*
X4318355Y1250492D01*
X4307230Y1259332D01*
X4295089Y1266698D01*
X4282084Y1272438D01*
X4268470Y1276502D01*
X4254449Y1278788D01*
X4240225Y1279245D01*
X4226102Y1277874D01*
X4212234Y1274724D01*
X4198924Y1269796D01*
X4186326Y1263243D01*
X4174642Y1255115D01*
X4164126Y1245565D01*
X4154932Y1234744D01*
X4147159Y1222806D01*
X4141012Y1210005D01*
X4136542Y1196543D01*
X4133799Y1182573D01*
X4132935Y1168400D01*
X4133799Y1154226D01*
X4136542Y1140256D01*
X4141012Y1126794D01*
X4147159Y1113993D01*
X4154932Y1102055D01*
X4164126Y1091234D01*
X4174642Y1081684D01*
X4186326Y1073556D01*
X4198924Y1067003D01*
X4212234Y1062075D01*
X4226102Y1058926D01*
G37*
G36*
X9193225Y1057554D02*
G01*
X9207449Y1058011D01*
X9221470Y1060297D01*
X9235084Y1064310D01*
X9248089Y1070102D01*
X9260230Y1077468D01*
X9271355Y1086307D01*
X9281210Y1096518D01*
X9289745Y1107897D01*
X9296704Y1120292D01*
X9302038Y1133449D01*
X9305645Y1147216D01*
X9307474Y1161288D01*
X9307474Y1175512D01*
X9305645Y1189583D01*
X9302038Y1203350D01*
X9296704Y1216507D01*
X9289745Y1228902D01*
X9281210Y1240282D01*
X9271355Y1250492D01*
X9260230Y1259332D01*
X9248089Y1266698D01*
X9235084Y1272438D01*
X9221470Y1276502D01*
X9207449Y1278788D01*
X9193225Y1279245D01*
X9179102Y1277874D01*
X9165234Y1274724D01*
X9151924Y1269796D01*
X9139326Y1263243D01*
X9127642Y1255115D01*
X9117126Y1245565D01*
X9107932Y1234744D01*
X9100159Y1222806D01*
X9094012Y1210005D01*
X9089542Y1196543D01*
X9086799Y1182573D01*
X9085935Y1168400D01*
X9086799Y1154226D01*
X9089542Y1140256D01*
X9094012Y1126794D01*
X9100159Y1113993D01*
X9107932Y1102055D01*
X9117126Y1091234D01*
X9127642Y1081684D01*
X9139326Y1073556D01*
X9151924Y1067003D01*
X9165234Y1062075D01*
X9179102Y1058926D01*
G37*
G36*
X9443262Y1057554D02*
G01*
X9457436Y1058011D01*
X9471456Y1060297D01*
X9485071Y1064310D01*
X9498076Y1070102D01*
X9510217Y1077468D01*
X9521342Y1086307D01*
X9531248Y1096518D01*
X9539732Y1107897D01*
X9546691Y1120292D01*
X9552025Y1133449D01*
X9555632Y1147216D01*
X9557461Y1161288D01*
X9557461Y1175512D01*
X9555632Y1189583D01*
X9552025Y1203350D01*
X9546691Y1216507D01*
X9539732Y1228902D01*
X9531248Y1240282D01*
X9521342Y1250492D01*
X9510217Y1259332D01*
X9498076Y1266698D01*
X9485071Y1272438D01*
X9471456Y1276502D01*
X9457436Y1278788D01*
X9443262Y1279245D01*
X9429089Y1277874D01*
X9415272Y1274724D01*
X9401911Y1269796D01*
X9389313Y1263243D01*
X9377680Y1255115D01*
X9367164Y1245565D01*
X9357918Y1234744D01*
X9350197Y1222806D01*
X9343999Y1210005D01*
X9339529Y1196543D01*
X9336836Y1182573D01*
X9335922Y1168400D01*
X9336836Y1154226D01*
X9339529Y1140256D01*
X9343999Y1126794D01*
X9350197Y1113993D01*
X9357918Y1102055D01*
X9367164Y1091234D01*
X9377680Y1081684D01*
X9389313Y1073556D01*
X9401911Y1067003D01*
X9415272Y1062075D01*
X9429089Y1058926D01*
G37*
G36*
X6979462Y1057554D02*
G01*
X6993636Y1058011D01*
X7007656Y1060297D01*
X7021271Y1064310D01*
X7034275Y1070102D01*
X7046417Y1077468D01*
X7057542Y1086307D01*
X7067448Y1096518D01*
X7075931Y1107897D01*
X7082891Y1120292D01*
X7088225Y1133449D01*
X7091832Y1147216D01*
X7093661Y1161288D01*
X7093661Y1175512D01*
X7091832Y1189583D01*
X7088225Y1203350D01*
X7082891Y1216507D01*
X7075931Y1228902D01*
X7067448Y1240282D01*
X7057542Y1250492D01*
X7046417Y1259332D01*
X7034275Y1266698D01*
X7021271Y1272438D01*
X7007656Y1276502D01*
X6993636Y1278788D01*
X6979462Y1279245D01*
X6965289Y1277874D01*
X6951472Y1274724D01*
X6938111Y1269796D01*
X6925513Y1263243D01*
X6913880Y1255115D01*
X6903364Y1245565D01*
X6894118Y1234744D01*
X6886397Y1222806D01*
X6880199Y1210005D01*
X6875729Y1196543D01*
X6873036Y1182573D01*
X6872122Y1168400D01*
X6873036Y1154226D01*
X6875729Y1140256D01*
X6880199Y1126794D01*
X6886397Y1113993D01*
X6894118Y1102055D01*
X6903364Y1091234D01*
X6913880Y1081684D01*
X6925513Y1073556D01*
X6938111Y1067003D01*
X6951472Y1062075D01*
X6965289Y1058926D01*
G37*
G36*
X4490262Y1057554D02*
G01*
X4504436Y1058011D01*
X4518456Y1060297D01*
X4532071Y1064310D01*
X4545076Y1070102D01*
X4557217Y1077468D01*
X4568342Y1086307D01*
X4578248Y1096518D01*
X4586732Y1107897D01*
X4593691Y1120292D01*
X4599025Y1133449D01*
X4602632Y1147216D01*
X4604461Y1161288D01*
X4604461Y1175512D01*
X4602632Y1189583D01*
X4599025Y1203350D01*
X4593691Y1216507D01*
X4586732Y1228902D01*
X4578248Y1240282D01*
X4568342Y1250492D01*
X4557217Y1259332D01*
X4545076Y1266698D01*
X4532071Y1272438D01*
X4518456Y1276502D01*
X4504436Y1278788D01*
X4490262Y1279245D01*
X4476089Y1277874D01*
X4462272Y1274724D01*
X4448911Y1269796D01*
X4436313Y1263243D01*
X4424680Y1255115D01*
X4414164Y1245565D01*
X4404918Y1234744D01*
X4397197Y1222806D01*
X4390999Y1210005D01*
X4386529Y1196543D01*
X4383836Y1182573D01*
X4382922Y1168400D01*
X4383836Y1154226D01*
X4386529Y1140256D01*
X4390999Y1126794D01*
X4397197Y1113993D01*
X4404918Y1102055D01*
X4414164Y1091234D01*
X4424680Y1081684D01*
X4436313Y1073556D01*
X4448911Y1067003D01*
X4462272Y1062075D01*
X4476089Y1058926D01*
G37*
G36*
X7229449Y1057554D02*
G01*
X7243673Y1058011D01*
X7257694Y1060297D01*
X7271308Y1064310D01*
X7284313Y1070102D01*
X7296454Y1077468D01*
X7307529Y1086307D01*
X7317435Y1096518D01*
X7325918Y1107897D01*
X7332929Y1120292D01*
X7338263Y1133449D01*
X7341819Y1147216D01*
X7343648Y1161288D01*
X7343648Y1175512D01*
X7341819Y1189583D01*
X7338263Y1203350D01*
X7332929Y1216507D01*
X7325918Y1228902D01*
X7317435Y1240282D01*
X7311796Y1246124D01*
X7309662Y1249375D01*
X7308900Y1253185D01*
X7308850Y1710436D01*
X7308037Y1719275D01*
X7307630Y1721713D01*
X7305497Y1730349D01*
X7304735Y1732686D01*
X7301331Y1740916D01*
X7300214Y1743100D01*
X7295642Y1750720D01*
X7294219Y1752701D01*
X7288530Y1759559D01*
X7101992Y1946148D01*
X7099757Y1949450D01*
X7098995Y1953361D01*
X7098995Y2277465D01*
X7099503Y2280666D01*
X7100976Y2283510D01*
X7109155Y2294585D01*
X7115708Y2306523D01*
X7120585Y2319274D01*
X7123785Y2332532D01*
X7125106Y2346096D01*
X7124649Y2359710D01*
X7122414Y2373172D01*
X7118350Y2386177D01*
X7112609Y2398572D01*
X7105294Y2410053D01*
X7096506Y2420467D01*
X7086346Y2429611D01*
X7075119Y2437333D01*
X7062978Y2443480D01*
X7050074Y2447950D01*
X7036714Y2450693D01*
X7023100Y2451608D01*
X7009485Y2450693D01*
X6996125Y2447950D01*
X6983222Y2443480D01*
X6971080Y2437333D01*
X6959853Y2429611D01*
X6949694Y2420467D01*
X6940905Y2410053D01*
X6933590Y2398572D01*
X6927850Y2386177D01*
X6923786Y2373172D01*
X6921550Y2359710D01*
X6921093Y2346096D01*
X6922414Y2332532D01*
X6925614Y2319274D01*
X6930491Y2306523D01*
X6937044Y2294585D01*
X6945223Y2283510D01*
X6946696Y2280666D01*
X6947204Y2277465D01*
X6947255Y1915058D01*
X6948068Y1906219D01*
X6948474Y1903780D01*
X6950608Y1895144D01*
X6951370Y1892807D01*
X6954774Y1884578D01*
X6955891Y1882393D01*
X6960514Y1874774D01*
X6967575Y1865934D01*
X7154113Y1679346D01*
X7156348Y1676044D01*
X7157110Y1672132D01*
X7157110Y1253439D01*
X7156246Y1249324D01*
X7153351Y1245565D01*
X7144156Y1234744D01*
X7136384Y1222806D01*
X7130237Y1210005D01*
X7125716Y1196543D01*
X7123023Y1182573D01*
X7122109Y1168400D01*
X7123023Y1154226D01*
X7125716Y1140256D01*
X7130237Y1126794D01*
X7136384Y1113993D01*
X7144156Y1102055D01*
X7153351Y1091234D01*
X7163866Y1081684D01*
X7175500Y1073556D01*
X7188098Y1067003D01*
X7201458Y1062075D01*
X7215327Y1058926D01*
G37*
G36*
X4740249Y1057554D02*
G01*
X4754473Y1058011D01*
X4768494Y1060297D01*
X4782108Y1064310D01*
X4795113Y1070102D01*
X4807254Y1077468D01*
X4818329Y1086307D01*
X4828235Y1096518D01*
X4836718Y1107897D01*
X4843729Y1120292D01*
X4849063Y1133449D01*
X4852619Y1147216D01*
X4854448Y1161288D01*
X4854448Y1175512D01*
X4852619Y1189583D01*
X4849063Y1203350D01*
X4843729Y1216507D01*
X4836718Y1228902D01*
X4828235Y1240282D01*
X4822494Y1246225D01*
X4820361Y1249476D01*
X4819599Y1253286D01*
X4819548Y1621637D01*
X4818735Y1630476D01*
X4818329Y1632915D01*
X4816195Y1641551D01*
X4815433Y1643888D01*
X4812030Y1652117D01*
X4810912Y1654302D01*
X4806289Y1661922D01*
X4799228Y1670761D01*
X4612792Y1857248D01*
X4610557Y1860550D01*
X4609795Y1864461D01*
X4609795Y2290165D01*
X4610303Y2293366D01*
X4611776Y2296210D01*
X4619955Y2307285D01*
X4626508Y2319223D01*
X4631385Y2331974D01*
X4634585Y2345232D01*
X4635906Y2358796D01*
X4635449Y2372410D01*
X4633214Y2385872D01*
X4629150Y2398877D01*
X4623409Y2411272D01*
X4616094Y2422753D01*
X4607306Y2433167D01*
X4597146Y2442311D01*
X4585919Y2450033D01*
X4573778Y2456180D01*
X4560874Y2460650D01*
X4547514Y2463393D01*
X4533900Y2464308D01*
X4520285Y2463393D01*
X4506925Y2460650D01*
X4494022Y2456180D01*
X4481880Y2450033D01*
X4470654Y2442311D01*
X4460494Y2433167D01*
X4451705Y2422753D01*
X4444390Y2411272D01*
X4438650Y2398877D01*
X4434586Y2385872D01*
X4432350Y2372410D01*
X4431893Y2358796D01*
X4433214Y2345232D01*
X4436414Y2331974D01*
X4441291Y2319223D01*
X4447844Y2307285D01*
X4456023Y2296210D01*
X4457496Y2293366D01*
X4458004Y2290165D01*
X4458055Y1826158D01*
X4458868Y1817319D01*
X4459274Y1814880D01*
X4461408Y1806244D01*
X4462170Y1803907D01*
X4465574Y1795678D01*
X4466691Y1793493D01*
X4471314Y1785874D01*
X4478375Y1777034D01*
X4664811Y1590548D01*
X4667046Y1587246D01*
X4667808Y1583334D01*
X4667808Y1253337D01*
X4666945Y1249222D01*
X4664151Y1245565D01*
X4654956Y1234744D01*
X4647184Y1222806D01*
X4641037Y1210005D01*
X4636516Y1196543D01*
X4633823Y1182573D01*
X4632909Y1168400D01*
X4633823Y1154226D01*
X4636516Y1140256D01*
X4641037Y1126794D01*
X4647184Y1113993D01*
X4654956Y1102055D01*
X4664151Y1091234D01*
X4674666Y1081684D01*
X4686300Y1073556D01*
X4698898Y1067003D01*
X4712258Y1062075D01*
X4726127Y1058926D01*
G37*
G36*
X8943238Y1057554D02*
G01*
X8957462Y1058011D01*
X8971483Y1060297D01*
X8985097Y1064310D01*
X8998102Y1070102D01*
X9010243Y1077468D01*
X9021368Y1086307D01*
X9031224Y1096518D01*
X9039707Y1107897D01*
X9046718Y1120292D01*
X9052052Y1133449D01*
X9055658Y1147216D01*
X9057436Y1161288D01*
X9057436Y1175512D01*
X9055658Y1189583D01*
X9052052Y1203350D01*
X9046718Y1216507D01*
X9039707Y1228902D01*
X9031224Y1240282D01*
X9025686Y1246022D01*
X9023553Y1249273D01*
X9022791Y1253083D01*
X9022791Y1608734D01*
X9023553Y1612646D01*
X9025788Y1615948D01*
X9224924Y1815134D01*
X9231985Y1823974D01*
X9236608Y1831593D01*
X9237726Y1833778D01*
X9241129Y1842007D01*
X9241891Y1844344D01*
X9244025Y1852980D01*
X9244431Y1855419D01*
X9245244Y1864258D01*
X9245295Y2264765D01*
X9245803Y2267966D01*
X9247276Y2270810D01*
X9255455Y2281885D01*
X9262008Y2293823D01*
X9266885Y2306574D01*
X9270085Y2319832D01*
X9271406Y2333396D01*
X9270949Y2347010D01*
X9268714Y2360472D01*
X9264650Y2373477D01*
X9258909Y2385872D01*
X9251594Y2397353D01*
X9242806Y2407767D01*
X9232646Y2416911D01*
X9221419Y2424633D01*
X9209278Y2430780D01*
X9196374Y2435250D01*
X9183014Y2437993D01*
X9169400Y2438908D01*
X9155785Y2437993D01*
X9142425Y2435250D01*
X9129522Y2430780D01*
X9117380Y2424633D01*
X9106154Y2416911D01*
X9095994Y2407767D01*
X9087205Y2397353D01*
X9079890Y2385872D01*
X9074150Y2373477D01*
X9070086Y2360472D01*
X9067850Y2347010D01*
X9067393Y2333396D01*
X9068714Y2319832D01*
X9071914Y2306574D01*
X9076791Y2293823D01*
X9083344Y2281885D01*
X9091523Y2270810D01*
X9092996Y2267966D01*
X9093504Y2264765D01*
X9093504Y1902561D01*
X9092742Y1898650D01*
X9090507Y1895348D01*
X8891371Y1696161D01*
X8884310Y1687322D01*
X8879687Y1679702D01*
X8878570Y1677517D01*
X8875166Y1669288D01*
X8874404Y1666951D01*
X8872270Y1658315D01*
X8871864Y1655876D01*
X8871051Y1647037D01*
X8871000Y1253540D01*
X8870137Y1249426D01*
X8867140Y1245565D01*
X8857945Y1234744D01*
X8850172Y1222806D01*
X8844026Y1210005D01*
X8839555Y1196543D01*
X8836812Y1182573D01*
X8835898Y1168400D01*
X8836812Y1154226D01*
X8839555Y1140256D01*
X8844026Y1126794D01*
X8850172Y1113993D01*
X8857945Y1102055D01*
X8867140Y1091234D01*
X8877655Y1081684D01*
X8889339Y1073556D01*
X8901938Y1067003D01*
X8915247Y1062075D01*
X8929116Y1058926D01*
G37*
G36*
X9693249Y1057554D02*
G01*
X9707473Y1058011D01*
X9721494Y1060297D01*
X9735108Y1064310D01*
X9748113Y1070102D01*
X9760254Y1077468D01*
X9771329Y1086307D01*
X9781235Y1096518D01*
X9789718Y1107897D01*
X9796729Y1120292D01*
X9802063Y1133449D01*
X9805619Y1147216D01*
X9807448Y1161288D01*
X9807448Y1175512D01*
X9805619Y1189583D01*
X9802063Y1203350D01*
X9796729Y1216507D01*
X9789718Y1228902D01*
X9781235Y1240282D01*
X9775596Y1246124D01*
X9773462Y1249375D01*
X9772700Y1253185D01*
X9772650Y1621536D01*
X9771837Y1630375D01*
X9771430Y1632813D01*
X9769297Y1641449D01*
X9768535Y1643786D01*
X9765131Y1652016D01*
X9764014Y1654200D01*
X9759442Y1661820D01*
X9758019Y1663801D01*
X9752330Y1670659D01*
X9502292Y1920748D01*
X9500057Y1924050D01*
X9499295Y1927961D01*
X9499295Y2264765D01*
X9499803Y2267966D01*
X9501276Y2270810D01*
X9509455Y2281885D01*
X9516008Y2293823D01*
X9520885Y2306574D01*
X9524085Y2319832D01*
X9525406Y2333396D01*
X9524949Y2347010D01*
X9522714Y2360472D01*
X9518650Y2373477D01*
X9512909Y2385872D01*
X9505594Y2397353D01*
X9496806Y2407767D01*
X9486646Y2416911D01*
X9475419Y2424633D01*
X9463278Y2430780D01*
X9450374Y2435250D01*
X9437014Y2437993D01*
X9423400Y2438908D01*
X9409785Y2437993D01*
X9396425Y2435250D01*
X9383522Y2430780D01*
X9371380Y2424633D01*
X9360154Y2416911D01*
X9349994Y2407767D01*
X9341205Y2397353D01*
X9333890Y2385872D01*
X9328150Y2373477D01*
X9324086Y2360472D01*
X9321850Y2347010D01*
X9321393Y2333396D01*
X9322714Y2319832D01*
X9325914Y2306574D01*
X9330791Y2293823D01*
X9337344Y2281885D01*
X9345523Y2270810D01*
X9346996Y2267966D01*
X9347504Y2264765D01*
X9347555Y1889658D01*
X9348368Y1880819D01*
X9348774Y1878380D01*
X9350908Y1869744D01*
X9351670Y1867407D01*
X9355074Y1859178D01*
X9356191Y1856993D01*
X9360814Y1849374D01*
X9367875Y1840534D01*
X9617913Y1590446D01*
X9620148Y1587144D01*
X9620910Y1583232D01*
X9620910Y1253439D01*
X9620046Y1249324D01*
X9617151Y1245565D01*
X9607956Y1234744D01*
X9600184Y1222806D01*
X9594037Y1210005D01*
X9589516Y1196543D01*
X9586823Y1182573D01*
X9585909Y1168400D01*
X9586823Y1154226D01*
X9589516Y1140256D01*
X9594037Y1126794D01*
X9600184Y1113993D01*
X9607956Y1102055D01*
X9617151Y1091234D01*
X9627666Y1081684D01*
X9639300Y1073556D01*
X9651898Y1067003D01*
X9665258Y1062075D01*
X9679127Y1058926D01*
G37*
G36*
X6479438Y1057554D02*
G01*
X6493662Y1058011D01*
X6507683Y1060297D01*
X6521297Y1064310D01*
X6534302Y1070102D01*
X6546443Y1077468D01*
X6557568Y1086307D01*
X6567424Y1096518D01*
X6575907Y1107897D01*
X6582918Y1120292D01*
X6588252Y1133449D01*
X6591858Y1147216D01*
X6593636Y1161288D01*
X6593636Y1175512D01*
X6591858Y1189583D01*
X6588252Y1203350D01*
X6582918Y1216507D01*
X6575907Y1228902D01*
X6567424Y1240282D01*
X6561886Y1246022D01*
X6559753Y1249273D01*
X6558991Y1253083D01*
X6558991Y1596034D01*
X6559753Y1599946D01*
X6561988Y1603248D01*
X6824624Y1865934D01*
X6831685Y1874774D01*
X6836308Y1882393D01*
X6837425Y1884578D01*
X6840829Y1892807D01*
X6841591Y1895144D01*
X6843725Y1903780D01*
X6844131Y1906219D01*
X6844944Y1915058D01*
X6844995Y2277465D01*
X6845503Y2280666D01*
X6846976Y2283510D01*
X6855155Y2294585D01*
X6861708Y2306523D01*
X6866585Y2319274D01*
X6869785Y2332532D01*
X6871106Y2346096D01*
X6870649Y2359710D01*
X6868414Y2373172D01*
X6864350Y2386177D01*
X6858609Y2398572D01*
X6851294Y2410053D01*
X6842506Y2420467D01*
X6832346Y2429611D01*
X6821119Y2437333D01*
X6808978Y2443480D01*
X6796074Y2447950D01*
X6782714Y2450693D01*
X6769100Y2451608D01*
X6755485Y2450693D01*
X6742125Y2447950D01*
X6729222Y2443480D01*
X6717080Y2437333D01*
X6705853Y2429611D01*
X6695694Y2420467D01*
X6686905Y2410053D01*
X6679590Y2398572D01*
X6673850Y2386177D01*
X6669786Y2373172D01*
X6667550Y2359710D01*
X6667093Y2346096D01*
X6668414Y2332532D01*
X6671614Y2319274D01*
X6676491Y2306523D01*
X6683044Y2294585D01*
X6691223Y2283510D01*
X6692696Y2280666D01*
X6693204Y2277465D01*
X6693204Y1953361D01*
X6692442Y1949450D01*
X6690207Y1946148D01*
X6427571Y1683461D01*
X6420510Y1674622D01*
X6415887Y1667002D01*
X6414770Y1664817D01*
X6411366Y1656588D01*
X6410604Y1654251D01*
X6408470Y1645615D01*
X6408064Y1643176D01*
X6407251Y1634337D01*
X6407200Y1253540D01*
X6406337Y1249426D01*
X6403340Y1245565D01*
X6394145Y1234744D01*
X6386372Y1222806D01*
X6380226Y1210005D01*
X6375755Y1196543D01*
X6373012Y1182573D01*
X6372098Y1168400D01*
X6373012Y1154226D01*
X6375755Y1140256D01*
X6380226Y1126794D01*
X6386372Y1113993D01*
X6394145Y1102055D01*
X6403340Y1091234D01*
X6413855Y1081684D01*
X6425539Y1073556D01*
X6438138Y1067003D01*
X6451447Y1062075D01*
X6465316Y1058926D01*
G37*
G36*
X3990238Y1057554D02*
G01*
X4004462Y1058011D01*
X4018483Y1060297D01*
X4032097Y1064310D01*
X4045102Y1070102D01*
X4057243Y1077468D01*
X4068368Y1086307D01*
X4078224Y1096518D01*
X4086707Y1107897D01*
X4093718Y1120292D01*
X4099051Y1133449D01*
X4102658Y1147216D01*
X4104436Y1161288D01*
X4104436Y1175512D01*
X4102658Y1189583D01*
X4099051Y1203350D01*
X4093718Y1216507D01*
X4086707Y1228902D01*
X4078224Y1240282D01*
X4072686Y1246022D01*
X4070553Y1249273D01*
X4069791Y1253083D01*
X4069791Y1519834D01*
X4070553Y1523746D01*
X4072788Y1527048D01*
X4335424Y1789734D01*
X4342485Y1798574D01*
X4347108Y1806193D01*
X4348226Y1808378D01*
X4351629Y1816607D01*
X4352391Y1818944D01*
X4354525Y1827580D01*
X4354931Y1830019D01*
X4355744Y1838858D01*
X4355795Y2290165D01*
X4356303Y2293366D01*
X4357776Y2296210D01*
X4365955Y2307285D01*
X4372508Y2319223D01*
X4377385Y2331974D01*
X4380585Y2345232D01*
X4381906Y2358796D01*
X4381449Y2372410D01*
X4379214Y2385872D01*
X4375150Y2398877D01*
X4369409Y2411272D01*
X4362094Y2422753D01*
X4353306Y2433167D01*
X4343146Y2442311D01*
X4331919Y2450033D01*
X4319778Y2456180D01*
X4306874Y2460650D01*
X4293514Y2463393D01*
X4279900Y2464308D01*
X4266285Y2463393D01*
X4252925Y2460650D01*
X4240022Y2456180D01*
X4227880Y2450033D01*
X4216654Y2442311D01*
X4206494Y2433167D01*
X4197705Y2422753D01*
X4190390Y2411272D01*
X4184650Y2398877D01*
X4180586Y2385872D01*
X4178350Y2372410D01*
X4177893Y2358796D01*
X4179214Y2345232D01*
X4182414Y2331974D01*
X4187291Y2319223D01*
X4193844Y2307285D01*
X4202023Y2296210D01*
X4203496Y2293366D01*
X4204004Y2290165D01*
X4204004Y1877161D01*
X4203242Y1873250D01*
X4201007Y1869948D01*
X3938371Y1607261D01*
X3931310Y1598422D01*
X3926687Y1590802D01*
X3925570Y1588617D01*
X3922166Y1580388D01*
X3921404Y1578051D01*
X3919270Y1569415D01*
X3918864Y1566976D01*
X3918051Y1558137D01*
X3918000Y1253540D01*
X3917137Y1249426D01*
X3914140Y1245565D01*
X3904945Y1234744D01*
X3897172Y1222806D01*
X3891026Y1210005D01*
X3886555Y1196543D01*
X3883812Y1182573D01*
X3882898Y1168400D01*
X3883812Y1154226D01*
X3886555Y1140256D01*
X3891026Y1126794D01*
X3897172Y1113993D01*
X3904945Y1102055D01*
X3914140Y1091234D01*
X3924655Y1081684D01*
X3936339Y1073556D01*
X3948937Y1067003D01*
X3962247Y1062075D01*
X3976115Y1058926D01*
G37*
G36*
X1954123Y1057656D02*
G01*
X1968347Y1058113D01*
X1982368Y1060399D01*
X1995982Y1064412D01*
X2008987Y1070203D01*
X2021128Y1077569D01*
X2032254Y1086408D01*
X2042109Y1096619D01*
X2050643Y1107998D01*
X2057603Y1120394D01*
X2062937Y1133551D01*
X2066543Y1147318D01*
X2068372Y1161389D01*
X2068372Y1175613D01*
X2066543Y1189685D01*
X2062937Y1203452D01*
X2057603Y1216609D01*
X2050643Y1229004D01*
X2042109Y1240383D01*
X2032254Y1250594D01*
X2021128Y1259433D01*
X2008987Y1266799D01*
X1995982Y1272540D01*
X1982368Y1276604D01*
X1968347Y1278890D01*
X1954123Y1279296D01*
X1940001Y1277975D01*
X1926132Y1274775D01*
X1912823Y1269898D01*
X1900224Y1263294D01*
X1888540Y1255166D01*
X1878025Y1245616D01*
X1868830Y1234795D01*
X1861057Y1222908D01*
X1854911Y1210106D01*
X1850440Y1196594D01*
X1847697Y1182674D01*
X1846783Y1168501D01*
X1847697Y1154328D01*
X1850440Y1140358D01*
X1854911Y1126896D01*
X1861057Y1114094D01*
X1868830Y1102156D01*
X1878025Y1091336D01*
X1888540Y1081786D01*
X1900224Y1073658D01*
X1912823Y1067104D01*
X1926132Y1062177D01*
X1940001Y1059027D01*
G37*
G36*
X2204161Y1057656D02*
G01*
X2218334Y1058113D01*
X2232355Y1060399D01*
X2245969Y1064412D01*
X2258974Y1070203D01*
X2271115Y1077569D01*
X2282240Y1086408D01*
X2292146Y1096619D01*
X2300630Y1107998D01*
X2307590Y1120394D01*
X2312924Y1133551D01*
X2316530Y1147318D01*
X2318359Y1161389D01*
X2318359Y1175613D01*
X2316530Y1189685D01*
X2312924Y1203452D01*
X2307590Y1216609D01*
X2300630Y1229004D01*
X2292146Y1240383D01*
X2282240Y1250594D01*
X2271115Y1259433D01*
X2258974Y1266799D01*
X2245969Y1272540D01*
X2232355Y1276604D01*
X2218334Y1278890D01*
X2204161Y1279296D01*
X2189988Y1277975D01*
X2176119Y1274775D01*
X2162810Y1269898D01*
X2150211Y1263294D01*
X2138578Y1255166D01*
X2128012Y1245616D01*
X2118817Y1234795D01*
X2111095Y1222908D01*
X2104898Y1210106D01*
X2100427Y1196594D01*
X2097735Y1182674D01*
X2096820Y1168501D01*
X2097735Y1154328D01*
X2100427Y1140358D01*
X2104898Y1126896D01*
X2111095Y1114094D01*
X2118817Y1102156D01*
X2128012Y1091336D01*
X2138578Y1081786D01*
X2150211Y1073658D01*
X2162810Y1067104D01*
X2176119Y1062177D01*
X2189988Y1059027D01*
G37*
G36*
X1704136Y1057656D02*
G01*
X1718360Y1058113D01*
X1732381Y1060399D01*
X1745996Y1064412D01*
X1759000Y1070203D01*
X1771142Y1077569D01*
X1782267Y1086408D01*
X1792122Y1096619D01*
X1800606Y1107998D01*
X1807616Y1120394D01*
X1812950Y1133551D01*
X1816557Y1147318D01*
X1818335Y1161389D01*
X1818335Y1175613D01*
X1816557Y1189685D01*
X1812950Y1203452D01*
X1807616Y1216609D01*
X1800606Y1229004D01*
X1792122Y1240383D01*
X1786483Y1246225D01*
X1784350Y1249476D01*
X1783588Y1253286D01*
X1783588Y1659331D01*
X1784350Y1663242D01*
X1786585Y1666544D01*
X1998624Y1878634D01*
X2005685Y1887474D01*
X2010308Y1895093D01*
X2011425Y1897278D01*
X2014829Y1905507D01*
X2015591Y1907844D01*
X2017725Y1916480D01*
X2018131Y1918919D01*
X2018944Y1927758D01*
X2018995Y2277465D01*
X2019503Y2280666D01*
X2020976Y2283510D01*
X2029155Y2294585D01*
X2035708Y2306523D01*
X2040585Y2319274D01*
X2043785Y2332532D01*
X2045106Y2346096D01*
X2044649Y2359710D01*
X2042414Y2373172D01*
X2038350Y2386177D01*
X2032609Y2398572D01*
X2025294Y2410053D01*
X2016506Y2420467D01*
X2006346Y2429611D01*
X1995119Y2437333D01*
X1982978Y2443480D01*
X1970074Y2447950D01*
X1956714Y2450693D01*
X1943100Y2451608D01*
X1929485Y2450693D01*
X1916125Y2447950D01*
X1903222Y2443480D01*
X1891080Y2437333D01*
X1879854Y2429611D01*
X1869693Y2420467D01*
X1860905Y2410053D01*
X1853590Y2398572D01*
X1847850Y2386177D01*
X1843786Y2373172D01*
X1841550Y2359710D01*
X1841093Y2346096D01*
X1842414Y2332532D01*
X1845614Y2319274D01*
X1850491Y2306523D01*
X1857044Y2294585D01*
X1865223Y2283510D01*
X1866696Y2280666D01*
X1867204Y2277465D01*
X1867204Y1966061D01*
X1866442Y1962150D01*
X1864207Y1958848D01*
X1652168Y1746757D01*
X1645107Y1737918D01*
X1640484Y1730298D01*
X1639366Y1728114D01*
X1635963Y1719884D01*
X1635201Y1717548D01*
X1633067Y1708912D01*
X1632661Y1706473D01*
X1631848Y1697634D01*
X1631797Y1253540D01*
X1630933Y1249426D01*
X1628038Y1245616D01*
X1618843Y1234795D01*
X1611071Y1222908D01*
X1604924Y1210106D01*
X1600454Y1196594D01*
X1597710Y1182674D01*
X1596796Y1168501D01*
X1597710Y1154328D01*
X1600454Y1140358D01*
X1604924Y1126896D01*
X1611071Y1114094D01*
X1618843Y1102156D01*
X1628038Y1091336D01*
X1638554Y1081786D01*
X1650187Y1073658D01*
X1662785Y1067104D01*
X1676146Y1062177D01*
X1690014Y1059027D01*
G37*
G36*
X2454148Y1057656D02*
G01*
X2468321Y1058113D01*
X2482392Y1060399D01*
X2496007Y1064412D01*
X2508961Y1070203D01*
X2521153Y1077569D01*
X2532227Y1086408D01*
X2542133Y1096619D01*
X2550617Y1107998D01*
X2557576Y1120394D01*
X2562910Y1133551D01*
X2566517Y1147318D01*
X2568346Y1161389D01*
X2568346Y1175613D01*
X2566517Y1189685D01*
X2562910Y1203452D01*
X2557576Y1216609D01*
X2550617Y1229004D01*
X2542133Y1240383D01*
X2536494Y1246225D01*
X2534361Y1249476D01*
X2533599Y1253286D01*
X2533548Y1659737D01*
X2532735Y1668576D01*
X2532329Y1671015D01*
X2530195Y1679651D01*
X2529433Y1681988D01*
X2526030Y1690217D01*
X2524912Y1692402D01*
X2520289Y1700022D01*
X2513228Y1708861D01*
X2275992Y1946148D01*
X2273757Y1949450D01*
X2272995Y1953361D01*
X2272995Y2277465D01*
X2273503Y2280666D01*
X2274976Y2283510D01*
X2283155Y2294585D01*
X2289708Y2306523D01*
X2294585Y2319274D01*
X2297785Y2332532D01*
X2299106Y2346096D01*
X2298649Y2359710D01*
X2296414Y2373172D01*
X2292350Y2386177D01*
X2286609Y2398572D01*
X2279294Y2410053D01*
X2270506Y2420467D01*
X2260346Y2429611D01*
X2249119Y2437333D01*
X2236978Y2443480D01*
X2224074Y2447950D01*
X2210714Y2450693D01*
X2197100Y2451608D01*
X2183485Y2450693D01*
X2170125Y2447950D01*
X2157222Y2443480D01*
X2145080Y2437333D01*
X2133854Y2429611D01*
X2123694Y2420467D01*
X2114905Y2410053D01*
X2107590Y2398572D01*
X2101850Y2386177D01*
X2097786Y2373172D01*
X2095550Y2359710D01*
X2095093Y2346096D01*
X2096414Y2332532D01*
X2099614Y2319274D01*
X2104491Y2306523D01*
X2111044Y2294585D01*
X2119223Y2283510D01*
X2120696Y2280666D01*
X2121204Y2277465D01*
X2121255Y1915058D01*
X2122068Y1906219D01*
X2122474Y1903780D01*
X2124608Y1895144D01*
X2125370Y1892807D01*
X2128774Y1884578D01*
X2129891Y1882393D01*
X2134514Y1874774D01*
X2141575Y1865934D01*
X2378811Y1628648D01*
X2381046Y1625346D01*
X2381808Y1621434D01*
X2381808Y1253540D01*
X2380945Y1249426D01*
X2378049Y1245616D01*
X2368804Y1234795D01*
X2361082Y1222908D01*
X2354935Y1210106D01*
X2350414Y1196594D01*
X2347722Y1182674D01*
X2346807Y1168501D01*
X2347722Y1154328D01*
X2350414Y1140358D01*
X2354935Y1126896D01*
X2361082Y1114094D01*
X2368804Y1102156D01*
X2378049Y1091336D01*
X2388565Y1081786D01*
X2400198Y1073658D01*
X2412796Y1067104D01*
X2426157Y1062177D01*
X2439974Y1059027D01*
G37*
G36*
X731520Y1188821D02*
G01*
X738124Y1192072D01*
X749503Y1199692D01*
X759764Y1208735D01*
X768807Y1218996D01*
X776427Y1230376D01*
X779678Y1236980D01*
X731520Y1236980D01*
G37*
G36*
X731520Y1328420D02*
G01*
X779678Y1328420D01*
X776427Y1335024D01*
X768807Y1346403D01*
X759764Y1356664D01*
X749503Y1365707D01*
X738124Y1373327D01*
X731520Y1376578D01*
G37*
G36*
X591921Y1328420D02*
G01*
X640080Y1328420D01*
X640080Y1376578D01*
X633476Y1373327D01*
X622096Y1365707D01*
X611835Y1356664D01*
X602792Y1346403D01*
X595172Y1335024D01*
G37*
G36*
X7700721Y6223558D02*
G01*
X7753045Y6223558D01*
X7750962Y6228029D01*
X7743139Y6240322D01*
X7733842Y6251549D01*
X7723276Y6261506D01*
X7711490Y6270040D01*
X7700721Y6275933D01*
G37*
G36*
X7545730Y6223558D02*
G01*
X7598054Y6223558D01*
X7598054Y6275933D01*
X7587284Y6270040D01*
X7575499Y6261506D01*
X7564932Y6251549D01*
X7555636Y6240322D01*
X7547813Y6228029D01*
G37*
G36*
X3642918Y6181852D02*
G01*
X3675379Y6181852D01*
X3675379Y6240780D01*
X3616451Y6240780D01*
X3616451Y6208318D01*
X3617163Y6202019D01*
X3619093Y6196533D01*
X3622141Y6191656D01*
X3626256Y6187541D01*
X3631133Y6184493D01*
X3636619Y6182563D01*
G37*
G36*
X9670592Y2234946D02*
G01*
X9684207Y2234946D01*
X9697720Y2236774D01*
X9710877Y2240381D01*
X9723424Y2245664D01*
X9735159Y2252624D01*
X9745878Y2261108D01*
X9755378Y2270912D01*
X9763455Y2281885D01*
X9770008Y2293823D01*
X9774885Y2306574D01*
X9778085Y2319832D01*
X9779406Y2333396D01*
X9778949Y2347010D01*
X9776714Y2360472D01*
X9772650Y2373477D01*
X9766909Y2385872D01*
X9759594Y2397353D01*
X9750806Y2407767D01*
X9740646Y2416911D01*
X9729419Y2424633D01*
X9717278Y2430780D01*
X9704374Y2435250D01*
X9691014Y2437993D01*
X9677400Y2438908D01*
X9663785Y2437993D01*
X9650425Y2435250D01*
X9637522Y2430780D01*
X9625380Y2424633D01*
X9614154Y2416911D01*
X9603994Y2407767D01*
X9595205Y2397353D01*
X9587890Y2385872D01*
X9582150Y2373477D01*
X9578086Y2360472D01*
X9575850Y2347010D01*
X9575393Y2333396D01*
X9576714Y2319832D01*
X9579914Y2306574D01*
X9584791Y2293823D01*
X9591344Y2281885D01*
X9599422Y2270912D01*
X9608921Y2261108D01*
X9619640Y2252624D01*
X9631375Y2245664D01*
X9643922Y2240381D01*
X9657080Y2236774D01*
G37*
G36*
X8400592Y2234946D02*
G01*
X8414207Y2234946D01*
X8427720Y2236774D01*
X8440877Y2240381D01*
X8453424Y2245664D01*
X8465159Y2252624D01*
X8475878Y2261108D01*
X8485378Y2270912D01*
X8493455Y2281885D01*
X8500008Y2293823D01*
X8504885Y2306574D01*
X8508085Y2319832D01*
X8509406Y2333396D01*
X8508949Y2347010D01*
X8506714Y2360472D01*
X8502650Y2373477D01*
X8496909Y2385872D01*
X8489594Y2397353D01*
X8480806Y2407767D01*
X8470646Y2416911D01*
X8459419Y2424633D01*
X8447278Y2430780D01*
X8434374Y2435250D01*
X8421014Y2437993D01*
X8407400Y2438908D01*
X8393785Y2437993D01*
X8380425Y2435250D01*
X8367522Y2430780D01*
X8355380Y2424633D01*
X8344153Y2416911D01*
X8333994Y2407767D01*
X8325205Y2397353D01*
X8317890Y2385872D01*
X8312150Y2373477D01*
X8308086Y2360472D01*
X8305850Y2347010D01*
X8305393Y2333396D01*
X8306714Y2319832D01*
X8309914Y2306574D01*
X8314791Y2293823D01*
X8321344Y2281885D01*
X8329422Y2270912D01*
X8338921Y2261108D01*
X8349640Y2252624D01*
X8361375Y2245664D01*
X8373922Y2240381D01*
X8387080Y2236774D01*
G37*
G36*
X8908592Y2234946D02*
G01*
X8922207Y2234946D01*
X8935720Y2236774D01*
X8948877Y2240381D01*
X8961424Y2245664D01*
X8973159Y2252624D01*
X8983878Y2261108D01*
X8993378Y2270912D01*
X9001455Y2281885D01*
X9008008Y2293823D01*
X9012885Y2306574D01*
X9016085Y2319832D01*
X9017406Y2333396D01*
X9016949Y2347010D01*
X9014714Y2360472D01*
X9010650Y2373477D01*
X9004909Y2385872D01*
X8997594Y2397353D01*
X8988806Y2407767D01*
X8978646Y2416911D01*
X8967419Y2424633D01*
X8955278Y2430780D01*
X8942374Y2435250D01*
X8929014Y2437993D01*
X8915400Y2438908D01*
X8901785Y2437993D01*
X8888425Y2435250D01*
X8875522Y2430780D01*
X8863380Y2424633D01*
X8852154Y2416911D01*
X8841994Y2407767D01*
X8833205Y2397353D01*
X8825890Y2385872D01*
X8820150Y2373477D01*
X8816086Y2360472D01*
X8813850Y2347010D01*
X8813393Y2333396D01*
X8814714Y2319832D01*
X8817914Y2306574D01*
X8822791Y2293823D01*
X8829344Y2281885D01*
X8837422Y2270912D01*
X8846921Y2261108D01*
X8857640Y2252624D01*
X8869375Y2245664D01*
X8881922Y2240381D01*
X8895080Y2236774D01*
G37*
G36*
X9924592Y2234946D02*
G01*
X9938207Y2234946D01*
X9951720Y2236774D01*
X9964877Y2240381D01*
X9977424Y2245664D01*
X9989159Y2252624D01*
X9999878Y2261108D01*
X10009378Y2270912D01*
X10017455Y2281885D01*
X10024008Y2293823D01*
X10028885Y2306574D01*
X10032085Y2319832D01*
X10033406Y2333396D01*
X10032949Y2347010D01*
X10030714Y2360472D01*
X10026650Y2373477D01*
X10020909Y2385872D01*
X10013594Y2397353D01*
X10004806Y2407767D01*
X9994646Y2416911D01*
X9983419Y2424633D01*
X9971278Y2430780D01*
X9958374Y2435250D01*
X9945014Y2437993D01*
X9931400Y2438908D01*
X9917785Y2437993D01*
X9904425Y2435250D01*
X9897922Y2433015D01*
X9894163Y2432456D01*
X9890506Y2433269D01*
X9887407Y2435402D01*
X9666935Y2655824D01*
X9660737Y2660954D01*
X9654032Y2664510D01*
X9646818Y2666695D01*
X9638792Y2667508D01*
X7811008Y2667508D01*
X7802981Y2666695D01*
X7795768Y2664510D01*
X7789062Y2660954D01*
X7782864Y2655824D01*
X7575092Y2448102D01*
X7571994Y2445969D01*
X7568336Y2445156D01*
X7564577Y2445715D01*
X7558074Y2447950D01*
X7544714Y2450693D01*
X7531100Y2451608D01*
X7517485Y2450693D01*
X7504125Y2447950D01*
X7497622Y2445715D01*
X7493863Y2445156D01*
X7490206Y2445969D01*
X7487107Y2448102D01*
X7266635Y2668524D01*
X7260437Y2673654D01*
X7253731Y2677210D01*
X7246518Y2679395D01*
X7238492Y2680208D01*
X5321808Y2680208D01*
X5313781Y2679395D01*
X5306568Y2677210D01*
X5299862Y2673654D01*
X5293664Y2668524D01*
X5085892Y2460802D01*
X5082794Y2458669D01*
X5079136Y2457856D01*
X5075377Y2458415D01*
X5068874Y2460650D01*
X5055514Y2463393D01*
X5041900Y2464308D01*
X5028285Y2463393D01*
X5014925Y2460650D01*
X5008422Y2458415D01*
X5004663Y2457856D01*
X5001006Y2458669D01*
X4997907Y2460802D01*
X4815535Y2643124D01*
X4809337Y2648254D01*
X4802632Y2651810D01*
X4795418Y2653995D01*
X4787392Y2654808D01*
X2972308Y2654808D01*
X2964281Y2653995D01*
X2957068Y2651810D01*
X2950362Y2648254D01*
X2944164Y2643124D01*
X2749092Y2448102D01*
X2745994Y2445969D01*
X2742336Y2445156D01*
X2738577Y2445715D01*
X2732074Y2447950D01*
X2718714Y2450693D01*
X2705100Y2451608D01*
X2691485Y2450693D01*
X2678125Y2447950D01*
X2665222Y2443480D01*
X2653080Y2437333D01*
X2641854Y2429611D01*
X2631694Y2420467D01*
X2622905Y2410053D01*
X2615590Y2398572D01*
X2609850Y2386177D01*
X2605786Y2373172D01*
X2603550Y2359710D01*
X2603093Y2346096D01*
X2604414Y2332532D01*
X2607614Y2319274D01*
X2612491Y2306523D01*
X2619044Y2294585D01*
X2627122Y2283612D01*
X2636621Y2273808D01*
X2647340Y2265324D01*
X2659075Y2258364D01*
X2671622Y2253081D01*
X2684780Y2249474D01*
X2698292Y2247646D01*
X2711907Y2247646D01*
X2725420Y2249474D01*
X2738577Y2253081D01*
X2751124Y2258364D01*
X2762859Y2265324D01*
X2773578Y2273808D01*
X2783078Y2283612D01*
X2791155Y2294585D01*
X2797708Y2306523D01*
X2802585Y2319274D01*
X2805785Y2332532D01*
X2807106Y2346096D01*
X2806649Y2359710D01*
X2804414Y2373172D01*
X2801264Y2383383D01*
X2800807Y2386990D01*
X2801670Y2390546D01*
X2803753Y2393543D01*
X2984804Y2574594D01*
X2988106Y2576830D01*
X2992018Y2577592D01*
X4767681Y2577592D01*
X4771593Y2576830D01*
X4774895Y2574594D01*
X4943246Y2406243D01*
X4945329Y2403246D01*
X4946192Y2399690D01*
X4945735Y2396083D01*
X4942586Y2385872D01*
X4940350Y2372410D01*
X4939893Y2358796D01*
X4941214Y2345232D01*
X4944414Y2331974D01*
X4949291Y2319223D01*
X4955844Y2307285D01*
X4963922Y2296312D01*
X4973421Y2286508D01*
X4984140Y2278024D01*
X4995875Y2271064D01*
X5008422Y2265781D01*
X5021580Y2262174D01*
X5035092Y2260346D01*
X5048707Y2260346D01*
X5062220Y2262174D01*
X5075377Y2265781D01*
X5087924Y2271064D01*
X5099659Y2278024D01*
X5110378Y2286508D01*
X5119878Y2296312D01*
X5127955Y2307285D01*
X5134508Y2319223D01*
X5139385Y2331974D01*
X5142585Y2345232D01*
X5143906Y2358796D01*
X5143449Y2372410D01*
X5141214Y2385872D01*
X5138064Y2396083D01*
X5137607Y2399690D01*
X5138470Y2403246D01*
X5140553Y2406243D01*
X5334304Y2599994D01*
X5337606Y2602230D01*
X5341518Y2602992D01*
X7218781Y2602992D01*
X7222693Y2602230D01*
X7225995Y2599994D01*
X7432446Y2393543D01*
X7434529Y2390546D01*
X7435392Y2386990D01*
X7434935Y2383383D01*
X7431786Y2373172D01*
X7429550Y2359710D01*
X7429093Y2346096D01*
X7430414Y2332532D01*
X7433614Y2319274D01*
X7438491Y2306523D01*
X7445044Y2294585D01*
X7453122Y2283612D01*
X7462621Y2273808D01*
X7473340Y2265324D01*
X7485075Y2258364D01*
X7497622Y2253081D01*
X7510780Y2249474D01*
X7524292Y2247646D01*
X7537907Y2247646D01*
X7551420Y2249474D01*
X7564577Y2253081D01*
X7577124Y2258364D01*
X7588859Y2265324D01*
X7599578Y2273808D01*
X7609078Y2283612D01*
X7617155Y2294585D01*
X7623708Y2306523D01*
X7628585Y2319274D01*
X7631785Y2332532D01*
X7633106Y2346096D01*
X7632649Y2359710D01*
X7630414Y2373172D01*
X7627264Y2383383D01*
X7626807Y2386990D01*
X7627670Y2390546D01*
X7629753Y2393543D01*
X7823504Y2587294D01*
X7826806Y2589530D01*
X7830718Y2590292D01*
X9619081Y2590292D01*
X9622993Y2589530D01*
X9626295Y2587294D01*
X9832746Y2380843D01*
X9834829Y2377846D01*
X9835692Y2374290D01*
X9835235Y2370683D01*
X9832086Y2360472D01*
X9829850Y2347010D01*
X9829393Y2333396D01*
X9830714Y2319832D01*
X9833914Y2306574D01*
X9838791Y2293823D01*
X9845344Y2281885D01*
X9853422Y2270912D01*
X9862921Y2261108D01*
X9873640Y2252624D01*
X9885375Y2245664D01*
X9897922Y2240381D01*
X9911080Y2236774D01*
G37*
G36*
X8705850Y2245004D02*
G01*
X8707424Y2245664D01*
X8719159Y2252624D01*
X8729878Y2261108D01*
X8739378Y2270912D01*
X8747455Y2281885D01*
X8753195Y2292350D01*
X8705850Y2292350D01*
G37*
G36*
X8616950Y2245004D02*
G01*
X8616950Y2292350D01*
X8569604Y2292350D01*
X8575344Y2281885D01*
X8583422Y2270912D01*
X8592921Y2261108D01*
X8603640Y2252624D01*
X8615375Y2245664D01*
G37*
G36*
X7270292Y2247646D02*
G01*
X7283907Y2247646D01*
X7297420Y2249474D01*
X7310577Y2253081D01*
X7323124Y2258364D01*
X7334859Y2265324D01*
X7345578Y2273808D01*
X7355078Y2283612D01*
X7363155Y2294585D01*
X7369708Y2306523D01*
X7374585Y2319274D01*
X7377785Y2332532D01*
X7379106Y2346096D01*
X7378649Y2359710D01*
X7376414Y2373172D01*
X7372350Y2386177D01*
X7366609Y2398572D01*
X7359294Y2410053D01*
X7350506Y2420467D01*
X7340346Y2429611D01*
X7329119Y2437333D01*
X7316978Y2443480D01*
X7304074Y2447950D01*
X7290714Y2450693D01*
X7277100Y2451608D01*
X7263485Y2450693D01*
X7250125Y2447950D01*
X7237222Y2443480D01*
X7225080Y2437333D01*
X7213853Y2429611D01*
X7203694Y2420467D01*
X7194905Y2410053D01*
X7187590Y2398572D01*
X7181850Y2386177D01*
X7177786Y2373172D01*
X7175550Y2359710D01*
X7175093Y2346096D01*
X7176414Y2332532D01*
X7179614Y2319274D01*
X7184491Y2306523D01*
X7191044Y2294585D01*
X7199122Y2283612D01*
X7208621Y2273808D01*
X7219340Y2265324D01*
X7231075Y2258364D01*
X7243622Y2253081D01*
X7256780Y2249474D01*
G37*
G36*
X2444292Y2247646D02*
G01*
X2457907Y2247646D01*
X2471420Y2249474D01*
X2484577Y2253081D01*
X2497124Y2258364D01*
X2508859Y2265324D01*
X2519578Y2273808D01*
X2529078Y2283612D01*
X2537155Y2294585D01*
X2543708Y2306523D01*
X2548585Y2319274D01*
X2551785Y2332532D01*
X2553106Y2346096D01*
X2552649Y2359710D01*
X2550414Y2373172D01*
X2546350Y2386177D01*
X2540609Y2398572D01*
X2533294Y2410053D01*
X2524506Y2420467D01*
X2514346Y2429611D01*
X2503119Y2437333D01*
X2490978Y2443480D01*
X2478074Y2447950D01*
X2464714Y2450693D01*
X2451100Y2451608D01*
X2437485Y2450693D01*
X2424125Y2447950D01*
X2411222Y2443480D01*
X2399080Y2437333D01*
X2387854Y2429611D01*
X2377694Y2420467D01*
X2368905Y2410053D01*
X2361590Y2398572D01*
X2355850Y2386177D01*
X2351786Y2373172D01*
X2349550Y2359710D01*
X2349093Y2346096D01*
X2350414Y2332532D01*
X2353614Y2319274D01*
X2358491Y2306523D01*
X2365044Y2294585D01*
X2373122Y2283612D01*
X2382621Y2273808D01*
X2393340Y2265324D01*
X2405075Y2258364D01*
X2417622Y2253081D01*
X2430780Y2249474D01*
G37*
G36*
X6000292Y2247646D02*
G01*
X6013907Y2247646D01*
X6027420Y2249474D01*
X6040577Y2253081D01*
X6053124Y2258364D01*
X6064859Y2265324D01*
X6075578Y2273808D01*
X6085078Y2283612D01*
X6093155Y2294585D01*
X6099708Y2306523D01*
X6104585Y2319274D01*
X6107785Y2332532D01*
X6109106Y2346096D01*
X6108649Y2359710D01*
X6106414Y2373172D01*
X6102350Y2386177D01*
X6096609Y2398572D01*
X6089294Y2410053D01*
X6080506Y2420467D01*
X6070346Y2429611D01*
X6059119Y2437333D01*
X6046978Y2443480D01*
X6034074Y2447950D01*
X6020714Y2450693D01*
X6007100Y2451608D01*
X5993485Y2450693D01*
X5980125Y2447950D01*
X5967222Y2443480D01*
X5955080Y2437333D01*
X5943854Y2429611D01*
X5933694Y2420467D01*
X5924905Y2410053D01*
X5917590Y2398572D01*
X5911850Y2386177D01*
X5907786Y2373172D01*
X5905550Y2359710D01*
X5905093Y2346096D01*
X5906414Y2332532D01*
X5909614Y2319274D01*
X5914491Y2306523D01*
X5921044Y2294585D01*
X5929122Y2283612D01*
X5938621Y2273808D01*
X5949340Y2265324D01*
X5961075Y2258364D01*
X5973622Y2253081D01*
X5986780Y2249474D01*
G37*
G36*
X6508292Y2247646D02*
G01*
X6521907Y2247646D01*
X6535420Y2249474D01*
X6548577Y2253081D01*
X6561124Y2258364D01*
X6572859Y2265324D01*
X6583578Y2273808D01*
X6593078Y2283612D01*
X6601155Y2294585D01*
X6607708Y2306523D01*
X6612585Y2319274D01*
X6615785Y2332532D01*
X6617106Y2346096D01*
X6616649Y2359710D01*
X6614414Y2373172D01*
X6610350Y2386177D01*
X6604609Y2398572D01*
X6597294Y2410053D01*
X6588506Y2420467D01*
X6578346Y2429611D01*
X6567119Y2437333D01*
X6554978Y2443480D01*
X6542074Y2447950D01*
X6528714Y2450693D01*
X6515100Y2451608D01*
X6501485Y2450693D01*
X6488125Y2447950D01*
X6475222Y2443480D01*
X6463080Y2437333D01*
X6451854Y2429611D01*
X6441694Y2420467D01*
X6432905Y2410053D01*
X6425590Y2398572D01*
X6419850Y2386177D01*
X6415786Y2373172D01*
X6413550Y2359710D01*
X6413093Y2346096D01*
X6414414Y2332532D01*
X6417614Y2319274D01*
X6422491Y2306523D01*
X6429044Y2294585D01*
X6437122Y2283612D01*
X6446621Y2273808D01*
X6457340Y2265324D01*
X6469075Y2258364D01*
X6481622Y2253081D01*
X6494780Y2249474D01*
G37*
G36*
X1682292Y2247646D02*
G01*
X1695907Y2247646D01*
X1709420Y2249474D01*
X1722577Y2253081D01*
X1735124Y2258364D01*
X1746859Y2265324D01*
X1757578Y2273808D01*
X1767078Y2283612D01*
X1775155Y2294585D01*
X1781708Y2306523D01*
X1786585Y2319274D01*
X1789785Y2332532D01*
X1791106Y2346096D01*
X1790649Y2359710D01*
X1788414Y2373172D01*
X1784350Y2386177D01*
X1778609Y2398572D01*
X1771294Y2410053D01*
X1762506Y2420467D01*
X1752346Y2429611D01*
X1741119Y2437333D01*
X1728978Y2443480D01*
X1716074Y2447950D01*
X1702714Y2450693D01*
X1689100Y2451608D01*
X1675485Y2450693D01*
X1662125Y2447950D01*
X1649222Y2443480D01*
X1637080Y2437333D01*
X1625854Y2429611D01*
X1615694Y2420467D01*
X1606905Y2410053D01*
X1599590Y2398572D01*
X1593850Y2386177D01*
X1589786Y2373172D01*
X1587550Y2359710D01*
X1587093Y2346096D01*
X1588414Y2332532D01*
X1591614Y2319274D01*
X1596491Y2306523D01*
X1603044Y2294585D01*
X1611122Y2283612D01*
X1620621Y2273808D01*
X1631340Y2265324D01*
X1643075Y2258364D01*
X1655622Y2253081D01*
X1668780Y2249474D01*
G37*
G36*
X1174292Y2247646D02*
G01*
X1187907Y2247646D01*
X1201420Y2249474D01*
X1214577Y2253081D01*
X1227124Y2258364D01*
X1238859Y2265324D01*
X1249578Y2273808D01*
X1259078Y2283612D01*
X1267155Y2294585D01*
X1273708Y2306523D01*
X1278585Y2319274D01*
X1281785Y2332532D01*
X1283106Y2346096D01*
X1282649Y2359710D01*
X1280414Y2373172D01*
X1276350Y2386177D01*
X1270609Y2398572D01*
X1263294Y2410053D01*
X1254506Y2420467D01*
X1244346Y2429611D01*
X1233119Y2437333D01*
X1220978Y2443480D01*
X1208074Y2447950D01*
X1194714Y2450693D01*
X1181100Y2451608D01*
X1167485Y2450693D01*
X1154125Y2447950D01*
X1141222Y2443480D01*
X1129080Y2437333D01*
X1117854Y2429611D01*
X1107694Y2420467D01*
X1098905Y2410053D01*
X1091590Y2398572D01*
X1085850Y2386177D01*
X1081786Y2373172D01*
X1079550Y2359710D01*
X1079093Y2346096D01*
X1080414Y2332532D01*
X1083614Y2319274D01*
X1088491Y2306523D01*
X1095044Y2294585D01*
X1103122Y2283612D01*
X1112621Y2273808D01*
X1123340Y2265324D01*
X1135075Y2258364D01*
X1147622Y2253081D01*
X1160780Y2249474D01*
G37*
G36*
X3766820Y6181852D02*
G01*
X3799281Y6181852D01*
X3805580Y6182563D01*
X3811066Y6184493D01*
X3815943Y6187541D01*
X3820058Y6191656D01*
X3823106Y6196533D01*
X3825036Y6202019D01*
X3825748Y6208318D01*
X3825748Y6240780D01*
X3766820Y6240780D01*
G37*
G36*
X8752179Y6139230D02*
G01*
X8846769Y6139230D01*
X8846769Y6233820D01*
X8778646Y6233820D01*
X8772347Y6233109D01*
X8766911Y6231178D01*
X8761984Y6228080D01*
X8757920Y6224016D01*
X8754821Y6219088D01*
X8752890Y6213652D01*
X8752179Y6207353D01*
G37*
G36*
X6305550Y2257704D02*
G01*
X6307124Y2258364D01*
X6318859Y2265324D01*
X6329578Y2273808D01*
X6339078Y2283612D01*
X6347155Y2294585D01*
X6352895Y2305050D01*
X6305550Y2305050D01*
G37*
G36*
X6216650Y2257704D02*
G01*
X6216650Y2305050D01*
X6169304Y2305050D01*
X6175044Y2294585D01*
X6183122Y2283612D01*
X6192621Y2273808D01*
X6203340Y2265324D01*
X6215075Y2258364D01*
G37*
G36*
X1479550Y2257704D02*
G01*
X1481124Y2258364D01*
X1492859Y2265324D01*
X1503578Y2273808D01*
X1513078Y2283612D01*
X1521155Y2294585D01*
X1526895Y2305050D01*
X1479550Y2305050D01*
G37*
G36*
X1390650Y2257704D02*
G01*
X1390650Y2305050D01*
X1343304Y2305050D01*
X1349044Y2294585D01*
X1357122Y2283612D01*
X1366621Y2273808D01*
X1377340Y2265324D01*
X1389075Y2258364D01*
G37*
G36*
X4781092Y2260346D02*
G01*
X4794707Y2260346D01*
X4808220Y2262174D01*
X4821377Y2265781D01*
X4833924Y2271064D01*
X4845659Y2278024D01*
X4856378Y2286508D01*
X4865878Y2296312D01*
X4873955Y2307285D01*
X4880508Y2319223D01*
X4885385Y2331974D01*
X4888585Y2345232D01*
X4889906Y2358796D01*
X4889449Y2372410D01*
X4887214Y2385872D01*
X4883150Y2398877D01*
X4877409Y2411272D01*
X4870094Y2422753D01*
X4861306Y2433167D01*
X4851146Y2442311D01*
X4839919Y2450033D01*
X4827778Y2456180D01*
X4814874Y2460650D01*
X4801514Y2463393D01*
X4787900Y2464308D01*
X4774285Y2463393D01*
X4760925Y2460650D01*
X4748022Y2456180D01*
X4735880Y2450033D01*
X4724654Y2442311D01*
X4714494Y2433167D01*
X4705705Y2422753D01*
X4698390Y2411272D01*
X4692650Y2398877D01*
X4688586Y2385872D01*
X4686350Y2372410D01*
X4685893Y2358796D01*
X4687214Y2345232D01*
X4690414Y2331974D01*
X4695291Y2319223D01*
X4701844Y2307285D01*
X4709922Y2296312D01*
X4719421Y2286508D01*
X4730140Y2278024D01*
X4741875Y2271064D01*
X4754422Y2265781D01*
X4767580Y2262174D01*
G37*
G36*
X4019092Y2260346D02*
G01*
X4032707Y2260346D01*
X4046220Y2262174D01*
X4059377Y2265781D01*
X4071924Y2271064D01*
X4083659Y2278024D01*
X4094378Y2286508D01*
X4103878Y2296312D01*
X4111955Y2307285D01*
X4118508Y2319223D01*
X4123385Y2331974D01*
X4126585Y2345232D01*
X4127906Y2358796D01*
X4127449Y2372410D01*
X4125214Y2385872D01*
X4121150Y2398877D01*
X4115409Y2411272D01*
X4108094Y2422753D01*
X4099306Y2433167D01*
X4089146Y2442311D01*
X4077919Y2450033D01*
X4065778Y2456180D01*
X4052874Y2460650D01*
X4039514Y2463393D01*
X4025900Y2464308D01*
X4012285Y2463393D01*
X3998925Y2460650D01*
X3986022Y2456180D01*
X3973880Y2450033D01*
X3962654Y2442311D01*
X3952494Y2433167D01*
X3943705Y2422753D01*
X3936390Y2411272D01*
X3930650Y2398877D01*
X3926586Y2385872D01*
X3924350Y2372410D01*
X3923893Y2358796D01*
X3925214Y2345232D01*
X3928414Y2331974D01*
X3933291Y2319223D01*
X3939844Y2307285D01*
X3947922Y2296312D01*
X3957421Y2286508D01*
X3968140Y2278024D01*
X3979875Y2271064D01*
X3992422Y2265781D01*
X4005579Y2262174D01*
G37*
G36*
X3511092Y2260346D02*
G01*
X3524707Y2260346D01*
X3538220Y2262174D01*
X3551377Y2265781D01*
X3563924Y2271064D01*
X3575659Y2278024D01*
X3586378Y2286508D01*
X3595878Y2296312D01*
X3603955Y2307285D01*
X3610508Y2319223D01*
X3615385Y2331974D01*
X3618585Y2345232D01*
X3619906Y2358796D01*
X3619449Y2372410D01*
X3617214Y2385872D01*
X3613150Y2398877D01*
X3607409Y2411272D01*
X3600094Y2422753D01*
X3591306Y2433167D01*
X3581146Y2442311D01*
X3569919Y2450033D01*
X3557778Y2456180D01*
X3544874Y2460650D01*
X3531514Y2463393D01*
X3517900Y2464308D01*
X3504285Y2463393D01*
X3490925Y2460650D01*
X3478022Y2456180D01*
X3465880Y2450033D01*
X3454654Y2442311D01*
X3444494Y2433167D01*
X3435705Y2422753D01*
X3428390Y2411272D01*
X3422650Y2398877D01*
X3418586Y2385872D01*
X3416350Y2372410D01*
X3415893Y2358796D01*
X3417214Y2345232D01*
X3420414Y2331974D01*
X3425291Y2319223D01*
X3431844Y2307285D01*
X3439922Y2296312D01*
X3449421Y2286508D01*
X3460140Y2278024D01*
X3471875Y2271064D01*
X3484422Y2265781D01*
X3497579Y2262174D01*
G37*
G36*
X9009430Y6139230D02*
G01*
X9104020Y6139230D01*
X9104020Y6207353D01*
X9103309Y6213652D01*
X9101378Y6219088D01*
X9098280Y6224016D01*
X9094216Y6228080D01*
X9089288Y6231178D01*
X9083852Y6233109D01*
X9077553Y6233820D01*
X9009430Y6233820D01*
G37*
G36*
X3816350Y2270404D02*
G01*
X3817924Y2271064D01*
X3829659Y2278024D01*
X3840378Y2286508D01*
X3849878Y2296312D01*
X3857955Y2307285D01*
X3863695Y2317750D01*
X3816350Y2317750D01*
G37*
G36*
X3727450Y2270404D02*
G01*
X3727450Y2317750D01*
X3680104Y2317750D01*
X3685844Y2307285D01*
X3693922Y2296312D01*
X3703421Y2286508D01*
X3714140Y2278024D01*
X3725875Y2271064D01*
G37*
G36*
X8569756Y2381250D02*
G01*
X8616950Y2381250D01*
X8616950Y2428443D01*
X8609380Y2424633D01*
X8598154Y2416911D01*
X8587994Y2407767D01*
X8579205Y2397353D01*
X8571890Y2385872D01*
G37*
G36*
X8705850Y2381250D02*
G01*
X8753043Y2381250D01*
X8750909Y2385872D01*
X8743594Y2397353D01*
X8734806Y2407767D01*
X8724646Y2416911D01*
X8713419Y2424633D01*
X8705850Y2428443D01*
G37*
G36*
X6169456Y2393950D02*
G01*
X6216650Y2393950D01*
X6216650Y2441143D01*
X6209080Y2437333D01*
X6197854Y2429611D01*
X6187694Y2420467D01*
X6178905Y2410053D01*
X6171590Y2398572D01*
G37*
G36*
X6305550Y2393950D02*
G01*
X6352743Y2393950D01*
X6350609Y2398572D01*
X6343294Y2410053D01*
X6334506Y2420467D01*
X6324346Y2429611D01*
X6313119Y2437333D01*
X6305550Y2441143D01*
G37*
G36*
X1479550Y2393950D02*
G01*
X1526743Y2393950D01*
X1524609Y2398572D01*
X1517294Y2410053D01*
X1508506Y2420467D01*
X1498346Y2429611D01*
X1487119Y2437333D01*
X1479550Y2441143D01*
G37*
G36*
X1343456Y2393950D02*
G01*
X1390650Y2393950D01*
X1390650Y2441143D01*
X1383080Y2437333D01*
X1371854Y2429611D01*
X1361694Y2420467D01*
X1352905Y2410053D01*
X1345590Y2398572D01*
G37*
G36*
X3680256Y2406650D02*
G01*
X3727450Y2406650D01*
X3727450Y2453843D01*
X3719880Y2450033D01*
X3708654Y2442311D01*
X3698494Y2433167D01*
X3689705Y2422753D01*
X3682390Y2411272D01*
G37*
G36*
X3816350Y2406650D02*
G01*
X3863543Y2406650D01*
X3861409Y2411272D01*
X3854094Y2422753D01*
X3845306Y2433167D01*
X3835146Y2442311D01*
X3823919Y2450033D01*
X3816350Y2453843D01*
G37*
G36*
X7700721Y6068466D02*
G01*
X7711490Y6074359D01*
X7723276Y6082893D01*
X7733842Y6092850D01*
X7743139Y6104077D01*
X7750962Y6116370D01*
X7753045Y6120841D01*
X7700721Y6120841D01*
G37*
G36*
X7598054Y6068466D02*
G01*
X7598054Y6120841D01*
X7545730Y6120841D01*
X7547813Y6116370D01*
X7555636Y6104077D01*
X7564932Y6092850D01*
X7575499Y6082893D01*
X7587284Y6074359D01*
G37*
G36*
X6972553Y6047740D02*
G01*
X7012279Y6047740D01*
X7012279Y6062421D01*
X7011568Y6068771D01*
X7009638Y6074206D01*
X7006539Y6079134D01*
X7002475Y6083198D01*
X6997547Y6086297D01*
X6992112Y6088176D01*
X6985762Y6088888D01*
X6972553Y6088888D01*
G37*
G36*
X5804154Y6047740D02*
G01*
X5843879Y6047740D01*
X5843879Y6062421D01*
X5843168Y6068771D01*
X5841238Y6074206D01*
X5838139Y6079134D01*
X5834075Y6083198D01*
X5829147Y6086297D01*
X5823712Y6088176D01*
X5817362Y6088888D01*
X5804154Y6088888D01*
G37*
G36*
X6401054Y6047740D02*
G01*
X6440779Y6047740D01*
X6440779Y6062421D01*
X6440068Y6068771D01*
X6438138Y6074206D01*
X6435039Y6079134D01*
X6430975Y6083198D01*
X6426047Y6086297D01*
X6420612Y6088176D01*
X6414262Y6088888D01*
X6401054Y6088888D01*
G37*
G36*
X5042154Y6035040D02*
G01*
X5081879Y6035040D01*
X5081879Y6049721D01*
X5081168Y6056071D01*
X5079238Y6061506D01*
X5076139Y6066434D01*
X5072075Y6070498D01*
X5067147Y6073597D01*
X5061712Y6075476D01*
X5055362Y6076188D01*
X5042154Y6076188D01*
G37*
G36*
X6401054Y5950712D02*
G01*
X6414262Y5950712D01*
X6420612Y5951423D01*
X6426047Y5953302D01*
X6430975Y5956401D01*
X6435039Y5960465D01*
X6438138Y5965393D01*
X6440068Y5970828D01*
X6440779Y5977178D01*
X6440779Y5991860D01*
X6401054Y5991860D01*
G37*
G36*
X8654592Y3504946D02*
G01*
X8668207Y3504946D01*
X8681720Y3506774D01*
X8694877Y3510381D01*
X8707424Y3515664D01*
X8719159Y3522624D01*
X8729878Y3531108D01*
X8739378Y3540912D01*
X8747455Y3551885D01*
X8754008Y3563823D01*
X8758885Y3576574D01*
X8762085Y3589832D01*
X8763406Y3603396D01*
X8762949Y3617010D01*
X8760714Y3630472D01*
X8756650Y3643477D01*
X8750909Y3655872D01*
X8743594Y3667353D01*
X8734806Y3677767D01*
X8724646Y3686911D01*
X8713419Y3694633D01*
X8701278Y3700779D01*
X8688374Y3705250D01*
X8675014Y3707993D01*
X8661400Y3708908D01*
X8647785Y3707993D01*
X8634425Y3705250D01*
X8621522Y3700779D01*
X8609380Y3694633D01*
X8598154Y3686911D01*
X8587994Y3677767D01*
X8579205Y3667353D01*
X8571890Y3655872D01*
X8566150Y3643477D01*
X8562086Y3630472D01*
X8559850Y3617010D01*
X8559393Y3603396D01*
X8560714Y3589832D01*
X8563914Y3576574D01*
X8568791Y3563823D01*
X8575344Y3551885D01*
X8583422Y3540912D01*
X8592921Y3531108D01*
X8603640Y3522624D01*
X8615375Y3515664D01*
X8627922Y3510381D01*
X8641080Y3506774D01*
G37*
G36*
X9162592Y3504946D02*
G01*
X9176207Y3504946D01*
X9189720Y3506774D01*
X9202877Y3510381D01*
X9215424Y3515664D01*
X9227159Y3522624D01*
X9237878Y3531108D01*
X9247378Y3540912D01*
X9255455Y3551885D01*
X9262008Y3563823D01*
X9266885Y3576574D01*
X9270085Y3589832D01*
X9271406Y3603396D01*
X9270949Y3617010D01*
X9268714Y3630472D01*
X9264650Y3643477D01*
X9258909Y3655872D01*
X9251594Y3667353D01*
X9242806Y3677767D01*
X9232646Y3686911D01*
X9221419Y3694633D01*
X9209278Y3700779D01*
X9196374Y3705250D01*
X9183014Y3707993D01*
X9169400Y3708908D01*
X9155785Y3707993D01*
X9142425Y3705250D01*
X9129522Y3700779D01*
X9117380Y3694633D01*
X9106154Y3686911D01*
X9095994Y3677767D01*
X9087205Y3667353D01*
X9079890Y3655872D01*
X9074150Y3643477D01*
X9070086Y3630472D01*
X9067850Y3617010D01*
X9067393Y3603396D01*
X9068714Y3589832D01*
X9071914Y3576574D01*
X9076791Y3563823D01*
X9083344Y3551885D01*
X9091422Y3540912D01*
X9100921Y3531108D01*
X9111640Y3522624D01*
X9123375Y3515664D01*
X9135922Y3510381D01*
X9149080Y3506774D01*
G37*
G36*
X8908592Y3504946D02*
G01*
X8922207Y3504946D01*
X8935720Y3506774D01*
X8948877Y3510381D01*
X8961424Y3515664D01*
X8973159Y3522624D01*
X8983878Y3531108D01*
X8993378Y3540912D01*
X9001455Y3551885D01*
X9008008Y3563823D01*
X9012885Y3576574D01*
X9016085Y3589832D01*
X9017406Y3603396D01*
X9016949Y3617010D01*
X9014714Y3630472D01*
X9010650Y3643477D01*
X9004909Y3655872D01*
X8997594Y3667353D01*
X8988806Y3677767D01*
X8978646Y3686911D01*
X8967419Y3694633D01*
X8955278Y3700779D01*
X8942374Y3705250D01*
X8929014Y3707993D01*
X8915400Y3708908D01*
X8901785Y3707993D01*
X8888425Y3705250D01*
X8875522Y3700779D01*
X8863380Y3694633D01*
X8852154Y3686911D01*
X8841994Y3677767D01*
X8833205Y3667353D01*
X8825890Y3655872D01*
X8820150Y3643477D01*
X8816086Y3630472D01*
X8813850Y3617010D01*
X8813393Y3603396D01*
X8814714Y3589832D01*
X8817914Y3576574D01*
X8822791Y3563823D01*
X8829344Y3551885D01*
X8837422Y3540912D01*
X8846921Y3531108D01*
X8857640Y3522624D01*
X8869375Y3515664D01*
X8881922Y3510381D01*
X8895080Y3506774D01*
G37*
G36*
X10178592Y3504946D02*
G01*
X10192207Y3504946D01*
X10205720Y3506774D01*
X10218877Y3510381D01*
X10231424Y3515664D01*
X10243159Y3522624D01*
X10253878Y3531108D01*
X10263378Y3540912D01*
X10271455Y3551885D01*
X10278008Y3563823D01*
X10282885Y3576574D01*
X10286085Y3589832D01*
X10287406Y3603396D01*
X10286949Y3617010D01*
X10284714Y3630472D01*
X10280650Y3643477D01*
X10274909Y3655872D01*
X10267594Y3667353D01*
X10258806Y3677767D01*
X10248646Y3686911D01*
X10237419Y3694633D01*
X10225278Y3700779D01*
X10212374Y3705250D01*
X10199014Y3707993D01*
X10185400Y3708908D01*
X10171785Y3707993D01*
X10158425Y3705250D01*
X10145522Y3700779D01*
X10133380Y3694633D01*
X10122154Y3686911D01*
X10111994Y3677767D01*
X10103205Y3667353D01*
X10095890Y3655872D01*
X10090150Y3643477D01*
X10086086Y3630472D01*
X10083850Y3617010D01*
X10083393Y3603396D01*
X10084714Y3589832D01*
X10087914Y3576574D01*
X10092791Y3563823D01*
X10099344Y3551885D01*
X10107422Y3540912D01*
X10116921Y3531108D01*
X10127640Y3522624D01*
X10139375Y3515664D01*
X10151922Y3510381D01*
X10165080Y3506774D01*
G37*
G36*
X8400592Y3504946D02*
G01*
X8414207Y3504946D01*
X8427720Y3506774D01*
X8440877Y3510381D01*
X8453424Y3515664D01*
X8465159Y3522624D01*
X8475878Y3531108D01*
X8485378Y3540912D01*
X8493455Y3551885D01*
X8500008Y3563823D01*
X8504885Y3576574D01*
X8508085Y3589832D01*
X8509406Y3603396D01*
X8508949Y3617010D01*
X8506714Y3630472D01*
X8502650Y3643477D01*
X8496909Y3655872D01*
X8489594Y3667353D01*
X8480806Y3677767D01*
X8470646Y3686911D01*
X8459419Y3694633D01*
X8447278Y3700779D01*
X8434374Y3705250D01*
X8421014Y3707993D01*
X8407400Y3708908D01*
X8393785Y3707993D01*
X8380425Y3705250D01*
X8367522Y3700779D01*
X8355380Y3694633D01*
X8344153Y3686911D01*
X8333994Y3677767D01*
X8325205Y3667353D01*
X8317890Y3655872D01*
X8312150Y3643477D01*
X8308086Y3630472D01*
X8305850Y3617010D01*
X8305393Y3603396D01*
X8306714Y3589832D01*
X8309914Y3576574D01*
X8314791Y3563823D01*
X8321344Y3551885D01*
X8329422Y3540912D01*
X8338921Y3531108D01*
X8349640Y3522624D01*
X8361375Y3515664D01*
X8373922Y3510381D01*
X8387080Y3506774D01*
G37*
G36*
X9416592Y3504946D02*
G01*
X9430207Y3504946D01*
X9443720Y3506774D01*
X9456877Y3510381D01*
X9469424Y3515664D01*
X9481159Y3522624D01*
X9491878Y3531108D01*
X9501378Y3540912D01*
X9509455Y3551885D01*
X9516008Y3563823D01*
X9520885Y3576574D01*
X9524085Y3589832D01*
X9525406Y3603396D01*
X9524949Y3617010D01*
X9522714Y3630472D01*
X9518650Y3643477D01*
X9512909Y3655872D01*
X9505594Y3667353D01*
X9496806Y3677767D01*
X9486646Y3686911D01*
X9475419Y3694633D01*
X9463278Y3700779D01*
X9450374Y3705250D01*
X9437014Y3707993D01*
X9423400Y3708908D01*
X9409785Y3707993D01*
X9396425Y3705250D01*
X9389922Y3703015D01*
X9386163Y3702456D01*
X9382506Y3703269D01*
X9379407Y3705402D01*
X9019235Y4065524D01*
X9013037Y4070654D01*
X9006332Y4074210D01*
X8999118Y4076395D01*
X8991092Y4077208D01*
X2407818Y4077208D01*
X2403906Y4077970D01*
X2400604Y4080205D01*
X2312619Y4168190D01*
X2310333Y4171645D01*
X2309672Y4175760D01*
X2310638Y4179773D01*
X2313178Y4183075D01*
X2316784Y4185056D01*
X2321560Y4185412D01*
X2401062Y4185412D01*
X2407412Y4186123D01*
X2412847Y4188002D01*
X2417775Y4191101D01*
X2421839Y4195165D01*
X2424938Y4200093D01*
X2426868Y4205528D01*
X2428036Y4210405D01*
X2430322Y4213301D01*
X2433472Y4215231D01*
X2437079Y4215892D01*
X3123692Y4215892D01*
X3127603Y4215130D01*
X3130854Y4212894D01*
X3133090Y4209643D01*
X3133852Y4205732D01*
X3133852Y4176318D01*
X3134563Y4170019D01*
X3136493Y4164533D01*
X3139541Y4159656D01*
X3143656Y4155541D01*
X3148533Y4152493D01*
X3154019Y4150563D01*
X3160318Y4149851D01*
X3316681Y4149851D01*
X3322980Y4150563D01*
X3328466Y4152493D01*
X3333343Y4155541D01*
X3337458Y4159656D01*
X3340506Y4164533D01*
X3342436Y4170019D01*
X3343148Y4176318D01*
X3343148Y4332681D01*
X3342436Y4338980D01*
X3340506Y4344466D01*
X3337458Y4349343D01*
X3333343Y4353458D01*
X3328466Y4356506D01*
X3322980Y4358436D01*
X3316681Y4359148D01*
X3160318Y4359148D01*
X3154019Y4358436D01*
X3148533Y4356506D01*
X3143656Y4353458D01*
X3139541Y4349343D01*
X3136493Y4344466D01*
X3134563Y4338980D01*
X3133852Y4332681D01*
X3133852Y4303268D01*
X3133090Y4299356D01*
X3130854Y4296105D01*
X3127603Y4293870D01*
X3123692Y4293108D01*
X2437079Y4293108D01*
X2433472Y4293768D01*
X2430322Y4295698D01*
X2428036Y4298594D01*
X2426868Y4303471D01*
X2424938Y4308906D01*
X2421839Y4313834D01*
X2417775Y4317898D01*
X2412847Y4320997D01*
X2407412Y4322876D01*
X2401062Y4323588D01*
X2321560Y4323588D01*
X2315260Y4322876D01*
X2309774Y4320997D01*
X2304897Y4317898D01*
X2300782Y4313834D01*
X2297734Y4308906D01*
X2295601Y4302861D01*
X2293467Y4299305D01*
X2290064Y4296867D01*
X2286000Y4296054D01*
X2281936Y4296867D01*
X2278532Y4299305D01*
X2276398Y4302861D01*
X2274265Y4308906D01*
X2271217Y4313834D01*
X2267102Y4317898D01*
X2262225Y4320997D01*
X2256739Y4322876D01*
X2250440Y4323588D01*
X2170938Y4323588D01*
X2164588Y4322876D01*
X2159152Y4320997D01*
X2154224Y4317898D01*
X2150160Y4313834D01*
X2147062Y4308906D01*
X2145131Y4303471D01*
X2143963Y4298594D01*
X2141677Y4295698D01*
X2138527Y4293768D01*
X2134920Y4293108D01*
X1387754Y4293108D01*
X1383842Y4293870D01*
X1380540Y4296105D01*
X1378356Y4299356D01*
X1377594Y4303268D01*
X1378356Y4307179D01*
X1380540Y4310430D01*
X1728724Y4658664D01*
X1733854Y4664862D01*
X1737410Y4671568D01*
X1739595Y4678781D01*
X1740407Y4686808D01*
X1740407Y4740706D01*
X1741271Y4744821D01*
X1743811Y4748276D01*
X1747469Y4750358D01*
X1751685Y4750816D01*
X1754378Y4750511D01*
X1903222Y4750511D01*
X1909572Y4751222D01*
X1915007Y4753102D01*
X1919935Y4756200D01*
X1923999Y4760264D01*
X1927098Y4765192D01*
X1928977Y4770628D01*
X1929688Y4776978D01*
X1929688Y4925822D01*
X1928977Y4932172D01*
X1927098Y4937607D01*
X1923999Y4942535D01*
X1919935Y4946599D01*
X1915007Y4949698D01*
X1909572Y4951577D01*
X1903222Y4952288D01*
X1754378Y4952288D01*
X1751685Y4951984D01*
X1747469Y4952441D01*
X1743811Y4954524D01*
X1741271Y4957978D01*
X1740407Y4962093D01*
X1740407Y5364581D01*
X1741170Y5368493D01*
X1743405Y5371795D01*
X2363724Y5992164D01*
X2368854Y5998362D01*
X2372410Y6005068D01*
X2374595Y6012281D01*
X2375408Y6020308D01*
X2375408Y6277051D01*
X2376170Y6280912D01*
X2378405Y6284214D01*
X2381656Y6286398D01*
X2385568Y6287211D01*
X2411222Y6287211D01*
X2417572Y6287922D01*
X2423007Y6289802D01*
X2427935Y6292900D01*
X2431999Y6296964D01*
X2435098Y6301892D01*
X2436977Y6307328D01*
X2437688Y6313678D01*
X2437688Y6462522D01*
X2436977Y6468872D01*
X2435098Y6474307D01*
X2431999Y6479235D01*
X2427935Y6483299D01*
X2423007Y6486398D01*
X2417572Y6488277D01*
X2411222Y6488988D01*
X2262378Y6488988D01*
X2256028Y6488277D01*
X2250592Y6486398D01*
X2245664Y6483299D01*
X2241600Y6479235D01*
X2238502Y6474307D01*
X2236622Y6468872D01*
X2235911Y6462522D01*
X2235911Y6313678D01*
X2236622Y6307328D01*
X2238502Y6301892D01*
X2241600Y6296964D01*
X2245664Y6292900D01*
X2250592Y6289802D01*
X2256028Y6287922D01*
X2262378Y6287211D01*
X2288032Y6287211D01*
X2291943Y6286398D01*
X2295194Y6284214D01*
X2297430Y6280912D01*
X2298192Y6277051D01*
X2298192Y6040018D01*
X2297430Y6036106D01*
X2295194Y6032804D01*
X1674875Y5412435D01*
X1669745Y5406237D01*
X1666189Y5399532D01*
X1664004Y5392318D01*
X1663192Y5384292D01*
X1663192Y4962093D01*
X1662328Y4957978D01*
X1659788Y4954524D01*
X1656130Y4952441D01*
X1651914Y4951984D01*
X1649222Y4952288D01*
X1500378Y4952288D01*
X1494028Y4951577D01*
X1488592Y4949698D01*
X1483664Y4946599D01*
X1479600Y4942535D01*
X1476502Y4937607D01*
X1474622Y4932172D01*
X1473911Y4925822D01*
X1473911Y4776978D01*
X1474622Y4770628D01*
X1476502Y4765192D01*
X1479600Y4760264D01*
X1483664Y4756200D01*
X1488592Y4753102D01*
X1494028Y4751222D01*
X1500378Y4750511D01*
X1649222Y4750511D01*
X1651914Y4750816D01*
X1656130Y4750358D01*
X1659788Y4748276D01*
X1662328Y4744821D01*
X1663192Y4740706D01*
X1663192Y4706518D01*
X1662430Y4702606D01*
X1660194Y4699304D01*
X1323035Y4362145D01*
X1319733Y4359910D01*
X1315821Y4359148D01*
X1191818Y4359148D01*
X1185519Y4358436D01*
X1180033Y4356506D01*
X1175156Y4353458D01*
X1171041Y4349343D01*
X1167993Y4344466D01*
X1166063Y4338980D01*
X1165352Y4332681D01*
X1165352Y4176318D01*
X1166063Y4170019D01*
X1167993Y4164533D01*
X1171041Y4159656D01*
X1175156Y4155541D01*
X1180033Y4152493D01*
X1185519Y4150563D01*
X1191818Y4149851D01*
X1348181Y4149851D01*
X1354480Y4150563D01*
X1359966Y4152493D01*
X1364843Y4155541D01*
X1368958Y4159656D01*
X1372006Y4164533D01*
X1373936Y4170019D01*
X1374648Y4176318D01*
X1374648Y4205732D01*
X1375410Y4209643D01*
X1377645Y4212894D01*
X1380896Y4215130D01*
X1384808Y4215892D01*
X2134920Y4215892D01*
X2138527Y4215231D01*
X2141677Y4213301D01*
X2143963Y4210405D01*
X2145131Y4205528D01*
X2147062Y4200093D01*
X2150160Y4195165D01*
X2154224Y4191101D01*
X2159152Y4188002D01*
X2165248Y4185869D01*
X2168804Y4183735D01*
X2171192Y4180332D01*
X2172055Y4176268D01*
X2172055Y3725875D01*
X2171192Y3721760D01*
X2168804Y3718407D01*
X2165248Y3716274D01*
X2157222Y3713479D01*
X2145080Y3707333D01*
X2133854Y3699611D01*
X2123694Y3690467D01*
X2114905Y3680053D01*
X2107590Y3668572D01*
X2101850Y3656177D01*
X2097786Y3643172D01*
X2095550Y3629710D01*
X2095093Y3616096D01*
X2096414Y3602532D01*
X2099614Y3589274D01*
X2104491Y3576523D01*
X2111044Y3564585D01*
X2119122Y3553612D01*
X2128621Y3543808D01*
X2139340Y3535324D01*
X2151075Y3528364D01*
X2163622Y3523081D01*
X2176780Y3519474D01*
X2190292Y3517646D01*
X2203907Y3517646D01*
X2217420Y3519474D01*
X2230577Y3523081D01*
X2243124Y3528364D01*
X2254859Y3535324D01*
X2265578Y3543808D01*
X2275078Y3553612D01*
X2283155Y3564585D01*
X2289708Y3576523D01*
X2294585Y3589274D01*
X2297785Y3602532D01*
X2299106Y3616096D01*
X2298649Y3629710D01*
X2296414Y3643172D01*
X2292350Y3656177D01*
X2286609Y3668572D01*
X2279294Y3680053D01*
X2270506Y3690467D01*
X2260346Y3699611D01*
X2253691Y3704183D01*
X2251303Y3706469D01*
X2249779Y3709365D01*
X2249271Y3712565D01*
X2249271Y4097782D01*
X2250033Y4101693D01*
X2252268Y4104995D01*
X2255520Y4107179D01*
X2259431Y4107942D01*
X2263343Y4107179D01*
X2266594Y4104995D01*
X2359964Y4011676D01*
X2366162Y4006545D01*
X2372868Y4002989D01*
X2380081Y4000804D01*
X2388108Y3999992D01*
X4259681Y3999992D01*
X4263593Y3999229D01*
X4266895Y3996994D01*
X4492294Y3771595D01*
X4494530Y3768293D01*
X4495292Y3764381D01*
X4495292Y3733037D01*
X4494631Y3729431D01*
X4492650Y3726230D01*
X4489704Y3723995D01*
X4481880Y3720033D01*
X4470654Y3712311D01*
X4460494Y3703167D01*
X4451705Y3692753D01*
X4444390Y3681272D01*
X4438650Y3668877D01*
X4434586Y3655872D01*
X4432350Y3642410D01*
X4431893Y3628796D01*
X4433214Y3615232D01*
X4436414Y3601974D01*
X4441291Y3589223D01*
X4447844Y3577285D01*
X4455922Y3566312D01*
X4465421Y3556508D01*
X4476140Y3548024D01*
X4487875Y3541064D01*
X4500422Y3535781D01*
X4513580Y3532174D01*
X4527092Y3530346D01*
X4540707Y3530346D01*
X4554220Y3532174D01*
X4567377Y3535781D01*
X4579924Y3541064D01*
X4591659Y3548024D01*
X4602378Y3556508D01*
X4611878Y3566312D01*
X4619955Y3577285D01*
X4626508Y3589223D01*
X4631385Y3601974D01*
X4634585Y3615232D01*
X4635906Y3628796D01*
X4635449Y3642410D01*
X4633214Y3655872D01*
X4629150Y3668877D01*
X4623409Y3681272D01*
X4616094Y3692753D01*
X4607306Y3703167D01*
X4597146Y3712311D01*
X4585919Y3720033D01*
X4578096Y3723995D01*
X4575149Y3726230D01*
X4573168Y3729431D01*
X4572508Y3733037D01*
X4572508Y3784092D01*
X4571695Y3792118D01*
X4569510Y3799332D01*
X4565954Y3806037D01*
X4560824Y3812235D01*
X4390440Y3982669D01*
X4388256Y3985920D01*
X4387494Y3989832D01*
X4388256Y3993743D01*
X4390440Y3996994D01*
X4393742Y3999229D01*
X4397654Y3999992D01*
X6583781Y3999992D01*
X6587693Y3999229D01*
X6590995Y3996994D01*
X6924446Y3663543D01*
X6926529Y3660546D01*
X6927392Y3656990D01*
X6926935Y3653383D01*
X6923786Y3643172D01*
X6921550Y3629710D01*
X6921093Y3616096D01*
X6922414Y3602532D01*
X6925614Y3589274D01*
X6930491Y3576523D01*
X6937044Y3564585D01*
X6945122Y3553612D01*
X6954621Y3543808D01*
X6965340Y3535324D01*
X6977075Y3528364D01*
X6989622Y3523081D01*
X7002780Y3519474D01*
X7016292Y3517646D01*
X7029907Y3517646D01*
X7043420Y3519474D01*
X7056577Y3523081D01*
X7069124Y3528364D01*
X7080859Y3535324D01*
X7091578Y3543808D01*
X7101078Y3553612D01*
X7109155Y3564585D01*
X7115708Y3576523D01*
X7120585Y3589274D01*
X7123785Y3602532D01*
X7125106Y3616096D01*
X7124649Y3629710D01*
X7122414Y3643172D01*
X7118350Y3656177D01*
X7112609Y3668572D01*
X7105294Y3680053D01*
X7096506Y3690467D01*
X7086346Y3699611D01*
X7075119Y3707333D01*
X7062978Y3713479D01*
X7050074Y3717950D01*
X7036714Y3720693D01*
X7023100Y3721608D01*
X7009485Y3720693D01*
X6996125Y3717950D01*
X6989622Y3715715D01*
X6985863Y3715156D01*
X6982206Y3715969D01*
X6979107Y3718102D01*
X6714540Y3982669D01*
X6712356Y3985920D01*
X6711594Y3989832D01*
X6712356Y3993743D01*
X6714540Y3996994D01*
X6717842Y3999229D01*
X6721754Y3999992D01*
X8971381Y3999992D01*
X8975293Y3999229D01*
X8978595Y3996994D01*
X9324746Y3650843D01*
X9326829Y3647846D01*
X9327692Y3644290D01*
X9327235Y3640683D01*
X9324086Y3630472D01*
X9321850Y3617010D01*
X9321393Y3603396D01*
X9322714Y3589832D01*
X9325914Y3576574D01*
X9330791Y3563823D01*
X9337344Y3551885D01*
X9345422Y3540912D01*
X9354921Y3531108D01*
X9365640Y3522624D01*
X9377375Y3515664D01*
X9389922Y3510381D01*
X9403080Y3506774D01*
G37*
G36*
X9721850Y3515004D02*
G01*
X9723424Y3515664D01*
X9735159Y3522624D01*
X9745878Y3531108D01*
X9755378Y3540912D01*
X9763455Y3551885D01*
X9769195Y3562350D01*
X9721850Y3562350D01*
G37*
G36*
X9886950Y3515004D02*
G01*
X9886950Y3562350D01*
X9839604Y3562350D01*
X9845344Y3551885D01*
X9853422Y3540912D01*
X9862921Y3531108D01*
X9873640Y3522624D01*
X9885375Y3515664D01*
G37*
G36*
X9975850Y3515004D02*
G01*
X9977424Y3515664D01*
X9989159Y3522624D01*
X9999878Y3531108D01*
X10009378Y3540912D01*
X10017455Y3551885D01*
X10023195Y3562350D01*
X9975850Y3562350D01*
G37*
G36*
X9632950Y3515004D02*
G01*
X9632950Y3562350D01*
X9585604Y3562350D01*
X9591344Y3551885D01*
X9599422Y3540912D01*
X9608921Y3531108D01*
X9619640Y3522624D01*
X9631375Y3515664D01*
G37*
G36*
X2698292Y3517646D02*
G01*
X2711907Y3517646D01*
X2725420Y3519474D01*
X2738577Y3523081D01*
X2751124Y3528364D01*
X2762859Y3535324D01*
X2773578Y3543808D01*
X2783078Y3553612D01*
X2791155Y3564585D01*
X2797708Y3576523D01*
X2802585Y3589274D01*
X2805785Y3602532D01*
X2807106Y3616096D01*
X2806649Y3629710D01*
X2804414Y3643172D01*
X2800350Y3656177D01*
X2794609Y3668572D01*
X2787294Y3680053D01*
X2778506Y3690467D01*
X2768346Y3699611D01*
X2757119Y3707333D01*
X2744978Y3713479D01*
X2732074Y3717950D01*
X2718714Y3720693D01*
X2705100Y3721608D01*
X2691485Y3720693D01*
X2678125Y3717950D01*
X2665222Y3713479D01*
X2653080Y3707333D01*
X2641854Y3699611D01*
X2631694Y3690467D01*
X2622905Y3680053D01*
X2615590Y3668572D01*
X2609850Y3656177D01*
X2605786Y3643172D01*
X2603550Y3629710D01*
X2603093Y3616096D01*
X2604414Y3602532D01*
X2607614Y3589274D01*
X2612491Y3576523D01*
X2619044Y3564585D01*
X2627122Y3553612D01*
X2636621Y3543808D01*
X2647340Y3535324D01*
X2659075Y3528364D01*
X2671622Y3523081D01*
X2684780Y3519474D01*
G37*
G36*
X2952292Y3517646D02*
G01*
X2965907Y3517646D01*
X2979420Y3519474D01*
X2992577Y3523081D01*
X3005124Y3528364D01*
X3016859Y3535324D01*
X3027578Y3543808D01*
X3037078Y3553612D01*
X3045155Y3564585D01*
X3051708Y3576523D01*
X3056585Y3589274D01*
X3059785Y3602532D01*
X3061106Y3616096D01*
X3060649Y3629710D01*
X3058414Y3643172D01*
X3054350Y3656177D01*
X3048609Y3668572D01*
X3041294Y3680053D01*
X3032506Y3690467D01*
X3022346Y3699611D01*
X3011119Y3707333D01*
X2998978Y3713479D01*
X2986074Y3717950D01*
X2972714Y3720693D01*
X2959100Y3721608D01*
X2945485Y3720693D01*
X2932125Y3717950D01*
X2919222Y3713479D01*
X2907080Y3707333D01*
X2895854Y3699611D01*
X2885694Y3690467D01*
X2876905Y3680053D01*
X2869590Y3668572D01*
X2863850Y3656177D01*
X2859786Y3643172D01*
X2857550Y3629710D01*
X2857093Y3616096D01*
X2858414Y3602532D01*
X2861614Y3589274D01*
X2866491Y3576523D01*
X2873044Y3564585D01*
X2881122Y3553612D01*
X2890621Y3543808D01*
X2901340Y3535324D01*
X2913075Y3528364D01*
X2925622Y3523081D01*
X2938780Y3519474D01*
G37*
G36*
X6508292Y3517646D02*
G01*
X6521907Y3517646D01*
X6535420Y3519474D01*
X6548577Y3523081D01*
X6561124Y3528364D01*
X6572859Y3535324D01*
X6583578Y3543808D01*
X6593078Y3553612D01*
X6601155Y3564585D01*
X6607708Y3576523D01*
X6612585Y3589274D01*
X6615785Y3602532D01*
X6617106Y3616096D01*
X6616649Y3629710D01*
X6614414Y3643172D01*
X6610350Y3656177D01*
X6604609Y3668572D01*
X6597294Y3680053D01*
X6588506Y3690467D01*
X6578346Y3699611D01*
X6567119Y3707333D01*
X6554978Y3713479D01*
X6542074Y3717950D01*
X6528714Y3720693D01*
X6515100Y3721608D01*
X6501485Y3720693D01*
X6488125Y3717950D01*
X6475222Y3713479D01*
X6463080Y3707333D01*
X6451854Y3699611D01*
X6441694Y3690467D01*
X6432905Y3680053D01*
X6425590Y3668572D01*
X6419850Y3656177D01*
X6415786Y3643172D01*
X6413550Y3629710D01*
X6413093Y3616096D01*
X6414414Y3602532D01*
X6417614Y3589274D01*
X6422491Y3576523D01*
X6429044Y3564585D01*
X6437122Y3553612D01*
X6446621Y3543808D01*
X6457340Y3535324D01*
X6469075Y3528364D01*
X6481622Y3523081D01*
X6494780Y3519474D01*
G37*
G36*
X7524292Y3517646D02*
G01*
X7537907Y3517646D01*
X7551420Y3519474D01*
X7564577Y3523081D01*
X7577124Y3528364D01*
X7588859Y3535324D01*
X7599578Y3543808D01*
X7609078Y3553612D01*
X7617155Y3564585D01*
X7623708Y3576523D01*
X7628585Y3589274D01*
X7631785Y3602532D01*
X7633106Y3616096D01*
X7632649Y3629710D01*
X7630414Y3643172D01*
X7626350Y3656177D01*
X7620609Y3668572D01*
X7613294Y3680053D01*
X7604506Y3690467D01*
X7594346Y3699611D01*
X7583119Y3707333D01*
X7570978Y3713479D01*
X7558074Y3717950D01*
X7544714Y3720693D01*
X7531100Y3721608D01*
X7517485Y3720693D01*
X7504125Y3717950D01*
X7491222Y3713479D01*
X7479080Y3707333D01*
X7467853Y3699611D01*
X7457694Y3690467D01*
X7448905Y3680053D01*
X7441590Y3668572D01*
X7435850Y3656177D01*
X7431786Y3643172D01*
X7429550Y3629710D01*
X7429093Y3616096D01*
X7430414Y3602532D01*
X7433614Y3589274D01*
X7438491Y3576523D01*
X7445044Y3564585D01*
X7453122Y3553612D01*
X7462621Y3543808D01*
X7473340Y3535324D01*
X7485075Y3528364D01*
X7497622Y3523081D01*
X7510780Y3519474D01*
G37*
G36*
X6000292Y3517646D02*
G01*
X6013907Y3517646D01*
X6027420Y3519474D01*
X6040577Y3523081D01*
X6053124Y3528364D01*
X6064859Y3535324D01*
X6075578Y3543808D01*
X6085078Y3553612D01*
X6093155Y3564585D01*
X6099708Y3576523D01*
X6104585Y3589274D01*
X6107785Y3602532D01*
X6109106Y3616096D01*
X6108649Y3629710D01*
X6106414Y3643172D01*
X6102350Y3656177D01*
X6096609Y3668572D01*
X6089294Y3680053D01*
X6080506Y3690467D01*
X6070346Y3699611D01*
X6059119Y3707333D01*
X6046978Y3713479D01*
X6034074Y3717950D01*
X6020714Y3720693D01*
X6007100Y3721608D01*
X5993485Y3720693D01*
X5980125Y3717950D01*
X5967222Y3713479D01*
X5955080Y3707333D01*
X5943854Y3699611D01*
X5933694Y3690467D01*
X5924905Y3680053D01*
X5917590Y3668572D01*
X5911850Y3656177D01*
X5907786Y3643172D01*
X5905550Y3629710D01*
X5905093Y3616096D01*
X5906414Y3602532D01*
X5909614Y3589274D01*
X5914491Y3576523D01*
X5921044Y3564585D01*
X5929122Y3553612D01*
X5938621Y3543808D01*
X5949340Y3535324D01*
X5961075Y3528364D01*
X5973622Y3523081D01*
X5986780Y3519474D01*
G37*
G36*
X2444292Y3517646D02*
G01*
X2457907Y3517646D01*
X2471420Y3519474D01*
X2484577Y3523081D01*
X2497124Y3528364D01*
X2508859Y3535324D01*
X2519578Y3543808D01*
X2529078Y3553612D01*
X2537155Y3564585D01*
X2543708Y3576523D01*
X2548585Y3589274D01*
X2551785Y3602532D01*
X2553106Y3616096D01*
X2552649Y3629710D01*
X2550414Y3643172D01*
X2546350Y3656177D01*
X2540609Y3668572D01*
X2533294Y3680053D01*
X2524506Y3690467D01*
X2514346Y3699611D01*
X2503119Y3707333D01*
X2490978Y3713479D01*
X2478074Y3717950D01*
X2464714Y3720693D01*
X2451100Y3721608D01*
X2437485Y3720693D01*
X2424125Y3717950D01*
X2411222Y3713479D01*
X2399080Y3707333D01*
X2387854Y3699611D01*
X2377694Y3690467D01*
X2368905Y3680053D01*
X2361590Y3668572D01*
X2355850Y3656177D01*
X2351786Y3643172D01*
X2349550Y3629710D01*
X2349093Y3616096D01*
X2350414Y3602532D01*
X2353614Y3589274D01*
X2358491Y3576523D01*
X2365044Y3564585D01*
X2373122Y3553612D01*
X2382621Y3543808D01*
X2393340Y3535324D01*
X2405075Y3528364D01*
X2417622Y3523081D01*
X2430780Y3519474D01*
G37*
G36*
X7778292Y3517646D02*
G01*
X7791907Y3517646D01*
X7805420Y3519474D01*
X7818577Y3523081D01*
X7831124Y3528364D01*
X7842859Y3535324D01*
X7853578Y3543808D01*
X7863078Y3553612D01*
X7871155Y3564585D01*
X7877708Y3576523D01*
X7882585Y3589274D01*
X7885785Y3602532D01*
X7887106Y3616096D01*
X7886649Y3629710D01*
X7884414Y3643172D01*
X7880350Y3656177D01*
X7874609Y3668572D01*
X7867294Y3680053D01*
X7858506Y3690467D01*
X7848346Y3699611D01*
X7837119Y3707333D01*
X7824978Y3713479D01*
X7812074Y3717950D01*
X7798714Y3720693D01*
X7785100Y3721608D01*
X7771485Y3720693D01*
X7758125Y3717950D01*
X7745222Y3713479D01*
X7733080Y3707333D01*
X7721853Y3699611D01*
X7711694Y3690467D01*
X7702905Y3680053D01*
X7695590Y3668572D01*
X7689850Y3656177D01*
X7685786Y3643172D01*
X7683550Y3629710D01*
X7683093Y3616096D01*
X7684414Y3602532D01*
X7687614Y3589274D01*
X7692491Y3576523D01*
X7699044Y3564585D01*
X7707122Y3553612D01*
X7716621Y3543808D01*
X7727340Y3535324D01*
X7739075Y3528364D01*
X7751622Y3523081D01*
X7764780Y3519474D01*
G37*
G36*
X6254292Y3517646D02*
G01*
X6267907Y3517646D01*
X6281420Y3519474D01*
X6294577Y3523081D01*
X6307124Y3528364D01*
X6318859Y3535324D01*
X6329578Y3543808D01*
X6339078Y3553612D01*
X6347155Y3564585D01*
X6353708Y3576523D01*
X6358585Y3589274D01*
X6361785Y3602532D01*
X6363106Y3616096D01*
X6362649Y3629710D01*
X6360414Y3643172D01*
X6356350Y3656177D01*
X6350609Y3668572D01*
X6343294Y3680053D01*
X6334506Y3690467D01*
X6324346Y3699611D01*
X6313119Y3707333D01*
X6300978Y3713479D01*
X6288074Y3717950D01*
X6274714Y3720693D01*
X6261100Y3721608D01*
X6247485Y3720693D01*
X6234125Y3717950D01*
X6221222Y3713479D01*
X6209080Y3707333D01*
X6197854Y3699611D01*
X6187694Y3690467D01*
X6178905Y3680053D01*
X6171590Y3668572D01*
X6165850Y3656177D01*
X6161786Y3643172D01*
X6159550Y3629710D01*
X6159093Y3616096D01*
X6160414Y3602532D01*
X6163614Y3589274D01*
X6168491Y3576523D01*
X6175044Y3564585D01*
X6183122Y3553612D01*
X6192621Y3543808D01*
X6203340Y3535324D01*
X6215075Y3528364D01*
X6227622Y3523081D01*
X6240780Y3519474D01*
G37*
G36*
X6762292Y3517646D02*
G01*
X6775907Y3517646D01*
X6789420Y3519474D01*
X6802577Y3523081D01*
X6815124Y3528364D01*
X6826859Y3535324D01*
X6837578Y3543808D01*
X6847078Y3553612D01*
X6855155Y3564585D01*
X6861708Y3576523D01*
X6866585Y3589274D01*
X6869785Y3602532D01*
X6871106Y3616096D01*
X6870649Y3629710D01*
X6868414Y3643172D01*
X6864350Y3656177D01*
X6858609Y3668572D01*
X6851294Y3680053D01*
X6842506Y3690467D01*
X6832346Y3699611D01*
X6821119Y3707333D01*
X6808978Y3713479D01*
X6796074Y3717950D01*
X6782714Y3720693D01*
X6769100Y3721608D01*
X6755485Y3720693D01*
X6742125Y3717950D01*
X6729222Y3713479D01*
X6717080Y3707333D01*
X6705853Y3699611D01*
X6695694Y3690467D01*
X6686905Y3680053D01*
X6679590Y3668572D01*
X6673850Y3656177D01*
X6669786Y3643172D01*
X6667550Y3629710D01*
X6667093Y3616096D01*
X6668414Y3602532D01*
X6671614Y3589274D01*
X6676491Y3576523D01*
X6683044Y3564585D01*
X6691122Y3553612D01*
X6700621Y3543808D01*
X6711340Y3535324D01*
X6723075Y3528364D01*
X6735622Y3523081D01*
X6748780Y3519474D01*
G37*
G36*
X1936292Y3517646D02*
G01*
X1949907Y3517646D01*
X1963420Y3519474D01*
X1976577Y3523081D01*
X1989124Y3528364D01*
X2000859Y3535324D01*
X2011578Y3543808D01*
X2021078Y3553612D01*
X2029155Y3564585D01*
X2035708Y3576523D01*
X2040585Y3589274D01*
X2043785Y3602532D01*
X2045106Y3616096D01*
X2044649Y3629710D01*
X2042414Y3643172D01*
X2038350Y3656177D01*
X2032609Y3668572D01*
X2025294Y3680053D01*
X2016506Y3690467D01*
X2006346Y3699611D01*
X1995119Y3707333D01*
X1982978Y3713479D01*
X1970074Y3717950D01*
X1956714Y3720693D01*
X1943100Y3721608D01*
X1929485Y3720693D01*
X1916125Y3717950D01*
X1903222Y3713479D01*
X1891080Y3707333D01*
X1879854Y3699611D01*
X1869693Y3690467D01*
X1860905Y3680053D01*
X1853590Y3668572D01*
X1847850Y3656177D01*
X1843786Y3643172D01*
X1841550Y3629710D01*
X1841093Y3616096D01*
X1842414Y3602532D01*
X1845614Y3589274D01*
X1850491Y3576523D01*
X1857044Y3564585D01*
X1865122Y3553612D01*
X1874621Y3543808D01*
X1885340Y3535324D01*
X1897075Y3528364D01*
X1909622Y3523081D01*
X1922780Y3519474D01*
G37*
G36*
X1174292Y3517646D02*
G01*
X1187907Y3517646D01*
X1201420Y3519474D01*
X1214577Y3523081D01*
X1227124Y3528364D01*
X1238859Y3535324D01*
X1249578Y3543808D01*
X1259078Y3553612D01*
X1267155Y3564585D01*
X1273708Y3576523D01*
X1278585Y3589274D01*
X1281785Y3602532D01*
X1283106Y3616096D01*
X1282649Y3629710D01*
X1280414Y3643172D01*
X1276350Y3656177D01*
X1270609Y3668572D01*
X1263294Y3680053D01*
X1254506Y3690467D01*
X1244346Y3699611D01*
X1233119Y3707333D01*
X1220978Y3713479D01*
X1208074Y3717950D01*
X1194714Y3720693D01*
X1181100Y3721608D01*
X1167485Y3720693D01*
X1154125Y3717950D01*
X1141222Y3713479D01*
X1129080Y3707333D01*
X1117854Y3699611D01*
X1107694Y3690467D01*
X1098905Y3680053D01*
X1091590Y3668572D01*
X1085850Y3656177D01*
X1081786Y3643172D01*
X1079550Y3629710D01*
X1079093Y3616096D01*
X1080414Y3602532D01*
X1083614Y3589274D01*
X1088491Y3576523D01*
X1095044Y3564585D01*
X1103122Y3553612D01*
X1112621Y3543808D01*
X1123340Y3535324D01*
X1135075Y3528364D01*
X1147622Y3523081D01*
X1160780Y3519474D01*
G37*
G36*
X1682292Y3517646D02*
G01*
X1695907Y3517646D01*
X1709420Y3519474D01*
X1722577Y3523081D01*
X1735124Y3528364D01*
X1746859Y3535324D01*
X1757578Y3543808D01*
X1767078Y3553612D01*
X1775155Y3564585D01*
X1781708Y3576523D01*
X1786585Y3589274D01*
X1789785Y3602532D01*
X1791106Y3616096D01*
X1790649Y3629710D01*
X1788414Y3643172D01*
X1784350Y3656177D01*
X1778609Y3668572D01*
X1771294Y3680053D01*
X1762506Y3690467D01*
X1752346Y3699611D01*
X1741119Y3707333D01*
X1728978Y3713479D01*
X1716074Y3717950D01*
X1702714Y3720693D01*
X1689100Y3721608D01*
X1675485Y3720693D01*
X1662125Y3717950D01*
X1649222Y3713479D01*
X1637080Y3707333D01*
X1625854Y3699611D01*
X1615694Y3690467D01*
X1606905Y3680053D01*
X1599590Y3668572D01*
X1593850Y3656177D01*
X1589786Y3643172D01*
X1587550Y3629710D01*
X1587093Y3616096D01*
X1588414Y3602532D01*
X1591614Y3589274D01*
X1596491Y3576523D01*
X1603044Y3564585D01*
X1611122Y3553612D01*
X1620621Y3543808D01*
X1631340Y3535324D01*
X1643075Y3528364D01*
X1655622Y3523081D01*
X1668780Y3519474D01*
G37*
G36*
X1428292Y3517646D02*
G01*
X1441907Y3517646D01*
X1455420Y3519474D01*
X1468577Y3523081D01*
X1481124Y3528364D01*
X1492859Y3535324D01*
X1503578Y3543808D01*
X1513078Y3553612D01*
X1521155Y3564585D01*
X1527708Y3576523D01*
X1532585Y3589274D01*
X1535785Y3602532D01*
X1537106Y3616096D01*
X1536649Y3629710D01*
X1534414Y3643172D01*
X1530350Y3656177D01*
X1524609Y3668572D01*
X1517294Y3680053D01*
X1508506Y3690467D01*
X1498346Y3699611D01*
X1487119Y3707333D01*
X1474978Y3713479D01*
X1462074Y3717950D01*
X1448714Y3720693D01*
X1435100Y3721608D01*
X1421485Y3720693D01*
X1408125Y3717950D01*
X1395222Y3713479D01*
X1383080Y3707333D01*
X1371854Y3699611D01*
X1361694Y3690467D01*
X1352905Y3680053D01*
X1345590Y3668572D01*
X1339850Y3656177D01*
X1335786Y3643172D01*
X1333550Y3629710D01*
X1333093Y3616096D01*
X1334414Y3602532D01*
X1337614Y3589274D01*
X1342491Y3576523D01*
X1349044Y3564585D01*
X1357122Y3553612D01*
X1366621Y3543808D01*
X1377340Y3535324D01*
X1389075Y3528364D01*
X1401622Y3523081D01*
X1414780Y3519474D01*
G37*
G36*
X5804154Y5950712D02*
G01*
X5817362Y5950712D01*
X5823712Y5951423D01*
X5829147Y5953302D01*
X5834075Y5956401D01*
X5838139Y5960465D01*
X5841238Y5965393D01*
X5843168Y5970828D01*
X5843879Y5977178D01*
X5843879Y5991860D01*
X5804154Y5991860D01*
G37*
G36*
X6972553Y5950712D02*
G01*
X6985762Y5950712D01*
X6992112Y5951423D01*
X6997547Y5953302D01*
X7002475Y5956401D01*
X7006539Y5960465D01*
X7009638Y5965393D01*
X7011568Y5970828D01*
X7012279Y5977178D01*
X7012279Y5991860D01*
X6972553Y5991860D01*
G37*
G36*
X7321550Y3527704D02*
G01*
X7323124Y3528364D01*
X7334859Y3535324D01*
X7345578Y3543808D01*
X7355078Y3553612D01*
X7363155Y3564585D01*
X7368895Y3575050D01*
X7321550Y3575050D01*
G37*
G36*
X1308303Y508304D02*
G01*
X10276941Y508355D01*
X10285780Y509168D01*
X10288219Y509574D01*
X10296855Y511708D01*
X10299192Y512470D01*
X10307421Y515874D01*
X10309606Y516991D01*
X10317226Y521614D01*
X10326065Y528675D01*
X10596524Y799134D01*
X10603585Y807974D01*
X10608208Y815594D01*
X10609326Y817778D01*
X10612729Y826008D01*
X10613491Y828344D01*
X10615625Y836980D01*
X10616031Y839419D01*
X10616844Y848258D01*
X10616844Y5717641D01*
X10616031Y5726480D01*
X10615625Y5728919D01*
X10613491Y5737555D01*
X10612729Y5739892D01*
X10609326Y5748121D01*
X10608208Y5750306D01*
X10603585Y5757926D01*
X10596524Y5766765D01*
X10364266Y5999073D01*
X10362082Y6002375D01*
X10361320Y6006236D01*
X10361320Y6220053D01*
X10360609Y6226352D01*
X10358678Y6231788D01*
X10355580Y6236716D01*
X10351516Y6240780D01*
X10346588Y6243878D01*
X10341152Y6245809D01*
X10334853Y6246520D01*
X10035946Y6246520D01*
X10029647Y6245809D01*
X10024211Y6243878D01*
X10019284Y6240780D01*
X10015220Y6236716D01*
X10012121Y6231788D01*
X10010190Y6226352D01*
X10009479Y6220053D01*
X10009479Y5921146D01*
X10010190Y5914847D01*
X10012121Y5909411D01*
X10015220Y5904484D01*
X10019284Y5900420D01*
X10024211Y5897321D01*
X10029647Y5895390D01*
X10035946Y5894679D01*
X10249763Y5894679D01*
X10253624Y5893917D01*
X10256926Y5891733D01*
X10462107Y5686552D01*
X10464342Y5683250D01*
X10465104Y5679338D01*
X10465104Y2188972D01*
X10464342Y2185111D01*
X10462107Y2181809D01*
X10458805Y2179624D01*
X10454944Y2178812D01*
X10451033Y2179624D01*
X10447731Y2181809D01*
X10289946Y2339594D01*
X10287812Y2342743D01*
X10284714Y2360472D01*
X10280650Y2373477D01*
X10274909Y2385872D01*
X10267594Y2397353D01*
X10258806Y2407767D01*
X10248646Y2416911D01*
X10237419Y2424633D01*
X10225278Y2430780D01*
X10212374Y2435250D01*
X10199014Y2437993D01*
X10185400Y2438908D01*
X10171785Y2437993D01*
X10158425Y2435250D01*
X10145522Y2430780D01*
X10133380Y2424633D01*
X10122154Y2416911D01*
X10111994Y2407767D01*
X10103205Y2397353D01*
X10095890Y2385872D01*
X10090150Y2373477D01*
X10086086Y2360472D01*
X10083850Y2347010D01*
X10083393Y2333396D01*
X10084714Y2319832D01*
X10087914Y2306574D01*
X10092791Y2293823D01*
X10099344Y2281885D01*
X10107422Y2270912D01*
X10116921Y2261108D01*
X10127640Y2252624D01*
X10139375Y2245664D01*
X10151922Y2240381D01*
X10165080Y2236774D01*
X10176713Y2235200D01*
X10179862Y2234234D01*
X10182555Y2232304D01*
X10462107Y1952752D01*
X10464342Y1949450D01*
X10465104Y1945538D01*
X10465104Y886561D01*
X10464342Y882650D01*
X10462107Y879348D01*
X10245852Y663092D01*
X10242550Y660857D01*
X10238638Y660095D01*
X7751572Y660095D01*
X7747711Y660857D01*
X7744409Y663092D01*
X7742224Y666394D01*
X7741412Y670255D01*
X7742224Y674166D01*
X7744409Y677468D01*
X7840624Y773734D01*
X7847685Y782574D01*
X7852308Y790194D01*
X7853425Y792378D01*
X7856829Y800608D01*
X7857591Y802944D01*
X7859725Y811580D01*
X7860131Y814019D01*
X7860944Y822858D01*
X7860995Y2277465D01*
X7861503Y2280666D01*
X7862976Y2283510D01*
X7871155Y2294585D01*
X7877708Y2306523D01*
X7882585Y2319274D01*
X7885785Y2332532D01*
X7887106Y2346096D01*
X7886649Y2359710D01*
X7884414Y2373172D01*
X7880350Y2386177D01*
X7874609Y2398572D01*
X7867294Y2410053D01*
X7858506Y2420467D01*
X7848346Y2429611D01*
X7837119Y2437333D01*
X7824978Y2443480D01*
X7812074Y2447950D01*
X7798714Y2450693D01*
X7785100Y2451608D01*
X7771485Y2450693D01*
X7758125Y2447950D01*
X7745222Y2443480D01*
X7733080Y2437333D01*
X7721853Y2429611D01*
X7711694Y2420467D01*
X7702905Y2410053D01*
X7695590Y2398572D01*
X7689850Y2386177D01*
X7685786Y2373172D01*
X7683550Y2359710D01*
X7683093Y2346096D01*
X7684414Y2332532D01*
X7687614Y2319274D01*
X7692491Y2306523D01*
X7699044Y2294585D01*
X7707223Y2283510D01*
X7708696Y2280666D01*
X7709204Y2277465D01*
X7709204Y861161D01*
X7708442Y857250D01*
X7706207Y853948D01*
X7515352Y663092D01*
X7512050Y660857D01*
X7508138Y660095D01*
X5135372Y660095D01*
X5131511Y660857D01*
X5128209Y663092D01*
X5126024Y666394D01*
X5125212Y670255D01*
X5126024Y674166D01*
X5128209Y677468D01*
X5351424Y900734D01*
X5358485Y909574D01*
X5363108Y917194D01*
X5364226Y919378D01*
X5367629Y927608D01*
X5368391Y929944D01*
X5370525Y938580D01*
X5370931Y941019D01*
X5371744Y949858D01*
X5371795Y2290165D01*
X5372303Y2293366D01*
X5373776Y2296210D01*
X5381955Y2307285D01*
X5388508Y2319223D01*
X5393385Y2331974D01*
X5396585Y2345232D01*
X5397906Y2358796D01*
X5397449Y2372410D01*
X5395214Y2385872D01*
X5391150Y2398877D01*
X5385409Y2411272D01*
X5378094Y2422753D01*
X5369306Y2433167D01*
X5359146Y2442311D01*
X5347919Y2450033D01*
X5335778Y2456180D01*
X5322874Y2460650D01*
X5309514Y2463393D01*
X5295900Y2464308D01*
X5282285Y2463393D01*
X5268925Y2460650D01*
X5256022Y2456180D01*
X5243880Y2450033D01*
X5232654Y2442311D01*
X5222494Y2433167D01*
X5213705Y2422753D01*
X5206390Y2411272D01*
X5200650Y2398877D01*
X5196586Y2385872D01*
X5194350Y2372410D01*
X5193893Y2358796D01*
X5195214Y2345232D01*
X5198414Y2331974D01*
X5203291Y2319223D01*
X5209844Y2307285D01*
X5218023Y2296210D01*
X5219496Y2293366D01*
X5220004Y2290165D01*
X5220004Y988161D01*
X5219242Y984250D01*
X5217007Y980948D01*
X4899152Y663092D01*
X4895850Y660857D01*
X4891938Y660095D01*
X2785872Y660095D01*
X2782011Y660857D01*
X2778709Y663092D01*
X2776524Y666394D01*
X2775712Y670255D01*
X2776524Y674166D01*
X2778709Y677468D01*
X3014624Y913434D01*
X3021685Y922274D01*
X3026308Y929894D01*
X3027426Y932078D01*
X3030829Y940308D01*
X3031591Y942644D01*
X3033725Y951280D01*
X3034131Y953719D01*
X3034944Y962558D01*
X3034995Y2277465D01*
X3035503Y2280666D01*
X3036976Y2283510D01*
X3045155Y2294585D01*
X3051708Y2306523D01*
X3056585Y2319274D01*
X3059785Y2332532D01*
X3061106Y2346096D01*
X3060649Y2359710D01*
X3058414Y2373172D01*
X3054350Y2386177D01*
X3048609Y2398572D01*
X3041294Y2410053D01*
X3032506Y2420467D01*
X3022346Y2429611D01*
X3011119Y2437333D01*
X2998978Y2443480D01*
X2986074Y2447950D01*
X2972714Y2450693D01*
X2959100Y2451608D01*
X2945485Y2450693D01*
X2932125Y2447950D01*
X2919222Y2443480D01*
X2907080Y2437333D01*
X2895854Y2429611D01*
X2885694Y2420467D01*
X2876905Y2410053D01*
X2869590Y2398572D01*
X2863850Y2386177D01*
X2859786Y2373172D01*
X2857550Y2359710D01*
X2857093Y2346096D01*
X2858414Y2332532D01*
X2861614Y2319274D01*
X2866491Y2306523D01*
X2873044Y2294585D01*
X2881223Y2283510D01*
X2882696Y2280666D01*
X2883204Y2277465D01*
X2883204Y1000861D01*
X2882442Y996950D01*
X2880207Y993648D01*
X2549652Y663092D01*
X2546350Y660857D01*
X2542438Y660095D01*
X1353464Y660095D01*
X1350213Y660654D01*
X1347317Y662178D01*
X1345082Y664514D01*
X1065987Y1071473D01*
X1062634Y1075994D01*
X1058773Y1080465D01*
X1054912Y1084326D01*
X1050442Y1088186D01*
X1046073Y1091387D01*
X1041044Y1094536D01*
X1036269Y1097076D01*
X1030833Y1099413D01*
X1025702Y1101242D01*
X1019962Y1102766D01*
X1014628Y1103731D01*
X1008735Y1104392D01*
X1003096Y1104595D01*
X761390Y1104595D01*
X757834Y1105255D01*
X754735Y1107135D01*
X749503Y1111707D01*
X738124Y1119327D01*
X725830Y1125372D01*
X712876Y1129741D01*
X699465Y1132433D01*
X692505Y1132890D01*
X689000Y1133754D01*
X686003Y1135837D01*
X643077Y1178814D01*
X640842Y1182065D01*
X640080Y1185976D01*
X640080Y1236980D01*
X587095Y1236980D01*
X583336Y1237691D01*
X580136Y1239723D01*
X421995Y1388008D01*
X419658Y1391361D01*
X418795Y1395425D01*
X418795Y2013102D01*
X419557Y2017014D01*
X421792Y2020316D01*
X534771Y2133244D01*
X538327Y2135581D01*
X542594Y2136241D01*
X546100Y2135987D01*
X560628Y2136902D01*
X574903Y2139645D01*
X588772Y2144115D01*
X601929Y2150313D01*
X614222Y2158136D01*
X625449Y2167432D01*
X635406Y2177999D01*
X643940Y2189784D01*
X650951Y2202535D01*
X656336Y2216099D01*
X659942Y2230170D01*
X661771Y2244598D01*
X661771Y2259177D01*
X659942Y2273604D01*
X656336Y2287676D01*
X650951Y2301240D01*
X643940Y2313990D01*
X635406Y2325776D01*
X625449Y2336342D01*
X614222Y2345639D01*
X601929Y2353462D01*
X588772Y2359660D01*
X574903Y2364130D01*
X560374Y2366924D01*
X556666Y2368397D01*
X553872Y2371191D01*
X552348Y2374900D01*
X552348Y2378862D01*
X553872Y2382570D01*
X556666Y2385364D01*
X560374Y2386888D01*
X574903Y2389632D01*
X588772Y2394153D01*
X601929Y2400350D01*
X614222Y2408123D01*
X625449Y2417419D01*
X635406Y2428036D01*
X643940Y2439771D01*
X650951Y2452522D01*
X656336Y2466086D01*
X659942Y2480157D01*
X661771Y2494635D01*
X661771Y2509164D01*
X659942Y2523591D01*
X656336Y2537714D01*
X650951Y2551226D01*
X643940Y2563977D01*
X635406Y2575763D01*
X625449Y2586380D01*
X614222Y2595626D01*
X601929Y2603449D01*
X588772Y2609646D01*
X574903Y2614117D01*
X560374Y2616911D01*
X556666Y2618384D01*
X553872Y2621229D01*
X552348Y2624886D01*
X552348Y2628900D01*
X553872Y2632557D01*
X556666Y2635351D01*
X560374Y2636875D01*
X574903Y2639618D01*
X588772Y2644140D01*
X601929Y2650337D01*
X614222Y2658110D01*
X625449Y2667406D01*
X629361Y2670403D01*
X633323Y2671267D01*
X637286Y2670556D01*
X640638Y2668320D01*
X759307Y2549652D01*
X761542Y2546350D01*
X762304Y2542438D01*
X762304Y1651507D01*
X761542Y1647596D01*
X759307Y1644345D01*
X756005Y1642110D01*
X752144Y1641348D01*
X607618Y1641348D01*
X601319Y1640636D01*
X595833Y1638706D01*
X590956Y1635658D01*
X586841Y1631543D01*
X583793Y1626666D01*
X581863Y1621180D01*
X581152Y1614881D01*
X581152Y1458518D01*
X581863Y1452219D01*
X583793Y1446733D01*
X586841Y1441856D01*
X590956Y1437741D01*
X595833Y1434693D01*
X601319Y1432763D01*
X607618Y1432052D01*
X763981Y1432052D01*
X770280Y1432763D01*
X775766Y1434693D01*
X780643Y1437741D01*
X784758Y1441856D01*
X787806Y1446733D01*
X789736Y1452219D01*
X790143Y1455674D01*
X791260Y1459331D01*
X793699Y1462328D01*
X797052Y1464157D01*
X807821Y1468374D01*
X810006Y1469491D01*
X817625Y1474114D01*
X826465Y1481175D01*
X893724Y1548434D01*
X900785Y1557274D01*
X905408Y1564894D01*
X906526Y1567078D01*
X909929Y1575308D01*
X910691Y1577644D01*
X912825Y1586280D01*
X913231Y1588719D01*
X914044Y1597558D01*
X914044Y2580741D01*
X913231Y2589580D01*
X912825Y2592019D01*
X910691Y2600655D01*
X909929Y2602992D01*
X906526Y2611221D01*
X905408Y2613406D01*
X900785Y2621026D01*
X893724Y2629865D01*
X716229Y2807360D01*
X707390Y2814421D01*
X699770Y2819044D01*
X697585Y2820162D01*
X689356Y2823565D01*
X687019Y2824327D01*
X678383Y2826461D01*
X675944Y2826867D01*
X667105Y2827680D01*
X637946Y2827731D01*
X633882Y2828594D01*
X630529Y2830931D01*
X625449Y2836367D01*
X614222Y2845663D01*
X601929Y2853436D01*
X588772Y2859633D01*
X574903Y2864154D01*
X560628Y2866847D01*
X546100Y2867761D01*
X531571Y2866847D01*
X517296Y2864154D01*
X503428Y2859633D01*
X490270Y2853436D01*
X477977Y2845663D01*
X466750Y2836367D01*
X456793Y2825750D01*
X450697Y2817317D01*
X447548Y2814523D01*
X443534Y2813202D01*
X439318Y2813659D01*
X435660Y2815742D01*
X433171Y2819196D01*
X432308Y2823311D01*
X432308Y3815181D01*
X433070Y3819093D01*
X435305Y3822395D01*
X1220724Y4607864D01*
X1225854Y4614062D01*
X1229410Y4620768D01*
X1231595Y4627981D01*
X1232408Y4636008D01*
X1232408Y4740706D01*
X1233271Y4744821D01*
X1235811Y4748276D01*
X1239469Y4750358D01*
X1243685Y4750816D01*
X1246378Y4750511D01*
X1395222Y4750511D01*
X1401572Y4751222D01*
X1407007Y4753102D01*
X1411935Y4756200D01*
X1415999Y4760264D01*
X1419098Y4765192D01*
X1420977Y4770628D01*
X1421688Y4776978D01*
X1421688Y4925822D01*
X1420977Y4932172D01*
X1419098Y4937607D01*
X1415999Y4942535D01*
X1411935Y4946599D01*
X1407007Y4949698D01*
X1401572Y4951577D01*
X1395222Y4952288D01*
X1246378Y4952288D01*
X1243685Y4951984D01*
X1239469Y4952441D01*
X1235811Y4954524D01*
X1233271Y4957978D01*
X1232408Y4962093D01*
X1232408Y6260592D01*
X1231595Y6268618D01*
X1229766Y6274816D01*
X1229360Y6278778D01*
X1230528Y6282588D01*
X1233068Y6285636D01*
X1236624Y6287516D01*
X1240586Y6287820D01*
X1246378Y6287211D01*
X1395222Y6287211D01*
X1401572Y6287922D01*
X1407007Y6289802D01*
X1411935Y6292900D01*
X1415999Y6296964D01*
X1419098Y6301892D01*
X1420977Y6307328D01*
X1421688Y6313678D01*
X1421688Y6430213D01*
X1422501Y6434074D01*
X1424686Y6437376D01*
X1456537Y6469227D01*
X1459839Y6471462D01*
X1463751Y6472224D01*
X1467612Y6471462D01*
X1470914Y6469227D01*
X1473098Y6465976D01*
X1473911Y6462064D01*
X1473911Y6313678D01*
X1474622Y6307328D01*
X1476502Y6301892D01*
X1479600Y6296964D01*
X1483664Y6292900D01*
X1488592Y6289802D01*
X1494028Y6287922D01*
X1500378Y6287211D01*
X1649222Y6287211D01*
X1655572Y6287922D01*
X1661007Y6289802D01*
X1665935Y6292900D01*
X1669999Y6296964D01*
X1673098Y6301892D01*
X1674977Y6307328D01*
X1675688Y6313678D01*
X1675688Y6462522D01*
X1674977Y6468872D01*
X1673098Y6474307D01*
X1669999Y6479235D01*
X1665935Y6483299D01*
X1661007Y6486398D01*
X1655572Y6488277D01*
X1649222Y6488988D01*
X1500835Y6488988D01*
X1496923Y6489801D01*
X1493672Y6491986D01*
X1491437Y6495288D01*
X1490675Y6499148D01*
X1491437Y6503060D01*
X1493672Y6506362D01*
X1511604Y6524294D01*
X1514906Y6526530D01*
X1518818Y6527292D01*
X3103981Y6527292D01*
X3107893Y6526530D01*
X3111195Y6524294D01*
X3566464Y6069076D01*
X3572662Y6063945D01*
X3579368Y6060389D01*
X3586581Y6058204D01*
X3594608Y6057392D01*
X4139692Y6057392D01*
X4147718Y6058204D01*
X4154932Y6060389D01*
X4161637Y6063945D01*
X4167835Y6069076D01*
X4407204Y6308394D01*
X4410506Y6310630D01*
X4414418Y6311392D01*
X7828381Y6311392D01*
X7832293Y6310630D01*
X7835595Y6308394D01*
X7851394Y6292596D01*
X7853476Y6289548D01*
X7854340Y6285890D01*
X7853832Y6282182D01*
X7852003Y6278930D01*
X7849108Y6276543D01*
X7837271Y6270040D01*
X7825536Y6261506D01*
X7814919Y6251549D01*
X7805623Y6240322D01*
X7797850Y6228029D01*
X7791653Y6214872D01*
X7787131Y6201003D01*
X7784388Y6186728D01*
X7783525Y6172200D01*
X7784490Y6157315D01*
X7787131Y6143396D01*
X7791653Y6129528D01*
X7797850Y6116370D01*
X7805623Y6104077D01*
X7814919Y6092850D01*
X7825536Y6082893D01*
X7837271Y6074359D01*
X7850022Y6067348D01*
X7863586Y6061964D01*
X7877657Y6058357D01*
X7892135Y6056528D01*
X7906664Y6056528D01*
X7921091Y6058357D01*
X7935214Y6061964D01*
X7948726Y6067348D01*
X7961477Y6074359D01*
X7973263Y6082893D01*
X7983880Y6092850D01*
X7993125Y6104077D01*
X8000949Y6116370D01*
X8007146Y6129528D01*
X8011617Y6143396D01*
X8014411Y6157925D01*
X8015884Y6161633D01*
X8018729Y6164427D01*
X8022386Y6165951D01*
X8026400Y6165951D01*
X8030057Y6164427D01*
X8032851Y6161633D01*
X8034375Y6157925D01*
X8037118Y6143396D01*
X8041640Y6129528D01*
X8047837Y6116370D01*
X8055609Y6104077D01*
X8064906Y6092850D01*
X8075523Y6082893D01*
X8087309Y6074359D01*
X8100059Y6067348D01*
X8113572Y6061964D01*
X8127695Y6058357D01*
X8142122Y6056528D01*
X8156651Y6056528D01*
X8171078Y6058357D01*
X8185200Y6061964D01*
X8198713Y6067348D01*
X8211464Y6074359D01*
X8223250Y6082893D01*
X8233867Y6092850D01*
X8243163Y6104077D01*
X8250936Y6116370D01*
X8257133Y6129528D01*
X8261654Y6143396D01*
X8264347Y6157671D01*
X8265261Y6172200D01*
X8264347Y6186728D01*
X8261654Y6201003D01*
X8257133Y6214872D01*
X8250936Y6228029D01*
X8243163Y6240322D01*
X8233867Y6251549D01*
X8223250Y6261506D01*
X8211464Y6270040D01*
X8198713Y6277051D01*
X8185200Y6282436D01*
X8171078Y6286042D01*
X8156651Y6287871D01*
X8142122Y6287871D01*
X8127695Y6286042D01*
X8113572Y6282436D01*
X8100059Y6277051D01*
X8087309Y6270040D01*
X8075523Y6261506D01*
X8064906Y6251549D01*
X8055609Y6240322D01*
X8047837Y6228029D01*
X8041640Y6214872D01*
X8037118Y6201003D01*
X8034375Y6186474D01*
X8032851Y6182766D01*
X8030057Y6179972D01*
X8026400Y6178448D01*
X8022386Y6178448D01*
X8018729Y6179972D01*
X8015884Y6182766D01*
X8014411Y6186474D01*
X8011617Y6201003D01*
X8007146Y6214872D01*
X8000949Y6228029D01*
X7993125Y6240322D01*
X7983880Y6251549D01*
X7973263Y6261506D01*
X7961477Y6270040D01*
X7948726Y6277051D01*
X7944408Y6278778D01*
X7941056Y6280962D01*
X7938770Y6284264D01*
X7938008Y6288227D01*
X7938008Y6298692D01*
X7937195Y6306718D01*
X7935010Y6313982D01*
X7931454Y6320637D01*
X7926324Y6326886D01*
X7876235Y6376924D01*
X7870037Y6382054D01*
X7863331Y6385610D01*
X7856118Y6387795D01*
X7848092Y6388608D01*
X4394708Y6388608D01*
X4386681Y6387795D01*
X4379468Y6385610D01*
X4372762Y6382054D01*
X4366564Y6376924D01*
X4127195Y6137605D01*
X4123893Y6135370D01*
X4119981Y6134608D01*
X3614318Y6134608D01*
X3610406Y6135370D01*
X3607104Y6137605D01*
X3151835Y6592824D01*
X3145637Y6597954D01*
X3138932Y6601510D01*
X3131718Y6603695D01*
X3123692Y6604508D01*
X1499108Y6604508D01*
X1491081Y6603695D01*
X1483868Y6601510D01*
X1477162Y6597954D01*
X1470964Y6592824D01*
X1370076Y6491986D01*
X1366774Y6489801D01*
X1362913Y6488988D01*
X1246378Y6488988D01*
X1240028Y6488277D01*
X1234592Y6486398D01*
X1229664Y6483299D01*
X1225600Y6479235D01*
X1222502Y6474307D01*
X1220622Y6468872D01*
X1219911Y6462522D01*
X1219911Y6314135D01*
X1219098Y6310223D01*
X1216914Y6306972D01*
X1213612Y6304737D01*
X1209751Y6303975D01*
X1205839Y6304737D01*
X1202537Y6306972D01*
X1170686Y6338824D01*
X1168501Y6342126D01*
X1167688Y6345986D01*
X1167688Y6462522D01*
X1166977Y6468872D01*
X1165098Y6474307D01*
X1161999Y6479235D01*
X1157935Y6483299D01*
X1153007Y6486398D01*
X1147572Y6488277D01*
X1141222Y6488988D01*
X992378Y6488988D01*
X986028Y6488277D01*
X980592Y6486398D01*
X975664Y6483299D01*
X971600Y6479235D01*
X968502Y6474307D01*
X966622Y6468872D01*
X965911Y6462522D01*
X965911Y6313678D01*
X966622Y6307328D01*
X968502Y6301892D01*
X971600Y6296964D01*
X975664Y6292900D01*
X980592Y6289802D01*
X986028Y6287922D01*
X992378Y6287211D01*
X1108913Y6287211D01*
X1112774Y6286398D01*
X1116076Y6284214D01*
X1152194Y6248095D01*
X1154430Y6244793D01*
X1155192Y6240881D01*
X1155192Y4962093D01*
X1154328Y4957978D01*
X1151788Y4954524D01*
X1148130Y4952441D01*
X1143914Y4951984D01*
X1141222Y4952288D01*
X1088186Y4952288D01*
X1084326Y4953101D01*
X1081024Y4955286D01*
X879805Y5156504D01*
X877569Y5159806D01*
X876808Y5163718D01*
X876808Y6444081D01*
X877569Y6447993D01*
X879805Y6451295D01*
X1079804Y6651294D01*
X1083106Y6653530D01*
X1087018Y6654292D01*
X3548481Y6654292D01*
X3552393Y6653530D01*
X3555695Y6651294D01*
X3798519Y6408470D01*
X3800703Y6405219D01*
X3801465Y6401308D01*
X3800703Y6397396D01*
X3798519Y6394145D01*
X3795217Y6391910D01*
X3791305Y6391148D01*
X3766820Y6391148D01*
X3766820Y6332220D01*
X3825748Y6332220D01*
X3825748Y6356705D01*
X3826510Y6360617D01*
X3828745Y6363919D01*
X3831996Y6366103D01*
X3835908Y6366865D01*
X3839819Y6366103D01*
X3843070Y6363919D01*
X3874465Y6332524D01*
X3876598Y6329426D01*
X3877462Y6325768D01*
X3876903Y6322060D01*
X3874058Y6313576D01*
X3871366Y6300165D01*
X3870451Y6286500D01*
X3871366Y6272834D01*
X3874058Y6259423D01*
X3878427Y6246469D01*
X3884472Y6234176D01*
X3892092Y6222796D01*
X3901135Y6212535D01*
X3911396Y6203492D01*
X3922776Y6195872D01*
X3935069Y6189827D01*
X3948023Y6185458D01*
X3961434Y6182766D01*
X3975100Y6181852D01*
X3988765Y6182766D01*
X4002176Y6185458D01*
X4015130Y6189827D01*
X4027424Y6195872D01*
X4038803Y6203492D01*
X4049064Y6212535D01*
X4058107Y6222796D01*
X4065727Y6234176D01*
X4071772Y6246469D01*
X4076141Y6259423D01*
X4078833Y6272834D01*
X4079748Y6286500D01*
X4078833Y6300165D01*
X4076141Y6313576D01*
X4071772Y6326530D01*
X4065727Y6338824D01*
X4058107Y6350203D01*
X4049064Y6360464D01*
X4038803Y6369507D01*
X4027424Y6377127D01*
X4015130Y6383172D01*
X4002176Y6387541D01*
X3988765Y6390233D01*
X3975100Y6391148D01*
X3961434Y6390233D01*
X3948023Y6387541D01*
X3939540Y6384696D01*
X3935831Y6384137D01*
X3932174Y6385001D01*
X3929075Y6387134D01*
X3596335Y6719824D01*
X3590137Y6724954D01*
X3583432Y6728510D01*
X3576218Y6730695D01*
X3568192Y6731508D01*
X1067308Y6731508D01*
X1059281Y6730695D01*
X1052068Y6728510D01*
X1045362Y6724954D01*
X1039164Y6719824D01*
X811276Y6491935D01*
X806145Y6485737D01*
X802589Y6479032D01*
X800404Y6471818D01*
X799592Y6463792D01*
X799592Y5144008D01*
X800404Y5135981D01*
X802589Y5128768D01*
X806145Y5122062D01*
X811276Y5115864D01*
X970889Y4956200D01*
X972870Y4953406D01*
X973836Y4950104D01*
X973632Y4946700D01*
X972312Y4943551D01*
X968502Y4937607D01*
X966622Y4932172D01*
X965911Y4925822D01*
X965911Y4776978D01*
X966622Y4770628D01*
X968502Y4765192D01*
X971600Y4760264D01*
X975664Y4756200D01*
X980592Y4753102D01*
X986028Y4751222D01*
X992378Y4750511D01*
X1141222Y4750511D01*
X1143914Y4750816D01*
X1148130Y4750358D01*
X1151788Y4748276D01*
X1154328Y4744821D01*
X1155192Y4740706D01*
X1155192Y4655718D01*
X1154430Y4651806D01*
X1152194Y4648504D01*
X366776Y3863035D01*
X361645Y3856837D01*
X358089Y3850132D01*
X355904Y3842918D01*
X355092Y3834892D01*
X355092Y2654808D01*
X355904Y2646781D01*
X358089Y2639568D01*
X361645Y2632862D01*
X366776Y2626664D01*
X436778Y2556611D01*
X438962Y2553360D01*
X439775Y2549550D01*
X439064Y2545689D01*
X435864Y2537714D01*
X432257Y2523591D01*
X430428Y2509164D01*
X430428Y2494635D01*
X432257Y2480157D01*
X435864Y2466086D01*
X441248Y2452522D01*
X448259Y2439771D01*
X456793Y2428036D01*
X466750Y2417419D01*
X477977Y2408123D01*
X490270Y2400350D01*
X503428Y2394153D01*
X517296Y2389632D01*
X531825Y2386888D01*
X535533Y2385364D01*
X538327Y2382570D01*
X539851Y2378862D01*
X539851Y2374900D01*
X538327Y2371191D01*
X535533Y2368397D01*
X531825Y2366924D01*
X517296Y2364130D01*
X503428Y2359660D01*
X490270Y2353462D01*
X477977Y2345639D01*
X466750Y2336342D01*
X456793Y2325776D01*
X448259Y2313990D01*
X441248Y2301240D01*
X435864Y2287676D01*
X432257Y2273604D01*
X430428Y2259177D01*
X430428Y2247849D01*
X429666Y2243988D01*
X427482Y2240686D01*
X287375Y2100529D01*
X280314Y2091689D01*
X275691Y2084070D01*
X274574Y2081885D01*
X271170Y2073656D01*
X270408Y2071319D01*
X268274Y2062683D01*
X267868Y2060244D01*
X267055Y2051405D01*
X267004Y1358290D01*
X267157Y1352905D01*
X267868Y1346809D01*
X268833Y1341678D01*
X270357Y1335735D01*
X272084Y1330807D01*
X274523Y1325168D01*
X276961Y1320546D01*
X280212Y1315364D01*
X283311Y1311148D01*
X287274Y1306474D01*
X291084Y1302664D01*
X506120Y1101039D01*
X578662Y1028496D01*
X580745Y1025499D01*
X581609Y1021994D01*
X582066Y1015034D01*
X584758Y1001623D01*
X589127Y988669D01*
X595172Y976376D01*
X602792Y964996D01*
X611835Y954735D01*
X622096Y945692D01*
X633476Y938072D01*
X645769Y932027D01*
X658723Y927658D01*
X672134Y924966D01*
X685800Y924052D01*
X699465Y924966D01*
X712876Y927658D01*
X725830Y932027D01*
X738124Y938072D01*
X749503Y945692D01*
X754735Y950264D01*
X757834Y952144D01*
X761390Y952804D01*
X957935Y952804D01*
X961186Y952246D01*
X964082Y950721D01*
X966317Y948385D01*
X1245412Y541426D01*
X1248765Y536905D01*
X1252626Y532434D01*
X1256487Y528574D01*
X1260957Y524713D01*
X1265326Y521512D01*
X1270355Y518363D01*
X1275130Y515823D01*
X1280566Y513486D01*
X1285697Y511657D01*
X1291437Y510133D01*
X1296771Y509168D01*
X1302664Y508508D01*
G37*
G36*
X5289092Y3530346D02*
G01*
X5302707Y3530346D01*
X5316220Y3532174D01*
X5329377Y3535781D01*
X5341924Y3541064D01*
X5353659Y3548024D01*
X5364378Y3556508D01*
X5373878Y3566312D01*
X5381955Y3577285D01*
X5388508Y3589223D01*
X5393385Y3601974D01*
X5396585Y3615232D01*
X5397906Y3628796D01*
X5397449Y3642410D01*
X5395214Y3655872D01*
X5391150Y3668877D01*
X5385409Y3681272D01*
X5378094Y3692753D01*
X5369306Y3703167D01*
X5359146Y3712311D01*
X5347919Y3720033D01*
X5335778Y3726179D01*
X5322874Y3730650D01*
X5309514Y3733393D01*
X5295900Y3734308D01*
X5282285Y3733393D01*
X5268925Y3730650D01*
X5256022Y3726179D01*
X5243880Y3720033D01*
X5232654Y3712311D01*
X5222494Y3703167D01*
X5213705Y3692753D01*
X5206390Y3681272D01*
X5200650Y3668877D01*
X5196586Y3655872D01*
X5194350Y3642410D01*
X5193893Y3628796D01*
X5195214Y3615232D01*
X5198414Y3601974D01*
X5203291Y3589223D01*
X5209844Y3577285D01*
X5217922Y3566312D01*
X5227421Y3556508D01*
X5238140Y3548024D01*
X5249875Y3541064D01*
X5262422Y3535781D01*
X5275580Y3532174D01*
G37*
G36*
X3511092Y3530346D02*
G01*
X3524707Y3530346D01*
X3538220Y3532174D01*
X3551377Y3535781D01*
X3563924Y3541064D01*
X3575659Y3548024D01*
X3586378Y3556508D01*
X3595878Y3566312D01*
X3603955Y3577285D01*
X3610508Y3589223D01*
X3615385Y3601974D01*
X3618585Y3615232D01*
X3619906Y3628796D01*
X3619449Y3642410D01*
X3617214Y3655872D01*
X3613150Y3668877D01*
X3607409Y3681272D01*
X3600094Y3692753D01*
X3591306Y3703167D01*
X3581146Y3712311D01*
X3569919Y3720033D01*
X3557778Y3726179D01*
X3544874Y3730650D01*
X3531514Y3733393D01*
X3517900Y3734308D01*
X3504285Y3733393D01*
X3490925Y3730650D01*
X3478022Y3726179D01*
X3465880Y3720033D01*
X3454654Y3712311D01*
X3444494Y3703167D01*
X3435705Y3692753D01*
X3428390Y3681272D01*
X3422650Y3668877D01*
X3418586Y3655872D01*
X3416350Y3642410D01*
X3415893Y3628796D01*
X3417214Y3615232D01*
X3420414Y3601974D01*
X3425291Y3589223D01*
X3431844Y3577285D01*
X3439922Y3566312D01*
X3449421Y3556508D01*
X3460140Y3548024D01*
X3471875Y3541064D01*
X3484422Y3535781D01*
X3497579Y3532174D01*
G37*
G36*
X4273092Y3530346D02*
G01*
X4286707Y3530346D01*
X4300220Y3532174D01*
X4313377Y3535781D01*
X4325924Y3541064D01*
X4337659Y3548024D01*
X4348378Y3556508D01*
X4357878Y3566312D01*
X4365955Y3577285D01*
X4372508Y3589223D01*
X4377385Y3601974D01*
X4380585Y3615232D01*
X4381906Y3628796D01*
X4381449Y3642410D01*
X4379214Y3655872D01*
X4375150Y3668877D01*
X4369409Y3681272D01*
X4362094Y3692753D01*
X4353306Y3703167D01*
X4343146Y3712311D01*
X4331919Y3720033D01*
X4319778Y3726179D01*
X4306874Y3730650D01*
X4293514Y3733393D01*
X4279900Y3734308D01*
X4266285Y3733393D01*
X4252925Y3730650D01*
X4240022Y3726179D01*
X4227880Y3720033D01*
X4216654Y3712311D01*
X4206494Y3703167D01*
X4197705Y3692753D01*
X4190390Y3681272D01*
X4184650Y3668877D01*
X4180586Y3655872D01*
X4178350Y3642410D01*
X4177893Y3628796D01*
X4179214Y3615232D01*
X4182414Y3601974D01*
X4187291Y3589223D01*
X4193844Y3577285D01*
X4201922Y3566312D01*
X4211421Y3556508D01*
X4222140Y3548024D01*
X4233875Y3541064D01*
X4246422Y3535781D01*
X4259580Y3532174D01*
G37*
G36*
X4781092Y3530346D02*
G01*
X4794707Y3530346D01*
X4808220Y3532174D01*
X4821377Y3535781D01*
X4833924Y3541064D01*
X4845659Y3548024D01*
X4856378Y3556508D01*
X4865878Y3566312D01*
X4873955Y3577285D01*
X4880508Y3589223D01*
X4885385Y3601974D01*
X4888585Y3615232D01*
X4889906Y3628796D01*
X4889449Y3642410D01*
X4887214Y3655872D01*
X4883150Y3668877D01*
X4877409Y3681272D01*
X4870094Y3692753D01*
X4861306Y3703167D01*
X4851146Y3712311D01*
X4839919Y3720033D01*
X4827778Y3726179D01*
X4814874Y3730650D01*
X4801514Y3733393D01*
X4787900Y3734308D01*
X4774285Y3733393D01*
X4760925Y3730650D01*
X4748022Y3726179D01*
X4735880Y3720033D01*
X4724654Y3712311D01*
X4714494Y3703167D01*
X4705705Y3692753D01*
X4698390Y3681272D01*
X4692650Y3668877D01*
X4688586Y3655872D01*
X4686350Y3642410D01*
X4685893Y3628796D01*
X4687214Y3615232D01*
X4690414Y3601974D01*
X4695291Y3589223D01*
X4701844Y3577285D01*
X4709922Y3566312D01*
X4719421Y3556508D01*
X4730140Y3548024D01*
X4741875Y3541064D01*
X4754422Y3535781D01*
X4767580Y3532174D01*
G37*
G36*
X3765092Y3530346D02*
G01*
X3778707Y3530346D01*
X3792220Y3532174D01*
X3805377Y3535781D01*
X3817924Y3541064D01*
X3829659Y3548024D01*
X3840378Y3556508D01*
X3849878Y3566312D01*
X3857955Y3577285D01*
X3864508Y3589223D01*
X3869385Y3601974D01*
X3872585Y3615232D01*
X3873906Y3628796D01*
X3873449Y3642410D01*
X3871214Y3655872D01*
X3867150Y3668877D01*
X3861409Y3681272D01*
X3854094Y3692753D01*
X3845306Y3703167D01*
X3835146Y3712311D01*
X3823919Y3720033D01*
X3811778Y3726179D01*
X3798874Y3730650D01*
X3785514Y3733393D01*
X3771900Y3734308D01*
X3758285Y3733393D01*
X3744925Y3730650D01*
X3732022Y3726179D01*
X3719880Y3720033D01*
X3708654Y3712311D01*
X3698494Y3703167D01*
X3689705Y3692753D01*
X3682390Y3681272D01*
X3676650Y3668877D01*
X3672586Y3655872D01*
X3670350Y3642410D01*
X3669893Y3628796D01*
X3671214Y3615232D01*
X3674414Y3601974D01*
X3679291Y3589223D01*
X3685844Y3577285D01*
X3693922Y3566312D01*
X3703421Y3556508D01*
X3714140Y3548024D01*
X3725875Y3541064D01*
X3738422Y3535781D01*
X3751579Y3532174D01*
G37*
G36*
X4019092Y3530346D02*
G01*
X4032707Y3530346D01*
X4046220Y3532174D01*
X4059377Y3535781D01*
X4071924Y3541064D01*
X4083659Y3548024D01*
X4094378Y3556508D01*
X4103878Y3566312D01*
X4111955Y3577285D01*
X4118508Y3589223D01*
X4123385Y3601974D01*
X4126585Y3615232D01*
X4127906Y3628796D01*
X4127449Y3642410D01*
X4125214Y3655872D01*
X4121150Y3668877D01*
X4115409Y3681272D01*
X4108094Y3692753D01*
X4099306Y3703167D01*
X4089146Y3712311D01*
X4077919Y3720033D01*
X4065778Y3726179D01*
X4052874Y3730650D01*
X4039514Y3733393D01*
X4025900Y3734308D01*
X4012285Y3733393D01*
X3998925Y3730650D01*
X3986022Y3726179D01*
X3973880Y3720033D01*
X3962654Y3712311D01*
X3952494Y3703167D01*
X3943705Y3692753D01*
X3936390Y3681272D01*
X3930650Y3668877D01*
X3926586Y3655872D01*
X3924350Y3642410D01*
X3923893Y3628796D01*
X3925214Y3615232D01*
X3928414Y3601974D01*
X3933291Y3589223D01*
X3939844Y3577285D01*
X3947922Y3566312D01*
X3957421Y3556508D01*
X3968140Y3548024D01*
X3979875Y3541064D01*
X3992422Y3535781D01*
X4005579Y3532174D01*
G37*
G36*
X5042154Y5938012D02*
G01*
X5055362Y5938012D01*
X5061712Y5938723D01*
X5067147Y5940602D01*
X5072075Y5943701D01*
X5076139Y5947765D01*
X5079238Y5952693D01*
X5081168Y5958128D01*
X5081879Y5964478D01*
X5081879Y5979160D01*
X5042154Y5979160D01*
G37*
G36*
X4997450Y3540404D02*
G01*
X4997450Y3587750D01*
X4950104Y3587750D01*
X4955844Y3577285D01*
X4963922Y3566312D01*
X4973421Y3556508D01*
X4984140Y3548024D01*
X4995875Y3541064D01*
G37*
G36*
X5086350Y3540404D02*
G01*
X5087924Y3541064D01*
X5099659Y3548024D01*
X5110378Y3556508D01*
X5119878Y3566312D01*
X5127955Y3577285D01*
X5133695Y3587750D01*
X5086350Y3587750D01*
G37*
G36*
X9839756Y3651250D02*
G01*
X9886950Y3651250D01*
X9886950Y3698443D01*
X9879380Y3694633D01*
X9868154Y3686911D01*
X9857994Y3677767D01*
X9849205Y3667353D01*
X9841890Y3655872D01*
G37*
G36*
X9585756Y3651250D02*
G01*
X9632950Y3651250D01*
X9632950Y3698443D01*
X9625380Y3694633D01*
X9614154Y3686911D01*
X9603994Y3677767D01*
X9595205Y3667353D01*
X9587890Y3655872D01*
G37*
G36*
X9721850Y3651250D02*
G01*
X9769043Y3651250D01*
X9766909Y3655872D01*
X9759594Y3667353D01*
X9750806Y3677767D01*
X9740646Y3686911D01*
X9729419Y3694633D01*
X9721850Y3698443D01*
G37*
G36*
X9975850Y3651250D02*
G01*
X10023043Y3651250D01*
X10020909Y3655872D01*
X10013594Y3667353D01*
X10004806Y3677767D01*
X9994646Y3686911D01*
X9983419Y3694633D01*
X9975850Y3698443D01*
G37*
G36*
X7321550Y3663950D02*
G01*
X7368743Y3663950D01*
X7366609Y3668572D01*
X7359294Y3680053D01*
X7350506Y3690467D01*
X7340346Y3699611D01*
X7329119Y3707333D01*
X7321550Y3711143D01*
G37*
G36*
X7185456Y3663950D02*
G01*
X7232650Y3663950D01*
X7232650Y3711143D01*
X7225080Y3707333D01*
X7213853Y3699611D01*
X7203694Y3690467D01*
X7194905Y3680053D01*
X7187590Y3668572D01*
G37*
G36*
X5086350Y3676650D02*
G01*
X5133543Y3676650D01*
X5131409Y3681272D01*
X5124094Y3692753D01*
X5115306Y3703167D01*
X5105146Y3712311D01*
X5093919Y3720033D01*
X5086350Y3723843D01*
G37*
G36*
X4950256Y3676650D02*
G01*
X4997450Y3676650D01*
X4997450Y3723843D01*
X4989880Y3720033D01*
X4978654Y3712311D01*
X4968494Y3703167D01*
X4959705Y3692753D01*
X4952390Y3681272D01*
G37*
G36*
X9451746Y5894679D02*
G01*
X9750653Y5894679D01*
X9756952Y5895390D01*
X9762388Y5897321D01*
X9767316Y5900420D01*
X9771380Y5904484D01*
X9774478Y5909411D01*
X9776409Y5914847D01*
X9777120Y5921146D01*
X9777120Y6220053D01*
X9776409Y6226352D01*
X9774478Y6231788D01*
X9771380Y6236716D01*
X9767316Y6240780D01*
X9762388Y6243878D01*
X9756952Y6245809D01*
X9750653Y6246520D01*
X9451746Y6246520D01*
X9445447Y6245809D01*
X9440011Y6243878D01*
X9435084Y6240780D01*
X9431020Y6236716D01*
X9427921Y6231788D01*
X9425990Y6226352D01*
X9425279Y6220053D01*
X9425279Y5921146D01*
X9425990Y5914847D01*
X9427921Y5909411D01*
X9431020Y5904484D01*
X9435084Y5900420D01*
X9440011Y5897321D01*
X9445447Y5895390D01*
G37*
G36*
X8778646Y5881979D02*
G01*
X8846769Y5881979D01*
X8846769Y5976569D01*
X8752179Y5976569D01*
X8752179Y5908446D01*
X8752890Y5902147D01*
X8754821Y5896711D01*
X8757920Y5891784D01*
X8761984Y5887720D01*
X8766911Y5884621D01*
X8772347Y5882690D01*
G37*
G36*
X9009430Y5881979D02*
G01*
X9077553Y5881979D01*
X9083852Y5882690D01*
X9089288Y5884621D01*
X9094216Y5887720D01*
X9098280Y5891784D01*
X9101378Y5896711D01*
X9103309Y5902147D01*
X9104020Y5908446D01*
X9104020Y5976569D01*
X9009430Y5976569D01*
G37*
G36*
X2770378Y5766511D02*
G01*
X2919222Y5766511D01*
X2925572Y5767222D01*
X2931007Y5769102D01*
X2935935Y5772200D01*
X2939999Y5776264D01*
X2943098Y5781192D01*
X2944977Y5786628D01*
X2945688Y5792978D01*
X2945688Y5941822D01*
X2944977Y5948172D01*
X2943098Y5953607D01*
X2939999Y5958535D01*
X2935935Y5962599D01*
X2931007Y5965698D01*
X2925572Y5967577D01*
X2919222Y5968288D01*
X2770378Y5968288D01*
X2764028Y5967577D01*
X2758592Y5965698D01*
X2753664Y5962599D01*
X2749600Y5958535D01*
X2746502Y5953607D01*
X2744622Y5948172D01*
X2743911Y5941822D01*
X2743911Y5792978D01*
X2744622Y5786628D01*
X2746502Y5781192D01*
X2749600Y5776264D01*
X2753664Y5772200D01*
X2758592Y5769102D01*
X2764028Y5767222D01*
G37*
G36*
X8619591Y4287062D02*
G01*
X8634374Y4287520D01*
X8648954Y4289806D01*
X8663127Y4293870D01*
X8676741Y4299610D01*
X8689492Y4306976D01*
X8701278Y4315866D01*
X8711895Y4326128D01*
X8721140Y4337659D01*
X8728913Y4350207D01*
X8735060Y4363618D01*
X8739530Y4377639D01*
X8742273Y4392168D01*
X8743188Y4406900D01*
X8742273Y4421632D01*
X8739530Y4436160D01*
X8735060Y4450181D01*
X8728913Y4463592D01*
X8721140Y4476140D01*
X8711895Y4487672D01*
X8701278Y4497933D01*
X8689492Y4506823D01*
X8676741Y4514189D01*
X8663127Y4519930D01*
X8648954Y4523994D01*
X8634374Y4526280D01*
X8619591Y4526686D01*
X8604910Y4525365D01*
X8590483Y4522216D01*
X8576564Y4517288D01*
X8563356Y4510684D01*
X8551062Y4502556D01*
X8539835Y4492955D01*
X8529929Y4482033D01*
X8521395Y4469993D01*
X8514384Y4456988D01*
X8509050Y4443222D01*
X8505494Y4428947D01*
X8503666Y4414266D01*
X8503666Y4399534D01*
X8505494Y4384852D01*
X8509050Y4370578D01*
X8514384Y4356811D01*
X8521395Y4343806D01*
X8529929Y4331766D01*
X8539835Y4320844D01*
X8551062Y4311243D01*
X8563356Y4303115D01*
X8576564Y4296511D01*
X8590483Y4291584D01*
X8604910Y4288434D01*
G37*
G36*
X2770378Y5512511D02*
G01*
X2919222Y5512511D01*
X2925572Y5513222D01*
X2931007Y5515102D01*
X2935935Y5518200D01*
X2939999Y5522264D01*
X2943098Y5527192D01*
X2944977Y5532628D01*
X2945688Y5538978D01*
X2945688Y5687822D01*
X2944977Y5694172D01*
X2943098Y5699607D01*
X2939999Y5704535D01*
X2935935Y5708599D01*
X2931007Y5711698D01*
X2925572Y5713577D01*
X2919222Y5714288D01*
X2770378Y5714288D01*
X2764028Y5713577D01*
X2758592Y5711698D01*
X2753664Y5708599D01*
X2749600Y5704535D01*
X2746502Y5699607D01*
X2744622Y5694172D01*
X2743911Y5687822D01*
X2743911Y5538978D01*
X2744622Y5532628D01*
X2746502Y5527192D01*
X2749600Y5522264D01*
X2753664Y5518200D01*
X2758592Y5515102D01*
X2764028Y5513222D01*
G37*
G36*
X2770378Y5258511D02*
G01*
X2919222Y5258511D01*
X2925572Y5259222D01*
X2931007Y5261102D01*
X2935935Y5264200D01*
X2939999Y5268264D01*
X2943098Y5273192D01*
X2944977Y5278628D01*
X2945688Y5284978D01*
X2945688Y5433822D01*
X2944977Y5440172D01*
X2943098Y5445607D01*
X2939999Y5450535D01*
X2935935Y5454599D01*
X2931007Y5457698D01*
X2925572Y5459577D01*
X2919222Y5460288D01*
X2770378Y5460288D01*
X2764028Y5459577D01*
X2758592Y5457698D01*
X2753664Y5454599D01*
X2749600Y5450535D01*
X2746502Y5445607D01*
X2744622Y5440172D01*
X2743911Y5433822D01*
X2743911Y5284978D01*
X2744622Y5278628D01*
X2746502Y5273192D01*
X2749600Y5268264D01*
X2753664Y5264200D01*
X2758592Y5261102D01*
X2764028Y5259222D01*
G37*
G36*
X6794652Y4953304D02*
G01*
X6809130Y4954219D01*
X6823456Y4956962D01*
X6837273Y4961432D01*
X6850481Y4967630D01*
X6862724Y4975453D01*
X6873951Y4984750D01*
X6883908Y4995316D01*
X6892493Y5007102D01*
X6899503Y5019852D01*
X6904837Y5033416D01*
X6908444Y5047488D01*
X6910273Y5061915D01*
X6910273Y5076494D01*
X6908444Y5090922D01*
X6904837Y5104993D01*
X6899503Y5118557D01*
X6892493Y5131308D01*
X6883908Y5143093D01*
X6873951Y5153660D01*
X6862724Y5162956D01*
X6850481Y5170779D01*
X6837273Y5176977D01*
X6823456Y5181447D01*
X6808216Y5184292D01*
X6804507Y5185816D01*
X6801662Y5188610D01*
X6800138Y5192318D01*
X6800138Y5196281D01*
X6801662Y5199989D01*
X6804507Y5202783D01*
X6808216Y5204307D01*
X6823456Y5207152D01*
X6837273Y5211622D01*
X6850481Y5217820D01*
X6862724Y5225643D01*
X6873951Y5234940D01*
X6883908Y5245506D01*
X6892493Y5257292D01*
X6899503Y5270042D01*
X6904837Y5283606D01*
X6908444Y5297678D01*
X6910273Y5312105D01*
X6910273Y5326684D01*
X6908444Y5341112D01*
X6904837Y5355183D01*
X6899503Y5368747D01*
X6892493Y5381498D01*
X6883908Y5393283D01*
X6873951Y5403850D01*
X6862724Y5413146D01*
X6850481Y5420969D01*
X6838950Y5426354D01*
X6835851Y5428589D01*
X6833819Y5431840D01*
X6833108Y5435549D01*
X6833108Y5448655D01*
X6832295Y5456682D01*
X6830110Y5463895D01*
X6826554Y5470601D01*
X6821424Y5476798D01*
X6350965Y5947257D01*
X6348780Y5950559D01*
X6348018Y5954471D01*
X6348018Y5991860D01*
X6310630Y5991860D01*
X6306718Y5992622D01*
X6303416Y5994806D01*
X6293104Y6005169D01*
X6290868Y6008471D01*
X6290106Y6012383D01*
X6290106Y6037580D01*
X6290868Y6041491D01*
X6293104Y6044793D01*
X6296355Y6046978D01*
X6300266Y6047740D01*
X6348018Y6047740D01*
X6348018Y6088888D01*
X6334760Y6088888D01*
X6328460Y6088176D01*
X6322974Y6086297D01*
X6318097Y6083198D01*
X6313982Y6079134D01*
X6310934Y6074206D01*
X6308801Y6068161D01*
X6306667Y6064605D01*
X6303264Y6062167D01*
X6299200Y6061354D01*
X6295136Y6062167D01*
X6291732Y6064605D01*
X6289598Y6068161D01*
X6287465Y6074206D01*
X6284417Y6079134D01*
X6280302Y6083198D01*
X6275425Y6086297D01*
X6269939Y6088176D01*
X6263640Y6088888D01*
X6184138Y6088888D01*
X6177788Y6088176D01*
X6172352Y6086297D01*
X6167424Y6083198D01*
X6163360Y6079134D01*
X6160262Y6074206D01*
X6158331Y6068771D01*
X6157620Y6062421D01*
X6157620Y5977178D01*
X6158331Y5970828D01*
X6160262Y5965393D01*
X6163360Y5960465D01*
X6167424Y5956401D01*
X6172352Y5953302D01*
X6177788Y5951423D01*
X6184138Y5950712D01*
X6234176Y5950712D01*
X6238036Y5949899D01*
X6241338Y5947714D01*
X6748525Y5440527D01*
X6750659Y5437327D01*
X6751472Y5433568D01*
X6750812Y5429758D01*
X6748780Y5426456D01*
X6745630Y5424170D01*
X6738772Y5420969D01*
X6726529Y5413146D01*
X6715302Y5403850D01*
X6705346Y5393283D01*
X6696760Y5381498D01*
X6689750Y5368747D01*
X6684416Y5355183D01*
X6680809Y5341112D01*
X6678980Y5326684D01*
X6678980Y5312105D01*
X6680809Y5297678D01*
X6684416Y5283606D01*
X6689750Y5270042D01*
X6696760Y5257292D01*
X6705346Y5245506D01*
X6715302Y5234940D01*
X6726529Y5225643D01*
X6738772Y5217820D01*
X6751980Y5211622D01*
X6765798Y5207152D01*
X6781038Y5204307D01*
X6784746Y5202783D01*
X6787591Y5199989D01*
X6789115Y5196281D01*
X6789115Y5192318D01*
X6787591Y5188610D01*
X6784746Y5185816D01*
X6781038Y5184292D01*
X6765798Y5181447D01*
X6751980Y5176977D01*
X6738772Y5170779D01*
X6726529Y5162956D01*
X6715302Y5153660D01*
X6705346Y5143093D01*
X6696760Y5131308D01*
X6689750Y5118557D01*
X6684416Y5104993D01*
X6680809Y5090922D01*
X6678980Y5076494D01*
X6678980Y5061915D01*
X6680809Y5047488D01*
X6684416Y5033416D01*
X6689750Y5019852D01*
X6696760Y5007102D01*
X6705346Y4995316D01*
X6715302Y4984750D01*
X6726529Y4975453D01*
X6738772Y4967630D01*
X6751980Y4961432D01*
X6765798Y4956962D01*
X6780123Y4954219D01*
G37*
G36*
X7914640Y4299559D02*
G01*
X7927492Y4306976D01*
X7939278Y4315866D01*
X7949895Y4326128D01*
X7959140Y4337659D01*
X7966913Y4350207D01*
X7968437Y4353560D01*
X7914640Y4353560D01*
G37*
G36*
X7807959Y4299813D02*
G01*
X7807959Y4353560D01*
X7754162Y4353560D01*
X7759395Y4343806D01*
X7767929Y4331766D01*
X7777835Y4320844D01*
X7789062Y4311243D01*
X7801356Y4303115D01*
G37*
G36*
X7754162Y4460240D02*
G01*
X7807959Y4460240D01*
X7807959Y4513986D01*
X7801356Y4510684D01*
X7789062Y4502556D01*
X7777835Y4492955D01*
X7767929Y4482033D01*
X7759395Y4469993D01*
G37*
G36*
X7914640Y4460240D02*
G01*
X7968437Y4460240D01*
X7966913Y4463592D01*
X7959140Y4476140D01*
X7949895Y4487672D01*
X7939278Y4497933D01*
X7927492Y4506823D01*
X7914640Y4514240D01*
G37*
G36*
X2718308Y4634992D02*
G01*
X7746492Y4634992D01*
X7754518Y4635804D01*
X7761731Y4637989D01*
X7768437Y4641545D01*
X7774635Y4646676D01*
X8002524Y4874564D01*
X8007654Y4880762D01*
X8011210Y4887468D01*
X8013395Y4894681D01*
X8014208Y4902708D01*
X8014208Y5103012D01*
X8013395Y5111038D01*
X8011210Y5118252D01*
X8007654Y5124907D01*
X8002524Y5131155D01*
X7869123Y5264607D01*
X7866938Y5267858D01*
X7866125Y5271668D01*
X7866837Y5275529D01*
X7870037Y5283606D01*
X7873644Y5297678D01*
X7875473Y5312105D01*
X7875473Y5326684D01*
X7873644Y5341112D01*
X7870037Y5355183D01*
X7864703Y5368747D01*
X7857693Y5381498D01*
X7849108Y5393283D01*
X7839151Y5403850D01*
X7827924Y5413146D01*
X7815681Y5420969D01*
X7802473Y5427167D01*
X7788656Y5431637D01*
X7774330Y5434380D01*
X7759852Y5435295D01*
X7745323Y5434380D01*
X7730998Y5431637D01*
X7717180Y5427167D01*
X7703972Y5420969D01*
X7691729Y5413146D01*
X7680502Y5403850D01*
X7670546Y5393283D01*
X7661960Y5381498D01*
X7654950Y5368747D01*
X7653274Y5364429D01*
X7651089Y5361076D01*
X7647736Y5358790D01*
X7643825Y5357977D01*
X7515961Y5357977D01*
X7512100Y5358790D01*
X7508798Y5360974D01*
X6922465Y5947257D01*
X6920280Y5950559D01*
X6919518Y5954471D01*
X6919518Y5991860D01*
X6882130Y5991860D01*
X6878218Y5992622D01*
X6874916Y5994806D01*
X6864603Y6005169D01*
X6862368Y6008471D01*
X6861606Y6012383D01*
X6861606Y6037580D01*
X6862368Y6041491D01*
X6864603Y6044793D01*
X6867855Y6046978D01*
X6871766Y6047740D01*
X6919518Y6047740D01*
X6919518Y6088888D01*
X6906259Y6088888D01*
X6899960Y6088176D01*
X6894474Y6086297D01*
X6889597Y6083198D01*
X6885482Y6079134D01*
X6882434Y6074206D01*
X6880301Y6068161D01*
X6878167Y6064605D01*
X6874764Y6062167D01*
X6870700Y6061354D01*
X6866636Y6062167D01*
X6863232Y6064605D01*
X6861098Y6068161D01*
X6858965Y6074206D01*
X6855917Y6079134D01*
X6851802Y6083198D01*
X6846925Y6086297D01*
X6841439Y6088176D01*
X6835140Y6088888D01*
X6755638Y6088888D01*
X6749288Y6088176D01*
X6743852Y6086297D01*
X6738924Y6083198D01*
X6734860Y6079134D01*
X6731762Y6074206D01*
X6729831Y6068771D01*
X6729120Y6062421D01*
X6729120Y5977178D01*
X6729831Y5970828D01*
X6731762Y5965393D01*
X6734860Y5960465D01*
X6738924Y5956401D01*
X6743852Y5953302D01*
X6749288Y5951423D01*
X6755638Y5950712D01*
X6805675Y5950712D01*
X6809536Y5949899D01*
X6812838Y5947714D01*
X7468108Y5292445D01*
X7474356Y5287314D01*
X7481011Y5283758D01*
X7488224Y5281574D01*
X7496251Y5280761D01*
X7643825Y5280761D01*
X7647736Y5279999D01*
X7651089Y5277713D01*
X7653274Y5274360D01*
X7654950Y5270042D01*
X7661960Y5257292D01*
X7670546Y5245506D01*
X7680502Y5234940D01*
X7691729Y5225643D01*
X7703972Y5217820D01*
X7717180Y5211622D01*
X7730998Y5207152D01*
X7746238Y5204307D01*
X7749946Y5202783D01*
X7752791Y5199989D01*
X7754315Y5196281D01*
X7754315Y5192318D01*
X7752791Y5188610D01*
X7749946Y5185816D01*
X7746238Y5184292D01*
X7730998Y5181447D01*
X7717180Y5176977D01*
X7703972Y5170779D01*
X7691729Y5162956D01*
X7680502Y5153660D01*
X7670546Y5143093D01*
X7661960Y5131308D01*
X7654950Y5118557D01*
X7649616Y5104993D01*
X7646009Y5090922D01*
X7644180Y5076494D01*
X7644180Y5061915D01*
X7646009Y5047488D01*
X7649616Y5033416D01*
X7654950Y5019852D01*
X7661960Y5007102D01*
X7670546Y4995316D01*
X7680502Y4984750D01*
X7691729Y4975453D01*
X7703972Y4967630D01*
X7717180Y4961432D01*
X7730998Y4956962D01*
X7745323Y4954219D01*
X7759852Y4953304D01*
X7774330Y4954219D01*
X7788656Y4956962D01*
X7802473Y4961432D01*
X7815681Y4967630D01*
X7827924Y4975453D01*
X7839151Y4984750D01*
X7849108Y4995316D01*
X7857693Y5007102D01*
X7864703Y5019852D01*
X7870037Y5033416D01*
X7873644Y5047488D01*
X7875473Y5061915D01*
X7875473Y5076494D01*
X7873644Y5090922D01*
X7870037Y5104993D01*
X7864703Y5118557D01*
X7857693Y5131308D01*
X7849108Y5143093D01*
X7839151Y5153660D01*
X7827924Y5162956D01*
X7815681Y5170779D01*
X7802473Y5176977D01*
X7788656Y5181447D01*
X7773416Y5184292D01*
X7769707Y5185816D01*
X7766862Y5188610D01*
X7765338Y5192318D01*
X7765338Y5196281D01*
X7766862Y5199989D01*
X7769707Y5202783D01*
X7773416Y5204307D01*
X7788656Y5207152D01*
X7803083Y5211927D01*
X7807096Y5212892D01*
X7811160Y5212181D01*
X7814564Y5209895D01*
X7933994Y5090464D01*
X7936230Y5087162D01*
X7936992Y5083302D01*
X7936992Y4922418D01*
X7936230Y4918506D01*
X7933994Y4915204D01*
X7733995Y4715205D01*
X7730693Y4712970D01*
X7726781Y4712208D01*
X2738018Y4712208D01*
X2734106Y4712970D01*
X2730804Y4715205D01*
X2691434Y4754524D01*
X2689301Y4757674D01*
X2688488Y4761331D01*
X2689047Y4765090D01*
X2690977Y4770628D01*
X2691688Y4776978D01*
X2691688Y4925822D01*
X2690977Y4932172D01*
X2689098Y4937607D01*
X2685999Y4942535D01*
X2681935Y4946599D01*
X2677007Y4949698D01*
X2671572Y4951577D01*
X2665222Y4952288D01*
X2516378Y4952288D01*
X2510028Y4951577D01*
X2504592Y4949698D01*
X2499664Y4946599D01*
X2495600Y4942535D01*
X2492502Y4937607D01*
X2490622Y4932172D01*
X2489911Y4925822D01*
X2489911Y4776978D01*
X2490622Y4770628D01*
X2492502Y4765192D01*
X2495600Y4760264D01*
X2499664Y4756200D01*
X2504592Y4753102D01*
X2510028Y4751222D01*
X2516378Y4750511D01*
X2582113Y4750511D01*
X2585974Y4749698D01*
X2589276Y4747514D01*
X2690164Y4646676D01*
X2696362Y4641545D01*
X2703068Y4637989D01*
X2710281Y4635804D01*
G37*
G36*
X9062567Y4697628D02*
G01*
X9077096Y4697628D01*
X9091523Y4699457D01*
X9105646Y4703064D01*
X9119158Y4708448D01*
X9131909Y4715459D01*
X9143695Y4723993D01*
X9154312Y4733950D01*
X9163608Y4745177D01*
X9171381Y4757470D01*
X9177578Y4770628D01*
X9182100Y4784445D01*
X9184944Y4799736D01*
X9186418Y4803394D01*
X9189262Y4806238D01*
X9192920Y4807813D01*
X9196933Y4807813D01*
X9200591Y4806238D01*
X9203436Y4803394D01*
X9204909Y4799736D01*
X9207754Y4784445D01*
X9212275Y4770628D01*
X9218472Y4757470D01*
X9226245Y4745177D01*
X9235541Y4733950D01*
X9246158Y4723993D01*
X9257944Y4715459D01*
X9270695Y4708448D01*
X9284208Y4703064D01*
X9298330Y4699457D01*
X9312757Y4697628D01*
X9327286Y4697628D01*
X9341713Y4699457D01*
X9355836Y4703064D01*
X9369348Y4708448D01*
X9382099Y4715459D01*
X9393885Y4723993D01*
X9404502Y4733950D01*
X9413798Y4745177D01*
X9421571Y4757470D01*
X9427768Y4770628D01*
X9432290Y4784496D01*
X9434982Y4798771D01*
X9435896Y4813300D01*
X9434982Y4827828D01*
X9432290Y4842103D01*
X9427768Y4855972D01*
X9421571Y4869129D01*
X9413798Y4881422D01*
X9404502Y4892649D01*
X9393885Y4902606D01*
X9382099Y4911140D01*
X9369348Y4918151D01*
X9355836Y4923536D01*
X9341713Y4927142D01*
X9327286Y4928971D01*
X9312757Y4928971D01*
X9298330Y4927142D01*
X9284208Y4923536D01*
X9270695Y4918151D01*
X9257944Y4911140D01*
X9246158Y4902606D01*
X9235541Y4892649D01*
X9226245Y4881422D01*
X9218472Y4869129D01*
X9212275Y4855972D01*
X9207754Y4842154D01*
X9204909Y4826863D01*
X9203436Y4823206D01*
X9200591Y4820361D01*
X9196933Y4818786D01*
X9192920Y4818786D01*
X9189262Y4820361D01*
X9186418Y4823206D01*
X9184944Y4826863D01*
X9182100Y4842154D01*
X9177578Y4855972D01*
X9171381Y4869129D01*
X9163608Y4881422D01*
X9154312Y4892649D01*
X9143695Y4902606D01*
X9131909Y4911140D01*
X9119158Y4918151D01*
X9105646Y4923536D01*
X9091523Y4927142D01*
X9077096Y4928971D01*
X9062567Y4928971D01*
X9048140Y4927142D01*
X9034018Y4923536D01*
X9020505Y4918151D01*
X9007754Y4911140D01*
X8995968Y4902606D01*
X8985351Y4892649D01*
X8976055Y4881422D01*
X8968282Y4869129D01*
X8962085Y4855972D01*
X8957564Y4842103D01*
X8954871Y4827828D01*
X8953957Y4813300D01*
X8954871Y4798771D01*
X8957564Y4784496D01*
X8962085Y4770628D01*
X8968282Y4757470D01*
X8976055Y4745177D01*
X8985351Y4733950D01*
X8995968Y4723993D01*
X9007754Y4715459D01*
X9020505Y4708448D01*
X9034018Y4703064D01*
X9048140Y4699457D01*
G37*
G36*
X4876952Y4953304D02*
G01*
X4891430Y4954219D01*
X4905756Y4956962D01*
X4919573Y4961432D01*
X4932781Y4967630D01*
X4945024Y4975453D01*
X4956251Y4984750D01*
X4966208Y4995316D01*
X4974793Y5007102D01*
X4981803Y5019852D01*
X4987137Y5033416D01*
X4990744Y5047488D01*
X4992573Y5061915D01*
X4992573Y5076494D01*
X4990744Y5090922D01*
X4987137Y5104993D01*
X4981803Y5118557D01*
X4974793Y5131308D01*
X4966208Y5143093D01*
X4956251Y5153660D01*
X4945024Y5162956D01*
X4932781Y5170779D01*
X4919573Y5176977D01*
X4905756Y5181447D01*
X4890516Y5184292D01*
X4886807Y5185816D01*
X4883962Y5188610D01*
X4882438Y5192318D01*
X4882438Y5196281D01*
X4883962Y5199989D01*
X4886807Y5202783D01*
X4890516Y5204307D01*
X4905756Y5207152D01*
X4919573Y5211622D01*
X4932781Y5217820D01*
X4945024Y5225643D01*
X4956251Y5234940D01*
X4966208Y5245506D01*
X4974793Y5257292D01*
X4981803Y5270042D01*
X4987137Y5283606D01*
X4990744Y5297678D01*
X4992573Y5312105D01*
X4992573Y5326684D01*
X4990744Y5341112D01*
X4987137Y5355183D01*
X4981803Y5368747D01*
X4974793Y5381498D01*
X4966208Y5393283D01*
X4956251Y5403850D01*
X4945024Y5413146D01*
X4932781Y5420969D01*
X4921250Y5426354D01*
X4918151Y5428589D01*
X4916119Y5431840D01*
X4915408Y5435549D01*
X4915408Y5934303D01*
X4915966Y5937656D01*
X4917643Y5940653D01*
X4921402Y5943701D01*
X4925517Y5947765D01*
X4928565Y5952693D01*
X4930698Y5958738D01*
X4932832Y5962294D01*
X4936236Y5964732D01*
X4940300Y5965545D01*
X4944364Y5964732D01*
X4947767Y5962294D01*
X4949901Y5958738D01*
X4952034Y5952693D01*
X4955082Y5947765D01*
X4959197Y5943701D01*
X4964074Y5940602D01*
X4969560Y5938723D01*
X4975860Y5938012D01*
X4989118Y5938012D01*
X4989118Y5979160D01*
X4941366Y5979160D01*
X4937455Y5979922D01*
X4934204Y5982106D01*
X4931968Y5985408D01*
X4931206Y5989320D01*
X4931206Y6024880D01*
X4931968Y6028791D01*
X4934204Y6032093D01*
X4937455Y6034278D01*
X4941366Y6035040D01*
X4989118Y6035040D01*
X4989118Y6076188D01*
X4975860Y6076188D01*
X4969560Y6075476D01*
X4964074Y6073597D01*
X4959197Y6070498D01*
X4955082Y6066434D01*
X4952034Y6061506D01*
X4949901Y6055461D01*
X4947767Y6051905D01*
X4944364Y6049467D01*
X4940300Y6048654D01*
X4936236Y6049467D01*
X4932832Y6051905D01*
X4930698Y6055461D01*
X4928565Y6061506D01*
X4925517Y6066434D01*
X4921402Y6070498D01*
X4916525Y6073597D01*
X4911039Y6075476D01*
X4904740Y6076188D01*
X4825238Y6076188D01*
X4818888Y6075476D01*
X4813452Y6073597D01*
X4808524Y6070498D01*
X4804460Y6066434D01*
X4801362Y6061506D01*
X4799431Y6056071D01*
X4798720Y6049721D01*
X4798720Y5964478D01*
X4799431Y5958128D01*
X4801362Y5952693D01*
X4804460Y5947765D01*
X4808524Y5943701D01*
X4813452Y5940602D01*
X4818888Y5938723D01*
X4825238Y5938012D01*
X4828032Y5938012D01*
X4831943Y5937199D01*
X4835194Y5935014D01*
X4837430Y5931712D01*
X4838192Y5927852D01*
X4838192Y5435447D01*
X4837480Y5431688D01*
X4835448Y5428488D01*
X4832350Y5426252D01*
X4821072Y5420969D01*
X4808829Y5413146D01*
X4797602Y5403850D01*
X4787646Y5393283D01*
X4779060Y5381498D01*
X4772050Y5368747D01*
X4766716Y5355183D01*
X4763109Y5341112D01*
X4761280Y5326684D01*
X4761280Y5312105D01*
X4763109Y5297678D01*
X4766716Y5283606D01*
X4772050Y5270042D01*
X4779060Y5257292D01*
X4787646Y5245506D01*
X4797602Y5234940D01*
X4808829Y5225643D01*
X4821072Y5217820D01*
X4834280Y5211622D01*
X4848098Y5207152D01*
X4863338Y5204307D01*
X4867046Y5202783D01*
X4869891Y5199989D01*
X4871415Y5196281D01*
X4871415Y5192318D01*
X4869891Y5188610D01*
X4867046Y5185816D01*
X4863338Y5184292D01*
X4848098Y5181447D01*
X4834280Y5176977D01*
X4821072Y5170779D01*
X4808829Y5162956D01*
X4797602Y5153660D01*
X4787646Y5143093D01*
X4779060Y5131308D01*
X4772050Y5118557D01*
X4766716Y5104993D01*
X4763109Y5090922D01*
X4761280Y5076494D01*
X4761280Y5061915D01*
X4763109Y5047488D01*
X4766716Y5033416D01*
X4772050Y5019852D01*
X4779060Y5007102D01*
X4787646Y4995316D01*
X4797602Y4984750D01*
X4808829Y4975453D01*
X4821072Y4967630D01*
X4834280Y4961432D01*
X4848098Y4956962D01*
X4862423Y4954219D01*
G37*
G36*
X2008378Y4750511D02*
G01*
X2157222Y4750511D01*
X2163572Y4751222D01*
X2169007Y4753102D01*
X2173935Y4756200D01*
X2177999Y4760264D01*
X2181098Y4765192D01*
X2182977Y4770628D01*
X2183688Y4776978D01*
X2183688Y4893513D01*
X2184501Y4897374D01*
X2186686Y4900676D01*
X2218537Y4932527D01*
X2221839Y4934762D01*
X2225751Y4935524D01*
X2229612Y4934762D01*
X2232914Y4932527D01*
X2235098Y4929276D01*
X2235911Y4925364D01*
X2235911Y4776978D01*
X2236622Y4770628D01*
X2238502Y4765192D01*
X2241600Y4760264D01*
X2245664Y4756200D01*
X2250592Y4753102D01*
X2256028Y4751222D01*
X2262378Y4750511D01*
X2411222Y4750511D01*
X2417572Y4751222D01*
X2423007Y4753102D01*
X2427935Y4756200D01*
X2431999Y4760264D01*
X2435098Y4765192D01*
X2436977Y4770628D01*
X2437688Y4776978D01*
X2437688Y4925822D01*
X2436977Y4932172D01*
X2435098Y4937607D01*
X2431999Y4942535D01*
X2427935Y4946599D01*
X2423007Y4949698D01*
X2417572Y4951577D01*
X2411222Y4952288D01*
X2262835Y4952288D01*
X2258923Y4953101D01*
X2255672Y4955286D01*
X2253437Y4958588D01*
X2252675Y4962448D01*
X2253437Y4966360D01*
X2255672Y4969662D01*
X2438704Y5152694D01*
X2442006Y5154930D01*
X2445918Y5155692D01*
X3517392Y5155692D01*
X3525418Y5156504D01*
X3532632Y5158689D01*
X3539337Y5162245D01*
X3545535Y5167376D01*
X4534204Y6155994D01*
X4537506Y6158230D01*
X4541418Y6158992D01*
X5237581Y6158992D01*
X5241493Y6158230D01*
X5244795Y6155994D01*
X5407964Y5992876D01*
X5414162Y5987745D01*
X5420868Y5984189D01*
X5428081Y5982004D01*
X5436108Y5981192D01*
X5551220Y5981192D01*
X5554827Y5980531D01*
X5557977Y5978601D01*
X5560263Y5975705D01*
X5561431Y5970828D01*
X5563362Y5965393D01*
X5566460Y5960465D01*
X5570524Y5956401D01*
X5575452Y5953302D01*
X5580888Y5951423D01*
X5587238Y5950712D01*
X5637276Y5950712D01*
X5641136Y5949899D01*
X5644438Y5947714D01*
X5800394Y5791758D01*
X5802630Y5788456D01*
X5803392Y5784545D01*
X5803392Y5435447D01*
X5802680Y5431688D01*
X5800648Y5428488D01*
X5797550Y5426252D01*
X5786272Y5420969D01*
X5774029Y5413146D01*
X5762802Y5403850D01*
X5752846Y5393283D01*
X5744260Y5381498D01*
X5737250Y5368747D01*
X5731916Y5355183D01*
X5728309Y5341112D01*
X5726480Y5326684D01*
X5726480Y5312105D01*
X5728309Y5297678D01*
X5731916Y5283606D01*
X5737250Y5270042D01*
X5744260Y5257292D01*
X5752846Y5245506D01*
X5762802Y5234940D01*
X5774029Y5225643D01*
X5786272Y5217820D01*
X5799480Y5211622D01*
X5813298Y5207152D01*
X5828538Y5204307D01*
X5832246Y5202783D01*
X5835091Y5199989D01*
X5836615Y5196281D01*
X5836615Y5192318D01*
X5835091Y5188610D01*
X5832246Y5185816D01*
X5828538Y5184292D01*
X5813298Y5181447D01*
X5799480Y5176977D01*
X5786272Y5170779D01*
X5774029Y5162956D01*
X5762802Y5153660D01*
X5752846Y5143093D01*
X5744260Y5131308D01*
X5737250Y5118557D01*
X5731916Y5104993D01*
X5728309Y5090922D01*
X5726480Y5076494D01*
X5726480Y5061915D01*
X5728309Y5047488D01*
X5731916Y5033416D01*
X5737250Y5019852D01*
X5744260Y5007102D01*
X5752846Y4995316D01*
X5762802Y4984750D01*
X5774029Y4975453D01*
X5786272Y4967630D01*
X5799480Y4961432D01*
X5813298Y4956962D01*
X5827623Y4954219D01*
X5842152Y4953304D01*
X5856630Y4954219D01*
X5870956Y4956962D01*
X5884773Y4961432D01*
X5897981Y4967630D01*
X5910224Y4975453D01*
X5921451Y4984750D01*
X5931408Y4995316D01*
X5939993Y5007102D01*
X5947003Y5019852D01*
X5952337Y5033416D01*
X5955944Y5047488D01*
X5957773Y5061915D01*
X5957773Y5076494D01*
X5955944Y5090922D01*
X5952337Y5104993D01*
X5947003Y5118557D01*
X5939993Y5131308D01*
X5931408Y5143093D01*
X5921451Y5153660D01*
X5910224Y5162956D01*
X5897981Y5170779D01*
X5884773Y5176977D01*
X5870956Y5181447D01*
X5855716Y5184292D01*
X5852007Y5185816D01*
X5849162Y5188610D01*
X5847638Y5192318D01*
X5847638Y5196281D01*
X5849162Y5199989D01*
X5852007Y5202783D01*
X5855716Y5204307D01*
X5870956Y5207152D01*
X5884773Y5211622D01*
X5897981Y5217820D01*
X5910224Y5225643D01*
X5921451Y5234940D01*
X5931408Y5245506D01*
X5939993Y5257292D01*
X5947003Y5270042D01*
X5952337Y5283606D01*
X5955944Y5297678D01*
X5957773Y5312105D01*
X5957773Y5326684D01*
X5955944Y5341112D01*
X5952337Y5355183D01*
X5947003Y5368747D01*
X5939993Y5381498D01*
X5931408Y5393283D01*
X5921451Y5403850D01*
X5910224Y5413146D01*
X5897981Y5420969D01*
X5886450Y5426354D01*
X5883351Y5428589D01*
X5881319Y5431840D01*
X5880608Y5435549D01*
X5880608Y5804255D01*
X5879795Y5812282D01*
X5877610Y5819495D01*
X5874054Y5826201D01*
X5868924Y5832398D01*
X5754065Y5947257D01*
X5751880Y5950559D01*
X5751118Y5954471D01*
X5751118Y5991860D01*
X5713730Y5991860D01*
X5709818Y5992622D01*
X5706516Y5994806D01*
X5696204Y6005169D01*
X5693968Y6008471D01*
X5693206Y6012383D01*
X5693206Y6037580D01*
X5693968Y6041491D01*
X5696204Y6044793D01*
X5699455Y6046978D01*
X5703366Y6047740D01*
X5751118Y6047740D01*
X5751118Y6088888D01*
X5737860Y6088888D01*
X5731560Y6088176D01*
X5726074Y6086297D01*
X5721197Y6083198D01*
X5717082Y6079134D01*
X5714034Y6074206D01*
X5711901Y6068161D01*
X5709767Y6064605D01*
X5706364Y6062167D01*
X5702300Y6061354D01*
X5698236Y6062167D01*
X5694832Y6064605D01*
X5692698Y6068161D01*
X5690565Y6074206D01*
X5687517Y6079134D01*
X5683402Y6083198D01*
X5678525Y6086297D01*
X5673039Y6088176D01*
X5666740Y6088888D01*
X5587238Y6088888D01*
X5580888Y6088176D01*
X5575452Y6086297D01*
X5570524Y6083198D01*
X5566460Y6079134D01*
X5563362Y6074206D01*
X5561431Y6068771D01*
X5560263Y6063894D01*
X5557977Y6060998D01*
X5554827Y6059068D01*
X5551220Y6058408D01*
X5455818Y6058408D01*
X5451906Y6059170D01*
X5448604Y6061405D01*
X5285435Y6224524D01*
X5279237Y6229654D01*
X5272532Y6233210D01*
X5265318Y6235395D01*
X5257292Y6236208D01*
X4521708Y6236208D01*
X4513681Y6235395D01*
X4506468Y6233210D01*
X4499762Y6229654D01*
X4493564Y6224524D01*
X3504895Y5235905D01*
X3501593Y5233670D01*
X3497681Y5232908D01*
X2426208Y5232908D01*
X2418181Y5232095D01*
X2410968Y5229910D01*
X2404262Y5226354D01*
X2398064Y5221224D01*
X2132076Y4955286D01*
X2128774Y4953101D01*
X2124913Y4952288D01*
X2008378Y4952288D01*
X2002028Y4951577D01*
X1996592Y4949698D01*
X1991664Y4946599D01*
X1987600Y4942535D01*
X1984502Y4937607D01*
X1982622Y4932172D01*
X1981911Y4925822D01*
X1981911Y4776978D01*
X1982622Y4770628D01*
X1984502Y4765192D01*
X1987600Y4760264D01*
X1991664Y4756200D01*
X1996592Y4753102D01*
X2002028Y4751222D01*
G37*
G36*
X2770378Y4750511D02*
G01*
X2919222Y4750511D01*
X2925572Y4751222D01*
X2931007Y4753102D01*
X2935935Y4756200D01*
X2939999Y4760264D01*
X2943098Y4765192D01*
X2944977Y4770628D01*
X2945688Y4776978D01*
X2945688Y4925822D01*
X2944977Y4932172D01*
X2943098Y4937607D01*
X2939999Y4942535D01*
X2935935Y4946599D01*
X2931007Y4949698D01*
X2925572Y4951577D01*
X2919222Y4952288D01*
X2770378Y4952288D01*
X2764028Y4951577D01*
X2758592Y4949698D01*
X2753664Y4946599D01*
X2749600Y4942535D01*
X2746502Y4937607D01*
X2744622Y4932172D01*
X2743911Y4925822D01*
X2743911Y4776978D01*
X2744622Y4770628D01*
X2746502Y4765192D01*
X2749600Y4760264D01*
X2753664Y4756200D01*
X2758592Y4753102D01*
X2764028Y4751222D01*
G37*

%LPD*%
D10*
X2959100Y2349500D02*
G01*
X2959100Y965200D01*
X2578100Y584200D01*
X2545128Y584200D01*
D11*
X4864963Y6007100D02*
G01*
X4876800Y5995263D01*
X4876800Y5319395D01*
X5626963Y6019800D02*
G01*
X5842000Y5804763D01*
X5842000Y5319395D01*
X6223863Y6019800D02*
G01*
X6794500Y5449163D01*
X6794500Y5319395D01*
X6795363Y6019800D02*
G01*
X7495768Y5319395D01*
X7759700Y5319395D01*
D10*
X10185400Y2336800D02*
G01*
X10541000Y1981200D01*
X10541000Y1891522D01*
X7785100Y2349500D02*
G01*
X7785100Y825500D01*
X7543800Y584200D01*
X7472728Y584200D01*
X5295900Y2362200D02*
G01*
X5295900Y952500D01*
X4927600Y584200D01*
X4894628Y584200D01*
D11*
X3238500Y4254500D02*
G01*
X2361331Y4254500D01*
X1270000Y4254500D02*
G01*
X2210668Y4254500D01*
X4279900Y4038600D02*
G01*
X6604000Y4038600D01*
X7023100Y3619500D01*
X2210561Y4254500D02*
G01*
X2210561Y4215637D01*
X2387600Y4038600D01*
X4279900Y4038600D01*
X4533900Y3784600D01*
X4533900Y3632200D01*
X2197100Y3619500D02*
G01*
X2210663Y3633063D01*
X2210663Y4254500D01*
X6587070Y4038600D02*
G01*
X8991600Y4038600D01*
X9423400Y3606800D01*
X9931400Y2336800D02*
G01*
X9639300Y2628900D01*
X7810500Y2628900D01*
X7531100Y2349500D01*
X7531100Y2349500D02*
G01*
X7239000Y2641600D01*
X5321300Y2641600D01*
X5041900Y2362200D01*
X5041900Y2362200D02*
G01*
X4787900Y2616200D01*
X2971800Y2616200D01*
X2705100Y2349500D01*
X6919851Y6019802D02*
G01*
X6946038Y6019802D01*
X1270000Y4254500D02*
G01*
X1701800Y4686300D01*
X1701800Y5384800D01*
X2336800Y6019800D01*
X2336800Y6388100D01*
X3975100Y6286500D02*
G01*
X3568700Y6692900D01*
X1066800Y6692900D01*
X838200Y6464300D01*
X838200Y5143500D01*
X1066800Y4914900D01*
X1066800Y4851400D01*
D10*
X10185400Y6070600D02*
G01*
X10541000Y5715000D01*
X10541000Y850900D01*
X10274300Y584200D01*
X1308100Y584200D01*
X1003300Y1028700D01*
X685800Y1028700D01*
X2457704Y1168400D02*
G01*
X2457704Y1657095D01*
X2197100Y1917700D01*
X2197100Y2349500D01*
X7233010Y1168410D02*
G01*
X7233010Y1707789D01*
X7023100Y1917700D01*
X7023100Y2349500D01*
X9696810Y1168410D02*
G01*
X9696810Y1618889D01*
X9423400Y1892300D01*
X9423400Y2336800D01*
X3993895Y1168400D02*
G01*
X3993895Y1555495D01*
X4279900Y1841500D01*
X4279900Y2362200D01*
X4743704Y1168400D02*
G01*
X4743704Y1618995D01*
X4533900Y1828800D01*
X4533900Y2362200D01*
X6483095Y1168400D02*
G01*
X6483095Y1631695D01*
X6769100Y1917700D01*
X6769100Y2349500D01*
X8946895Y1168400D02*
G01*
X8946895Y1644395D01*
X9169400Y1866900D01*
X9169400Y2336800D01*
X1707692Y1168501D02*
G01*
X1707692Y1694992D01*
X1943100Y1930400D01*
X1943100Y2349500D01*
D11*
X7759700Y5319395D02*
G01*
X7975600Y5103495D01*
X7975600Y4902200D01*
X7747000Y4673600D01*
X2717800Y4673600D01*
X2590800Y4800600D01*
X2590800Y4851400D01*
D10*
X546100Y2251963D02*
G01*
X342900Y2048763D01*
X342900Y1358137D01*
X559054Y1155445D01*
X685800Y1028700D01*
X546100Y2751836D02*
G01*
X664463Y2751836D01*
X838200Y2578100D01*
X838200Y1600200D01*
X774700Y1536700D01*
X685800Y1536700D01*
D11*
X546100Y2501900D02*
G01*
X393700Y2654300D01*
X393700Y3835400D01*
X1193800Y4635500D01*
X1193800Y6261100D01*
X1066800Y6388100D01*
X2082800Y4851400D02*
G01*
X2425700Y5194300D01*
X3517900Y5194300D01*
X4521200Y6197600D01*
X5257800Y6197600D01*
X5435600Y6019800D01*
X5626861Y6019800D01*
X1320800Y6388100D02*
G01*
X1498600Y6565900D01*
X3124200Y6565900D01*
X3594100Y6096000D01*
X4140200Y6096000D01*
X4394200Y6350000D01*
X7848600Y6350000D01*
X7899387Y6299212D01*
X7899387Y6172200D01*
D12*
G01*
X6795375Y6019800D03*
G01*
X6946024Y6019800D03*
G01*
X6223875Y6019800D03*
G01*
X6374524Y6019800D03*
G01*
X5626975Y6019800D03*
G01*
X5777624Y6019800D03*
G01*
X4864975Y6007100D03*
G01*
X5015624Y6007100D03*
D13*
G01*
X2361324Y4254500D03*
G01*
X2210675Y4254500D03*
D14*
G01*
X3721100Y6286500D03*
D15*
G01*
X3975100Y6286500D03*
D16*
G01*
X9069831Y4813300D03*
G01*
X9320022Y4813300D03*
G01*
X7759827Y5069204D03*
G01*
X7759827Y5319395D03*
G01*
X6794627Y5069204D03*
G01*
X6794627Y5319395D03*
G01*
X5842127Y5069204D03*
G01*
X5842127Y5319395D03*
G01*
X4876927Y5069204D03*
G01*
X4876927Y5319395D03*
D17*
G01*
X1066800Y4851400D03*
G01*
X1320800Y4851400D03*
G01*
X1574800Y4851400D03*
G01*
X1828800Y4851400D03*
G01*
X2082800Y4851400D03*
G01*
X2336800Y4851400D03*
G01*
X2590800Y4851400D03*
G01*
X2844800Y4851400D03*
G01*
X2844800Y6388100D03*
G01*
X2590800Y6388100D03*
G01*
X2336800Y6388100D03*
G01*
X2082800Y6388100D03*
G01*
X1828800Y6388100D03*
G01*
X1574800Y6388100D03*
G01*
X1320800Y6388100D03*
G01*
X1066800Y6388100D03*
G01*
X2844800Y5359400D03*
G01*
X2844800Y5613400D03*
G01*
X2844800Y5867400D03*
D16*
G01*
X7649413Y6172200D03*
G01*
X7899400Y6172200D03*
G01*
X8149412Y6172200D03*
G01*
X546100Y2251887D03*
G01*
X546100Y2501874D03*
G01*
X546100Y2751886D03*
D18*
G01*
X4743805Y1168400D03*
G01*
X4493793Y1168400D03*
G01*
X4243806Y1168400D03*
G01*
X3993794Y1168400D03*
G01*
X7233005Y1168400D03*
G01*
X6982993Y1168400D03*
G01*
X6733006Y1168400D03*
G01*
X6482994Y1168400D03*
G01*
X9696805Y1168400D03*
G01*
X9446793Y1168400D03*
G01*
X9196806Y1168400D03*
G01*
X8946794Y1168400D03*
D14*
G01*
X685800Y1536700D03*
D15*
G01*
X685800Y1282700D03*
G01*
X685800Y1028700D03*
G01*
X685800Y774700D03*
D19*
G01*
X7861300Y4406900D03*
G01*
X8623300Y4406900D03*
D14*
G01*
X3238500Y4254500D03*
G01*
X1270000Y4254500D03*
D18*
G01*
X2457704Y1168501D03*
G01*
X2207691Y1168501D03*
G01*
X1957704Y1168501D03*
G01*
X1707692Y1168501D03*
D20*
G01*
X1181100Y3619500D03*
G01*
X1435100Y3619500D03*
G01*
X1689100Y3619500D03*
G01*
X1943100Y3619500D03*
G01*
X2197100Y3619500D03*
G01*
X2451100Y3619500D03*
G01*
X2705100Y3619500D03*
G01*
X2959100Y3619500D03*
G01*
X2959100Y2349500D03*
G01*
X2705100Y2349500D03*
G01*
X2451100Y2349500D03*
G01*
X2197100Y2349500D03*
G01*
X1943100Y2349500D03*
G01*
X1689100Y2349500D03*
G01*
X1435100Y2349500D03*
G01*
X1181100Y2349500D03*
G01*
X3517900Y3632200D03*
G01*
X3771900Y3632200D03*
G01*
X4025900Y3632200D03*
G01*
X4279900Y3632200D03*
G01*
X4533900Y3632200D03*
G01*
X4787900Y3632200D03*
G01*
X5041900Y3632200D03*
G01*
X5295900Y3632200D03*
G01*
X5295900Y2362200D03*
G01*
X5041900Y2362200D03*
G01*
X4787900Y2362200D03*
G01*
X4533900Y2362200D03*
G01*
X4279900Y2362200D03*
G01*
X4025900Y2362200D03*
G01*
X3771900Y2362200D03*
G01*
X3517900Y2362200D03*
G01*
X6007100Y3619500D03*
G01*
X6261100Y3619500D03*
G01*
X6515100Y3619500D03*
G01*
X6769100Y3619500D03*
G01*
X7023100Y3619500D03*
G01*
X7277100Y3619500D03*
G01*
X7531100Y3619500D03*
G01*
X7785100Y3619500D03*
G01*
X7785100Y2349500D03*
G01*
X7531100Y2349500D03*
G01*
X7277100Y2349500D03*
G01*
X7023100Y2349500D03*
G01*
X6769100Y2349500D03*
G01*
X6515100Y2349500D03*
G01*
X6261100Y2349500D03*
G01*
X6007100Y2349500D03*
G01*
X8407400Y3606800D03*
G01*
X8661400Y3606800D03*
G01*
X8915400Y3606800D03*
G01*
X9169400Y3606800D03*
G01*
X9423400Y3606800D03*
G01*
X9677400Y3606800D03*
G01*
X9931400Y3606800D03*
G01*
X10185400Y3606800D03*
G01*
X10185400Y2336800D03*
G01*
X9931400Y2336800D03*
G01*
X9677400Y2336800D03*
G01*
X9423400Y2336800D03*
G01*
X9169400Y2336800D03*
G01*
X8915400Y2336800D03*
G01*
X8661400Y2336800D03*
G01*
X8407400Y2336800D03*
D21*
G01*
X8928100Y6057900D03*
G01*
X9601200Y6070600D03*
G01*
X10185400Y6070600D03*
M02*
