G04 Layer: BottomLayer*
G04 EasyEDA v6.5.22, 2023-02-28 18:31:49*
G04 0f5abc17f4e243e5a26b6cc200d52bdd,5d2348555bc34ac8837521f0f1db218d,10*
G04 Gerber Generator version 0.2*
G04 Scale: 100 percent, Rotated: No, Reflected: No *
G04 Dimensions in millimeters *
G04 leading zeros omitted , absolute positions ,4 integer and 5 decimal *
%FSLAX45Y45*%
%MOMM*%

%ADD10C,0.2540*%
%ADD11C,1.0000*%
%ADD12R,1.5748X1.5748*%
%ADD13C,1.5748*%
%ADD14C,1.8000*%
%ADD15R,1.5000X1.5000*%
%ADD16C,1.7000*%
%ADD17C,1.8796*%
%ADD18C,1.5240*%
%ADD19R,3.0000X3.0000*%
%ADD20R,0.0102X3.0000*%

%LPD*%
G36*
X74168Y325882D02*
G01*
X70256Y326644D01*
X67005Y328879D01*
X64769Y332130D01*
X64008Y336042D01*
X64008Y6863842D01*
X64769Y6867753D01*
X67005Y6871004D01*
X70256Y6873240D01*
X74168Y6874002D01*
X10809732Y6874002D01*
X10813643Y6873240D01*
X10816894Y6871004D01*
X10819130Y6867753D01*
X10819892Y6863842D01*
X10819892Y336042D01*
X10819130Y332130D01*
X10816894Y328879D01*
X10813643Y326644D01*
X10809732Y325882D01*
G37*

%LPC*%
G36*
X1936292Y3517646D02*
G01*
X1949907Y3517646D01*
X1963420Y3519474D01*
X1976577Y3523081D01*
X1989124Y3528364D01*
X2000859Y3535324D01*
X2011578Y3543808D01*
X2021078Y3553612D01*
X2029155Y3564585D01*
X2035708Y3576523D01*
X2040585Y3589274D01*
X2043785Y3602532D01*
X2045106Y3616096D01*
X2044649Y3629710D01*
X2042414Y3643172D01*
X2038350Y3656177D01*
X2032609Y3668572D01*
X2025294Y3680053D01*
X2016506Y3690467D01*
X2006346Y3699611D01*
X1995119Y3707333D01*
X1982978Y3713479D01*
X1970074Y3717950D01*
X1956714Y3720693D01*
X1943100Y3721608D01*
X1929485Y3720693D01*
X1916125Y3717950D01*
X1903222Y3713479D01*
X1891080Y3707333D01*
X1879854Y3699611D01*
X1869693Y3690467D01*
X1860905Y3680053D01*
X1853590Y3668572D01*
X1847850Y3656177D01*
X1843786Y3643172D01*
X1841550Y3629710D01*
X1841093Y3616096D01*
X1842414Y3602532D01*
X1845614Y3589274D01*
X1850491Y3576523D01*
X1857044Y3564585D01*
X1865122Y3553612D01*
X1874621Y3543808D01*
X1885340Y3535324D01*
X1897075Y3528364D01*
X1909622Y3523081D01*
X1922780Y3519474D01*
G37*
G36*
X731520Y680821D02*
G01*
X738124Y684072D01*
X749503Y691692D01*
X759764Y700735D01*
X768807Y710996D01*
X776427Y722376D01*
X779678Y728980D01*
X731520Y728980D01*
G37*
G36*
X591921Y820419D02*
G01*
X640080Y820419D01*
X640080Y868578D01*
X633476Y865327D01*
X622096Y857707D01*
X611835Y848664D01*
X602792Y838403D01*
X595172Y827024D01*
G37*
G36*
X731520Y820419D02*
G01*
X779678Y820419D01*
X776427Y827024D01*
X768807Y838403D01*
X759764Y848664D01*
X749503Y857707D01*
X738124Y865327D01*
X731520Y868578D01*
G37*
G36*
X685800Y924052D02*
G01*
X699465Y924966D01*
X712876Y927658D01*
X725830Y932027D01*
X738124Y938072D01*
X749503Y945692D01*
X759764Y954735D01*
X768807Y964996D01*
X776427Y976376D01*
X782472Y988669D01*
X786841Y1001623D01*
X789533Y1015034D01*
X790448Y1028700D01*
X789533Y1042365D01*
X786841Y1055776D01*
X782472Y1068730D01*
X776427Y1081024D01*
X768807Y1092403D01*
X759764Y1102664D01*
X749503Y1111707D01*
X738124Y1119327D01*
X725830Y1125372D01*
X712876Y1129741D01*
X699465Y1132433D01*
X685800Y1133348D01*
X672134Y1132433D01*
X658723Y1129741D01*
X645769Y1125372D01*
X633476Y1119327D01*
X622096Y1111707D01*
X611835Y1102664D01*
X602792Y1092403D01*
X595172Y1081024D01*
X589127Y1068730D01*
X584758Y1055776D01*
X582066Y1042365D01*
X581152Y1028700D01*
X582066Y1015034D01*
X584758Y1001623D01*
X589127Y988669D01*
X595172Y976376D01*
X602792Y964996D01*
X611835Y954735D01*
X622096Y945692D01*
X633476Y938072D01*
X645769Y932027D01*
X658723Y927658D01*
X672134Y924966D01*
G37*
G36*
X4740249Y1057554D02*
G01*
X4754473Y1058011D01*
X4768494Y1060297D01*
X4782108Y1064310D01*
X4795113Y1070102D01*
X4807254Y1077468D01*
X4818329Y1086307D01*
X4828235Y1096518D01*
X4836718Y1107897D01*
X4843729Y1120292D01*
X4849063Y1133449D01*
X4852619Y1147216D01*
X4854448Y1161288D01*
X4854448Y1175512D01*
X4852619Y1189583D01*
X4849063Y1203350D01*
X4843729Y1216507D01*
X4836718Y1228902D01*
X4828235Y1240282D01*
X4818329Y1250492D01*
X4807254Y1259332D01*
X4795113Y1266698D01*
X4782108Y1272438D01*
X4768494Y1276502D01*
X4754473Y1278788D01*
X4740249Y1279245D01*
X4726127Y1277874D01*
X4712258Y1274724D01*
X4698898Y1269796D01*
X4686300Y1263243D01*
X4674666Y1255115D01*
X4664151Y1245565D01*
X4654956Y1234744D01*
X4647184Y1222806D01*
X4641037Y1210005D01*
X4636516Y1196543D01*
X4633823Y1182573D01*
X4632909Y1168400D01*
X4633823Y1154226D01*
X4636516Y1140256D01*
X4641037Y1126794D01*
X4647184Y1113993D01*
X4654956Y1102055D01*
X4664151Y1091234D01*
X4674666Y1081684D01*
X4686300Y1073556D01*
X4698898Y1067003D01*
X4712258Y1062075D01*
X4726127Y1058926D01*
G37*
G36*
X7229449Y1057554D02*
G01*
X7243673Y1058011D01*
X7257694Y1060297D01*
X7271308Y1064310D01*
X7284313Y1070102D01*
X7296454Y1077468D01*
X7307529Y1086307D01*
X7317435Y1096518D01*
X7325918Y1107897D01*
X7332929Y1120292D01*
X7338263Y1133449D01*
X7341819Y1147216D01*
X7343648Y1161288D01*
X7343648Y1175512D01*
X7341819Y1189583D01*
X7338263Y1203350D01*
X7332929Y1216507D01*
X7325918Y1228902D01*
X7317435Y1240282D01*
X7307529Y1250492D01*
X7296454Y1259332D01*
X7284313Y1266698D01*
X7271308Y1272438D01*
X7257694Y1276502D01*
X7243673Y1278788D01*
X7229449Y1279245D01*
X7215327Y1277874D01*
X7201458Y1274724D01*
X7188098Y1269796D01*
X7175500Y1263243D01*
X7163866Y1255115D01*
X7153351Y1245565D01*
X7144156Y1234744D01*
X7136384Y1222806D01*
X7130237Y1210005D01*
X7125716Y1196543D01*
X7123023Y1182573D01*
X7122109Y1168400D01*
X7123023Y1154226D01*
X7125716Y1140256D01*
X7130237Y1126794D01*
X7136384Y1113993D01*
X7144156Y1102055D01*
X7153351Y1091234D01*
X7163866Y1081684D01*
X7175500Y1073556D01*
X7188098Y1067003D01*
X7201458Y1062075D01*
X7215327Y1058926D01*
G37*
G36*
X8943238Y1057554D02*
G01*
X8957462Y1058011D01*
X8971483Y1060297D01*
X8985097Y1064310D01*
X8998102Y1070102D01*
X9010243Y1077468D01*
X9021368Y1086307D01*
X9031224Y1096518D01*
X9039707Y1107897D01*
X9046718Y1120292D01*
X9052052Y1133449D01*
X9055658Y1147216D01*
X9057436Y1161288D01*
X9057436Y1175512D01*
X9055658Y1189583D01*
X9052052Y1203350D01*
X9046718Y1216507D01*
X9039707Y1228902D01*
X9031224Y1240282D01*
X9021368Y1250492D01*
X9010243Y1259332D01*
X8998102Y1266698D01*
X8985097Y1272438D01*
X8971483Y1276502D01*
X8957462Y1278788D01*
X8943238Y1279245D01*
X8929116Y1277874D01*
X8915247Y1274724D01*
X8901938Y1269796D01*
X8889339Y1263243D01*
X8877655Y1255115D01*
X8867140Y1245565D01*
X8857945Y1234744D01*
X8850172Y1222806D01*
X8844026Y1210005D01*
X8839555Y1196543D01*
X8836812Y1182573D01*
X8835898Y1168400D01*
X8836812Y1154226D01*
X8839555Y1140256D01*
X8844026Y1126794D01*
X8850172Y1113993D01*
X8857945Y1102055D01*
X8867140Y1091234D01*
X8877655Y1081684D01*
X8889339Y1073556D01*
X8901938Y1067003D01*
X8915247Y1062075D01*
X8929116Y1058926D01*
G37*
G36*
X6479438Y1057554D02*
G01*
X6493662Y1058011D01*
X6507683Y1060297D01*
X6521297Y1064310D01*
X6534302Y1070102D01*
X6546443Y1077468D01*
X6557568Y1086307D01*
X6567424Y1096518D01*
X6575907Y1107897D01*
X6582918Y1120292D01*
X6588252Y1133449D01*
X6591858Y1147216D01*
X6593636Y1161288D01*
X6593636Y1175512D01*
X6591858Y1189583D01*
X6588252Y1203350D01*
X6582918Y1216507D01*
X6575907Y1228902D01*
X6567424Y1240282D01*
X6557568Y1250492D01*
X6546443Y1259332D01*
X6534302Y1266698D01*
X6521297Y1272438D01*
X6507683Y1276502D01*
X6493662Y1278788D01*
X6479438Y1279245D01*
X6465316Y1277874D01*
X6451447Y1274724D01*
X6438138Y1269796D01*
X6425539Y1263243D01*
X6413855Y1255115D01*
X6403340Y1245565D01*
X6394145Y1234744D01*
X6386372Y1222806D01*
X6380226Y1210005D01*
X6375755Y1196543D01*
X6373012Y1182573D01*
X6372098Y1168400D01*
X6373012Y1154226D01*
X6375755Y1140256D01*
X6380226Y1126794D01*
X6386372Y1113993D01*
X6394145Y1102055D01*
X6403340Y1091234D01*
X6413855Y1081684D01*
X6425539Y1073556D01*
X6438138Y1067003D01*
X6451447Y1062075D01*
X6465316Y1058926D01*
G37*
G36*
X3990238Y1057554D02*
G01*
X4004462Y1058011D01*
X4018483Y1060297D01*
X4032097Y1064310D01*
X4045102Y1070102D01*
X4057243Y1077468D01*
X4068368Y1086307D01*
X4078224Y1096518D01*
X4086707Y1107897D01*
X4093718Y1120292D01*
X4099051Y1133449D01*
X4102658Y1147216D01*
X4104436Y1161288D01*
X4104436Y1175512D01*
X4102658Y1189583D01*
X4099051Y1203350D01*
X4093718Y1216507D01*
X4086707Y1228902D01*
X4078224Y1240282D01*
X4068368Y1250492D01*
X4057243Y1259332D01*
X4045102Y1266698D01*
X4032097Y1272438D01*
X4018483Y1276502D01*
X4004462Y1278788D01*
X3990238Y1279245D01*
X3976115Y1277874D01*
X3962247Y1274724D01*
X3948937Y1269796D01*
X3936339Y1263243D01*
X3924655Y1255115D01*
X3914140Y1245565D01*
X3904945Y1234744D01*
X3897172Y1222806D01*
X3891026Y1210005D01*
X3886555Y1196543D01*
X3883812Y1182573D01*
X3882898Y1168400D01*
X3883812Y1154226D01*
X3886555Y1140256D01*
X3891026Y1126794D01*
X3897172Y1113993D01*
X3904945Y1102055D01*
X3914140Y1091234D01*
X3924655Y1081684D01*
X3936339Y1073556D01*
X3948937Y1067003D01*
X3962247Y1062075D01*
X3976115Y1058926D01*
G37*
G36*
X9693249Y1057554D02*
G01*
X9707473Y1058011D01*
X9721494Y1060297D01*
X9735108Y1064310D01*
X9748113Y1070102D01*
X9760254Y1077468D01*
X9771329Y1086307D01*
X9781235Y1096518D01*
X9789718Y1107897D01*
X9796729Y1120292D01*
X9802063Y1133449D01*
X9805619Y1147216D01*
X9807448Y1161288D01*
X9807448Y1175512D01*
X9805619Y1189583D01*
X9802063Y1203350D01*
X9796729Y1216507D01*
X9789718Y1228902D01*
X9781235Y1240282D01*
X9771329Y1250492D01*
X9760254Y1259332D01*
X9748113Y1266698D01*
X9735108Y1272438D01*
X9721494Y1276502D01*
X9707473Y1278788D01*
X9693249Y1279245D01*
X9679127Y1277874D01*
X9665258Y1274724D01*
X9651898Y1269796D01*
X9639300Y1263243D01*
X9627666Y1255115D01*
X9617151Y1245565D01*
X9607956Y1234744D01*
X9600184Y1222806D01*
X9594037Y1210005D01*
X9589516Y1196543D01*
X9586823Y1182573D01*
X9585909Y1168400D01*
X9586823Y1154226D01*
X9589516Y1140256D01*
X9594037Y1126794D01*
X9600184Y1113993D01*
X9607956Y1102055D01*
X9617151Y1091234D01*
X9627666Y1081684D01*
X9639300Y1073556D01*
X9651898Y1067003D01*
X9665258Y1062075D01*
X9679127Y1058926D01*
G37*
G36*
X6729425Y1057554D02*
G01*
X6743649Y1058011D01*
X6757670Y1060297D01*
X6771284Y1064310D01*
X6784289Y1070102D01*
X6796430Y1077468D01*
X6807555Y1086307D01*
X6817410Y1096518D01*
X6825945Y1107897D01*
X6832904Y1120292D01*
X6838238Y1133449D01*
X6841845Y1147216D01*
X6843674Y1161288D01*
X6843674Y1175512D01*
X6841845Y1189583D01*
X6838238Y1203350D01*
X6832904Y1216507D01*
X6825945Y1228902D01*
X6817410Y1240282D01*
X6811772Y1246124D01*
X6809638Y1249375D01*
X6808927Y1253185D01*
X6808876Y1765960D01*
X6808063Y1774799D01*
X6805472Y1785823D01*
X6804710Y1788160D01*
X6801307Y1796389D01*
X6800189Y1798574D01*
X6795617Y1806193D01*
X6794195Y1808225D01*
X6788505Y1815033D01*
X6593992Y2009648D01*
X6591757Y2012950D01*
X6590995Y2016861D01*
X6590995Y2277465D01*
X6591503Y2280666D01*
X6592976Y2283510D01*
X6601155Y2294585D01*
X6607708Y2306523D01*
X6612585Y2319274D01*
X6615785Y2332532D01*
X6617106Y2346096D01*
X6616649Y2359710D01*
X6614414Y2373172D01*
X6610350Y2386177D01*
X6604609Y2398572D01*
X6597294Y2410053D01*
X6588506Y2420467D01*
X6578346Y2429611D01*
X6567119Y2437333D01*
X6554978Y2443480D01*
X6542074Y2447950D01*
X6528714Y2450693D01*
X6515100Y2451608D01*
X6501485Y2450693D01*
X6488125Y2447950D01*
X6475222Y2443480D01*
X6463080Y2437333D01*
X6451854Y2429611D01*
X6441694Y2420467D01*
X6432905Y2410053D01*
X6425590Y2398572D01*
X6419850Y2386177D01*
X6415786Y2373172D01*
X6413550Y2359710D01*
X6413093Y2346096D01*
X6414414Y2332532D01*
X6417614Y2319274D01*
X6422491Y2306523D01*
X6429044Y2294585D01*
X6437223Y2283510D01*
X6438696Y2280666D01*
X6439204Y2277465D01*
X6439255Y1978558D01*
X6440068Y1969719D01*
X6440474Y1967280D01*
X6442608Y1958644D01*
X6443370Y1956307D01*
X6446774Y1948078D01*
X6447891Y1945893D01*
X6452514Y1938274D01*
X6459575Y1929434D01*
X6654139Y1734820D01*
X6656324Y1731518D01*
X6657086Y1727657D01*
X6657086Y1253439D01*
X6656222Y1249324D01*
X6653326Y1245565D01*
X6644131Y1234744D01*
X6636359Y1222806D01*
X6630212Y1210005D01*
X6625742Y1196543D01*
X6622999Y1182573D01*
X6622135Y1168400D01*
X6622999Y1154226D01*
X6625742Y1140256D01*
X6630212Y1126794D01*
X6636359Y1113993D01*
X6644131Y1102055D01*
X6653326Y1091234D01*
X6663842Y1081684D01*
X6675526Y1073556D01*
X6688124Y1067003D01*
X6701434Y1062075D01*
X6715302Y1058926D01*
G37*
G36*
X4240225Y1057554D02*
G01*
X4254449Y1058011D01*
X4268470Y1060297D01*
X4282084Y1064310D01*
X4295089Y1070102D01*
X4307230Y1077468D01*
X4318355Y1086307D01*
X4328210Y1096518D01*
X4336745Y1107897D01*
X4343704Y1120292D01*
X4349038Y1133449D01*
X4352645Y1147216D01*
X4354474Y1161288D01*
X4354474Y1175512D01*
X4352645Y1189583D01*
X4349038Y1203350D01*
X4343704Y1216507D01*
X4336745Y1228902D01*
X4328210Y1240282D01*
X4322572Y1246124D01*
X4320438Y1249375D01*
X4319727Y1253185D01*
X4319676Y1765960D01*
X4318863Y1774799D01*
X4316272Y1785823D01*
X4315510Y1788160D01*
X4312107Y1796389D01*
X4310989Y1798574D01*
X4306417Y1806193D01*
X4304995Y1808225D01*
X4299305Y1815033D01*
X4104792Y2009648D01*
X4102557Y2012950D01*
X4101795Y2016861D01*
X4101795Y2290165D01*
X4102303Y2293366D01*
X4103776Y2296210D01*
X4111955Y2307285D01*
X4118508Y2319223D01*
X4123385Y2331974D01*
X4126585Y2345232D01*
X4127906Y2358796D01*
X4127449Y2372410D01*
X4125214Y2385872D01*
X4121150Y2398877D01*
X4115409Y2411272D01*
X4108094Y2422753D01*
X4099306Y2433167D01*
X4089146Y2442311D01*
X4077919Y2450033D01*
X4065778Y2456180D01*
X4052874Y2460650D01*
X4039514Y2463393D01*
X4025900Y2464308D01*
X4012285Y2463393D01*
X3998925Y2460650D01*
X3986022Y2456180D01*
X3973880Y2450033D01*
X3962654Y2442311D01*
X3952494Y2433167D01*
X3943705Y2422753D01*
X3936390Y2411272D01*
X3930650Y2398877D01*
X3926586Y2385872D01*
X3924350Y2372410D01*
X3923893Y2358796D01*
X3925214Y2345232D01*
X3928414Y2331974D01*
X3933291Y2319223D01*
X3939844Y2307285D01*
X3948023Y2296210D01*
X3949496Y2293366D01*
X3950004Y2290165D01*
X3950055Y1978558D01*
X3950868Y1969719D01*
X3951274Y1967280D01*
X3953408Y1958644D01*
X3954170Y1956307D01*
X3957574Y1948078D01*
X3958691Y1945893D01*
X3963314Y1938274D01*
X3970375Y1929434D01*
X4164939Y1734820D01*
X4167124Y1731518D01*
X4167886Y1727657D01*
X4167886Y1253439D01*
X4167022Y1249324D01*
X4164126Y1245565D01*
X4154932Y1234744D01*
X4147159Y1222806D01*
X4141012Y1210005D01*
X4136542Y1196543D01*
X4133799Y1182573D01*
X4132935Y1168400D01*
X4133799Y1154226D01*
X4136542Y1140256D01*
X4141012Y1126794D01*
X4147159Y1113993D01*
X4154932Y1102055D01*
X4164126Y1091234D01*
X4174642Y1081684D01*
X4186326Y1073556D01*
X4198924Y1067003D01*
X4212234Y1062075D01*
X4226102Y1058926D01*
G37*
G36*
X9443262Y1057554D02*
G01*
X9457436Y1058011D01*
X9471456Y1060297D01*
X9485071Y1064310D01*
X9498076Y1070102D01*
X9510217Y1077468D01*
X9521342Y1086307D01*
X9531248Y1096518D01*
X9539732Y1107897D01*
X9546691Y1120292D01*
X9552025Y1133449D01*
X9555632Y1147216D01*
X9557461Y1161288D01*
X9557461Y1175512D01*
X9555632Y1189583D01*
X9552025Y1203350D01*
X9546691Y1216507D01*
X9539732Y1228902D01*
X9531248Y1240282D01*
X9525558Y1246124D01*
X9523425Y1249375D01*
X9522714Y1253185D01*
X9522714Y1638757D01*
X9523476Y1642618D01*
X9525660Y1645920D01*
X9732924Y1853234D01*
X9739985Y1862074D01*
X9744608Y1869693D01*
X9745726Y1871878D01*
X9749129Y1880107D01*
X9749891Y1882444D01*
X9752025Y1891080D01*
X9752431Y1893519D01*
X9753244Y1902358D01*
X9753295Y2264765D01*
X9753803Y2267966D01*
X9755276Y2270810D01*
X9763455Y2281885D01*
X9770008Y2293823D01*
X9774885Y2306574D01*
X9778085Y2319832D01*
X9779406Y2333396D01*
X9778949Y2347010D01*
X9776714Y2360472D01*
X9772650Y2373477D01*
X9766909Y2385872D01*
X9759594Y2397353D01*
X9750806Y2407767D01*
X9740646Y2416911D01*
X9729419Y2424633D01*
X9717278Y2430780D01*
X9704374Y2435250D01*
X9691014Y2437993D01*
X9677400Y2438908D01*
X9663785Y2437993D01*
X9650425Y2435250D01*
X9637522Y2430780D01*
X9625380Y2424633D01*
X9614154Y2416911D01*
X9603994Y2407767D01*
X9595205Y2397353D01*
X9587890Y2385872D01*
X9582150Y2373477D01*
X9578086Y2360472D01*
X9575850Y2347010D01*
X9575393Y2333396D01*
X9576714Y2319832D01*
X9579914Y2306574D01*
X9584791Y2293823D01*
X9591344Y2281885D01*
X9599523Y2270810D01*
X9600996Y2267966D01*
X9601504Y2264765D01*
X9601504Y1940661D01*
X9600742Y1936750D01*
X9598507Y1933448D01*
X9391294Y1726184D01*
X9385604Y1719325D01*
X9384182Y1717293D01*
X9379610Y1709674D01*
X9378492Y1707489D01*
X9375089Y1699310D01*
X9374327Y1696974D01*
X9372193Y1688338D01*
X9371787Y1685899D01*
X9370923Y1677060D01*
X9370872Y1253439D01*
X9370009Y1249324D01*
X9367164Y1245565D01*
X9357918Y1234744D01*
X9350197Y1222806D01*
X9343999Y1210005D01*
X9339529Y1196543D01*
X9336836Y1182573D01*
X9335922Y1168400D01*
X9336836Y1154226D01*
X9339529Y1140256D01*
X9343999Y1126794D01*
X9350197Y1113993D01*
X9357918Y1102055D01*
X9367164Y1091234D01*
X9377680Y1081684D01*
X9389313Y1073556D01*
X9401911Y1067003D01*
X9415272Y1062075D01*
X9429089Y1058926D01*
G37*
G36*
X9193225Y1057554D02*
G01*
X9207449Y1058011D01*
X9221470Y1060297D01*
X9235084Y1064310D01*
X9248089Y1070102D01*
X9260230Y1077468D01*
X9271355Y1086307D01*
X9281210Y1096518D01*
X9289745Y1107897D01*
X9296704Y1120292D01*
X9302038Y1133449D01*
X9305645Y1147216D01*
X9307474Y1161288D01*
X9307474Y1175512D01*
X9305645Y1189583D01*
X9302038Y1203350D01*
X9296704Y1216507D01*
X9289745Y1228902D01*
X9281210Y1240282D01*
X9275622Y1246073D01*
X9273489Y1249375D01*
X9272727Y1253185D01*
X9272676Y1664309D01*
X9271863Y1673148D01*
X9271457Y1675587D01*
X9269323Y1684223D01*
X9268561Y1686560D01*
X9265158Y1694789D01*
X9264040Y1696974D01*
X9259417Y1704593D01*
X9252356Y1713433D01*
X8994292Y1971548D01*
X8992057Y1974850D01*
X8991295Y1978761D01*
X8991295Y2264765D01*
X8991803Y2267966D01*
X8993276Y2270810D01*
X9001455Y2281885D01*
X9008008Y2293823D01*
X9012885Y2306574D01*
X9016085Y2319832D01*
X9017406Y2333396D01*
X9016949Y2347010D01*
X9014714Y2360472D01*
X9010650Y2373477D01*
X9004909Y2385872D01*
X8997594Y2397353D01*
X8988806Y2407767D01*
X8978646Y2416911D01*
X8967419Y2424633D01*
X8955278Y2430780D01*
X8942374Y2435250D01*
X8929014Y2437993D01*
X8915400Y2438908D01*
X8901785Y2437993D01*
X8888425Y2435250D01*
X8875522Y2430780D01*
X8863380Y2424633D01*
X8852154Y2416911D01*
X8841994Y2407767D01*
X8833205Y2397353D01*
X8825890Y2385872D01*
X8820150Y2373477D01*
X8816086Y2360472D01*
X8813850Y2347010D01*
X8813393Y2333396D01*
X8814714Y2319832D01*
X8817914Y2306574D01*
X8822791Y2293823D01*
X8829344Y2281885D01*
X8837523Y2270810D01*
X8838996Y2267966D01*
X8839504Y2264765D01*
X8839555Y1940458D01*
X8840368Y1931619D01*
X8840774Y1929180D01*
X8842908Y1920544D01*
X8843670Y1918207D01*
X8847074Y1909978D01*
X8848191Y1907793D01*
X8852814Y1900174D01*
X8859875Y1891334D01*
X9117939Y1633220D01*
X9120174Y1629918D01*
X9120936Y1626006D01*
X9120936Y1253490D01*
X9120073Y1249375D01*
X9117126Y1245565D01*
X9107932Y1234744D01*
X9100159Y1222806D01*
X9094012Y1210005D01*
X9089542Y1196543D01*
X9086799Y1182573D01*
X9085935Y1168400D01*
X9086799Y1154226D01*
X9089542Y1140256D01*
X9094012Y1126794D01*
X9100159Y1113993D01*
X9107932Y1102055D01*
X9117126Y1091234D01*
X9127642Y1081684D01*
X9139326Y1073556D01*
X9151924Y1067003D01*
X9165234Y1062075D01*
X9179102Y1058926D01*
G37*
G36*
X6979462Y1057554D02*
G01*
X6993636Y1058011D01*
X7007656Y1060297D01*
X7021271Y1064310D01*
X7034275Y1070102D01*
X7046417Y1077468D01*
X7057542Y1086307D01*
X7067448Y1096518D01*
X7075931Y1107897D01*
X7082891Y1120292D01*
X7088225Y1133449D01*
X7091832Y1147216D01*
X7093661Y1161288D01*
X7093661Y1175512D01*
X7091832Y1189583D01*
X7088225Y1203350D01*
X7082891Y1216507D01*
X7075931Y1228902D01*
X7067448Y1240282D01*
X7061758Y1246174D01*
X7059625Y1249426D01*
X7058863Y1253236D01*
X7058863Y1714906D01*
X7059625Y1718818D01*
X7061860Y1722120D01*
X7332624Y1992934D01*
X7339685Y2001774D01*
X7344308Y2009393D01*
X7345425Y2011578D01*
X7348829Y2019807D01*
X7349591Y2022144D01*
X7351725Y2030780D01*
X7352131Y2033219D01*
X7352944Y2042058D01*
X7352995Y2277465D01*
X7353503Y2280666D01*
X7354976Y2283510D01*
X7363155Y2294585D01*
X7369708Y2306523D01*
X7374585Y2319274D01*
X7377785Y2332532D01*
X7379106Y2346096D01*
X7378649Y2359710D01*
X7376414Y2373172D01*
X7372350Y2386177D01*
X7366609Y2398572D01*
X7359294Y2410053D01*
X7350506Y2420467D01*
X7340346Y2429611D01*
X7329119Y2437333D01*
X7316978Y2443480D01*
X7304074Y2447950D01*
X7290714Y2450693D01*
X7277100Y2451608D01*
X7263485Y2450693D01*
X7250125Y2447950D01*
X7237222Y2443480D01*
X7225080Y2437333D01*
X7213853Y2429611D01*
X7203694Y2420467D01*
X7194905Y2410053D01*
X7187590Y2398572D01*
X7181850Y2386177D01*
X7177786Y2373172D01*
X7175550Y2359710D01*
X7175093Y2346096D01*
X7176414Y2332532D01*
X7179614Y2319274D01*
X7184491Y2306523D01*
X7191044Y2294585D01*
X7199223Y2283510D01*
X7200696Y2280666D01*
X7201204Y2277465D01*
X7201204Y2080361D01*
X7200442Y2076450D01*
X7198207Y2073148D01*
X6927443Y1802333D01*
X6920382Y1793493D01*
X6915759Y1785874D01*
X6914642Y1783689D01*
X6911238Y1775460D01*
X6910476Y1773123D01*
X6908342Y1764487D01*
X6907936Y1762048D01*
X6907123Y1753209D01*
X6907072Y1253439D01*
X6906209Y1249324D01*
X6903364Y1245565D01*
X6894118Y1234744D01*
X6886397Y1222806D01*
X6880199Y1210005D01*
X6875729Y1196543D01*
X6873036Y1182573D01*
X6872122Y1168400D01*
X6873036Y1154226D01*
X6875729Y1140256D01*
X6880199Y1126794D01*
X6886397Y1113993D01*
X6894118Y1102055D01*
X6903364Y1091234D01*
X6913880Y1081684D01*
X6925513Y1073556D01*
X6938111Y1067003D01*
X6951472Y1062075D01*
X6965289Y1058926D01*
G37*
G36*
X4490262Y1057554D02*
G01*
X4504436Y1058011D01*
X4518456Y1060297D01*
X4532071Y1064310D01*
X4545076Y1070102D01*
X4557217Y1077468D01*
X4568342Y1086307D01*
X4578248Y1096518D01*
X4586732Y1107897D01*
X4593691Y1120292D01*
X4599025Y1133449D01*
X4602632Y1147216D01*
X4604461Y1161288D01*
X4604461Y1175512D01*
X4602632Y1189583D01*
X4599025Y1203350D01*
X4593691Y1216507D01*
X4586732Y1228902D01*
X4578248Y1240282D01*
X4572558Y1246174D01*
X4570425Y1249426D01*
X4569663Y1253236D01*
X4569663Y1714906D01*
X4570425Y1718818D01*
X4572660Y1722120D01*
X4843424Y1992934D01*
X4850485Y2001774D01*
X4855108Y2009393D01*
X4856226Y2011578D01*
X4859629Y2019807D01*
X4860391Y2022144D01*
X4862525Y2030780D01*
X4862931Y2033219D01*
X4863744Y2042058D01*
X4863795Y2290165D01*
X4864303Y2293366D01*
X4865776Y2296210D01*
X4873955Y2307285D01*
X4880508Y2319223D01*
X4885385Y2331974D01*
X4888585Y2345232D01*
X4889906Y2358796D01*
X4889449Y2372410D01*
X4887214Y2385872D01*
X4883150Y2398877D01*
X4877409Y2411272D01*
X4870094Y2422753D01*
X4861306Y2433167D01*
X4851146Y2442311D01*
X4839919Y2450033D01*
X4827778Y2456180D01*
X4814874Y2460650D01*
X4801514Y2463393D01*
X4787900Y2464308D01*
X4774285Y2463393D01*
X4760925Y2460650D01*
X4748022Y2456180D01*
X4735880Y2450033D01*
X4724654Y2442311D01*
X4714494Y2433167D01*
X4705705Y2422753D01*
X4698390Y2411272D01*
X4692650Y2398877D01*
X4688586Y2385872D01*
X4686350Y2372410D01*
X4685893Y2358796D01*
X4687214Y2345232D01*
X4690414Y2331974D01*
X4695291Y2319223D01*
X4701844Y2307285D01*
X4710023Y2296210D01*
X4711496Y2293366D01*
X4712004Y2290165D01*
X4712004Y2080361D01*
X4711242Y2076450D01*
X4709007Y2073148D01*
X4438243Y1802333D01*
X4431182Y1793493D01*
X4426559Y1785874D01*
X4425442Y1783689D01*
X4422038Y1775460D01*
X4421276Y1773123D01*
X4419142Y1764487D01*
X4418736Y1762048D01*
X4417923Y1753209D01*
X4417872Y1253439D01*
X4417009Y1249324D01*
X4414164Y1245565D01*
X4404918Y1234744D01*
X4397197Y1222806D01*
X4390999Y1210005D01*
X4386529Y1196543D01*
X4383836Y1182573D01*
X4382922Y1168400D01*
X4383836Y1154226D01*
X4386529Y1140256D01*
X4390999Y1126794D01*
X4397197Y1113993D01*
X4404918Y1102055D01*
X4414164Y1091234D01*
X4424680Y1081684D01*
X4436313Y1073556D01*
X4448911Y1067003D01*
X4462272Y1062075D01*
X4476089Y1058926D01*
G37*
G36*
X1704136Y1057656D02*
G01*
X1718360Y1058113D01*
X1732381Y1060399D01*
X1745996Y1064412D01*
X1759000Y1070203D01*
X1771142Y1077569D01*
X1782267Y1086408D01*
X1792122Y1096619D01*
X1800606Y1107998D01*
X1807616Y1120394D01*
X1812950Y1133551D01*
X1816557Y1147318D01*
X1818335Y1161389D01*
X1818335Y1175613D01*
X1816557Y1189685D01*
X1812950Y1203452D01*
X1807616Y1216609D01*
X1800606Y1229004D01*
X1792122Y1240383D01*
X1782267Y1250594D01*
X1771142Y1259433D01*
X1759000Y1266799D01*
X1745996Y1272540D01*
X1732381Y1276604D01*
X1718360Y1278890D01*
X1704136Y1279296D01*
X1690014Y1277975D01*
X1676146Y1274775D01*
X1662785Y1269898D01*
X1650187Y1263294D01*
X1638554Y1255166D01*
X1628038Y1245616D01*
X1618843Y1234795D01*
X1611071Y1222908D01*
X1604924Y1210106D01*
X1600454Y1196594D01*
X1597710Y1182674D01*
X1596796Y1168501D01*
X1597710Y1154328D01*
X1600454Y1140358D01*
X1604924Y1126896D01*
X1611071Y1114094D01*
X1618843Y1102156D01*
X1628038Y1091336D01*
X1638554Y1081786D01*
X1650187Y1073658D01*
X1662785Y1067104D01*
X1676146Y1062177D01*
X1690014Y1059027D01*
G37*
G36*
X2454148Y1057656D02*
G01*
X2468321Y1058113D01*
X2482392Y1060399D01*
X2496007Y1064412D01*
X2508961Y1070203D01*
X2521153Y1077569D01*
X2532227Y1086408D01*
X2542133Y1096619D01*
X2550617Y1107998D01*
X2557576Y1120394D01*
X2562910Y1133551D01*
X2566517Y1147318D01*
X2568346Y1161389D01*
X2568346Y1175613D01*
X2566517Y1189685D01*
X2562910Y1203452D01*
X2557576Y1216609D01*
X2550617Y1229004D01*
X2542133Y1240383D01*
X2532227Y1250594D01*
X2521153Y1259433D01*
X2508961Y1266799D01*
X2496007Y1272540D01*
X2482392Y1276604D01*
X2468321Y1278890D01*
X2454148Y1279296D01*
X2439974Y1277975D01*
X2426157Y1274775D01*
X2412796Y1269898D01*
X2400198Y1263294D01*
X2388565Y1255166D01*
X2378049Y1245616D01*
X2368804Y1234795D01*
X2361082Y1222908D01*
X2354935Y1210106D01*
X2350414Y1196594D01*
X2347722Y1182674D01*
X2346807Y1168501D01*
X2347722Y1154328D01*
X2350414Y1140358D01*
X2354935Y1126896D01*
X2361082Y1114094D01*
X2368804Y1102156D01*
X2378049Y1091336D01*
X2388565Y1081786D01*
X2400198Y1073658D01*
X2412796Y1067104D01*
X2426157Y1062177D01*
X2439974Y1059027D01*
G37*
G36*
X2204161Y1057656D02*
G01*
X2218334Y1058113D01*
X2232355Y1060399D01*
X2245969Y1064412D01*
X2258974Y1070203D01*
X2271115Y1077569D01*
X2282240Y1086408D01*
X2292146Y1096619D01*
X2300630Y1107998D01*
X2307590Y1120394D01*
X2312924Y1133551D01*
X2316530Y1147318D01*
X2318359Y1161389D01*
X2318359Y1175613D01*
X2316530Y1189685D01*
X2312924Y1203452D01*
X2307590Y1216609D01*
X2300630Y1229004D01*
X2292146Y1240383D01*
X2286457Y1246225D01*
X2284323Y1249476D01*
X2283612Y1253286D01*
X2283612Y1752955D01*
X2284374Y1756816D01*
X2286558Y1760118D01*
X2506624Y1980234D01*
X2513685Y1989074D01*
X2518308Y1996693D01*
X2519426Y1998878D01*
X2522829Y2007107D01*
X2523591Y2009444D01*
X2525725Y2018080D01*
X2526131Y2020519D01*
X2526944Y2029358D01*
X2526995Y2277465D01*
X2527503Y2280666D01*
X2528976Y2283510D01*
X2537155Y2294585D01*
X2543708Y2306523D01*
X2548585Y2319274D01*
X2551785Y2332532D01*
X2553106Y2346096D01*
X2552649Y2359710D01*
X2550414Y2373172D01*
X2546350Y2386177D01*
X2540609Y2398572D01*
X2533294Y2410053D01*
X2524506Y2420467D01*
X2514346Y2429611D01*
X2503119Y2437333D01*
X2490978Y2443480D01*
X2478074Y2447950D01*
X2464714Y2450693D01*
X2451100Y2451608D01*
X2437485Y2450693D01*
X2424125Y2447950D01*
X2411222Y2443480D01*
X2399080Y2437333D01*
X2387854Y2429611D01*
X2377694Y2420467D01*
X2368905Y2410053D01*
X2361590Y2398572D01*
X2355850Y2386177D01*
X2351786Y2373172D01*
X2349550Y2359710D01*
X2349093Y2346096D01*
X2350414Y2332532D01*
X2353614Y2319274D01*
X2358491Y2306523D01*
X2365044Y2294585D01*
X2373223Y2283510D01*
X2374696Y2280666D01*
X2375204Y2277465D01*
X2375204Y2067661D01*
X2374442Y2063750D01*
X2372207Y2060448D01*
X2152192Y1840382D01*
X2146503Y1833524D01*
X2145080Y1831492D01*
X2140508Y1823872D01*
X2139391Y1821688D01*
X2135987Y1813458D01*
X2135225Y1811121D01*
X2133092Y1802536D01*
X2132685Y1800098D01*
X2131822Y1791258D01*
X2131771Y1253540D01*
X2130907Y1249426D01*
X2128012Y1245616D01*
X2118817Y1234795D01*
X2111095Y1222908D01*
X2104898Y1210106D01*
X2100427Y1196594D01*
X2097735Y1182674D01*
X2096820Y1168501D01*
X2097735Y1154328D01*
X2100427Y1140358D01*
X2104898Y1126896D01*
X2111095Y1114094D01*
X2118817Y1102156D01*
X2128012Y1091336D01*
X2138578Y1081786D01*
X2150211Y1073658D01*
X2162810Y1067104D01*
X2176119Y1062177D01*
X2189988Y1059027D01*
G37*
G36*
X1954123Y1057656D02*
G01*
X1968347Y1058113D01*
X1982368Y1060399D01*
X1995982Y1064412D01*
X2008987Y1070203D01*
X2021128Y1077569D01*
X2032254Y1086408D01*
X2042109Y1096619D01*
X2050643Y1107998D01*
X2057603Y1120394D01*
X2062937Y1133551D01*
X2066543Y1147318D01*
X2068372Y1161389D01*
X2068372Y1175613D01*
X2066543Y1189685D01*
X2062937Y1203452D01*
X2057603Y1216609D01*
X2050643Y1229004D01*
X2042109Y1240383D01*
X2036470Y1246225D01*
X2034336Y1249476D01*
X2033625Y1253286D01*
X2033574Y1804162D01*
X2032711Y1813001D01*
X2032304Y1815439D01*
X2030171Y1824024D01*
X2029409Y1826361D01*
X2026005Y1834591D01*
X2024888Y1836775D01*
X2020316Y1844395D01*
X2018893Y1846427D01*
X2013204Y1853285D01*
X1767992Y2098548D01*
X1765757Y2101850D01*
X1764995Y2105761D01*
X1764995Y2277465D01*
X1765503Y2280666D01*
X1766976Y2283510D01*
X1775155Y2294585D01*
X1781708Y2306523D01*
X1786585Y2319274D01*
X1789785Y2332532D01*
X1791106Y2346096D01*
X1790649Y2359710D01*
X1788414Y2373172D01*
X1784350Y2386177D01*
X1778609Y2398572D01*
X1771294Y2410053D01*
X1762506Y2420467D01*
X1752346Y2429611D01*
X1741119Y2437333D01*
X1728978Y2443480D01*
X1716074Y2447950D01*
X1702714Y2450693D01*
X1689100Y2451608D01*
X1675485Y2450693D01*
X1662125Y2447950D01*
X1649222Y2443480D01*
X1637080Y2437333D01*
X1625854Y2429611D01*
X1615694Y2420467D01*
X1606905Y2410053D01*
X1599590Y2398572D01*
X1593850Y2386177D01*
X1589786Y2373172D01*
X1587550Y2359710D01*
X1587093Y2346096D01*
X1588414Y2332532D01*
X1591614Y2319274D01*
X1596491Y2306523D01*
X1603044Y2294585D01*
X1611223Y2283510D01*
X1612696Y2280666D01*
X1613204Y2277465D01*
X1613255Y2067458D01*
X1614068Y2058619D01*
X1614474Y2056180D01*
X1616608Y2047544D01*
X1617370Y2045207D01*
X1620774Y2036978D01*
X1621891Y2034793D01*
X1626514Y2027174D01*
X1633575Y2018334D01*
X1878838Y1773021D01*
X1881022Y1769719D01*
X1881784Y1765858D01*
X1881784Y1253540D01*
X1880920Y1249426D01*
X1878025Y1245616D01*
X1868830Y1234795D01*
X1861057Y1222908D01*
X1854911Y1210106D01*
X1850440Y1196594D01*
X1847697Y1182674D01*
X1846783Y1168501D01*
X1847697Y1154328D01*
X1850440Y1140358D01*
X1854911Y1126896D01*
X1861057Y1114094D01*
X1868830Y1102156D01*
X1878025Y1091336D01*
X1888540Y1081786D01*
X1900224Y1073658D01*
X1912823Y1067104D01*
X1926132Y1062177D01*
X1940001Y1059027D01*
G37*
G36*
X685800Y1178052D02*
G01*
X699465Y1178966D01*
X712876Y1181658D01*
X725830Y1186027D01*
X738124Y1192072D01*
X749503Y1199692D01*
X759764Y1208735D01*
X768807Y1218996D01*
X776427Y1230376D01*
X782472Y1242669D01*
X786841Y1255623D01*
X789533Y1269034D01*
X790448Y1282700D01*
X789533Y1296365D01*
X786841Y1309776D01*
X782472Y1322730D01*
X776427Y1335024D01*
X768807Y1346403D01*
X759764Y1356664D01*
X749503Y1365707D01*
X738124Y1373327D01*
X725830Y1379372D01*
X712876Y1383741D01*
X699465Y1386433D01*
X685800Y1387348D01*
X672134Y1386433D01*
X658723Y1383741D01*
X645769Y1379372D01*
X633476Y1373327D01*
X622096Y1365707D01*
X611835Y1356664D01*
X602792Y1346403D01*
X595172Y1335024D01*
X589127Y1322730D01*
X584758Y1309776D01*
X582066Y1296365D01*
X581152Y1282700D01*
X582066Y1269034D01*
X584758Y1255623D01*
X589127Y1242669D01*
X595172Y1230376D01*
X602792Y1218996D01*
X611835Y1208735D01*
X622096Y1199692D01*
X633476Y1192072D01*
X645769Y1186027D01*
X658723Y1181658D01*
X672134Y1178966D01*
G37*
G36*
X731520Y1432052D02*
G01*
X763981Y1432052D01*
X770280Y1432763D01*
X775766Y1434693D01*
X780643Y1437741D01*
X784758Y1441856D01*
X787806Y1446733D01*
X789736Y1452219D01*
X790448Y1458518D01*
X790448Y1490980D01*
X731520Y1490980D01*
G37*
G36*
X607618Y1432052D02*
G01*
X640080Y1432052D01*
X640080Y1490980D01*
X581152Y1490980D01*
X581152Y1458518D01*
X581863Y1452219D01*
X583793Y1446733D01*
X586841Y1441856D01*
X590956Y1437741D01*
X595833Y1434693D01*
X601319Y1432763D01*
G37*
G36*
X731520Y1582420D02*
G01*
X790448Y1582420D01*
X790448Y1614881D01*
X789736Y1621180D01*
X787806Y1626666D01*
X784758Y1631543D01*
X780643Y1635658D01*
X775766Y1638706D01*
X770280Y1640636D01*
X763981Y1641348D01*
X731520Y1641348D01*
G37*
G36*
X581152Y1582420D02*
G01*
X640080Y1582420D01*
X640080Y1641348D01*
X607618Y1641348D01*
X601319Y1640636D01*
X595833Y1638706D01*
X590956Y1635658D01*
X586841Y1631543D01*
X583793Y1626666D01*
X581863Y1621180D01*
X581152Y1614881D01*
G37*
G36*
X546100Y2135987D02*
G01*
X560628Y2136902D01*
X574903Y2139645D01*
X588772Y2144115D01*
X601929Y2150313D01*
X614222Y2158136D01*
X625449Y2167432D01*
X635406Y2177999D01*
X643940Y2189784D01*
X650951Y2202535D01*
X656336Y2216099D01*
X659942Y2230170D01*
X661771Y2244598D01*
X661771Y2259177D01*
X659942Y2273604D01*
X656336Y2287676D01*
X650951Y2301240D01*
X643940Y2313990D01*
X635406Y2325776D01*
X625449Y2336342D01*
X614222Y2345639D01*
X601929Y2353462D01*
X588772Y2359660D01*
X574903Y2364130D01*
X560374Y2366924D01*
X556666Y2368397D01*
X553872Y2371191D01*
X552348Y2374900D01*
X552348Y2378862D01*
X553872Y2382570D01*
X556666Y2385364D01*
X560374Y2386888D01*
X574903Y2389632D01*
X588772Y2394153D01*
X601929Y2400350D01*
X614222Y2408123D01*
X625449Y2417419D01*
X635406Y2428036D01*
X643940Y2439771D01*
X650951Y2452522D01*
X656336Y2466086D01*
X659942Y2480157D01*
X661771Y2494635D01*
X661771Y2509164D01*
X659942Y2523591D01*
X656336Y2537714D01*
X650951Y2551226D01*
X643940Y2563977D01*
X635406Y2575763D01*
X625449Y2586380D01*
X614222Y2595626D01*
X601929Y2603449D01*
X588772Y2609646D01*
X574903Y2614117D01*
X560628Y2616860D01*
X546100Y2617774D01*
X531215Y2616809D01*
X517296Y2614117D01*
X503428Y2609646D01*
X490270Y2603449D01*
X477977Y2595626D01*
X466750Y2586380D01*
X456793Y2575763D01*
X448259Y2563977D01*
X441248Y2551226D01*
X435864Y2537714D01*
X432257Y2523591D01*
X430428Y2509164D01*
X430428Y2494635D01*
X432257Y2480157D01*
X435864Y2466086D01*
X441248Y2452522D01*
X448259Y2439771D01*
X456793Y2428036D01*
X466750Y2417419D01*
X477977Y2408123D01*
X490270Y2400350D01*
X503428Y2394153D01*
X517296Y2389632D01*
X531825Y2386888D01*
X535533Y2385364D01*
X538327Y2382570D01*
X539851Y2378862D01*
X539851Y2374900D01*
X538327Y2371191D01*
X535533Y2368397D01*
X531825Y2366924D01*
X517296Y2364130D01*
X503428Y2359660D01*
X490270Y2353462D01*
X477977Y2345639D01*
X466750Y2336342D01*
X456793Y2325776D01*
X448259Y2313990D01*
X441248Y2301240D01*
X435864Y2287676D01*
X432257Y2273604D01*
X430428Y2259177D01*
X430428Y2244598D01*
X432257Y2230170D01*
X435864Y2216099D01*
X441248Y2202535D01*
X448259Y2189784D01*
X456793Y2177999D01*
X466750Y2167432D01*
X477977Y2158136D01*
X490270Y2150313D01*
X503428Y2144115D01*
X517296Y2139645D01*
X531571Y2136902D01*
G37*
G36*
X8654592Y2234946D02*
G01*
X8668207Y2234946D01*
X8681720Y2236774D01*
X8694877Y2240381D01*
X8707424Y2245664D01*
X8719159Y2252624D01*
X8729878Y2261108D01*
X8739378Y2270912D01*
X8747455Y2281885D01*
X8754008Y2293823D01*
X8758885Y2306574D01*
X8762085Y2319832D01*
X8763406Y2333396D01*
X8762949Y2347010D01*
X8760714Y2360472D01*
X8756650Y2373477D01*
X8750909Y2385872D01*
X8743594Y2397353D01*
X8734806Y2407767D01*
X8724646Y2416911D01*
X8713419Y2424633D01*
X8701278Y2430780D01*
X8688374Y2435250D01*
X8675014Y2437993D01*
X8661400Y2438908D01*
X8647785Y2437993D01*
X8634425Y2435250D01*
X8621522Y2430780D01*
X8609380Y2424633D01*
X8598154Y2416911D01*
X8587994Y2407767D01*
X8579205Y2397353D01*
X8571890Y2385872D01*
X8566150Y2373477D01*
X8562086Y2360472D01*
X8559850Y2347010D01*
X8559393Y2333396D01*
X8560714Y2319832D01*
X8563914Y2306574D01*
X8568791Y2293823D01*
X8575344Y2281885D01*
X8583422Y2270912D01*
X8592921Y2261108D01*
X8603640Y2252624D01*
X8615375Y2245664D01*
X8627922Y2240381D01*
X8641080Y2236774D01*
G37*
G36*
X9162592Y2234946D02*
G01*
X9176207Y2234946D01*
X9189720Y2236774D01*
X9202877Y2240381D01*
X9215424Y2245664D01*
X9227159Y2252624D01*
X9237878Y2261108D01*
X9247378Y2270912D01*
X9255455Y2281885D01*
X9262008Y2293823D01*
X9266885Y2306574D01*
X9270085Y2319832D01*
X9271406Y2333396D01*
X9270949Y2347010D01*
X9268714Y2360472D01*
X9264650Y2373477D01*
X9258909Y2385872D01*
X9251594Y2397353D01*
X9242806Y2407767D01*
X9232646Y2416911D01*
X9221419Y2424633D01*
X9209278Y2430780D01*
X9196374Y2435250D01*
X9183014Y2437993D01*
X9169400Y2438908D01*
X9155785Y2437993D01*
X9142425Y2435250D01*
X9129522Y2430780D01*
X9117380Y2424633D01*
X9106154Y2416911D01*
X9095994Y2407767D01*
X9087205Y2397353D01*
X9079890Y2385872D01*
X9074150Y2373477D01*
X9070086Y2360472D01*
X9067850Y2347010D01*
X9067393Y2333396D01*
X9068714Y2319832D01*
X9071914Y2306574D01*
X9076791Y2293823D01*
X9083344Y2281885D01*
X9091422Y2270912D01*
X9100921Y2261108D01*
X9111640Y2252624D01*
X9123375Y2245664D01*
X9135922Y2240381D01*
X9149080Y2236774D01*
G37*
G36*
X9416592Y2234946D02*
G01*
X9430207Y2234946D01*
X9443720Y2236774D01*
X9456877Y2240381D01*
X9469424Y2245664D01*
X9481159Y2252624D01*
X9491878Y2261108D01*
X9501378Y2270912D01*
X9509455Y2281885D01*
X9516008Y2293823D01*
X9520885Y2306574D01*
X9524085Y2319832D01*
X9525406Y2333396D01*
X9524949Y2347010D01*
X9522714Y2360472D01*
X9518650Y2373477D01*
X9512909Y2385872D01*
X9505594Y2397353D01*
X9496806Y2407767D01*
X9486646Y2416911D01*
X9475419Y2424633D01*
X9463278Y2430780D01*
X9450374Y2435250D01*
X9437014Y2437993D01*
X9423400Y2438908D01*
X9409785Y2437993D01*
X9396425Y2435250D01*
X9383522Y2430780D01*
X9371380Y2424633D01*
X9360154Y2416911D01*
X9349994Y2407767D01*
X9341205Y2397353D01*
X9333890Y2385872D01*
X9328150Y2373477D01*
X9324086Y2360472D01*
X9321850Y2347010D01*
X9321393Y2333396D01*
X9322714Y2319832D01*
X9325914Y2306574D01*
X9330791Y2293823D01*
X9337344Y2281885D01*
X9345422Y2270912D01*
X9354921Y2261108D01*
X9365640Y2252624D01*
X9377375Y2245664D01*
X9389922Y2240381D01*
X9403080Y2236774D01*
G37*
G36*
X10178592Y2234946D02*
G01*
X10192207Y2234946D01*
X10205720Y2236774D01*
X10218877Y2240381D01*
X10231424Y2245664D01*
X10243159Y2252624D01*
X10253878Y2261108D01*
X10263378Y2270912D01*
X10271455Y2281885D01*
X10278008Y2293823D01*
X10282885Y2306574D01*
X10286085Y2319832D01*
X10287406Y2333396D01*
X10286949Y2347010D01*
X10284714Y2360472D01*
X10280650Y2373477D01*
X10274909Y2385872D01*
X10267594Y2397353D01*
X10258806Y2407767D01*
X10248646Y2416911D01*
X10237419Y2424633D01*
X10225278Y2430780D01*
X10212374Y2435250D01*
X10199014Y2437993D01*
X10185400Y2438908D01*
X10171785Y2437993D01*
X10158425Y2435250D01*
X10145522Y2430780D01*
X10133380Y2424633D01*
X10122154Y2416911D01*
X10111994Y2407767D01*
X10103205Y2397353D01*
X10095890Y2385872D01*
X10090150Y2373477D01*
X10086086Y2360472D01*
X10083850Y2347010D01*
X10083393Y2333396D01*
X10084714Y2319832D01*
X10087914Y2306574D01*
X10092791Y2293823D01*
X10099344Y2281885D01*
X10107422Y2270912D01*
X10116921Y2261108D01*
X10127640Y2252624D01*
X10139375Y2245664D01*
X10151922Y2240381D01*
X10165080Y2236774D01*
G37*
G36*
X9975850Y2245004D02*
G01*
X9977424Y2245664D01*
X9989159Y2252624D01*
X9999878Y2261108D01*
X10009378Y2270912D01*
X10017455Y2281885D01*
X10023195Y2292350D01*
X9975850Y2292350D01*
G37*
G36*
X8362950Y2245004D02*
G01*
X8362950Y2292350D01*
X8315604Y2292350D01*
X8321344Y2281885D01*
X8329422Y2270912D01*
X8338921Y2261108D01*
X8349640Y2252624D01*
X8361375Y2245664D01*
G37*
G36*
X8451850Y2245004D02*
G01*
X8453424Y2245664D01*
X8465159Y2252624D01*
X8475878Y2261108D01*
X8485378Y2270912D01*
X8493455Y2281885D01*
X8499195Y2292350D01*
X8451850Y2292350D01*
G37*
G36*
X9886950Y2245004D02*
G01*
X9886950Y2292350D01*
X9839604Y2292350D01*
X9845344Y2281885D01*
X9853422Y2270912D01*
X9862921Y2261108D01*
X9873640Y2252624D01*
X9885375Y2245664D01*
G37*
G36*
X6762292Y2247646D02*
G01*
X6775907Y2247646D01*
X6789420Y2249474D01*
X6802577Y2253081D01*
X6815124Y2258364D01*
X6826859Y2265324D01*
X6837578Y2273808D01*
X6847078Y2283612D01*
X6855155Y2294585D01*
X6861708Y2306523D01*
X6866585Y2319274D01*
X6869785Y2332532D01*
X6871106Y2346096D01*
X6870649Y2359710D01*
X6868414Y2373172D01*
X6864350Y2386177D01*
X6858609Y2398572D01*
X6851294Y2410053D01*
X6842506Y2420467D01*
X6832346Y2429611D01*
X6821119Y2437333D01*
X6808978Y2443480D01*
X6796074Y2447950D01*
X6782714Y2450693D01*
X6769100Y2451608D01*
X6755485Y2450693D01*
X6742125Y2447950D01*
X6729222Y2443480D01*
X6717080Y2437333D01*
X6705853Y2429611D01*
X6695694Y2420467D01*
X6686905Y2410053D01*
X6679590Y2398572D01*
X6673850Y2386177D01*
X6669786Y2373172D01*
X6667550Y2359710D01*
X6667093Y2346096D01*
X6668414Y2332532D01*
X6671614Y2319274D01*
X6676491Y2306523D01*
X6683044Y2294585D01*
X6691122Y2283612D01*
X6700621Y2273808D01*
X6711340Y2265324D01*
X6723075Y2258364D01*
X6735622Y2253081D01*
X6748780Y2249474D01*
G37*
G36*
X6254292Y2247646D02*
G01*
X6267907Y2247646D01*
X6281420Y2249474D01*
X6294577Y2253081D01*
X6307124Y2258364D01*
X6318859Y2265324D01*
X6329578Y2273808D01*
X6339078Y2283612D01*
X6347155Y2294585D01*
X6353708Y2306523D01*
X6358585Y2319274D01*
X6361785Y2332532D01*
X6363106Y2346096D01*
X6362649Y2359710D01*
X6360414Y2373172D01*
X6356350Y2386177D01*
X6350609Y2398572D01*
X6343294Y2410053D01*
X6334506Y2420467D01*
X6324346Y2429611D01*
X6313119Y2437333D01*
X6300978Y2443480D01*
X6288074Y2447950D01*
X6274714Y2450693D01*
X6261100Y2451608D01*
X6247485Y2450693D01*
X6234125Y2447950D01*
X6221222Y2443480D01*
X6209080Y2437333D01*
X6197854Y2429611D01*
X6187694Y2420467D01*
X6178905Y2410053D01*
X6171590Y2398572D01*
X6165850Y2386177D01*
X6161786Y2373172D01*
X6159550Y2359710D01*
X6159093Y2346096D01*
X6160414Y2332532D01*
X6163614Y2319274D01*
X6168491Y2306523D01*
X6175044Y2294585D01*
X6183122Y2283612D01*
X6192621Y2273808D01*
X6203340Y2265324D01*
X6215075Y2258364D01*
X6227622Y2253081D01*
X6240780Y2249474D01*
G37*
G36*
X2190292Y2247646D02*
G01*
X2203907Y2247646D01*
X2217420Y2249474D01*
X2230577Y2253081D01*
X2243124Y2258364D01*
X2254859Y2265324D01*
X2265578Y2273808D01*
X2275078Y2283612D01*
X2283155Y2294585D01*
X2289708Y2306523D01*
X2294585Y2319274D01*
X2297785Y2332532D01*
X2299106Y2346096D01*
X2298649Y2359710D01*
X2296414Y2373172D01*
X2292350Y2386177D01*
X2286609Y2398572D01*
X2279294Y2410053D01*
X2270506Y2420467D01*
X2260346Y2429611D01*
X2249119Y2437333D01*
X2236978Y2443480D01*
X2224074Y2447950D01*
X2210714Y2450693D01*
X2197100Y2451608D01*
X2183485Y2450693D01*
X2170125Y2447950D01*
X2157222Y2443480D01*
X2145080Y2437333D01*
X2133854Y2429611D01*
X2123694Y2420467D01*
X2114905Y2410053D01*
X2107590Y2398572D01*
X2101850Y2386177D01*
X2097786Y2373172D01*
X2095550Y2359710D01*
X2095093Y2346096D01*
X2096414Y2332532D01*
X2099614Y2319274D01*
X2104491Y2306523D01*
X2111044Y2294585D01*
X2119122Y2283612D01*
X2128621Y2273808D01*
X2139340Y2265324D01*
X2151075Y2258364D01*
X2163622Y2253081D01*
X2176780Y2249474D01*
G37*
G36*
X2952292Y2247646D02*
G01*
X2965907Y2247646D01*
X2979420Y2249474D01*
X2992577Y2253081D01*
X3005124Y2258364D01*
X3016859Y2265324D01*
X3027578Y2273808D01*
X3037078Y2283612D01*
X3045155Y2294585D01*
X3051708Y2306523D01*
X3056585Y2319274D01*
X3059785Y2332532D01*
X3061106Y2346096D01*
X3060649Y2359710D01*
X3058414Y2373172D01*
X3054350Y2386177D01*
X3048609Y2398572D01*
X3041294Y2410053D01*
X3032506Y2420467D01*
X3022346Y2429611D01*
X3011119Y2437333D01*
X2998978Y2443480D01*
X2986074Y2447950D01*
X2972714Y2450693D01*
X2959100Y2451608D01*
X2945485Y2450693D01*
X2932125Y2447950D01*
X2919222Y2443480D01*
X2907080Y2437333D01*
X2895854Y2429611D01*
X2885694Y2420467D01*
X2876905Y2410053D01*
X2869590Y2398572D01*
X2863850Y2386177D01*
X2859786Y2373172D01*
X2857550Y2359710D01*
X2857093Y2346096D01*
X2858414Y2332532D01*
X2861614Y2319274D01*
X2866491Y2306523D01*
X2873044Y2294585D01*
X2881122Y2283612D01*
X2890621Y2273808D01*
X2901340Y2265324D01*
X2913075Y2258364D01*
X2925622Y2253081D01*
X2938780Y2249474D01*
G37*
G36*
X7778292Y2247646D02*
G01*
X7791907Y2247646D01*
X7805420Y2249474D01*
X7818577Y2253081D01*
X7831124Y2258364D01*
X7842859Y2265324D01*
X7853578Y2273808D01*
X7863078Y2283612D01*
X7871155Y2294585D01*
X7877708Y2306523D01*
X7882585Y2319274D01*
X7885785Y2332532D01*
X7887106Y2346096D01*
X7886649Y2359710D01*
X7884414Y2373172D01*
X7880350Y2386177D01*
X7874609Y2398572D01*
X7867294Y2410053D01*
X7858506Y2420467D01*
X7848346Y2429611D01*
X7837119Y2437333D01*
X7824978Y2443480D01*
X7812074Y2447950D01*
X7798714Y2450693D01*
X7785100Y2451608D01*
X7771485Y2450693D01*
X7758125Y2447950D01*
X7745222Y2443480D01*
X7733080Y2437333D01*
X7721853Y2429611D01*
X7711694Y2420467D01*
X7702905Y2410053D01*
X7695590Y2398572D01*
X7689850Y2386177D01*
X7685786Y2373172D01*
X7683550Y2359710D01*
X7683093Y2346096D01*
X7684414Y2332532D01*
X7687614Y2319274D01*
X7692491Y2306523D01*
X7699044Y2294585D01*
X7707122Y2283612D01*
X7716621Y2273808D01*
X7727340Y2265324D01*
X7739075Y2258364D01*
X7751622Y2253081D01*
X7764780Y2249474D01*
G37*
G36*
X7016292Y2247646D02*
G01*
X7029907Y2247646D01*
X7043420Y2249474D01*
X7056577Y2253081D01*
X7069124Y2258364D01*
X7080859Y2265324D01*
X7091578Y2273808D01*
X7101078Y2283612D01*
X7109155Y2294585D01*
X7115708Y2306523D01*
X7120585Y2319274D01*
X7123785Y2332532D01*
X7125106Y2346096D01*
X7124649Y2359710D01*
X7122414Y2373172D01*
X7118350Y2386177D01*
X7112609Y2398572D01*
X7105294Y2410053D01*
X7096506Y2420467D01*
X7086346Y2429611D01*
X7075119Y2437333D01*
X7062978Y2443480D01*
X7050074Y2447950D01*
X7036714Y2450693D01*
X7023100Y2451608D01*
X7009485Y2450693D01*
X6996125Y2447950D01*
X6983222Y2443480D01*
X6971080Y2437333D01*
X6959853Y2429611D01*
X6949694Y2420467D01*
X6940905Y2410053D01*
X6933590Y2398572D01*
X6927850Y2386177D01*
X6923786Y2373172D01*
X6921550Y2359710D01*
X6921093Y2346096D01*
X6922414Y2332532D01*
X6925614Y2319274D01*
X6930491Y2306523D01*
X6937044Y2294585D01*
X6945122Y2283612D01*
X6954621Y2273808D01*
X6965340Y2265324D01*
X6977075Y2258364D01*
X6989622Y2253081D01*
X7002780Y2249474D01*
G37*
G36*
X1936292Y2247646D02*
G01*
X1949907Y2247646D01*
X1963420Y2249474D01*
X1976577Y2253081D01*
X1989124Y2258364D01*
X2000859Y2265324D01*
X2011578Y2273808D01*
X2021078Y2283612D01*
X2029155Y2294585D01*
X2035708Y2306523D01*
X2040585Y2319274D01*
X2043785Y2332532D01*
X2045106Y2346096D01*
X2044649Y2359710D01*
X2042414Y2373172D01*
X2038350Y2386177D01*
X2032609Y2398572D01*
X2025294Y2410053D01*
X2016506Y2420467D01*
X2006346Y2429611D01*
X1995119Y2437333D01*
X1982978Y2443480D01*
X1970074Y2447950D01*
X1956714Y2450693D01*
X1943100Y2451608D01*
X1929485Y2450693D01*
X1916125Y2447950D01*
X1903222Y2443480D01*
X1891080Y2437333D01*
X1879854Y2429611D01*
X1869693Y2420467D01*
X1860905Y2410053D01*
X1853590Y2398572D01*
X1847850Y2386177D01*
X1843786Y2373172D01*
X1841550Y2359710D01*
X1841093Y2346096D01*
X1842414Y2332532D01*
X1845614Y2319274D01*
X1850491Y2306523D01*
X1857044Y2294585D01*
X1865122Y2283612D01*
X1874621Y2273808D01*
X1885340Y2265324D01*
X1897075Y2258364D01*
X1909622Y2253081D01*
X1922780Y2249474D01*
G37*
G36*
X1428292Y2247646D02*
G01*
X1441907Y2247646D01*
X1455420Y2249474D01*
X1468577Y2253081D01*
X1481124Y2258364D01*
X1492859Y2265324D01*
X1503578Y2273808D01*
X1513078Y2283612D01*
X1521155Y2294585D01*
X1527708Y2306523D01*
X1532585Y2319274D01*
X1535785Y2332532D01*
X1537106Y2346096D01*
X1536649Y2359710D01*
X1534414Y2373172D01*
X1530350Y2386177D01*
X1524609Y2398572D01*
X1517294Y2410053D01*
X1508506Y2420467D01*
X1498346Y2429611D01*
X1487119Y2437333D01*
X1474978Y2443480D01*
X1462074Y2447950D01*
X1448714Y2450693D01*
X1435100Y2451608D01*
X1421485Y2450693D01*
X1408125Y2447950D01*
X1395222Y2443480D01*
X1383080Y2437333D01*
X1371854Y2429611D01*
X1361694Y2420467D01*
X1352905Y2410053D01*
X1345590Y2398572D01*
X1339850Y2386177D01*
X1335786Y2373172D01*
X1333550Y2359710D01*
X1333093Y2346096D01*
X1334414Y2332532D01*
X1337614Y2319274D01*
X1342491Y2306523D01*
X1349044Y2294585D01*
X1357122Y2283612D01*
X1366621Y2273808D01*
X1377340Y2265324D01*
X1389075Y2258364D01*
X1401622Y2253081D01*
X1414780Y2249474D01*
G37*
G36*
X2660650Y2257704D02*
G01*
X2660650Y2305050D01*
X2613304Y2305050D01*
X2619044Y2294585D01*
X2627122Y2283612D01*
X2636621Y2273808D01*
X2647340Y2265324D01*
X2659075Y2258364D01*
G37*
G36*
X5962650Y2257704D02*
G01*
X5962650Y2305050D01*
X5915304Y2305050D01*
X5921044Y2294585D01*
X5929122Y2283612D01*
X5938621Y2273808D01*
X5949340Y2265324D01*
X5961075Y2258364D01*
G37*
G36*
X2749550Y2257704D02*
G01*
X2751124Y2258364D01*
X2762859Y2265324D01*
X2773578Y2273808D01*
X2783078Y2283612D01*
X2791155Y2294585D01*
X2796895Y2305050D01*
X2749550Y2305050D01*
G37*
G36*
X7575550Y2257704D02*
G01*
X7577124Y2258364D01*
X7588859Y2265324D01*
X7599578Y2273808D01*
X7609078Y2283612D01*
X7617155Y2294585D01*
X7622895Y2305050D01*
X7575550Y2305050D01*
G37*
G36*
X6051550Y2257704D02*
G01*
X6053124Y2258364D01*
X6064859Y2265324D01*
X6075578Y2273808D01*
X6085078Y2283612D01*
X6093155Y2294585D01*
X6098895Y2305050D01*
X6051550Y2305050D01*
G37*
G36*
X7486650Y2257704D02*
G01*
X7486650Y2305050D01*
X7439304Y2305050D01*
X7445044Y2294585D01*
X7453122Y2283612D01*
X7462621Y2273808D01*
X7473340Y2265324D01*
X7485075Y2258364D01*
G37*
G36*
X1225550Y2257704D02*
G01*
X1227124Y2258364D01*
X1238859Y2265324D01*
X1249578Y2273808D01*
X1259078Y2283612D01*
X1267155Y2294585D01*
X1272895Y2305050D01*
X1225550Y2305050D01*
G37*
G36*
X1136650Y2257704D02*
G01*
X1136650Y2305050D01*
X1089304Y2305050D01*
X1095044Y2294585D01*
X1103122Y2283612D01*
X1112621Y2273808D01*
X1123340Y2265324D01*
X1135075Y2258364D01*
G37*
G36*
X4273092Y2260346D02*
G01*
X4286707Y2260346D01*
X4300220Y2262174D01*
X4313377Y2265781D01*
X4325924Y2271064D01*
X4337659Y2278024D01*
X4348378Y2286508D01*
X4357878Y2296312D01*
X4365955Y2307285D01*
X4372508Y2319223D01*
X4377385Y2331974D01*
X4380585Y2345232D01*
X4381906Y2358796D01*
X4381449Y2372410D01*
X4379214Y2385872D01*
X4375150Y2398877D01*
X4369409Y2411272D01*
X4362094Y2422753D01*
X4353306Y2433167D01*
X4343146Y2442311D01*
X4331919Y2450033D01*
X4319778Y2456180D01*
X4306874Y2460650D01*
X4293514Y2463393D01*
X4279900Y2464308D01*
X4266285Y2463393D01*
X4252925Y2460650D01*
X4240022Y2456180D01*
X4227880Y2450033D01*
X4216654Y2442311D01*
X4206494Y2433167D01*
X4197705Y2422753D01*
X4190390Y2411272D01*
X4184650Y2398877D01*
X4180586Y2385872D01*
X4178350Y2372410D01*
X4177893Y2358796D01*
X4179214Y2345232D01*
X4182414Y2331974D01*
X4187291Y2319223D01*
X4193844Y2307285D01*
X4201922Y2296312D01*
X4211421Y2286508D01*
X4222140Y2278024D01*
X4233875Y2271064D01*
X4246422Y2265781D01*
X4259580Y2262174D01*
G37*
G36*
X4527092Y2260346D02*
G01*
X4540707Y2260346D01*
X4554220Y2262174D01*
X4567377Y2265781D01*
X4579924Y2271064D01*
X4591659Y2278024D01*
X4602378Y2286508D01*
X4611878Y2296312D01*
X4619955Y2307285D01*
X4626508Y2319223D01*
X4631385Y2331974D01*
X4634585Y2345232D01*
X4635906Y2358796D01*
X4635449Y2372410D01*
X4633214Y2385872D01*
X4629150Y2398877D01*
X4623409Y2411272D01*
X4616094Y2422753D01*
X4607306Y2433167D01*
X4597146Y2442311D01*
X4585919Y2450033D01*
X4573778Y2456180D01*
X4560874Y2460650D01*
X4547514Y2463393D01*
X4533900Y2464308D01*
X4520285Y2463393D01*
X4506925Y2460650D01*
X4494022Y2456180D01*
X4481880Y2450033D01*
X4470654Y2442311D01*
X4460494Y2433167D01*
X4451705Y2422753D01*
X4444390Y2411272D01*
X4438650Y2398877D01*
X4434586Y2385872D01*
X4432350Y2372410D01*
X4431893Y2358796D01*
X4433214Y2345232D01*
X4436414Y2331974D01*
X4441291Y2319223D01*
X4447844Y2307285D01*
X4455922Y2296312D01*
X4465421Y2286508D01*
X4476140Y2278024D01*
X4487875Y2271064D01*
X4500422Y2265781D01*
X4513580Y2262174D01*
G37*
G36*
X3765092Y2260346D02*
G01*
X3778707Y2260346D01*
X3792220Y2262174D01*
X3805377Y2265781D01*
X3817924Y2271064D01*
X3829659Y2278024D01*
X3840378Y2286508D01*
X3849878Y2296312D01*
X3857955Y2307285D01*
X3864508Y2319223D01*
X3869385Y2331974D01*
X3872585Y2345232D01*
X3873906Y2358796D01*
X3873449Y2372410D01*
X3871214Y2385872D01*
X3867150Y2398877D01*
X3861409Y2411272D01*
X3854094Y2422753D01*
X3845306Y2433167D01*
X3835146Y2442311D01*
X3823919Y2450033D01*
X3811778Y2456180D01*
X3798874Y2460650D01*
X3785514Y2463393D01*
X3771900Y2464308D01*
X3758285Y2463393D01*
X3744925Y2460650D01*
X3732022Y2456180D01*
X3719880Y2450033D01*
X3708654Y2442311D01*
X3698494Y2433167D01*
X3689705Y2422753D01*
X3682390Y2411272D01*
X3676650Y2398877D01*
X3672586Y2385872D01*
X3670350Y2372410D01*
X3669893Y2358796D01*
X3671214Y2345232D01*
X3674414Y2331974D01*
X3679291Y2319223D01*
X3685844Y2307285D01*
X3693922Y2296312D01*
X3703421Y2286508D01*
X3714140Y2278024D01*
X3725875Y2271064D01*
X3738422Y2265781D01*
X3751579Y2262174D01*
G37*
G36*
X5289092Y2260346D02*
G01*
X5302707Y2260346D01*
X5316220Y2262174D01*
X5329377Y2265781D01*
X5341924Y2271064D01*
X5353659Y2278024D01*
X5364378Y2286508D01*
X5373878Y2296312D01*
X5381955Y2307285D01*
X5388508Y2319223D01*
X5393385Y2331974D01*
X5396585Y2345232D01*
X5397906Y2358796D01*
X5397449Y2372410D01*
X5395214Y2385872D01*
X5391150Y2398877D01*
X5385409Y2411272D01*
X5378094Y2422753D01*
X5369306Y2433167D01*
X5359146Y2442311D01*
X5347919Y2450033D01*
X5335778Y2456180D01*
X5322874Y2460650D01*
X5309514Y2463393D01*
X5295900Y2464308D01*
X5282285Y2463393D01*
X5268925Y2460650D01*
X5256022Y2456180D01*
X5243880Y2450033D01*
X5232654Y2442311D01*
X5222494Y2433167D01*
X5213705Y2422753D01*
X5206390Y2411272D01*
X5200650Y2398877D01*
X5196586Y2385872D01*
X5194350Y2372410D01*
X5193893Y2358796D01*
X5195214Y2345232D01*
X5198414Y2331974D01*
X5203291Y2319223D01*
X5209844Y2307285D01*
X5217922Y2296312D01*
X5227421Y2286508D01*
X5238140Y2278024D01*
X5249875Y2271064D01*
X5262422Y2265781D01*
X5275580Y2262174D01*
G37*
G36*
X3562350Y2270404D02*
G01*
X3563924Y2271064D01*
X3575659Y2278024D01*
X3586378Y2286508D01*
X3595878Y2296312D01*
X3603955Y2307285D01*
X3609695Y2317750D01*
X3562350Y2317750D01*
G37*
G36*
X4997450Y2270404D02*
G01*
X4997450Y2317750D01*
X4950104Y2317750D01*
X4955844Y2307285D01*
X4963922Y2296312D01*
X4973421Y2286508D01*
X4984140Y2278024D01*
X4995875Y2271064D01*
G37*
G36*
X3473450Y2270404D02*
G01*
X3473450Y2317750D01*
X3426104Y2317750D01*
X3431844Y2307285D01*
X3439922Y2296312D01*
X3449421Y2286508D01*
X3460140Y2278024D01*
X3471875Y2271064D01*
G37*
G36*
X5086350Y2270404D02*
G01*
X5087924Y2271064D01*
X5099659Y2278024D01*
X5110378Y2286508D01*
X5119878Y2296312D01*
X5127955Y2307285D01*
X5133695Y2317750D01*
X5086350Y2317750D01*
G37*
G36*
X8315756Y2381250D02*
G01*
X8362950Y2381250D01*
X8362950Y2428443D01*
X8355380Y2424633D01*
X8344153Y2416911D01*
X8333994Y2407767D01*
X8325205Y2397353D01*
X8317890Y2385872D01*
G37*
G36*
X9839756Y2381250D02*
G01*
X9886950Y2381250D01*
X9886950Y2428443D01*
X9879380Y2424633D01*
X9868154Y2416911D01*
X9857994Y2407767D01*
X9849205Y2397353D01*
X9841890Y2385872D01*
G37*
G36*
X8451850Y2381250D02*
G01*
X8499043Y2381250D01*
X8496909Y2385872D01*
X8489594Y2397353D01*
X8480806Y2407767D01*
X8470646Y2416911D01*
X8459419Y2424633D01*
X8451850Y2428443D01*
G37*
G36*
X9975850Y2381250D02*
G01*
X10023043Y2381250D01*
X10020909Y2385872D01*
X10013594Y2397353D01*
X10004806Y2407767D01*
X9994646Y2416911D01*
X9983419Y2424633D01*
X9975850Y2428443D01*
G37*
G36*
X5915456Y2393950D02*
G01*
X5962650Y2393950D01*
X5962650Y2441143D01*
X5955080Y2437333D01*
X5943854Y2429611D01*
X5933694Y2420467D01*
X5924905Y2410053D01*
X5917590Y2398572D01*
G37*
G36*
X7439456Y2393950D02*
G01*
X7486650Y2393950D01*
X7486650Y2441143D01*
X7479080Y2437333D01*
X7467853Y2429611D01*
X7457694Y2420467D01*
X7448905Y2410053D01*
X7441590Y2398572D01*
G37*
G36*
X2613456Y2393950D02*
G01*
X2660650Y2393950D01*
X2660650Y2441143D01*
X2653080Y2437333D01*
X2641854Y2429611D01*
X2631694Y2420467D01*
X2622905Y2410053D01*
X2615590Y2398572D01*
G37*
G36*
X2749550Y2393950D02*
G01*
X2796743Y2393950D01*
X2794609Y2398572D01*
X2787294Y2410053D01*
X2778506Y2420467D01*
X2768346Y2429611D01*
X2757119Y2437333D01*
X2749550Y2441143D01*
G37*
G36*
X6051550Y2393950D02*
G01*
X6098743Y2393950D01*
X6096609Y2398572D01*
X6089294Y2410053D01*
X6080506Y2420467D01*
X6070346Y2429611D01*
X6059119Y2437333D01*
X6051550Y2441143D01*
G37*
G36*
X7575550Y2393950D02*
G01*
X7622743Y2393950D01*
X7620609Y2398572D01*
X7613294Y2410053D01*
X7604506Y2420467D01*
X7594346Y2429611D01*
X7583119Y2437333D01*
X7575550Y2441143D01*
G37*
G36*
X1225550Y2393950D02*
G01*
X1272743Y2393950D01*
X1270609Y2398572D01*
X1263294Y2410053D01*
X1254506Y2420467D01*
X1244346Y2429611D01*
X1233119Y2437333D01*
X1225550Y2441143D01*
G37*
G36*
X1089456Y2393950D02*
G01*
X1136650Y2393950D01*
X1136650Y2441143D01*
X1129080Y2437333D01*
X1117854Y2429611D01*
X1107694Y2420467D01*
X1098905Y2410053D01*
X1091590Y2398572D01*
G37*
G36*
X4950256Y2406650D02*
G01*
X4997450Y2406650D01*
X4997450Y2453843D01*
X4989880Y2450033D01*
X4978654Y2442311D01*
X4968494Y2433167D01*
X4959705Y2422753D01*
X4952390Y2411272D01*
G37*
G36*
X3426256Y2406650D02*
G01*
X3473450Y2406650D01*
X3473450Y2453843D01*
X3465880Y2450033D01*
X3454654Y2442311D01*
X3444494Y2433167D01*
X3435705Y2422753D01*
X3428390Y2411272D01*
G37*
G36*
X5086350Y2406650D02*
G01*
X5133543Y2406650D01*
X5131409Y2411272D01*
X5124094Y2422753D01*
X5115306Y2433167D01*
X5105146Y2442311D01*
X5093919Y2450033D01*
X5086350Y2453843D01*
G37*
G36*
X3562350Y2406650D02*
G01*
X3609543Y2406650D01*
X3607409Y2411272D01*
X3600094Y2422753D01*
X3591306Y2433167D01*
X3581146Y2442311D01*
X3569919Y2450033D01*
X3562350Y2453843D01*
G37*
G36*
X597458Y2648204D02*
G01*
X601929Y2650337D01*
X614222Y2658110D01*
X625449Y2667406D01*
X635406Y2678023D01*
X643940Y2689809D01*
X649833Y2700528D01*
X597458Y2700528D01*
G37*
G36*
X494741Y2648204D02*
G01*
X494741Y2700528D01*
X442366Y2700528D01*
X448259Y2689809D01*
X456793Y2678023D01*
X466750Y2667406D01*
X477977Y2658110D01*
X490270Y2650337D01*
G37*
G36*
X597458Y2803245D02*
G01*
X649833Y2803245D01*
X643940Y2813964D01*
X635406Y2825750D01*
X625449Y2836367D01*
X614222Y2845663D01*
X601929Y2853436D01*
X597458Y2855569D01*
G37*
G36*
X442366Y2803245D02*
G01*
X494741Y2803245D01*
X494741Y2855569D01*
X490270Y2853436D01*
X477977Y2845663D01*
X466750Y2836367D01*
X456793Y2825750D01*
X448259Y2813964D01*
G37*
G36*
X940308Y3072892D02*
G01*
X9689592Y3072892D01*
X9697618Y3073704D01*
X9704832Y3075889D01*
X9711537Y3079445D01*
X9717735Y3084576D01*
X10141204Y3507994D01*
X10144099Y3510026D01*
X10147554Y3510940D01*
X10151110Y3510635D01*
X10165080Y3506774D01*
X10178592Y3504946D01*
X10192207Y3504946D01*
X10205720Y3506774D01*
X10218877Y3510381D01*
X10231424Y3515664D01*
X10243159Y3522624D01*
X10253878Y3531108D01*
X10263378Y3540912D01*
X10271455Y3551885D01*
X10278008Y3563823D01*
X10282885Y3576574D01*
X10286085Y3589832D01*
X10287406Y3603396D01*
X10286949Y3617010D01*
X10284714Y3630472D01*
X10280650Y3643477D01*
X10274909Y3655872D01*
X10267594Y3667353D01*
X10258806Y3677767D01*
X10248646Y3686911D01*
X10237419Y3694633D01*
X10225278Y3700779D01*
X10212374Y3705250D01*
X10199014Y3707993D01*
X10185400Y3708908D01*
X10171785Y3707993D01*
X10158425Y3705250D01*
X10145522Y3700779D01*
X10133380Y3694633D01*
X10122154Y3686911D01*
X10111994Y3677767D01*
X10103205Y3667353D01*
X10095890Y3655872D01*
X10090150Y3643477D01*
X10086086Y3630472D01*
X10083850Y3617010D01*
X10083393Y3603396D01*
X10084714Y3589832D01*
X10087914Y3576574D01*
X10089032Y3573576D01*
X10089743Y3569766D01*
X10088930Y3565956D01*
X10086746Y3562756D01*
X9677095Y3153105D01*
X9673793Y3150870D01*
X9669881Y3150108D01*
X960018Y3150108D01*
X956106Y3150870D01*
X952804Y3153105D01*
X587705Y3518204D01*
X585470Y3521506D01*
X584708Y3525418D01*
X584708Y3528415D01*
X585571Y3532428D01*
X587908Y3535832D01*
X591464Y3537965D01*
X595528Y3538524D01*
X599490Y3537458D01*
X602742Y3534867D01*
X608076Y3528364D01*
X937564Y3198876D01*
X943762Y3193745D01*
X950468Y3190189D01*
X957681Y3188004D01*
X965708Y3187192D01*
X7390892Y3187192D01*
X7398918Y3188004D01*
X7406131Y3190189D01*
X7412837Y3193745D01*
X7419035Y3198876D01*
X7740903Y3520694D01*
X7743799Y3522726D01*
X7747253Y3523640D01*
X7750809Y3523335D01*
X7764780Y3519474D01*
X7778292Y3517646D01*
X7791907Y3517646D01*
X7805420Y3519474D01*
X7818577Y3523081D01*
X7831124Y3528364D01*
X7842859Y3535324D01*
X7853578Y3543808D01*
X7863078Y3553612D01*
X7871155Y3564585D01*
X7877708Y3576523D01*
X7882585Y3589274D01*
X7885785Y3602532D01*
X7887106Y3616096D01*
X7886649Y3629710D01*
X7884414Y3643172D01*
X7880350Y3656177D01*
X7874609Y3668572D01*
X7867294Y3680053D01*
X7858506Y3690467D01*
X7848346Y3699611D01*
X7837119Y3707333D01*
X7824978Y3713479D01*
X7812074Y3717950D01*
X7798714Y3720693D01*
X7785100Y3721608D01*
X7771485Y3720693D01*
X7758125Y3717950D01*
X7745222Y3713479D01*
X7733080Y3707333D01*
X7721853Y3699611D01*
X7711694Y3690467D01*
X7702905Y3680053D01*
X7695590Y3668572D01*
X7689850Y3656177D01*
X7685786Y3643172D01*
X7683550Y3629710D01*
X7683093Y3616096D01*
X7684414Y3602532D01*
X7687614Y3589274D01*
X7688732Y3586276D01*
X7689443Y3582466D01*
X7688630Y3578656D01*
X7686446Y3575456D01*
X7378395Y3267405D01*
X7375093Y3265170D01*
X7371181Y3264408D01*
X985418Y3264408D01*
X981506Y3265170D01*
X978204Y3267405D01*
X974140Y3271469D01*
X971956Y3274720D01*
X971194Y3278632D01*
X971956Y3282543D01*
X974140Y3285794D01*
X977442Y3288029D01*
X981354Y3288792D01*
X4990592Y3288792D01*
X4998618Y3289604D01*
X5005832Y3291789D01*
X5012537Y3295345D01*
X5018735Y3300476D01*
X5251704Y3533394D01*
X5254599Y3535426D01*
X5258054Y3536340D01*
X5261610Y3536035D01*
X5275580Y3532174D01*
X5289092Y3530346D01*
X5302707Y3530346D01*
X5316220Y3532174D01*
X5329377Y3535781D01*
X5341924Y3541064D01*
X5353659Y3548024D01*
X5364378Y3556508D01*
X5373878Y3566312D01*
X5381955Y3577285D01*
X5388508Y3589223D01*
X5393385Y3601974D01*
X5396585Y3615232D01*
X5397906Y3628796D01*
X5397449Y3642410D01*
X5395214Y3655872D01*
X5391150Y3668877D01*
X5385409Y3681272D01*
X5378094Y3692753D01*
X5369306Y3703167D01*
X5359146Y3712311D01*
X5347919Y3720033D01*
X5335778Y3726179D01*
X5322874Y3730650D01*
X5309514Y3733393D01*
X5295900Y3734308D01*
X5282285Y3733393D01*
X5268925Y3730650D01*
X5256022Y3726179D01*
X5243880Y3720033D01*
X5232654Y3712311D01*
X5222494Y3703167D01*
X5213705Y3692753D01*
X5206390Y3681272D01*
X5200650Y3668877D01*
X5196586Y3655872D01*
X5194350Y3642410D01*
X5193893Y3628796D01*
X5195214Y3615232D01*
X5198414Y3601974D01*
X5199532Y3598976D01*
X5200243Y3595166D01*
X5199430Y3591356D01*
X5197246Y3588156D01*
X4978095Y3369005D01*
X4974793Y3366770D01*
X4970881Y3366008D01*
X985418Y3366008D01*
X981506Y3366770D01*
X978204Y3369005D01*
X974140Y3373069D01*
X971956Y3376320D01*
X971194Y3380232D01*
X971956Y3384143D01*
X974140Y3387394D01*
X977442Y3389629D01*
X981354Y3390392D01*
X2768092Y3390392D01*
X2776118Y3391204D01*
X2783332Y3393389D01*
X2790037Y3396945D01*
X2796235Y3402076D01*
X2914904Y3520694D01*
X2917799Y3522726D01*
X2921254Y3523640D01*
X2924810Y3523335D01*
X2938780Y3519474D01*
X2952292Y3517646D01*
X2965907Y3517646D01*
X2979420Y3519474D01*
X2992577Y3523081D01*
X3005124Y3528364D01*
X3016859Y3535324D01*
X3027578Y3543808D01*
X3037078Y3553612D01*
X3045155Y3564585D01*
X3051708Y3576523D01*
X3056585Y3589274D01*
X3059785Y3602532D01*
X3061106Y3616096D01*
X3060649Y3629710D01*
X3058414Y3643172D01*
X3054350Y3656177D01*
X3048609Y3668572D01*
X3041294Y3680053D01*
X3032506Y3690467D01*
X3022346Y3699611D01*
X3011119Y3707333D01*
X2998978Y3713479D01*
X2986074Y3717950D01*
X2972714Y3720693D01*
X2959100Y3721608D01*
X2945485Y3720693D01*
X2932125Y3717950D01*
X2919222Y3713479D01*
X2907080Y3707333D01*
X2895854Y3699611D01*
X2885694Y3690467D01*
X2876905Y3680053D01*
X2869590Y3668572D01*
X2863850Y3656177D01*
X2859786Y3643172D01*
X2857550Y3629710D01*
X2857093Y3616096D01*
X2858414Y3602532D01*
X2861614Y3589274D01*
X2862732Y3586276D01*
X2863443Y3582466D01*
X2862630Y3578656D01*
X2860446Y3575456D01*
X2755595Y3470605D01*
X2752293Y3468370D01*
X2748381Y3467608D01*
X985418Y3467608D01*
X981506Y3468370D01*
X978204Y3470605D01*
X841705Y3607104D01*
X839469Y3610406D01*
X838708Y3614318D01*
X838708Y6456781D01*
X839469Y6460693D01*
X841705Y6463995D01*
X902004Y6524294D01*
X905306Y6526530D01*
X909218Y6527292D01*
X1440281Y6527292D01*
X1444193Y6526530D01*
X1447495Y6524294D01*
X1478889Y6492900D01*
X1480870Y6490106D01*
X1481836Y6486804D01*
X1481632Y6483400D01*
X1480312Y6480251D01*
X1476502Y6474307D01*
X1474622Y6468872D01*
X1473911Y6462522D01*
X1473911Y6313678D01*
X1474622Y6307328D01*
X1476502Y6301892D01*
X1479600Y6296964D01*
X1483664Y6292900D01*
X1488592Y6289802D01*
X1494028Y6287922D01*
X1500378Y6287211D01*
X1649222Y6287211D01*
X1655572Y6287922D01*
X1661007Y6289802D01*
X1665935Y6292900D01*
X1669999Y6296964D01*
X1673098Y6301892D01*
X1674977Y6307328D01*
X1675688Y6313678D01*
X1675688Y6423964D01*
X1676501Y6427876D01*
X1678686Y6431127D01*
X1681988Y6433362D01*
X1685848Y6434124D01*
X1689760Y6433362D01*
X1693062Y6431127D01*
X1724914Y6399276D01*
X1727098Y6395974D01*
X1727911Y6392113D01*
X1727911Y6313678D01*
X1728622Y6307328D01*
X1730502Y6301892D01*
X1733600Y6296964D01*
X1737664Y6292900D01*
X1742592Y6289802D01*
X1748028Y6287922D01*
X1754378Y6287211D01*
X1902764Y6287211D01*
X1906676Y6286398D01*
X1909927Y6284214D01*
X1912162Y6280912D01*
X1912924Y6277051D01*
X1912162Y6273139D01*
X1909927Y6269837D01*
X1674875Y6034735D01*
X1669745Y6028537D01*
X1666189Y6021832D01*
X1664004Y6014618D01*
X1663192Y6006592D01*
X1663192Y4962093D01*
X1662328Y4957978D01*
X1659788Y4954524D01*
X1656130Y4952441D01*
X1651914Y4951984D01*
X1649222Y4952288D01*
X1500378Y4952288D01*
X1494028Y4951577D01*
X1488592Y4949698D01*
X1483664Y4946599D01*
X1479600Y4942535D01*
X1476502Y4937607D01*
X1474622Y4932172D01*
X1473911Y4925822D01*
X1473911Y4776978D01*
X1474622Y4770628D01*
X1476502Y4765192D01*
X1479600Y4760264D01*
X1483664Y4756200D01*
X1488592Y4753102D01*
X1494028Y4751222D01*
X1500378Y4750511D01*
X1649171Y4750511D01*
X1656892Y4751425D01*
X1660906Y4751070D01*
X1664462Y4749241D01*
X1667052Y4746091D01*
X1669745Y4741062D01*
X1674875Y4734864D01*
X2182164Y4227576D01*
X2188362Y4222445D01*
X2195068Y4218889D01*
X2202281Y4216704D01*
X2210308Y4215892D01*
X3123692Y4215892D01*
X3127603Y4215130D01*
X3130854Y4212894D01*
X3133090Y4209643D01*
X3133852Y4205732D01*
X3133852Y4176318D01*
X3134563Y4170019D01*
X3136493Y4164533D01*
X3139541Y4159656D01*
X3143656Y4155541D01*
X3148533Y4152493D01*
X3154019Y4150563D01*
X3160318Y4149851D01*
X3316681Y4149851D01*
X3322980Y4150563D01*
X3328466Y4152493D01*
X3333343Y4155541D01*
X3337458Y4159656D01*
X3340506Y4164533D01*
X3342436Y4170019D01*
X3343148Y4176318D01*
X3343148Y4332681D01*
X3342436Y4338980D01*
X3340506Y4344466D01*
X3337458Y4349343D01*
X3333343Y4353458D01*
X3328466Y4356506D01*
X3322980Y4358436D01*
X3316681Y4359148D01*
X3160318Y4359148D01*
X3154019Y4358436D01*
X3148533Y4356506D01*
X3143656Y4353458D01*
X3139541Y4349343D01*
X3136493Y4344466D01*
X3134563Y4338980D01*
X3133852Y4332681D01*
X3133852Y4303268D01*
X3133090Y4299356D01*
X3130854Y4296105D01*
X3127603Y4293870D01*
X3123692Y4293108D01*
X2230018Y4293108D01*
X2226106Y4293870D01*
X2222804Y4296105D01*
X1785772Y4733137D01*
X1783537Y4736439D01*
X1782775Y4740351D01*
X1783537Y4744212D01*
X1785772Y4747514D01*
X1789023Y4749698D01*
X1792935Y4750511D01*
X1870913Y4750511D01*
X1874774Y4749698D01*
X1878075Y4747514D01*
X1978964Y4646676D01*
X1985162Y4641545D01*
X1991868Y4637989D01*
X1999081Y4635804D01*
X2007107Y4634992D01*
X4584192Y4634992D01*
X4592218Y4635804D01*
X4599432Y4637989D01*
X4606137Y4641545D01*
X4612335Y4646676D01*
X4738624Y4772964D01*
X4743754Y4779162D01*
X4747310Y4785868D01*
X4749495Y4793081D01*
X4750308Y4801108D01*
X4750308Y5021580D01*
X4750968Y5024780D01*
X4750308Y5028031D01*
X4750308Y5110378D01*
X4750968Y5113629D01*
X4750308Y5116830D01*
X4750308Y5212181D01*
X4751070Y5216093D01*
X4753305Y5219395D01*
X4776266Y5242356D01*
X4779619Y5244592D01*
X4783582Y5245303D01*
X4787544Y5244439D01*
X4790846Y5242102D01*
X4797602Y5234940D01*
X4808829Y5225643D01*
X4821072Y5217820D01*
X4834280Y5211622D01*
X4848098Y5207152D01*
X4862728Y5204409D01*
X4876952Y5203494D01*
X4891430Y5204409D01*
X4905756Y5207152D01*
X4919573Y5211622D01*
X4932781Y5217820D01*
X4945024Y5225643D01*
X4956251Y5234940D01*
X4966208Y5245506D01*
X4974793Y5257292D01*
X4981803Y5270042D01*
X4987137Y5283606D01*
X4990744Y5297678D01*
X4992573Y5312105D01*
X4992573Y5326684D01*
X4990744Y5341112D01*
X4987137Y5355183D01*
X4981803Y5368747D01*
X4974793Y5381498D01*
X4966208Y5393283D01*
X4956251Y5403850D01*
X4945024Y5413146D01*
X4932781Y5420969D01*
X4919573Y5427167D01*
X4905756Y5431637D01*
X4891430Y5434380D01*
X4876952Y5435295D01*
X4862423Y5434380D01*
X4848098Y5431637D01*
X4834280Y5427167D01*
X4821072Y5420969D01*
X4808829Y5413146D01*
X4797602Y5403850D01*
X4787646Y5393283D01*
X4779060Y5381498D01*
X4772050Y5368747D01*
X4766716Y5355234D01*
X4762906Y5340197D01*
X4761890Y5337708D01*
X4760214Y5335524D01*
X4684776Y5260035D01*
X4679645Y5253837D01*
X4676089Y5247132D01*
X4673904Y5239918D01*
X4673092Y5231892D01*
X4673092Y4820818D01*
X4672330Y4816906D01*
X4670094Y4813604D01*
X4571695Y4715205D01*
X4568393Y4712970D01*
X4564481Y4712208D01*
X2026818Y4712208D01*
X2022906Y4712970D01*
X2019604Y4715205D01*
X2001672Y4733137D01*
X1999437Y4736439D01*
X1998675Y4740351D01*
X1999437Y4744212D01*
X2001672Y4747514D01*
X2004923Y4749698D01*
X2008835Y4750511D01*
X2157222Y4750511D01*
X2163572Y4751222D01*
X2169007Y4753102D01*
X2173935Y4756200D01*
X2177999Y4760264D01*
X2181098Y4765192D01*
X2182977Y4770628D01*
X2183688Y4776978D01*
X2183688Y4925822D01*
X2182977Y4932172D01*
X2181098Y4937607D01*
X2177999Y4942535D01*
X2173935Y4946599D01*
X2169007Y4949698D01*
X2163572Y4951577D01*
X2157222Y4952288D01*
X2008378Y4952288D01*
X2002028Y4951577D01*
X1996592Y4949698D01*
X1991664Y4946599D01*
X1987600Y4942535D01*
X1984502Y4937607D01*
X1982622Y4932172D01*
X1981911Y4925822D01*
X1981911Y4777435D01*
X1981098Y4773523D01*
X1978914Y4770272D01*
X1975612Y4768037D01*
X1971751Y4767275D01*
X1967839Y4768037D01*
X1964537Y4770272D01*
X1932686Y4802124D01*
X1930501Y4805426D01*
X1929688Y4809286D01*
X1929688Y4925822D01*
X1928977Y4932172D01*
X1927098Y4937607D01*
X1923999Y4942535D01*
X1919935Y4946599D01*
X1915007Y4949698D01*
X1909572Y4951577D01*
X1903222Y4952288D01*
X1754378Y4952288D01*
X1751685Y4951984D01*
X1747469Y4952441D01*
X1743811Y4954524D01*
X1741271Y4957978D01*
X1740407Y4962093D01*
X1740407Y5986881D01*
X1741170Y5990793D01*
X1743405Y5994095D01*
X2033524Y6284214D01*
X2036825Y6286398D01*
X2040686Y6287211D01*
X2157222Y6287211D01*
X2163572Y6287922D01*
X2169007Y6289802D01*
X2173935Y6292900D01*
X2177999Y6296964D01*
X2181098Y6301892D01*
X2182977Y6307328D01*
X2183688Y6313678D01*
X2183688Y6462522D01*
X2182977Y6468872D01*
X2181098Y6474307D01*
X2177999Y6479235D01*
X2173935Y6483299D01*
X2169007Y6486398D01*
X2163572Y6488277D01*
X2157222Y6488988D01*
X2008378Y6488988D01*
X2002028Y6488277D01*
X1996592Y6486398D01*
X1991664Y6483299D01*
X1987600Y6479235D01*
X1984502Y6474307D01*
X1982622Y6468872D01*
X1981911Y6462522D01*
X1981911Y6345986D01*
X1981098Y6342126D01*
X1978914Y6338824D01*
X1947062Y6306972D01*
X1943760Y6304737D01*
X1939848Y6303975D01*
X1935988Y6304737D01*
X1932686Y6306972D01*
X1930501Y6310223D01*
X1929688Y6314135D01*
X1929688Y6462522D01*
X1928977Y6468872D01*
X1927098Y6474307D01*
X1923999Y6479235D01*
X1919935Y6483299D01*
X1915007Y6486398D01*
X1909572Y6488277D01*
X1903222Y6488988D01*
X1754378Y6488988D01*
X1750263Y6488531D01*
X1747215Y6488633D01*
X1744370Y6489649D01*
X1741932Y6491478D01*
X1583740Y6649669D01*
X1581556Y6652920D01*
X1580794Y6656831D01*
X1581556Y6660743D01*
X1583740Y6663994D01*
X1587042Y6666230D01*
X1590954Y6666992D01*
X2253081Y6666992D01*
X2256993Y6666230D01*
X2260295Y6663994D01*
X2417927Y6506362D01*
X2420162Y6503060D01*
X2420924Y6499148D01*
X2420162Y6495288D01*
X2417927Y6491986D01*
X2414676Y6489801D01*
X2410764Y6488988D01*
X2262378Y6488988D01*
X2256028Y6488277D01*
X2250592Y6486398D01*
X2245664Y6483299D01*
X2241600Y6479235D01*
X2238502Y6474307D01*
X2236622Y6468872D01*
X2235911Y6462522D01*
X2235911Y6313678D01*
X2236622Y6307328D01*
X2238502Y6301892D01*
X2241600Y6296964D01*
X2245664Y6292900D01*
X2250592Y6289802D01*
X2256028Y6287922D01*
X2262378Y6287211D01*
X2411222Y6287211D01*
X2417572Y6287922D01*
X2423007Y6289802D01*
X2427935Y6292900D01*
X2431999Y6296964D01*
X2435098Y6301892D01*
X2436977Y6307328D01*
X2437688Y6313678D01*
X2437688Y6462064D01*
X2438501Y6465976D01*
X2440686Y6469227D01*
X2443988Y6471462D01*
X2447848Y6472224D01*
X2451760Y6471462D01*
X2455062Y6469227D01*
X2486914Y6437376D01*
X2489098Y6434074D01*
X2489911Y6430213D01*
X2489911Y6313678D01*
X2490622Y6307328D01*
X2492502Y6301892D01*
X2495600Y6296964D01*
X2499664Y6292900D01*
X2504592Y6289802D01*
X2510028Y6287922D01*
X2516378Y6287211D01*
X2665222Y6287211D01*
X2671572Y6287922D01*
X2677007Y6289802D01*
X2681935Y6292900D01*
X2685999Y6296964D01*
X2689098Y6301892D01*
X2690977Y6307328D01*
X2691688Y6313678D01*
X2691688Y6462522D01*
X2690977Y6468872D01*
X2689098Y6474307D01*
X2685999Y6479235D01*
X2681935Y6483299D01*
X2677007Y6486398D01*
X2671572Y6488277D01*
X2665222Y6488988D01*
X2548686Y6488988D01*
X2544826Y6489801D01*
X2541524Y6491986D01*
X2300935Y6732524D01*
X2294737Y6737654D01*
X2288032Y6741210D01*
X2280818Y6743395D01*
X2272792Y6744208D01*
X851408Y6744208D01*
X843381Y6743395D01*
X836168Y6741210D01*
X829462Y6737654D01*
X823264Y6732524D01*
X608076Y6517335D01*
X602742Y6510832D01*
X599490Y6508242D01*
X595528Y6507175D01*
X591464Y6507734D01*
X587908Y6509867D01*
X585571Y6513271D01*
X584708Y6517284D01*
X584708Y6532981D01*
X585470Y6536893D01*
X587705Y6540195D01*
X813104Y6765594D01*
X816406Y6767830D01*
X820318Y6768592D01*
X2570581Y6768592D01*
X2574493Y6767830D01*
X2577795Y6765594D01*
X2803194Y6540195D01*
X2805430Y6536893D01*
X2806192Y6532981D01*
X2806192Y6499148D01*
X2805430Y6495288D01*
X2803194Y6491986D01*
X2799943Y6489801D01*
X2796032Y6488988D01*
X2770378Y6488988D01*
X2764028Y6488277D01*
X2758592Y6486398D01*
X2753664Y6483299D01*
X2749600Y6479235D01*
X2746502Y6474307D01*
X2744622Y6468872D01*
X2743911Y6462522D01*
X2743911Y6313678D01*
X2744622Y6307328D01*
X2746502Y6301892D01*
X2749600Y6296964D01*
X2753664Y6292900D01*
X2758592Y6289802D01*
X2764028Y6287922D01*
X2770378Y6287211D01*
X2919222Y6287211D01*
X2925572Y6287922D01*
X2931007Y6289802D01*
X2935935Y6292900D01*
X2939999Y6296964D01*
X2943098Y6301892D01*
X2944977Y6307328D01*
X2945688Y6313678D01*
X2945688Y6462522D01*
X2944977Y6468872D01*
X2943098Y6474307D01*
X2939999Y6479235D01*
X2935935Y6483299D01*
X2931007Y6486398D01*
X2925572Y6488277D01*
X2919222Y6488988D01*
X2893568Y6488988D01*
X2889656Y6489801D01*
X2886405Y6491986D01*
X2884170Y6495288D01*
X2883408Y6499148D01*
X2883408Y6552692D01*
X2882595Y6560718D01*
X2880410Y6567931D01*
X2876854Y6574637D01*
X2871724Y6580835D01*
X2618435Y6834124D01*
X2612237Y6839254D01*
X2605532Y6842810D01*
X2598318Y6844995D01*
X2590292Y6845808D01*
X800608Y6845808D01*
X792581Y6844995D01*
X785368Y6842810D01*
X778662Y6839254D01*
X772464Y6834124D01*
X519176Y6580835D01*
X514045Y6574637D01*
X510489Y6567931D01*
X508304Y6560718D01*
X507492Y6552692D01*
X507492Y3505708D01*
X508304Y3497681D01*
X510489Y3490468D01*
X514045Y3483762D01*
X519176Y3477564D01*
X912164Y3084576D01*
X918362Y3079445D01*
X925068Y3075889D01*
X932281Y3073704D01*
G37*
G36*
X1246378Y6287211D02*
G01*
X1395222Y6287211D01*
X1401572Y6287922D01*
X1407007Y6289802D01*
X1411935Y6292900D01*
X1415999Y6296964D01*
X1419098Y6301892D01*
X1420977Y6307328D01*
X1421688Y6313678D01*
X1421688Y6462522D01*
X1420977Y6468872D01*
X1419098Y6474307D01*
X1415999Y6479235D01*
X1411935Y6483299D01*
X1407007Y6486398D01*
X1401572Y6488277D01*
X1395222Y6488988D01*
X1246378Y6488988D01*
X1240028Y6488277D01*
X1234592Y6486398D01*
X1229664Y6483299D01*
X1225600Y6479235D01*
X1222502Y6474307D01*
X1220622Y6468872D01*
X1219911Y6462522D01*
X1219911Y6313678D01*
X1220622Y6307328D01*
X1222502Y6301892D01*
X1225600Y6296964D01*
X1229664Y6292900D01*
X1234592Y6289802D01*
X1240028Y6287922D01*
G37*
G36*
X992378Y6287211D02*
G01*
X1141222Y6287211D01*
X1147572Y6287922D01*
X1153007Y6289802D01*
X1157935Y6292900D01*
X1161999Y6296964D01*
X1165098Y6301892D01*
X1166977Y6307328D01*
X1167688Y6313678D01*
X1167688Y6462522D01*
X1166977Y6468872D01*
X1165098Y6474307D01*
X1161999Y6479235D01*
X1157935Y6483299D01*
X1153007Y6486398D01*
X1147572Y6488277D01*
X1141222Y6488988D01*
X992378Y6488988D01*
X986028Y6488277D01*
X980592Y6486398D01*
X975664Y6483299D01*
X971600Y6479235D01*
X968502Y6474307D01*
X966622Y6468872D01*
X965911Y6462522D01*
X965911Y6313678D01*
X966622Y6307328D01*
X968502Y6301892D01*
X971600Y6296964D01*
X975664Y6292900D01*
X980592Y6289802D01*
X986028Y6287922D01*
G37*
G36*
X8200745Y6223558D02*
G01*
X8253069Y6223558D01*
X8250936Y6228029D01*
X8243163Y6240322D01*
X8233867Y6251549D01*
X8223250Y6261506D01*
X8211464Y6270040D01*
X8200745Y6275933D01*
G37*
G36*
X8045703Y6223558D02*
G01*
X8098028Y6223558D01*
X8098028Y6275933D01*
X8087309Y6270040D01*
X8075523Y6261506D01*
X8064906Y6251549D01*
X8055609Y6240322D01*
X8047837Y6228029D01*
G37*
G36*
X3642918Y6181852D02*
G01*
X3799281Y6181852D01*
X3805580Y6182563D01*
X3811066Y6184493D01*
X3815943Y6187541D01*
X3820058Y6191656D01*
X3823106Y6196533D01*
X3825036Y6202019D01*
X3825748Y6208318D01*
X3825748Y6364681D01*
X3825036Y6370980D01*
X3823106Y6376466D01*
X3820058Y6381343D01*
X3815943Y6385458D01*
X3811066Y6388506D01*
X3805580Y6390436D01*
X3799281Y6391148D01*
X3642918Y6391148D01*
X3636619Y6390436D01*
X3631133Y6388506D01*
X3626256Y6385458D01*
X3622141Y6381343D01*
X3619093Y6376466D01*
X3617163Y6370980D01*
X3616451Y6364681D01*
X3616451Y6208318D01*
X3617163Y6202019D01*
X3619093Y6196533D01*
X3622141Y6191656D01*
X3626256Y6187541D01*
X3631133Y6184493D01*
X3636619Y6182563D01*
G37*
G36*
X8908592Y3504946D02*
G01*
X8922207Y3504946D01*
X8935720Y3506774D01*
X8948877Y3510381D01*
X8961424Y3515664D01*
X8973159Y3522624D01*
X8983878Y3531108D01*
X8993378Y3540912D01*
X9001455Y3551885D01*
X9008008Y3563823D01*
X9012885Y3576574D01*
X9016085Y3589832D01*
X9017406Y3603396D01*
X9016949Y3617010D01*
X9014714Y3630472D01*
X9010650Y3643477D01*
X9004909Y3655872D01*
X8997594Y3667353D01*
X8988806Y3677767D01*
X8978646Y3686911D01*
X8967419Y3694633D01*
X8955278Y3700779D01*
X8942374Y3705250D01*
X8929014Y3707993D01*
X8915400Y3708908D01*
X8901785Y3707993D01*
X8888425Y3705250D01*
X8875522Y3700779D01*
X8863380Y3694633D01*
X8852154Y3686911D01*
X8841994Y3677767D01*
X8833205Y3667353D01*
X8825890Y3655872D01*
X8820150Y3643477D01*
X8816086Y3630472D01*
X8813850Y3617010D01*
X8813393Y3603396D01*
X8814714Y3589832D01*
X8817914Y3576574D01*
X8822791Y3563823D01*
X8829344Y3551885D01*
X8837422Y3540912D01*
X8846921Y3531108D01*
X8857640Y3522624D01*
X8869375Y3515664D01*
X8881922Y3510381D01*
X8895080Y3506774D01*
G37*
G36*
X9416592Y3504946D02*
G01*
X9430207Y3504946D01*
X9443720Y3506774D01*
X9456877Y3510381D01*
X9469424Y3515664D01*
X9481159Y3522624D01*
X9491878Y3531108D01*
X9501378Y3540912D01*
X9509455Y3551885D01*
X9516008Y3563823D01*
X9520885Y3576574D01*
X9524085Y3589832D01*
X9525406Y3603396D01*
X9524949Y3617010D01*
X9522714Y3630472D01*
X9518650Y3643477D01*
X9512909Y3655872D01*
X9505594Y3667353D01*
X9496806Y3677767D01*
X9486646Y3686911D01*
X9475419Y3694633D01*
X9463278Y3700779D01*
X9450374Y3705250D01*
X9437014Y3707993D01*
X9423400Y3708908D01*
X9409785Y3707993D01*
X9396425Y3705250D01*
X9383522Y3700779D01*
X9371380Y3694633D01*
X9360154Y3686911D01*
X9349994Y3677767D01*
X9341205Y3667353D01*
X9333890Y3655872D01*
X9328150Y3643477D01*
X9324086Y3630472D01*
X9321850Y3617010D01*
X9321393Y3603396D01*
X9322714Y3589832D01*
X9325914Y3576574D01*
X9330791Y3563823D01*
X9337344Y3551885D01*
X9345422Y3540912D01*
X9354921Y3531108D01*
X9365640Y3522624D01*
X9377375Y3515664D01*
X9389922Y3510381D01*
X9403080Y3506774D01*
G37*
G36*
X8654592Y3504946D02*
G01*
X8668207Y3504946D01*
X8681720Y3506774D01*
X8694877Y3510381D01*
X8707424Y3515664D01*
X8719159Y3522624D01*
X8729878Y3531108D01*
X8739378Y3540912D01*
X8747455Y3551885D01*
X8754008Y3563823D01*
X8758885Y3576574D01*
X8762085Y3589832D01*
X8763406Y3603396D01*
X8762949Y3617010D01*
X8760714Y3630472D01*
X8756650Y3643477D01*
X8750909Y3655872D01*
X8743594Y3667353D01*
X8734806Y3677767D01*
X8724646Y3686911D01*
X8713419Y3694633D01*
X8701278Y3700779D01*
X8688374Y3705250D01*
X8675014Y3707993D01*
X8661400Y3708908D01*
X8647785Y3707993D01*
X8634425Y3705250D01*
X8621522Y3700779D01*
X8609380Y3694633D01*
X8598154Y3686911D01*
X8587994Y3677767D01*
X8579205Y3667353D01*
X8571890Y3655872D01*
X8566150Y3643477D01*
X8562086Y3630472D01*
X8559850Y3617010D01*
X8559393Y3603396D01*
X8560714Y3589832D01*
X8563914Y3576574D01*
X8568791Y3563823D01*
X8575344Y3551885D01*
X8583422Y3540912D01*
X8592921Y3531108D01*
X8603640Y3522624D01*
X8615375Y3515664D01*
X8627922Y3510381D01*
X8641080Y3506774D01*
G37*
G36*
X8400592Y3504946D02*
G01*
X8414207Y3504946D01*
X8427720Y3506774D01*
X8440877Y3510381D01*
X8453424Y3515664D01*
X8465159Y3522624D01*
X8475878Y3531108D01*
X8485378Y3540912D01*
X8493455Y3551885D01*
X8500008Y3563823D01*
X8504885Y3576574D01*
X8508085Y3589832D01*
X8509406Y3603396D01*
X8508949Y3617010D01*
X8506714Y3630472D01*
X8502650Y3643477D01*
X8496909Y3655872D01*
X8489594Y3667353D01*
X8480806Y3677767D01*
X8470646Y3686911D01*
X8459419Y3694633D01*
X8447278Y3700779D01*
X8434374Y3705250D01*
X8421014Y3707993D01*
X8407400Y3708908D01*
X8393785Y3707993D01*
X8380425Y3705250D01*
X8367522Y3700779D01*
X8355380Y3694633D01*
X8344153Y3686911D01*
X8333994Y3677767D01*
X8325205Y3667353D01*
X8317890Y3655872D01*
X8312150Y3643477D01*
X8308086Y3630472D01*
X8305850Y3617010D01*
X8305393Y3603396D01*
X8306714Y3589832D01*
X8309914Y3576574D01*
X8314791Y3563823D01*
X8321344Y3551885D01*
X8329422Y3540912D01*
X8338921Y3531108D01*
X8349640Y3522624D01*
X8361375Y3515664D01*
X8373922Y3510381D01*
X8387080Y3506774D01*
G37*
G36*
X9670592Y3504946D02*
G01*
X9684207Y3504946D01*
X9697720Y3506774D01*
X9710877Y3510381D01*
X9723424Y3515664D01*
X9735159Y3522624D01*
X9745878Y3531108D01*
X9755378Y3540912D01*
X9763455Y3551885D01*
X9770008Y3563823D01*
X9774885Y3576574D01*
X9778085Y3589832D01*
X9779406Y3603396D01*
X9778949Y3617010D01*
X9776714Y3630472D01*
X9772650Y3643477D01*
X9766909Y3655872D01*
X9759594Y3667353D01*
X9750806Y3677767D01*
X9740646Y3686911D01*
X9729419Y3694633D01*
X9717278Y3700779D01*
X9704374Y3705250D01*
X9691014Y3707993D01*
X9677400Y3708908D01*
X9663785Y3707993D01*
X9650425Y3705250D01*
X9637522Y3700779D01*
X9625380Y3694633D01*
X9614154Y3686911D01*
X9603994Y3677767D01*
X9595205Y3667353D01*
X9587890Y3655872D01*
X9582150Y3643477D01*
X9578086Y3630472D01*
X9575850Y3617010D01*
X9575393Y3603396D01*
X9576714Y3589832D01*
X9579914Y3576574D01*
X9584791Y3563823D01*
X9591344Y3551885D01*
X9599422Y3540912D01*
X9608921Y3531108D01*
X9619640Y3522624D01*
X9631375Y3515664D01*
X9643922Y3510381D01*
X9657080Y3506774D01*
G37*
G36*
X9924592Y3504946D02*
G01*
X9938207Y3504946D01*
X9951720Y3506774D01*
X9964877Y3510381D01*
X9977424Y3515664D01*
X9989159Y3522624D01*
X9999878Y3531108D01*
X10009378Y3540912D01*
X10017455Y3551885D01*
X10024008Y3563823D01*
X10028885Y3576574D01*
X10032085Y3589832D01*
X10033406Y3603396D01*
X10032949Y3617010D01*
X10030714Y3630472D01*
X10026650Y3643477D01*
X10020909Y3655872D01*
X10013594Y3667353D01*
X10004806Y3677767D01*
X9994646Y3686911D01*
X9983419Y3694633D01*
X9971278Y3700779D01*
X9958374Y3705250D01*
X9945014Y3707993D01*
X9931400Y3708908D01*
X9917785Y3707993D01*
X9904425Y3705250D01*
X9891522Y3700779D01*
X9879380Y3694633D01*
X9868154Y3686911D01*
X9857994Y3677767D01*
X9849205Y3667353D01*
X9841890Y3655872D01*
X9836150Y3643477D01*
X9832086Y3630472D01*
X9829850Y3617010D01*
X9829393Y3603396D01*
X9830714Y3589832D01*
X9833914Y3576574D01*
X9838791Y3563823D01*
X9845344Y3551885D01*
X9853422Y3540912D01*
X9862921Y3531108D01*
X9873640Y3522624D01*
X9885375Y3515664D01*
X9897922Y3510381D01*
X9911080Y3506774D01*
G37*
G36*
X9162592Y3504946D02*
G01*
X9176207Y3504946D01*
X9189720Y3506774D01*
X9202877Y3510381D01*
X9215424Y3515664D01*
X9227159Y3522624D01*
X9237878Y3531108D01*
X9247378Y3540912D01*
X9255455Y3551885D01*
X9262008Y3563823D01*
X9266885Y3576574D01*
X9270085Y3589832D01*
X9271406Y3603396D01*
X9270949Y3617010D01*
X9268714Y3630472D01*
X9264650Y3643477D01*
X9258909Y3655872D01*
X9251594Y3667353D01*
X9242806Y3677767D01*
X9232646Y3686911D01*
X9221419Y3694633D01*
X9209278Y3700779D01*
X9196374Y3705250D01*
X9183014Y3707993D01*
X9169400Y3708908D01*
X9155785Y3707993D01*
X9142425Y3705250D01*
X9129522Y3700779D01*
X9117380Y3694633D01*
X9106154Y3686911D01*
X9095994Y3677767D01*
X9087205Y3667353D01*
X9079890Y3655872D01*
X9074150Y3643477D01*
X9070086Y3630472D01*
X9067850Y3617010D01*
X9067393Y3603396D01*
X9068714Y3589832D01*
X9071914Y3576574D01*
X9076791Y3563823D01*
X9083344Y3551885D01*
X9091422Y3540912D01*
X9100921Y3531108D01*
X9111640Y3522624D01*
X9123375Y3515664D01*
X9135922Y3510381D01*
X9149080Y3506774D01*
G37*
G36*
X3975100Y6181852D02*
G01*
X3988765Y6182766D01*
X4002176Y6185458D01*
X4015130Y6189827D01*
X4027424Y6195872D01*
X4038803Y6203492D01*
X4049064Y6212535D01*
X4058107Y6222796D01*
X4065727Y6234176D01*
X4071772Y6246469D01*
X4076141Y6259423D01*
X4078833Y6272834D01*
X4079748Y6286500D01*
X4078833Y6300165D01*
X4076141Y6313576D01*
X4071772Y6326530D01*
X4065727Y6338824D01*
X4058107Y6350203D01*
X4049064Y6360464D01*
X4038803Y6369507D01*
X4027424Y6377127D01*
X4015130Y6383172D01*
X4002176Y6387541D01*
X3988765Y6390233D01*
X3975100Y6391148D01*
X3961434Y6390233D01*
X3948023Y6387541D01*
X3935069Y6383172D01*
X3922776Y6377127D01*
X3911396Y6369507D01*
X3901135Y6360464D01*
X3892092Y6350203D01*
X3884472Y6338824D01*
X3878427Y6326530D01*
X3874058Y6313576D01*
X3871366Y6300165D01*
X3870451Y6286500D01*
X3871366Y6272834D01*
X3874058Y6259423D01*
X3878427Y6246469D01*
X3884472Y6234176D01*
X3892092Y6222796D01*
X3901135Y6212535D01*
X3911396Y6203492D01*
X3922776Y6195872D01*
X3935069Y6189827D01*
X3948023Y6185458D01*
X3961434Y6182766D01*
G37*
G36*
X6762292Y3517646D02*
G01*
X6775907Y3517646D01*
X6789420Y3519474D01*
X6802577Y3523081D01*
X6815124Y3528364D01*
X6826859Y3535324D01*
X6837578Y3543808D01*
X6847078Y3553612D01*
X6855155Y3564585D01*
X6861708Y3576523D01*
X6866585Y3589274D01*
X6869785Y3602532D01*
X6871106Y3616096D01*
X6870649Y3629710D01*
X6868414Y3643172D01*
X6864350Y3656177D01*
X6858609Y3668572D01*
X6851294Y3680053D01*
X6842506Y3690467D01*
X6832346Y3699611D01*
X6821119Y3707333D01*
X6808978Y3713479D01*
X6796074Y3717950D01*
X6782714Y3720693D01*
X6769100Y3721608D01*
X6755485Y3720693D01*
X6742125Y3717950D01*
X6729222Y3713479D01*
X6717080Y3707333D01*
X6705853Y3699611D01*
X6695694Y3690467D01*
X6686905Y3680053D01*
X6679590Y3668572D01*
X6673850Y3656177D01*
X6669786Y3643172D01*
X6667550Y3629710D01*
X6667093Y3616096D01*
X6668414Y3602532D01*
X6671614Y3589274D01*
X6676491Y3576523D01*
X6683044Y3564585D01*
X6691122Y3553612D01*
X6700621Y3543808D01*
X6711340Y3535324D01*
X6723075Y3528364D01*
X6735622Y3523081D01*
X6748780Y3519474D01*
G37*
G36*
X7270292Y3517646D02*
G01*
X7283907Y3517646D01*
X7297420Y3519474D01*
X7310577Y3523081D01*
X7323124Y3528364D01*
X7334859Y3535324D01*
X7345578Y3543808D01*
X7355078Y3553612D01*
X7363155Y3564585D01*
X7369708Y3576523D01*
X7374585Y3589274D01*
X7377785Y3602532D01*
X7379106Y3616096D01*
X7378649Y3629710D01*
X7376414Y3643172D01*
X7372350Y3656177D01*
X7366609Y3668572D01*
X7359294Y3680053D01*
X7350506Y3690467D01*
X7340346Y3699611D01*
X7329119Y3707333D01*
X7316978Y3713479D01*
X7304074Y3717950D01*
X7290714Y3720693D01*
X7277100Y3721608D01*
X7263485Y3720693D01*
X7250125Y3717950D01*
X7237222Y3713479D01*
X7225080Y3707333D01*
X7213853Y3699611D01*
X7203694Y3690467D01*
X7194905Y3680053D01*
X7187590Y3668572D01*
X7181850Y3656177D01*
X7177786Y3643172D01*
X7175550Y3629710D01*
X7175093Y3616096D01*
X7176414Y3602532D01*
X7179614Y3589274D01*
X7184491Y3576523D01*
X7191044Y3564585D01*
X7199122Y3553612D01*
X7208621Y3543808D01*
X7219340Y3535324D01*
X7231075Y3528364D01*
X7243622Y3523081D01*
X7256780Y3519474D01*
G37*
G36*
X2190292Y3517646D02*
G01*
X2203907Y3517646D01*
X2217420Y3519474D01*
X2230577Y3523081D01*
X2243124Y3528364D01*
X2254859Y3535324D01*
X2265578Y3543808D01*
X2275078Y3553612D01*
X2283155Y3564585D01*
X2289708Y3576523D01*
X2294585Y3589274D01*
X2297785Y3602532D01*
X2299106Y3616096D01*
X2298649Y3629710D01*
X2296414Y3643172D01*
X2292350Y3656177D01*
X2286609Y3668572D01*
X2279294Y3680053D01*
X2270506Y3690467D01*
X2260346Y3699611D01*
X2249119Y3707333D01*
X2236978Y3713479D01*
X2224074Y3717950D01*
X2210714Y3720693D01*
X2197100Y3721608D01*
X2183485Y3720693D01*
X2170125Y3717950D01*
X2157222Y3713479D01*
X2145080Y3707333D01*
X2133854Y3699611D01*
X2123694Y3690467D01*
X2114905Y3680053D01*
X2107590Y3668572D01*
X2101850Y3656177D01*
X2097786Y3643172D01*
X2095550Y3629710D01*
X2095093Y3616096D01*
X2096414Y3602532D01*
X2099614Y3589274D01*
X2104491Y3576523D01*
X2111044Y3564585D01*
X2119122Y3553612D01*
X2128621Y3543808D01*
X2139340Y3535324D01*
X2151075Y3528364D01*
X2163622Y3523081D01*
X2176780Y3519474D01*
G37*
G36*
X6508292Y3517646D02*
G01*
X6521907Y3517646D01*
X6535420Y3519474D01*
X6548577Y3523081D01*
X6561124Y3528364D01*
X6572859Y3535324D01*
X6583578Y3543808D01*
X6593078Y3553612D01*
X6601155Y3564585D01*
X6607708Y3576523D01*
X6612585Y3589274D01*
X6615785Y3602532D01*
X6617106Y3616096D01*
X6616649Y3629710D01*
X6614414Y3643172D01*
X6610350Y3656177D01*
X6604609Y3668572D01*
X6597294Y3680053D01*
X6588506Y3690467D01*
X6578346Y3699611D01*
X6567119Y3707333D01*
X6554978Y3713479D01*
X6542074Y3717950D01*
X6528714Y3720693D01*
X6515100Y3721608D01*
X6501485Y3720693D01*
X6488125Y3717950D01*
X6475222Y3713479D01*
X6463080Y3707333D01*
X6451854Y3699611D01*
X6441694Y3690467D01*
X6432905Y3680053D01*
X6425590Y3668572D01*
X6419850Y3656177D01*
X6415786Y3643172D01*
X6413550Y3629710D01*
X6413093Y3616096D01*
X6414414Y3602532D01*
X6417614Y3589274D01*
X6422491Y3576523D01*
X6429044Y3564585D01*
X6437122Y3553612D01*
X6446621Y3543808D01*
X6457340Y3535324D01*
X6469075Y3528364D01*
X6481622Y3523081D01*
X6494780Y3519474D01*
G37*
G36*
X6000292Y3517646D02*
G01*
X6013907Y3517646D01*
X6027420Y3519474D01*
X6040577Y3523081D01*
X6053124Y3528364D01*
X6064859Y3535324D01*
X6075578Y3543808D01*
X6085078Y3553612D01*
X6093155Y3564585D01*
X6099708Y3576523D01*
X6104585Y3589274D01*
X6107785Y3602532D01*
X6109106Y3616096D01*
X6108649Y3629710D01*
X6106414Y3643172D01*
X6102350Y3656177D01*
X6096609Y3668572D01*
X6089294Y3680053D01*
X6080506Y3690467D01*
X6070346Y3699611D01*
X6059119Y3707333D01*
X6046978Y3713479D01*
X6034074Y3717950D01*
X6020714Y3720693D01*
X6007100Y3721608D01*
X5993485Y3720693D01*
X5980125Y3717950D01*
X5967222Y3713479D01*
X5955080Y3707333D01*
X5943854Y3699611D01*
X5933694Y3690467D01*
X5924905Y3680053D01*
X5917590Y3668572D01*
X5911850Y3656177D01*
X5907786Y3643172D01*
X5905550Y3629710D01*
X5905093Y3616096D01*
X5906414Y3602532D01*
X5909614Y3589274D01*
X5914491Y3576523D01*
X5921044Y3564585D01*
X5929122Y3553612D01*
X5938621Y3543808D01*
X5949340Y3535324D01*
X5961075Y3528364D01*
X5973622Y3523081D01*
X5986780Y3519474D01*
G37*
G36*
X6254292Y3517646D02*
G01*
X6267907Y3517646D01*
X6281420Y3519474D01*
X6294577Y3523081D01*
X6307124Y3528364D01*
X6318859Y3535324D01*
X6329578Y3543808D01*
X6339078Y3553612D01*
X6347155Y3564585D01*
X6353708Y3576523D01*
X6358585Y3589274D01*
X6361785Y3602532D01*
X6363106Y3616096D01*
X6362649Y3629710D01*
X6360414Y3643172D01*
X6356350Y3656177D01*
X6350609Y3668572D01*
X6343294Y3680053D01*
X6334506Y3690467D01*
X6324346Y3699611D01*
X6313119Y3707333D01*
X6300978Y3713479D01*
X6288074Y3717950D01*
X6274714Y3720693D01*
X6261100Y3721608D01*
X6247485Y3720693D01*
X6234125Y3717950D01*
X6221222Y3713479D01*
X6209080Y3707333D01*
X6197854Y3699611D01*
X6187694Y3690467D01*
X6178905Y3680053D01*
X6171590Y3668572D01*
X6165850Y3656177D01*
X6161786Y3643172D01*
X6159550Y3629710D01*
X6159093Y3616096D01*
X6160414Y3602532D01*
X6163614Y3589274D01*
X6168491Y3576523D01*
X6175044Y3564585D01*
X6183122Y3553612D01*
X6192621Y3543808D01*
X6203340Y3535324D01*
X6215075Y3528364D01*
X6227622Y3523081D01*
X6240780Y3519474D01*
G37*
G36*
X7016292Y3517646D02*
G01*
X7029907Y3517646D01*
X7043420Y3519474D01*
X7056577Y3523081D01*
X7069124Y3528364D01*
X7080859Y3535324D01*
X7091578Y3543808D01*
X7101078Y3553612D01*
X7109155Y3564585D01*
X7115708Y3576523D01*
X7120585Y3589274D01*
X7123785Y3602532D01*
X7125106Y3616096D01*
X7124649Y3629710D01*
X7122414Y3643172D01*
X7118350Y3656177D01*
X7112609Y3668572D01*
X7105294Y3680053D01*
X7096506Y3690467D01*
X7086346Y3699611D01*
X7075119Y3707333D01*
X7062978Y3713479D01*
X7050074Y3717950D01*
X7036714Y3720693D01*
X7023100Y3721608D01*
X7009485Y3720693D01*
X6996125Y3717950D01*
X6983222Y3713479D01*
X6971080Y3707333D01*
X6959853Y3699611D01*
X6949694Y3690467D01*
X6940905Y3680053D01*
X6933590Y3668572D01*
X6927850Y3656177D01*
X6923786Y3643172D01*
X6921550Y3629710D01*
X6921093Y3616096D01*
X6922414Y3602532D01*
X6925614Y3589274D01*
X6930491Y3576523D01*
X6937044Y3564585D01*
X6945122Y3553612D01*
X6954621Y3543808D01*
X6965340Y3535324D01*
X6977075Y3528364D01*
X6989622Y3523081D01*
X7002780Y3519474D01*
G37*
G36*
X640080Y680821D02*
G01*
X640080Y728980D01*
X591921Y728980D01*
X595172Y722376D01*
X602792Y710996D01*
X611835Y700735D01*
X622096Y691692D01*
X633476Y684072D01*
G37*
G36*
X1428292Y3517646D02*
G01*
X1441907Y3517646D01*
X1455420Y3519474D01*
X1468577Y3523081D01*
X1481124Y3528364D01*
X1492859Y3535324D01*
X1503578Y3543808D01*
X1513078Y3553612D01*
X1521155Y3564585D01*
X1527708Y3576523D01*
X1532585Y3589274D01*
X1535785Y3602532D01*
X1537106Y3616096D01*
X1536649Y3629710D01*
X1534414Y3643172D01*
X1530350Y3656177D01*
X1524609Y3668572D01*
X1517294Y3680053D01*
X1508506Y3690467D01*
X1498346Y3699611D01*
X1487119Y3707333D01*
X1474978Y3713479D01*
X1462074Y3717950D01*
X1448714Y3720693D01*
X1435100Y3721608D01*
X1421485Y3720693D01*
X1408125Y3717950D01*
X1395222Y3713479D01*
X1383080Y3707333D01*
X1371854Y3699611D01*
X1361694Y3690467D01*
X1352905Y3680053D01*
X1345590Y3668572D01*
X1339850Y3656177D01*
X1335786Y3643172D01*
X1333550Y3629710D01*
X1333093Y3616096D01*
X1334414Y3602532D01*
X1337614Y3589274D01*
X1342491Y3576523D01*
X1349044Y3564585D01*
X1357122Y3553612D01*
X1366621Y3543808D01*
X1377340Y3535324D01*
X1389075Y3528364D01*
X1401622Y3523081D01*
X1414780Y3519474D01*
G37*
G36*
X1682292Y3517646D02*
G01*
X1695907Y3517646D01*
X1709420Y3519474D01*
X1722577Y3523081D01*
X1735124Y3528364D01*
X1746859Y3535324D01*
X1757578Y3543808D01*
X1767078Y3553612D01*
X1775155Y3564585D01*
X1781708Y3576523D01*
X1786585Y3589274D01*
X1789785Y3602532D01*
X1791106Y3616096D01*
X1790649Y3629710D01*
X1788414Y3643172D01*
X1784350Y3656177D01*
X1778609Y3668572D01*
X1771294Y3680053D01*
X1762506Y3690467D01*
X1752346Y3699611D01*
X1741119Y3707333D01*
X1728978Y3713479D01*
X1716074Y3717950D01*
X1702714Y3720693D01*
X1689100Y3721608D01*
X1675485Y3720693D01*
X1662125Y3717950D01*
X1649222Y3713479D01*
X1637080Y3707333D01*
X1625854Y3699611D01*
X1615694Y3690467D01*
X1606905Y3680053D01*
X1599590Y3668572D01*
X1593850Y3656177D01*
X1589786Y3643172D01*
X1587550Y3629710D01*
X1587093Y3616096D01*
X1588414Y3602532D01*
X1591614Y3589274D01*
X1596491Y3576523D01*
X1603044Y3564585D01*
X1611122Y3553612D01*
X1620621Y3543808D01*
X1631340Y3535324D01*
X1643075Y3528364D01*
X1655622Y3523081D01*
X1668780Y3519474D01*
G37*
G36*
X1174292Y3517646D02*
G01*
X1187907Y3517646D01*
X1201420Y3519474D01*
X1214577Y3523081D01*
X1227124Y3528364D01*
X1238859Y3535324D01*
X1249578Y3543808D01*
X1259078Y3553612D01*
X1267155Y3564585D01*
X1273708Y3576523D01*
X1278585Y3589274D01*
X1281785Y3602532D01*
X1283106Y3616096D01*
X1282649Y3629710D01*
X1280414Y3643172D01*
X1276350Y3656177D01*
X1270609Y3668572D01*
X1263294Y3680053D01*
X1254506Y3690467D01*
X1244346Y3699611D01*
X1233119Y3707333D01*
X1220978Y3713479D01*
X1208074Y3717950D01*
X1194714Y3720693D01*
X1181100Y3721608D01*
X1167485Y3720693D01*
X1154125Y3717950D01*
X1141222Y3713479D01*
X1129080Y3707333D01*
X1117854Y3699611D01*
X1107694Y3690467D01*
X1098905Y3680053D01*
X1091590Y3668572D01*
X1085850Y3656177D01*
X1081786Y3643172D01*
X1079550Y3629710D01*
X1079093Y3616096D01*
X1080414Y3602532D01*
X1083614Y3589274D01*
X1088491Y3576523D01*
X1095044Y3564585D01*
X1103122Y3553612D01*
X1112621Y3543808D01*
X1123340Y3535324D01*
X1135075Y3528364D01*
X1147622Y3523081D01*
X1160780Y3519474D01*
G37*
G36*
X9682530Y6151930D02*
G01*
X9777120Y6151930D01*
X9777120Y6220053D01*
X9776409Y6226352D01*
X9774478Y6231788D01*
X9771380Y6236716D01*
X9767316Y6240780D01*
X9762388Y6243878D01*
X9756952Y6245809D01*
X9750653Y6246520D01*
X9682530Y6246520D01*
G37*
G36*
X9425279Y6151930D02*
G01*
X9519869Y6151930D01*
X9519869Y6246520D01*
X9451746Y6246520D01*
X9445447Y6245809D01*
X9440011Y6243878D01*
X9435084Y6240780D01*
X9431020Y6236716D01*
X9427921Y6231788D01*
X9425990Y6226352D01*
X9425279Y6220053D01*
G37*
G36*
X2406650Y3527704D02*
G01*
X2406650Y3575050D01*
X2359304Y3575050D01*
X2365044Y3564585D01*
X2373122Y3553612D01*
X2382621Y3543808D01*
X2393340Y3535324D01*
X2405075Y3528364D01*
G37*
G36*
X7486650Y3527704D02*
G01*
X7486650Y3575050D01*
X7439304Y3575050D01*
X7445044Y3564585D01*
X7453122Y3553612D01*
X7462621Y3543808D01*
X7473340Y3535324D01*
X7485075Y3528364D01*
G37*
G36*
X2660650Y3527704D02*
G01*
X2660650Y3575050D01*
X2613304Y3575050D01*
X2619044Y3564585D01*
X2627122Y3553612D01*
X2636621Y3543808D01*
X2647340Y3535324D01*
X2659075Y3528364D01*
G37*
G36*
X7575550Y3527704D02*
G01*
X7577124Y3528364D01*
X7588859Y3535324D01*
X7599578Y3543808D01*
X7609078Y3553612D01*
X7617155Y3564585D01*
X7622895Y3575050D01*
X7575550Y3575050D01*
G37*
G36*
X2749550Y3527704D02*
G01*
X2751124Y3528364D01*
X2762859Y3535324D01*
X2773578Y3543808D01*
X2783078Y3553612D01*
X2791155Y3564585D01*
X2796895Y3575050D01*
X2749550Y3575050D01*
G37*
G36*
X2495550Y3527704D02*
G01*
X2497124Y3528364D01*
X2508859Y3535324D01*
X2519578Y3543808D01*
X2529078Y3553612D01*
X2537155Y3564585D01*
X2542895Y3575050D01*
X2495550Y3575050D01*
G37*
G36*
X4273092Y3530346D02*
G01*
X4286707Y3530346D01*
X4300220Y3532174D01*
X4313377Y3535781D01*
X4325924Y3541064D01*
X4337659Y3548024D01*
X4348378Y3556508D01*
X4357878Y3566312D01*
X4365955Y3577285D01*
X4372508Y3589223D01*
X4377385Y3601974D01*
X4380585Y3615232D01*
X4381906Y3628796D01*
X4381449Y3642410D01*
X4379214Y3655872D01*
X4375150Y3668877D01*
X4369409Y3681272D01*
X4362094Y3692753D01*
X4353306Y3703167D01*
X4343146Y3712311D01*
X4331919Y3720033D01*
X4319778Y3726179D01*
X4306874Y3730650D01*
X4293514Y3733393D01*
X4279900Y3734308D01*
X4266285Y3733393D01*
X4252925Y3730650D01*
X4240022Y3726179D01*
X4227880Y3720033D01*
X4216654Y3712311D01*
X4206494Y3703167D01*
X4197705Y3692753D01*
X4190390Y3681272D01*
X4184650Y3668877D01*
X4180586Y3655872D01*
X4178350Y3642410D01*
X4177893Y3628796D01*
X4179214Y3615232D01*
X4182414Y3601974D01*
X4187291Y3589223D01*
X4193844Y3577285D01*
X4201922Y3566312D01*
X4211421Y3556508D01*
X4222140Y3548024D01*
X4233875Y3541064D01*
X4246422Y3535781D01*
X4259580Y3532174D01*
G37*
G36*
X4527092Y3530346D02*
G01*
X4540707Y3530346D01*
X4554220Y3532174D01*
X4567377Y3535781D01*
X4579924Y3541064D01*
X4591659Y3548024D01*
X4602378Y3556508D01*
X4611878Y3566312D01*
X4619955Y3577285D01*
X4626508Y3589223D01*
X4631385Y3601974D01*
X4634585Y3615232D01*
X4635906Y3628796D01*
X4635449Y3642410D01*
X4633214Y3655872D01*
X4629150Y3668877D01*
X4623409Y3681272D01*
X4616094Y3692753D01*
X4607306Y3703167D01*
X4597146Y3712311D01*
X4585919Y3720033D01*
X4573778Y3726179D01*
X4560874Y3730650D01*
X4547514Y3733393D01*
X4533900Y3734308D01*
X4520285Y3733393D01*
X4506925Y3730650D01*
X4494022Y3726179D01*
X4481880Y3720033D01*
X4470654Y3712311D01*
X4460494Y3703167D01*
X4451705Y3692753D01*
X4444390Y3681272D01*
X4438650Y3668877D01*
X4434586Y3655872D01*
X4432350Y3642410D01*
X4431893Y3628796D01*
X4433214Y3615232D01*
X4436414Y3601974D01*
X4441291Y3589223D01*
X4447844Y3577285D01*
X4455922Y3566312D01*
X4465421Y3556508D01*
X4476140Y3548024D01*
X4487875Y3541064D01*
X4500422Y3535781D01*
X4513580Y3532174D01*
G37*
G36*
X3765092Y3530346D02*
G01*
X3778707Y3530346D01*
X3792220Y3532174D01*
X3805377Y3535781D01*
X3817924Y3541064D01*
X3829659Y3548024D01*
X3840378Y3556508D01*
X3849878Y3566312D01*
X3857955Y3577285D01*
X3864508Y3589223D01*
X3869385Y3601974D01*
X3872585Y3615232D01*
X3873906Y3628796D01*
X3873449Y3642410D01*
X3871214Y3655872D01*
X3867150Y3668877D01*
X3861409Y3681272D01*
X3854094Y3692753D01*
X3845306Y3703167D01*
X3835146Y3712311D01*
X3823919Y3720033D01*
X3811778Y3726179D01*
X3798874Y3730650D01*
X3785514Y3733393D01*
X3771900Y3734308D01*
X3758285Y3733393D01*
X3744925Y3730650D01*
X3732022Y3726179D01*
X3719880Y3720033D01*
X3708654Y3712311D01*
X3698494Y3703167D01*
X3689705Y3692753D01*
X3682390Y3681272D01*
X3676650Y3668877D01*
X3672586Y3655872D01*
X3670350Y3642410D01*
X3669893Y3628796D01*
X3671214Y3615232D01*
X3674414Y3601974D01*
X3679291Y3589223D01*
X3685844Y3577285D01*
X3693922Y3566312D01*
X3703421Y3556508D01*
X3714140Y3548024D01*
X3725875Y3541064D01*
X3738422Y3535781D01*
X3751579Y3532174D01*
G37*
G36*
X3511092Y3530346D02*
G01*
X3524707Y3530346D01*
X3538220Y3532174D01*
X3551377Y3535781D01*
X3563924Y3541064D01*
X3575659Y3548024D01*
X3586378Y3556508D01*
X3595878Y3566312D01*
X3603955Y3577285D01*
X3610508Y3589223D01*
X3615385Y3601974D01*
X3618585Y3615232D01*
X3619906Y3628796D01*
X3619449Y3642410D01*
X3617214Y3655872D01*
X3613150Y3668877D01*
X3607409Y3681272D01*
X3600094Y3692753D01*
X3591306Y3703167D01*
X3581146Y3712311D01*
X3569919Y3720033D01*
X3557778Y3726179D01*
X3544874Y3730650D01*
X3531514Y3733393D01*
X3517900Y3734308D01*
X3504285Y3733393D01*
X3490925Y3730650D01*
X3478022Y3726179D01*
X3465880Y3720033D01*
X3454654Y3712311D01*
X3444494Y3703167D01*
X3435705Y3692753D01*
X3428390Y3681272D01*
X3422650Y3668877D01*
X3418586Y3655872D01*
X3416350Y3642410D01*
X3415893Y3628796D01*
X3417214Y3615232D01*
X3420414Y3601974D01*
X3425291Y3589223D01*
X3431844Y3577285D01*
X3439922Y3566312D01*
X3449421Y3556508D01*
X3460140Y3548024D01*
X3471875Y3541064D01*
X3484422Y3535781D01*
X3497579Y3532174D01*
G37*
G36*
X5035092Y3530346D02*
G01*
X5048707Y3530346D01*
X5062220Y3532174D01*
X5075377Y3535781D01*
X5087924Y3541064D01*
X5099659Y3548024D01*
X5110378Y3556508D01*
X5119878Y3566312D01*
X5127955Y3577285D01*
X5134508Y3589223D01*
X5139385Y3601974D01*
X5142585Y3615232D01*
X5143906Y3628796D01*
X5143449Y3642410D01*
X5141214Y3655872D01*
X5137150Y3668877D01*
X5131409Y3681272D01*
X5124094Y3692753D01*
X5115306Y3703167D01*
X5105146Y3712311D01*
X5093919Y3720033D01*
X5081778Y3726179D01*
X5068874Y3730650D01*
X5055514Y3733393D01*
X5041900Y3734308D01*
X5028285Y3733393D01*
X5014925Y3730650D01*
X5002022Y3726179D01*
X4989880Y3720033D01*
X4978654Y3712311D01*
X4968494Y3703167D01*
X4959705Y3692753D01*
X4952390Y3681272D01*
X4946650Y3668877D01*
X4942586Y3655872D01*
X4940350Y3642410D01*
X4939893Y3628796D01*
X4941214Y3615232D01*
X4944414Y3601974D01*
X4949291Y3589223D01*
X4955844Y3577285D01*
X4963922Y3566312D01*
X4973421Y3556508D01*
X4984140Y3548024D01*
X4995875Y3541064D01*
X5008422Y3535781D01*
X5021580Y3532174D01*
G37*
G36*
X4019092Y3530346D02*
G01*
X4032707Y3530346D01*
X4046220Y3532174D01*
X4059377Y3535781D01*
X4071924Y3541064D01*
X4083659Y3548024D01*
X4094378Y3556508D01*
X4103878Y3566312D01*
X4111955Y3577285D01*
X4118508Y3589223D01*
X4123385Y3601974D01*
X4126585Y3615232D01*
X4127906Y3628796D01*
X4127449Y3642410D01*
X4125214Y3655872D01*
X4121150Y3668877D01*
X4115409Y3681272D01*
X4108094Y3692753D01*
X4099306Y3703167D01*
X4089146Y3712311D01*
X4077919Y3720033D01*
X4065778Y3726179D01*
X4052874Y3730650D01*
X4039514Y3733393D01*
X4025900Y3734308D01*
X4012285Y3733393D01*
X3998925Y3730650D01*
X3986022Y3726179D01*
X3973880Y3720033D01*
X3962654Y3712311D01*
X3952494Y3703167D01*
X3943705Y3692753D01*
X3936390Y3681272D01*
X3930650Y3668877D01*
X3926586Y3655872D01*
X3924350Y3642410D01*
X3923893Y3628796D01*
X3925214Y3615232D01*
X3928414Y3601974D01*
X3933291Y3589223D01*
X3939844Y3577285D01*
X3947922Y3566312D01*
X3957421Y3556508D01*
X3968140Y3548024D01*
X3979875Y3541064D01*
X3992422Y3535781D01*
X4005579Y3532174D01*
G37*
G36*
X8098028Y6068466D02*
G01*
X8098028Y6120841D01*
X8045703Y6120841D01*
X8047837Y6116370D01*
X8055609Y6104077D01*
X8064906Y6092850D01*
X8075523Y6082893D01*
X8087309Y6074359D01*
G37*
G36*
X4743450Y3540404D02*
G01*
X4743450Y3587750D01*
X4696104Y3587750D01*
X4701844Y3577285D01*
X4709922Y3566312D01*
X4719421Y3556508D01*
X4730140Y3548024D01*
X4741875Y3541064D01*
G37*
G36*
X4832350Y3540404D02*
G01*
X4833924Y3541064D01*
X4845659Y3548024D01*
X4856378Y3556508D01*
X4865878Y3566312D01*
X4873955Y3577285D01*
X4879695Y3587750D01*
X4832350Y3587750D01*
G37*
G36*
X2359456Y3663950D02*
G01*
X2406650Y3663950D01*
X2406650Y3711143D01*
X2399080Y3707333D01*
X2387854Y3699611D01*
X2377694Y3690467D01*
X2368905Y3680053D01*
X2361590Y3668572D01*
G37*
G36*
X7439456Y3663950D02*
G01*
X7486650Y3663950D01*
X7486650Y3711143D01*
X7479080Y3707333D01*
X7467853Y3699611D01*
X7457694Y3690467D01*
X7448905Y3680053D01*
X7441590Y3668572D01*
G37*
G36*
X2613456Y3663950D02*
G01*
X2660650Y3663950D01*
X2660650Y3711143D01*
X2653080Y3707333D01*
X2641854Y3699611D01*
X2631694Y3690467D01*
X2622905Y3680053D01*
X2615590Y3668572D01*
G37*
G36*
X2495550Y3663950D02*
G01*
X2542743Y3663950D01*
X2540609Y3668572D01*
X2533294Y3680053D01*
X2524506Y3690467D01*
X2514346Y3699611D01*
X2503119Y3707333D01*
X2495550Y3711143D01*
G37*
G36*
X2749550Y3663950D02*
G01*
X2796743Y3663950D01*
X2794609Y3668572D01*
X2787294Y3680053D01*
X2778506Y3690467D01*
X2768346Y3699611D01*
X2757119Y3707333D01*
X2749550Y3711143D01*
G37*
G36*
X7575550Y3663950D02*
G01*
X7622743Y3663950D01*
X7620609Y3668572D01*
X7613294Y3680053D01*
X7604506Y3690467D01*
X7594346Y3699611D01*
X7583119Y3707333D01*
X7575550Y3711143D01*
G37*
G36*
X4832350Y3676650D02*
G01*
X4879543Y3676650D01*
X4877409Y3681272D01*
X4870094Y3692753D01*
X4861306Y3703167D01*
X4851146Y3712311D01*
X4839919Y3720033D01*
X4832350Y3723843D01*
G37*
G36*
X4696256Y3676650D02*
G01*
X4743450Y3676650D01*
X4743450Y3723843D01*
X4735880Y3720033D01*
X4724654Y3712311D01*
X4714494Y3703167D01*
X4705705Y3692753D01*
X4698390Y3681272D01*
G37*
G36*
X1191818Y4149851D02*
G01*
X1348181Y4149851D01*
X1354480Y4150563D01*
X1359966Y4152493D01*
X1364843Y4155541D01*
X1368958Y4159656D01*
X1372006Y4164533D01*
X1373936Y4170019D01*
X1374648Y4176318D01*
X1374648Y4332681D01*
X1373936Y4338980D01*
X1372006Y4344466D01*
X1368958Y4349343D01*
X1364843Y4353458D01*
X1359966Y4356506D01*
X1354480Y4358436D01*
X1348181Y4359148D01*
X1191818Y4359148D01*
X1185519Y4358436D01*
X1180033Y4356506D01*
X1175156Y4353458D01*
X1171041Y4349343D01*
X1167993Y4344466D01*
X1166063Y4338980D01*
X1165352Y4332681D01*
X1165352Y4176318D01*
X1166063Y4170019D01*
X1167993Y4164533D01*
X1171041Y4159656D01*
X1175156Y4155541D01*
X1180033Y4152493D01*
X1185519Y4150563D01*
G37*
G36*
X8200745Y6068466D02*
G01*
X8211464Y6074359D01*
X8223250Y6082893D01*
X8233867Y6092850D01*
X8243163Y6104077D01*
X8250936Y6116370D01*
X8253069Y6120841D01*
X8200745Y6120841D01*
G37*
G36*
X7857591Y4287062D02*
G01*
X7872374Y4287520D01*
X7886953Y4289806D01*
X7901127Y4293870D01*
X7914741Y4299610D01*
X7927492Y4306976D01*
X7939278Y4315866D01*
X7949895Y4326128D01*
X7959140Y4337659D01*
X7966913Y4350207D01*
X7973059Y4363618D01*
X7977530Y4377639D01*
X7980273Y4392168D01*
X7981188Y4406900D01*
X7980273Y4421632D01*
X7977530Y4436160D01*
X7973059Y4450181D01*
X7966913Y4463592D01*
X7959140Y4476140D01*
X7949895Y4487672D01*
X7939278Y4497933D01*
X7927492Y4506823D01*
X7914741Y4514189D01*
X7901127Y4519930D01*
X7886953Y4523994D01*
X7872374Y4526280D01*
X7857591Y4526686D01*
X7842910Y4525365D01*
X7828483Y4522216D01*
X7814564Y4517288D01*
X7801356Y4510684D01*
X7789062Y4502556D01*
X7777835Y4492955D01*
X7767929Y4482033D01*
X7759395Y4469993D01*
X7752384Y4456988D01*
X7747050Y4443222D01*
X7743494Y4428947D01*
X7741666Y4414266D01*
X7741666Y4399534D01*
X7743494Y4384852D01*
X7747050Y4370578D01*
X7752384Y4356811D01*
X7759395Y4343806D01*
X7767929Y4331766D01*
X7777835Y4320844D01*
X7789062Y4311243D01*
X7801356Y4303115D01*
X7814564Y4296511D01*
X7828483Y4291584D01*
X7842910Y4288434D01*
G37*
G36*
X8619591Y4287062D02*
G01*
X8634374Y4287520D01*
X8648954Y4289806D01*
X8663127Y4293870D01*
X8676741Y4299610D01*
X8689492Y4306976D01*
X8701278Y4315866D01*
X8711895Y4326128D01*
X8721140Y4337659D01*
X8728913Y4350207D01*
X8735060Y4363618D01*
X8739530Y4377639D01*
X8742273Y4392168D01*
X8743188Y4406900D01*
X8742273Y4421632D01*
X8739530Y4436160D01*
X8735060Y4450181D01*
X8733637Y4453280D01*
X8732723Y4457242D01*
X8733434Y4461306D01*
X8735720Y4464710D01*
X8989263Y4718253D01*
X8992209Y4720336D01*
X8995664Y4721199D01*
X8999220Y4720844D01*
X9002420Y4719320D01*
X9007754Y4715459D01*
X9020505Y4708448D01*
X9034018Y4703064D01*
X9048140Y4699457D01*
X9062567Y4697628D01*
X9077096Y4697628D01*
X9091523Y4699457D01*
X9105646Y4703064D01*
X9119158Y4708448D01*
X9131909Y4715459D01*
X9143695Y4723993D01*
X9154312Y4733950D01*
X9163608Y4745177D01*
X9171381Y4757470D01*
X9177578Y4770628D01*
X9182100Y4784445D01*
X9184843Y4799076D01*
X9185706Y4813300D01*
X9184792Y4827828D01*
X9182100Y4842103D01*
X9177578Y4855972D01*
X9171381Y4869129D01*
X9163608Y4881422D01*
X9154312Y4892649D01*
X9143695Y4902606D01*
X9131909Y4911140D01*
X9119158Y4918151D01*
X9105646Y4923536D01*
X9091523Y4927142D01*
X9077096Y4928971D01*
X9062567Y4928971D01*
X9048140Y4927142D01*
X9034018Y4923536D01*
X9020505Y4918151D01*
X9007754Y4911140D01*
X8995968Y4902606D01*
X8985351Y4892649D01*
X8976055Y4881422D01*
X8968282Y4869129D01*
X8962085Y4855972D01*
X8957564Y4842103D01*
X8954871Y4827828D01*
X8953957Y4813300D01*
X8954922Y4798009D01*
X8954312Y4793792D01*
X8951976Y4790186D01*
X8681059Y4519269D01*
X8677757Y4517034D01*
X8673846Y4516272D01*
X8669934Y4517085D01*
X8663127Y4519930D01*
X8648954Y4523994D01*
X8634374Y4526280D01*
X8619591Y4526686D01*
X8604910Y4525365D01*
X8590483Y4522216D01*
X8576564Y4517288D01*
X8563356Y4510684D01*
X8551062Y4502556D01*
X8539835Y4492955D01*
X8529929Y4482033D01*
X8521395Y4469993D01*
X8514384Y4456988D01*
X8509050Y4443222D01*
X8505494Y4428947D01*
X8503666Y4414266D01*
X8503666Y4399534D01*
X8505494Y4384852D01*
X8509050Y4370578D01*
X8514384Y4356811D01*
X8521395Y4343806D01*
X8529929Y4331766D01*
X8539835Y4320844D01*
X8551062Y4311243D01*
X8563356Y4303115D01*
X8576564Y4296511D01*
X8590483Y4291584D01*
X8604910Y4288434D01*
G37*
G36*
X7642098Y6056528D02*
G01*
X7656677Y6056528D01*
X7671104Y6058357D01*
X7685176Y6061964D01*
X7698740Y6067348D01*
X7711490Y6074359D01*
X7723276Y6082893D01*
X7733842Y6092850D01*
X7743139Y6104077D01*
X7750962Y6116370D01*
X7757159Y6129528D01*
X7761630Y6143396D01*
X7764424Y6157925D01*
X7765897Y6161633D01*
X7768691Y6164427D01*
X7772400Y6165951D01*
X7776362Y6165951D01*
X7780070Y6164427D01*
X7782864Y6161633D01*
X7784388Y6157925D01*
X7787131Y6143396D01*
X7791653Y6129528D01*
X7797850Y6116370D01*
X7805623Y6104077D01*
X7814919Y6092850D01*
X7825536Y6082893D01*
X7837271Y6074359D01*
X7850022Y6067348D01*
X7863586Y6061964D01*
X7877657Y6058357D01*
X7892135Y6056528D01*
X7906664Y6056528D01*
X7921091Y6058357D01*
X7935214Y6061964D01*
X7948726Y6067348D01*
X7961477Y6074359D01*
X7973263Y6082893D01*
X7983880Y6092850D01*
X7993125Y6104077D01*
X8000949Y6116370D01*
X8007146Y6129528D01*
X8011617Y6143396D01*
X8014360Y6157671D01*
X8015274Y6172200D01*
X8014309Y6187084D01*
X8011617Y6201003D01*
X8007146Y6214872D01*
X8000949Y6228029D01*
X7993125Y6240322D01*
X7983880Y6251549D01*
X7973263Y6261506D01*
X7961477Y6270040D01*
X7948726Y6277051D01*
X7935214Y6282436D01*
X7921091Y6286042D01*
X7906664Y6287871D01*
X7892135Y6287871D01*
X7877657Y6286042D01*
X7863586Y6282436D01*
X7850022Y6277051D01*
X7837271Y6270040D01*
X7825536Y6261506D01*
X7814919Y6251549D01*
X7805623Y6240322D01*
X7797850Y6228029D01*
X7791653Y6214872D01*
X7787131Y6201003D01*
X7784388Y6186474D01*
X7782864Y6182766D01*
X7780070Y6179972D01*
X7776362Y6178448D01*
X7772400Y6178448D01*
X7768691Y6179972D01*
X7765897Y6182766D01*
X7764424Y6186474D01*
X7761630Y6201003D01*
X7757159Y6214872D01*
X7750962Y6228029D01*
X7743139Y6240322D01*
X7733842Y6251549D01*
X7723276Y6261506D01*
X7711490Y6270040D01*
X7698740Y6277051D01*
X7685176Y6282436D01*
X7671104Y6286042D01*
X7656677Y6287871D01*
X7642098Y6287871D01*
X7627670Y6286042D01*
X7613599Y6282436D01*
X7600035Y6277051D01*
X7587284Y6270040D01*
X7575499Y6261506D01*
X7564932Y6251549D01*
X7555636Y6240322D01*
X7547813Y6228029D01*
X7541615Y6214872D01*
X7537145Y6201003D01*
X7534402Y6186728D01*
X7533487Y6172200D01*
X7534402Y6157671D01*
X7537145Y6143396D01*
X7541615Y6129528D01*
X7547813Y6116370D01*
X7555636Y6104077D01*
X7564932Y6092850D01*
X7575499Y6082893D01*
X7587284Y6074359D01*
X7600035Y6067348D01*
X7613599Y6061964D01*
X7627670Y6058357D01*
G37*
G36*
X10035946Y5894679D02*
G01*
X10334853Y5894679D01*
X10341152Y5895390D01*
X10346588Y5897321D01*
X10351516Y5900420D01*
X10355580Y5904484D01*
X10358678Y5909411D01*
X10360609Y5914847D01*
X10361320Y5921146D01*
X10361320Y6220053D01*
X10360609Y6226352D01*
X10358678Y6231788D01*
X10355580Y6236716D01*
X10351516Y6240780D01*
X10346588Y6243878D01*
X10341152Y6245809D01*
X10334853Y6246520D01*
X10035946Y6246520D01*
X10029647Y6245809D01*
X10024211Y6243878D01*
X10019284Y6240780D01*
X10015220Y6236716D01*
X10012121Y6231788D01*
X10010190Y6226352D01*
X10009479Y6220053D01*
X10009479Y5921146D01*
X10010190Y5914847D01*
X10012121Y5909411D01*
X10015220Y5904484D01*
X10019284Y5900420D01*
X10024211Y5897321D01*
X10029647Y5895390D01*
G37*
G36*
X9682530Y5894679D02*
G01*
X9750653Y5894679D01*
X9756952Y5895390D01*
X9762388Y5897321D01*
X9767316Y5900420D01*
X9771380Y5904484D01*
X9774478Y5909411D01*
X9776409Y5914847D01*
X9777120Y5921146D01*
X9777120Y5989269D01*
X9682530Y5989269D01*
G37*
G36*
X9451746Y5894679D02*
G01*
X9519869Y5894679D01*
X9519869Y5989269D01*
X9425279Y5989269D01*
X9425279Y5921146D01*
X9425990Y5914847D01*
X9427921Y5909411D01*
X9431020Y5904484D01*
X9435084Y5900420D01*
X9440011Y5897321D01*
X9445447Y5895390D01*
G37*
G36*
X9268663Y4709566D02*
G01*
X9268663Y4761941D01*
X9216339Y4761941D01*
X9218472Y4757470D01*
X9226245Y4745177D01*
X9235541Y4733950D01*
X9246158Y4723993D01*
X9257944Y4715459D01*
G37*
G36*
X9371380Y4709566D02*
G01*
X9382099Y4715459D01*
X9393885Y4723993D01*
X9404502Y4733950D01*
X9413798Y4745177D01*
X9421571Y4757470D01*
X9423704Y4761941D01*
X9371380Y4761941D01*
G37*
G36*
X8778646Y5881979D02*
G01*
X9077553Y5881979D01*
X9083852Y5882690D01*
X9089288Y5884621D01*
X9094216Y5887720D01*
X9098280Y5891784D01*
X9101378Y5896711D01*
X9103309Y5902147D01*
X9104020Y5908446D01*
X9104020Y6207353D01*
X9103309Y6213652D01*
X9101378Y6219088D01*
X9098280Y6224016D01*
X9094216Y6228080D01*
X9089288Y6231178D01*
X9083852Y6233109D01*
X9077553Y6233820D01*
X8778646Y6233820D01*
X8772347Y6233109D01*
X8766911Y6231178D01*
X8761984Y6228080D01*
X8757920Y6224016D01*
X8754821Y6219088D01*
X8752890Y6213652D01*
X8752179Y6207353D01*
X8752179Y5908446D01*
X8752890Y5902147D01*
X8754821Y5896711D01*
X8757920Y5891784D01*
X8761984Y5887720D01*
X8766911Y5884621D01*
X8772347Y5882690D01*
G37*
G36*
X1246378Y4750511D02*
G01*
X1276959Y4750511D01*
X1276959Y4807559D01*
X1219911Y4807559D01*
X1219911Y4776978D01*
X1220622Y4770628D01*
X1222502Y4765192D01*
X1225600Y4760264D01*
X1229664Y4756200D01*
X1234592Y4753102D01*
X1240028Y4751222D01*
G37*
G36*
X1364640Y4750511D02*
G01*
X1395222Y4750511D01*
X1401572Y4751222D01*
X1407007Y4753102D01*
X1411935Y4756200D01*
X1415999Y4760264D01*
X1419098Y4765192D01*
X1420977Y4770628D01*
X1421688Y4776978D01*
X1421688Y4807559D01*
X1364640Y4807559D01*
G37*
G36*
X992378Y4750511D02*
G01*
X1141222Y4750511D01*
X1147572Y4751222D01*
X1153007Y4753102D01*
X1157935Y4756200D01*
X1161999Y4760264D01*
X1165098Y4765192D01*
X1166977Y4770628D01*
X1167688Y4776978D01*
X1167688Y4925822D01*
X1166977Y4932172D01*
X1165098Y4937607D01*
X1161999Y4942535D01*
X1157935Y4946599D01*
X1153007Y4949698D01*
X1147572Y4951577D01*
X1141222Y4952288D01*
X992378Y4952288D01*
X986028Y4951577D01*
X980592Y4949698D01*
X975664Y4946599D01*
X971600Y4942535D01*
X968502Y4937607D01*
X966622Y4932172D01*
X965911Y4925822D01*
X965911Y4776978D01*
X966622Y4770628D01*
X968502Y4765192D01*
X971600Y4760264D01*
X975664Y4756200D01*
X980592Y4753102D01*
X986028Y4751222D01*
G37*
G36*
X2770378Y4750511D02*
G01*
X2919222Y4750511D01*
X2925572Y4751222D01*
X2931007Y4753102D01*
X2935935Y4756200D01*
X2939999Y4760264D01*
X2943098Y4765192D01*
X2944977Y4770628D01*
X2945688Y4776978D01*
X2945688Y4925822D01*
X2944977Y4932172D01*
X2943098Y4937607D01*
X2939999Y4942535D01*
X2935935Y4946599D01*
X2931007Y4949698D01*
X2925572Y4951577D01*
X2919222Y4952288D01*
X2770378Y4952288D01*
X2764028Y4951577D01*
X2758592Y4949698D01*
X2753664Y4946599D01*
X2749600Y4942535D01*
X2746502Y4937607D01*
X2744622Y4932172D01*
X2743911Y4925822D01*
X2743911Y4776978D01*
X2744622Y4770628D01*
X2746502Y4765192D01*
X2749600Y4760264D01*
X2753664Y4756200D01*
X2758592Y4753102D01*
X2764028Y4751222D01*
G37*
G36*
X2262378Y4750511D02*
G01*
X2411222Y4750511D01*
X2417572Y4751222D01*
X2423007Y4753102D01*
X2427935Y4756200D01*
X2431999Y4760264D01*
X2435098Y4765192D01*
X2436977Y4770628D01*
X2437688Y4776978D01*
X2437688Y4893513D01*
X2438501Y4897374D01*
X2440686Y4900676D01*
X2472537Y4932527D01*
X2475839Y4934762D01*
X2479751Y4935524D01*
X2483612Y4934762D01*
X2486914Y4932527D01*
X2489098Y4929276D01*
X2489911Y4925364D01*
X2489911Y4776978D01*
X2490622Y4770628D01*
X2492502Y4765192D01*
X2495600Y4760264D01*
X2499664Y4756200D01*
X2504592Y4753102D01*
X2510028Y4751222D01*
X2516378Y4750511D01*
X2665222Y4750511D01*
X2671572Y4751222D01*
X2677007Y4753102D01*
X2681935Y4756200D01*
X2685999Y4760264D01*
X2689098Y4765192D01*
X2690977Y4770628D01*
X2691688Y4776978D01*
X2691688Y4925822D01*
X2690977Y4932172D01*
X2689098Y4937607D01*
X2685999Y4942535D01*
X2681935Y4946599D01*
X2677007Y4949698D01*
X2671572Y4951577D01*
X2665222Y4952288D01*
X2516835Y4952288D01*
X2512923Y4953101D01*
X2509672Y4955286D01*
X2507437Y4958588D01*
X2506675Y4962448D01*
X2507437Y4966360D01*
X2509672Y4969662D01*
X2692704Y5152694D01*
X2696006Y5154930D01*
X2699918Y5155692D01*
X3618992Y5155692D01*
X3627018Y5156504D01*
X3634232Y5158689D01*
X3640937Y5162245D01*
X3647135Y5167376D01*
X4026204Y5546394D01*
X4029506Y5548630D01*
X4033418Y5549392D01*
X6431381Y5549392D01*
X6435293Y5548630D01*
X6438595Y5546394D01*
X6677406Y5307634D01*
X6679336Y5304891D01*
X6680301Y5301691D01*
X6680809Y5297678D01*
X6684416Y5283606D01*
X6689750Y5270042D01*
X6696760Y5257292D01*
X6705346Y5245506D01*
X6715302Y5234940D01*
X6726529Y5225643D01*
X6738772Y5217820D01*
X6751980Y5211622D01*
X6765798Y5207152D01*
X6780428Y5204409D01*
X6794652Y5203494D01*
X6809130Y5204409D01*
X6823456Y5207152D01*
X6837273Y5211622D01*
X6850481Y5217820D01*
X6862724Y5225643D01*
X6873951Y5234940D01*
X6883908Y5245506D01*
X6892493Y5257292D01*
X6899503Y5270042D01*
X6904837Y5283606D01*
X6908444Y5297678D01*
X6910273Y5312105D01*
X6910273Y5326684D01*
X6908444Y5341112D01*
X6904837Y5355183D01*
X6899503Y5368747D01*
X6892493Y5381498D01*
X6883908Y5393283D01*
X6873951Y5403850D01*
X6862724Y5413146D01*
X6850481Y5420969D01*
X6837273Y5427167D01*
X6823456Y5431637D01*
X6809130Y5434380D01*
X6794652Y5435295D01*
X6780123Y5434380D01*
X6765798Y5431637D01*
X6751980Y5427167D01*
X6738772Y5420969D01*
X6726529Y5413146D01*
X6715302Y5403850D01*
X6710375Y5398617D01*
X6707073Y5396280D01*
X6703110Y5395417D01*
X6699148Y5396179D01*
X6695795Y5398414D01*
X6479235Y5614924D01*
X6473037Y5620054D01*
X6466332Y5623610D01*
X6459118Y5625795D01*
X6451092Y5626608D01*
X4013708Y5626608D01*
X4005681Y5625795D01*
X3998468Y5623610D01*
X3991762Y5620054D01*
X3985564Y5614924D01*
X3606495Y5235905D01*
X3603193Y5233670D01*
X3599281Y5232908D01*
X2680208Y5232908D01*
X2672181Y5232095D01*
X2664968Y5229910D01*
X2658262Y5226354D01*
X2652064Y5221224D01*
X2386076Y4955286D01*
X2382774Y4953101D01*
X2378913Y4952288D01*
X2262378Y4952288D01*
X2256028Y4951577D01*
X2250592Y4949698D01*
X2245664Y4946599D01*
X2241600Y4942535D01*
X2238502Y4937607D01*
X2236622Y4932172D01*
X2235911Y4925822D01*
X2235911Y4776978D01*
X2236622Y4770628D01*
X2238502Y4765192D01*
X2241600Y4760264D01*
X2245664Y4756200D01*
X2250592Y4753102D01*
X2256028Y4751222D01*
G37*
G36*
X2770378Y5766511D02*
G01*
X2919222Y5766511D01*
X2925572Y5767222D01*
X2931007Y5769102D01*
X2935935Y5772200D01*
X2939999Y5776264D01*
X2943098Y5781192D01*
X2944977Y5786628D01*
X2945688Y5792978D01*
X2945688Y5941822D01*
X2944977Y5948172D01*
X2943098Y5953607D01*
X2939999Y5958535D01*
X2935935Y5962599D01*
X2931007Y5965698D01*
X2925572Y5967577D01*
X2919222Y5968288D01*
X2770378Y5968288D01*
X2764028Y5967577D01*
X2758592Y5965698D01*
X2753664Y5962599D01*
X2749600Y5958535D01*
X2746502Y5953607D01*
X2744622Y5948172D01*
X2743911Y5941822D01*
X2743911Y5792978D01*
X2744622Y5786628D01*
X2746502Y5781192D01*
X2749600Y5776264D01*
X2753664Y5772200D01*
X2758592Y5769102D01*
X2764028Y5767222D01*
G37*
G36*
X2770378Y5512511D02*
G01*
X2919222Y5512511D01*
X2925572Y5513222D01*
X2931007Y5515102D01*
X2935935Y5518200D01*
X2939999Y5522264D01*
X2943098Y5527192D01*
X2944977Y5532628D01*
X2945688Y5538978D01*
X2945688Y5687822D01*
X2944977Y5694172D01*
X2943098Y5699607D01*
X2939999Y5704535D01*
X2935935Y5708599D01*
X2931007Y5711698D01*
X2925572Y5713577D01*
X2919222Y5714288D01*
X2770378Y5714288D01*
X2764028Y5713577D01*
X2758592Y5711698D01*
X2753664Y5708599D01*
X2749600Y5704535D01*
X2746502Y5699607D01*
X2744622Y5694172D01*
X2743911Y5687822D01*
X2743911Y5538978D01*
X2744622Y5532628D01*
X2746502Y5527192D01*
X2749600Y5522264D01*
X2753664Y5518200D01*
X2758592Y5515102D01*
X2764028Y5513222D01*
G37*
G36*
X2770378Y5258511D02*
G01*
X2919222Y5258511D01*
X2925572Y5259222D01*
X2931007Y5261102D01*
X2935935Y5264200D01*
X2939999Y5268264D01*
X2943098Y5273192D01*
X2944977Y5278628D01*
X2945688Y5284978D01*
X2945688Y5433822D01*
X2944977Y5440172D01*
X2943098Y5445607D01*
X2939999Y5450535D01*
X2935935Y5454599D01*
X2931007Y5457698D01*
X2925572Y5459577D01*
X2919222Y5460288D01*
X2770378Y5460288D01*
X2764028Y5459577D01*
X2758592Y5457698D01*
X2753664Y5454599D01*
X2749600Y5450535D01*
X2746502Y5445607D01*
X2744622Y5440172D01*
X2743911Y5433822D01*
X2743911Y5284978D01*
X2744622Y5278628D01*
X2746502Y5273192D01*
X2749600Y5268264D01*
X2753664Y5264200D01*
X2758592Y5261102D01*
X2764028Y5259222D01*
G37*
G36*
X9216339Y4864658D02*
G01*
X9268663Y4864658D01*
X9268663Y4917033D01*
X9257944Y4911140D01*
X9246158Y4902606D01*
X9235541Y4892649D01*
X9226245Y4881422D01*
X9218472Y4869129D01*
G37*
G36*
X9371380Y4864658D02*
G01*
X9423704Y4864658D01*
X9421571Y4869129D01*
X9413798Y4881422D01*
X9404502Y4892649D01*
X9393885Y4902606D01*
X9382099Y4911140D01*
X9371380Y4917033D01*
G37*
G36*
X1364640Y4895240D02*
G01*
X1421688Y4895240D01*
X1421688Y4925822D01*
X1420977Y4932172D01*
X1419098Y4937607D01*
X1415999Y4942535D01*
X1411935Y4946599D01*
X1407007Y4949698D01*
X1401572Y4951577D01*
X1395222Y4952288D01*
X1364640Y4952288D01*
G37*
G36*
X1219911Y4895240D02*
G01*
X1276959Y4895240D01*
X1276959Y4952288D01*
X1246378Y4952288D01*
X1240028Y4951577D01*
X1234592Y4949698D01*
X1229664Y4946599D01*
X1225600Y4942535D01*
X1222502Y4937607D01*
X1220622Y4932172D01*
X1219911Y4925822D01*
G37*
G36*
X7759852Y5203494D02*
G01*
X7774330Y5204409D01*
X7788656Y5207152D01*
X7802473Y5211622D01*
X7815681Y5217820D01*
X7827924Y5225643D01*
X7839151Y5234940D01*
X7849108Y5245506D01*
X7857693Y5257292D01*
X7864703Y5270042D01*
X7870037Y5283606D01*
X7873644Y5297678D01*
X7875473Y5312105D01*
X7875473Y5326684D01*
X7873644Y5341112D01*
X7870037Y5355183D01*
X7864703Y5368747D01*
X7857693Y5381498D01*
X7849108Y5393283D01*
X7839151Y5403850D01*
X7827924Y5413146D01*
X7815681Y5420969D01*
X7802473Y5427167D01*
X7788656Y5431637D01*
X7774330Y5434380D01*
X7759852Y5435295D01*
X7745323Y5434380D01*
X7730998Y5431637D01*
X7717180Y5427167D01*
X7703972Y5420969D01*
X7691729Y5413146D01*
X7680502Y5403850D01*
X7670546Y5393283D01*
X7661960Y5381498D01*
X7654950Y5368747D01*
X7649616Y5355183D01*
X7646009Y5341112D01*
X7644180Y5326684D01*
X7644180Y5312105D01*
X7646009Y5297678D01*
X7649616Y5283606D01*
X7654950Y5270042D01*
X7661960Y5257292D01*
X7670546Y5245506D01*
X7680502Y5234940D01*
X7691729Y5225643D01*
X7703972Y5217820D01*
X7717180Y5211622D01*
X7730998Y5207152D01*
X7745628Y5204409D01*
G37*
G36*
X5842152Y5203494D02*
G01*
X5856630Y5204409D01*
X5870956Y5207152D01*
X5884773Y5211622D01*
X5897981Y5217820D01*
X5910224Y5225643D01*
X5921451Y5234940D01*
X5931408Y5245506D01*
X5939993Y5257292D01*
X5947003Y5270042D01*
X5952337Y5283606D01*
X5955944Y5297678D01*
X5957773Y5312105D01*
X5957773Y5326684D01*
X5955944Y5341112D01*
X5952337Y5355183D01*
X5947003Y5368747D01*
X5939993Y5381498D01*
X5931408Y5393283D01*
X5921451Y5403850D01*
X5910224Y5413146D01*
X5897981Y5420969D01*
X5884773Y5427167D01*
X5870956Y5431637D01*
X5856630Y5434380D01*
X5842152Y5435295D01*
X5827623Y5434380D01*
X5813298Y5431637D01*
X5799480Y5427167D01*
X5786272Y5420969D01*
X5774029Y5413146D01*
X5762802Y5403850D01*
X5752846Y5393283D01*
X5744260Y5381498D01*
X5737250Y5368747D01*
X5731916Y5355183D01*
X5728309Y5341112D01*
X5726480Y5326684D01*
X5726480Y5312105D01*
X5728309Y5297678D01*
X5731916Y5283606D01*
X5737250Y5270042D01*
X5744260Y5257292D01*
X5752846Y5245506D01*
X5762802Y5234940D01*
X5774029Y5225643D01*
X5786272Y5217820D01*
X5799480Y5211622D01*
X5813298Y5207152D01*
X5827928Y5204409D01*
G37*
G36*
X5790793Y4965547D02*
G01*
X5790793Y5017871D01*
X5738368Y5017871D01*
X5744260Y5007102D01*
X5752846Y4995316D01*
X5762802Y4984750D01*
X5774029Y4975453D01*
X5786272Y4967630D01*
G37*
G36*
X6743293Y4965547D02*
G01*
X6743293Y5017871D01*
X6690868Y5017871D01*
X6696760Y5007102D01*
X6705346Y4995316D01*
X6715302Y4984750D01*
X6726529Y4975453D01*
X6738772Y4967630D01*
G37*
G36*
X4928260Y4965547D02*
G01*
X4932781Y4967630D01*
X4945024Y4975453D01*
X4956251Y4984750D01*
X4966208Y4995316D01*
X4974793Y5007102D01*
X4980686Y5017871D01*
X4928260Y5017871D01*
G37*
G36*
X5893460Y4965547D02*
G01*
X5897981Y4967630D01*
X5910224Y4975453D01*
X5921451Y4984750D01*
X5931408Y4995316D01*
X5939993Y5007102D01*
X5945886Y5017871D01*
X5893460Y5017871D01*
G37*
G36*
X6845960Y4965547D02*
G01*
X6850481Y4967630D01*
X6862724Y4975453D01*
X6873951Y4984750D01*
X6883908Y4995316D01*
X6892493Y5007102D01*
X6898386Y5017871D01*
X6845960Y5017871D01*
G37*
G36*
X4825593Y4965547D02*
G01*
X4825593Y5017871D01*
X4773168Y5017871D01*
X4779060Y5007102D01*
X4787646Y4995316D01*
X4797602Y4984750D01*
X4808829Y4975453D01*
X4821072Y4967630D01*
G37*
G36*
X7811160Y4965547D02*
G01*
X7815681Y4967630D01*
X7827924Y4975453D01*
X7839151Y4984750D01*
X7849108Y4995316D01*
X7857693Y5007102D01*
X7863586Y5017871D01*
X7811160Y5017871D01*
G37*
G36*
X7708493Y4965547D02*
G01*
X7708493Y5017871D01*
X7656068Y5017871D01*
X7661960Y5007102D01*
X7670546Y4995316D01*
X7680502Y4984750D01*
X7691729Y4975453D01*
X7703972Y4967630D01*
G37*
G36*
X5893460Y5120538D02*
G01*
X5945886Y5120538D01*
X5939993Y5131308D01*
X5931408Y5143093D01*
X5921451Y5153660D01*
X5910224Y5162956D01*
X5897981Y5170779D01*
X5893460Y5172862D01*
G37*
G36*
X5738368Y5120538D02*
G01*
X5790793Y5120538D01*
X5790793Y5172862D01*
X5786272Y5170779D01*
X5774029Y5162956D01*
X5762802Y5153660D01*
X5752846Y5143093D01*
X5744260Y5131308D01*
G37*
G36*
X4928260Y5120538D02*
G01*
X4980686Y5120538D01*
X4974793Y5131308D01*
X4966208Y5143093D01*
X4956251Y5153660D01*
X4945024Y5162956D01*
X4932781Y5170779D01*
X4928260Y5172862D01*
G37*
G36*
X6690868Y5120538D02*
G01*
X6743293Y5120538D01*
X6743293Y5172862D01*
X6738772Y5170779D01*
X6726529Y5162956D01*
X6715302Y5153660D01*
X6705346Y5143093D01*
X6696760Y5131308D01*
G37*
G36*
X7656068Y5120538D02*
G01*
X7708493Y5120538D01*
X7708493Y5172862D01*
X7703972Y5170779D01*
X7691729Y5162956D01*
X7680502Y5153660D01*
X7670546Y5143093D01*
X7661960Y5131308D01*
G37*
G36*
X6845960Y5120538D02*
G01*
X6898386Y5120538D01*
X6892493Y5131308D01*
X6883908Y5143093D01*
X6873951Y5153660D01*
X6862724Y5162956D01*
X6850481Y5170779D01*
X6845960Y5172862D01*
G37*
G36*
X4773168Y5120538D02*
G01*
X4825593Y5120538D01*
X4825593Y5172862D01*
X4821072Y5170779D01*
X4808829Y5162956D01*
X4797602Y5153660D01*
X4787646Y5143093D01*
X4779060Y5131308D01*
G37*
G36*
X7811160Y5120538D02*
G01*
X7863586Y5120538D01*
X7857693Y5131308D01*
X7849108Y5143093D01*
X7839151Y5153660D01*
X7827924Y5162956D01*
X7815681Y5170779D01*
X7811160Y5172862D01*
G37*

%LPD*%
D10*
X2959100Y3619500D02*
G01*
X2768600Y3429000D01*
X965200Y3429000D01*
X800100Y3594100D01*
X800100Y6477000D01*
X889000Y6565900D01*
X1460500Y6565900D01*
X1574800Y6451600D01*
X1574800Y6388100D01*
X5295900Y3632200D02*
G01*
X4991100Y3327400D01*
X965200Y3327400D01*
X711200Y3581400D01*
X711200Y6477000D01*
X863600Y6629400D01*
X1549400Y6629400D01*
X1790700Y6388100D01*
X1828800Y6388100D01*
X10185400Y3606800D02*
G01*
X9690100Y3111500D01*
X939800Y3111500D01*
X546100Y3505200D01*
X546100Y6553200D01*
X800100Y6807200D01*
X2590800Y6807200D01*
X2844800Y6553200D01*
X2844800Y6388100D01*
X1828800Y4851400D02*
G01*
X2006600Y4673600D01*
X4584700Y4673600D01*
X4711700Y4800600D01*
X4711700Y5232400D01*
X4798695Y5319395D01*
X4876800Y5319395D01*
X2336800Y4851400D02*
G01*
X2679700Y5194300D01*
X3619500Y5194300D01*
X4013200Y5588000D01*
X6451600Y5588000D01*
X6720204Y5319395D01*
X6794500Y5319395D01*
X2082800Y6388100D02*
G01*
X1701800Y6007100D01*
X1701800Y4762500D01*
X2209800Y4254500D01*
X3238500Y4254500D01*
D11*
X2207691Y1168501D02*
G01*
X2207691Y1788591D01*
X2451100Y2032000D01*
X2451100Y2349500D01*
X4243811Y1168410D02*
G01*
X4243811Y1763288D01*
X4025900Y1981200D01*
X4025900Y2362200D01*
X6733011Y1168410D02*
G01*
X6733011Y1763288D01*
X6515100Y1981200D01*
X6515100Y2349500D01*
X9446798Y1168410D02*
G01*
X9446798Y1674398D01*
X9677400Y1905000D01*
X9677400Y2336800D01*
X6982968Y1168400D02*
G01*
X6982968Y1750568D01*
X7277100Y2044700D01*
X7277100Y2349500D01*
X9196831Y1168400D02*
G01*
X9196831Y1661668D01*
X8915400Y1943100D01*
X8915400Y2336800D01*
X4493768Y1168400D02*
G01*
X4493768Y1750568D01*
X4787900Y2044700D01*
X4787900Y2362200D01*
X1957704Y1168501D02*
G01*
X1957704Y1801495D01*
X1689100Y2070100D01*
X1689100Y2349500D01*
D10*
X7785100Y3619500D02*
G01*
X7391400Y3225800D01*
X965200Y3225800D01*
X635000Y3556000D01*
X635000Y6489700D01*
X850900Y6705600D01*
X2273300Y6705600D01*
X2590800Y6388100D01*
X8623300Y4406900D02*
G01*
X9029700Y4813300D01*
X9069704Y4813300D01*
D12*
G01*
X3721100Y6286500D03*
D13*
G01*
X3975100Y6286500D03*
D14*
G01*
X9069831Y4813300D03*
G01*
X9320022Y4813300D03*
G01*
X7759827Y5069204D03*
G01*
X7759827Y5319395D03*
G01*
X6794627Y5069204D03*
G01*
X6794627Y5319395D03*
G01*
X5842127Y5069204D03*
G01*
X5842127Y5319395D03*
G01*
X4876927Y5069204D03*
G01*
X4876927Y5319395D03*
D15*
G01*
X1066800Y4851400D03*
G01*
X1320800Y4851400D03*
G01*
X1574800Y4851400D03*
G01*
X1828800Y4851400D03*
G01*
X2082800Y4851400D03*
G01*
X2336800Y4851400D03*
G01*
X2590800Y4851400D03*
G01*
X2844800Y4851400D03*
G01*
X2844800Y6388100D03*
G01*
X2590800Y6388100D03*
G01*
X2336800Y6388100D03*
G01*
X2082800Y6388100D03*
G01*
X1828800Y6388100D03*
G01*
X1574800Y6388100D03*
G01*
X1320800Y6388100D03*
G01*
X1066800Y6388100D03*
G01*
X2844800Y5359400D03*
G01*
X2844800Y5613400D03*
G01*
X2844800Y5867400D03*
D14*
G01*
X7649413Y6172200D03*
G01*
X7899400Y6172200D03*
G01*
X8149412Y6172200D03*
G01*
X546100Y2251887D03*
G01*
X546100Y2501874D03*
G01*
X546100Y2751886D03*
D16*
G01*
X4743805Y1168400D03*
G01*
X4493793Y1168400D03*
G01*
X4243806Y1168400D03*
G01*
X3993794Y1168400D03*
G01*
X7233005Y1168400D03*
G01*
X6982993Y1168400D03*
G01*
X6733006Y1168400D03*
G01*
X6482994Y1168400D03*
G01*
X9696805Y1168400D03*
G01*
X9446793Y1168400D03*
G01*
X9196806Y1168400D03*
G01*
X8946794Y1168400D03*
D12*
G01*
X685800Y1536700D03*
D13*
G01*
X685800Y1282700D03*
G01*
X685800Y1028700D03*
G01*
X685800Y774700D03*
D17*
G01*
X7861300Y4406900D03*
G01*
X8623300Y4406900D03*
D12*
G01*
X3238500Y4254500D03*
G01*
X1270000Y4254500D03*
D16*
G01*
X2457704Y1168501D03*
G01*
X2207691Y1168501D03*
G01*
X1957704Y1168501D03*
G01*
X1707692Y1168501D03*
D18*
G01*
X1181100Y3619500D03*
G01*
X1435100Y3619500D03*
G01*
X1689100Y3619500D03*
G01*
X1943100Y3619500D03*
G01*
X2197100Y3619500D03*
G01*
X2451100Y3619500D03*
G01*
X2705100Y3619500D03*
G01*
X2959100Y3619500D03*
G01*
X2959100Y2349500D03*
G01*
X2705100Y2349500D03*
G01*
X2451100Y2349500D03*
G01*
X2197100Y2349500D03*
G01*
X1943100Y2349500D03*
G01*
X1689100Y2349500D03*
G01*
X1435100Y2349500D03*
G01*
X1181100Y2349500D03*
G01*
X3517900Y3632200D03*
G01*
X3771900Y3632200D03*
G01*
X4025900Y3632200D03*
G01*
X4279900Y3632200D03*
G01*
X4533900Y3632200D03*
G01*
X4787900Y3632200D03*
G01*
X5041900Y3632200D03*
G01*
X5295900Y3632200D03*
G01*
X5295900Y2362200D03*
G01*
X5041900Y2362200D03*
G01*
X4787900Y2362200D03*
G01*
X4533900Y2362200D03*
G01*
X4279900Y2362200D03*
G01*
X4025900Y2362200D03*
G01*
X3771900Y2362200D03*
G01*
X3517900Y2362200D03*
G01*
X6007100Y3619500D03*
G01*
X6261100Y3619500D03*
G01*
X6515100Y3619500D03*
G01*
X6769100Y3619500D03*
G01*
X7023100Y3619500D03*
G01*
X7277100Y3619500D03*
G01*
X7531100Y3619500D03*
G01*
X7785100Y3619500D03*
G01*
X7785100Y2349500D03*
G01*
X7531100Y2349500D03*
G01*
X7277100Y2349500D03*
G01*
X7023100Y2349500D03*
G01*
X6769100Y2349500D03*
G01*
X6515100Y2349500D03*
G01*
X6261100Y2349500D03*
G01*
X6007100Y2349500D03*
G01*
X8407400Y3606800D03*
G01*
X8661400Y3606800D03*
G01*
X8915400Y3606800D03*
G01*
X9169400Y3606800D03*
G01*
X9423400Y3606800D03*
G01*
X9677400Y3606800D03*
G01*
X9931400Y3606800D03*
G01*
X10185400Y3606800D03*
G01*
X10185400Y2336800D03*
G01*
X9931400Y2336800D03*
G01*
X9677400Y2336800D03*
G01*
X9423400Y2336800D03*
G01*
X9169400Y2336800D03*
G01*
X8915400Y2336800D03*
G01*
X8661400Y2336800D03*
G01*
X8407400Y2336800D03*
D19*
G01*
X8928100Y6057900D03*
G01*
X9601200Y6070600D03*
G01*
X10185400Y6070600D03*
M02*
