G04 Layer: TopPasteMaskLayer*
G04 EasyEDA v6.5.22, 2023-02-28 18:31:49*
G04 0f5abc17f4e243e5a26b6cc200d52bdd,5d2348555bc34ac8837521f0f1db218d,10*
G04 Gerber Generator version 0.2*
G04 Scale: 100 percent, Rotated: No, Reflected: No *
G04 Dimensions in millimeters *
G04 leading zeros omitted , absolute positions ,4 integer and 5 decimal *
%FSLAX45Y45*%
%MOMM*%

%ADD10C,0.0001*%

%LPD*%
G36*
X6751218Y6064808D02*
G01*
X6746189Y6059779D01*
X6746189Y5979820D01*
X6751218Y5974791D01*
X6831177Y5974791D01*
X6836206Y5979820D01*
X6836206Y6002578D01*
X6799224Y6002578D01*
X6799224Y6035598D01*
X6836206Y6035598D01*
X6836206Y6059779D01*
X6831177Y6064808D01*
G37*
G36*
X6911187Y6064808D02*
G01*
X6906209Y6059779D01*
X6906209Y6035598D01*
X6944207Y6035598D01*
X6944207Y6002578D01*
X6906209Y6002578D01*
X6906209Y5979820D01*
X6911187Y5974791D01*
X6990181Y5974791D01*
X6995210Y5979820D01*
X6995210Y6059779D01*
X6990181Y6064808D01*
G37*
G36*
X6179718Y6064808D02*
G01*
X6174689Y6059779D01*
X6174689Y5979820D01*
X6179718Y5974791D01*
X6259677Y5974791D01*
X6264706Y5979820D01*
X6264706Y6002578D01*
X6227724Y6002578D01*
X6227724Y6035598D01*
X6264706Y6035598D01*
X6264706Y6059779D01*
X6259677Y6064808D01*
G37*
G36*
X6339687Y6064808D02*
G01*
X6334709Y6059779D01*
X6334709Y6035598D01*
X6372707Y6035598D01*
X6372707Y6002578D01*
X6334709Y6002578D01*
X6334709Y5979820D01*
X6339687Y5974791D01*
X6418681Y5974791D01*
X6423710Y5979820D01*
X6423710Y6059779D01*
X6418681Y6064808D01*
G37*
G36*
X5582818Y6064808D02*
G01*
X5577789Y6059779D01*
X5577789Y5979820D01*
X5582818Y5974791D01*
X5662777Y5974791D01*
X5667806Y5979820D01*
X5667806Y6002578D01*
X5630824Y6002578D01*
X5630824Y6035598D01*
X5667806Y6035598D01*
X5667806Y6059779D01*
X5662777Y6064808D01*
G37*
G36*
X5742787Y6064808D02*
G01*
X5737809Y6059779D01*
X5737809Y6035598D01*
X5775807Y6035598D01*
X5775807Y6002578D01*
X5737809Y6002578D01*
X5737809Y5979820D01*
X5742787Y5974791D01*
X5821781Y5974791D01*
X5826810Y5979820D01*
X5826810Y6059779D01*
X5821781Y6064808D01*
G37*
G36*
X4820818Y6052108D02*
G01*
X4815789Y6047079D01*
X4815789Y5967120D01*
X4820818Y5962091D01*
X4900777Y5962091D01*
X4905806Y5967120D01*
X4905806Y5989878D01*
X4868824Y5989878D01*
X4868824Y6022898D01*
X4905806Y6022898D01*
X4905806Y6047079D01*
X4900777Y6052108D01*
G37*
G36*
X4980787Y6052108D02*
G01*
X4975809Y6047079D01*
X4975809Y6022898D01*
X5013807Y6022898D01*
X5013807Y5989878D01*
X4975809Y5989878D01*
X4975809Y5967120D01*
X4980787Y5962091D01*
X5059781Y5962091D01*
X5064810Y5967120D01*
X5064810Y6047079D01*
X5059781Y6052108D01*
G37*
G36*
X2325522Y4299508D02*
G01*
X2320493Y4294479D01*
X2320493Y4271721D01*
X2357475Y4271721D01*
X2357475Y4238701D01*
X2320493Y4238701D01*
X2320493Y4214520D01*
X2325522Y4209491D01*
X2405481Y4209491D01*
X2410510Y4214520D01*
X2410510Y4294479D01*
X2405481Y4299508D01*
G37*
G36*
X2166518Y4299508D02*
G01*
X2161489Y4294479D01*
X2161489Y4214520D01*
X2166518Y4209491D01*
X2245512Y4209491D01*
X2250490Y4214520D01*
X2250490Y4238701D01*
X2212492Y4238701D01*
X2212492Y4271721D01*
X2250490Y4271721D01*
X2250490Y4294479D01*
X2245512Y4299508D01*
G37*
M02*
