G04 Layer: TopSilkscreenLayer*
G04 EasyEDA v6.5.22, 2023-02-28 18:31:49*
G04 0f5abc17f4e243e5a26b6cc200d52bdd,5d2348555bc34ac8837521f0f1db218d,10*
G04 Gerber Generator version 0.2*
G04 Scale: 100 percent, Rotated: No, Reflected: No *
G04 Dimensions in millimeters *
G04 leading zeros omitted , absolute positions ,4 integer and 5 decimal *
%FSLAX45Y45*%
%MOMM*%

%ADD10C,0.2032*%
%ADD11C,0.1524*%
%ADD12C,0.1500*%
%ADD13C,0.3000*%
%ADD14C,0.2540*%
%ADD15C,0.2030*%
%ADD16C,0.0114*%

%LPD*%
G36*
X10703814Y2568702D02*
G01*
X10703814Y2501138D01*
X10666222Y2537053D01*
X10654792Y2547112D01*
X10649813Y2551125D01*
X10645140Y2554528D01*
X10640771Y2557272D01*
X10636554Y2559456D01*
X10632490Y2561132D01*
X10628477Y2562250D01*
X10624413Y2562910D01*
X10620248Y2563114D01*
X10615320Y2562860D01*
X10610646Y2562148D01*
X10606278Y2560980D01*
X10602264Y2559304D01*
X10598607Y2557068D01*
X10595356Y2554376D01*
X10592511Y2551125D01*
X10590123Y2547366D01*
X10588244Y2543098D01*
X10586872Y2538222D01*
X10586008Y2532786D01*
X10585704Y2526792D01*
X10586161Y2519680D01*
X10587532Y2512923D01*
X10589869Y2506675D01*
X10593120Y2501036D01*
X10597235Y2496210D01*
X10602315Y2492248D01*
X10608310Y2489352D01*
X10615168Y2487676D01*
X10617708Y2489454D01*
X10619638Y2491638D01*
X10620857Y2494178D01*
X10621264Y2497074D01*
X10620603Y2500579D01*
X10618470Y2503474D01*
X10614609Y2505811D01*
X10608818Y2507742D01*
X10594594Y2511806D01*
X10593781Y2517495D01*
X10593578Y2522220D01*
X10594086Y2527401D01*
X10595559Y2532075D01*
X10597896Y2536139D01*
X10601147Y2539593D01*
X10605160Y2542336D01*
X10609884Y2544419D01*
X10615269Y2545638D01*
X10621264Y2546096D01*
X10627055Y2545689D01*
X10632846Y2544419D01*
X10638790Y2542286D01*
X10644936Y2539288D01*
X10651337Y2535377D01*
X10658144Y2530551D01*
X10665460Y2524810D01*
X10706608Y2488692D01*
X10718800Y2488692D01*
X10718800Y2568702D01*
G37*
G36*
X10626598Y2477262D02*
G01*
X10626598Y2441448D01*
X10632948Y2441448D01*
X10635488Y2457450D01*
X10700512Y2434844D01*
X10634980Y2409952D01*
X10632948Y2426970D01*
X10626598Y2426970D01*
X10626598Y2380234D01*
X10632948Y2380234D01*
X10634472Y2391410D01*
X10720070Y2426462D01*
X10720070Y2434336D01*
X10635488Y2466340D01*
X10632948Y2477262D01*
G37*
G36*
X10684256Y2326894D02*
G01*
X10678007Y2326436D01*
X10672165Y2325014D01*
X10666882Y2322626D01*
X10662158Y2319223D01*
X10658043Y2314854D01*
X10654588Y2309418D01*
X10651896Y2302967D01*
X10649966Y2295398D01*
X10647578Y2301697D01*
X10644682Y2307183D01*
X10641279Y2311908D01*
X10637367Y2315768D01*
X10633049Y2318816D01*
X10628274Y2321052D01*
X10623143Y2322372D01*
X10617708Y2322830D01*
X10610850Y2322169D01*
X10604652Y2320239D01*
X10599216Y2317140D01*
X10594543Y2312873D01*
X10590784Y2307590D01*
X10588040Y2301290D01*
X10586313Y2294077D01*
X10585704Y2286000D01*
X10586110Y2279497D01*
X10587278Y2273300D01*
X10589260Y2267610D01*
X10592003Y2262530D01*
X10595508Y2258060D01*
X10599826Y2254351D01*
X10604957Y2251506D01*
X10610850Y2249678D01*
X10614050Y2251303D01*
X10616184Y2253386D01*
X10617352Y2255926D01*
X10617708Y2258822D01*
X10616996Y2262835D01*
X10614812Y2265781D01*
X10611053Y2268016D01*
X10594594Y2273046D01*
X10593984Y2275636D01*
X10593578Y2280310D01*
X10593984Y2287879D01*
X10595203Y2292654D01*
X10597184Y2296769D01*
X10599928Y2300224D01*
X10603433Y2302967D01*
X10607700Y2304948D01*
X10612729Y2306167D01*
X10618470Y2306574D01*
X10624667Y2306066D01*
X10630103Y2304592D01*
X10634776Y2302205D01*
X10638637Y2298903D01*
X10641685Y2294839D01*
X10643870Y2289962D01*
X10645190Y2284374D01*
X10645648Y2278126D01*
X10645648Y2270506D01*
X10654538Y2270506D01*
X10654538Y2279650D01*
X10655046Y2286711D01*
X10656570Y2292858D01*
X10659059Y2298039D01*
X10662412Y2302306D01*
X10666628Y2305608D01*
X10671708Y2307996D01*
X10677499Y2309418D01*
X10684002Y2309876D01*
X10690301Y2309368D01*
X10696041Y2307894D01*
X10701121Y2305507D01*
X10705439Y2302205D01*
X10708944Y2298039D01*
X10711535Y2293061D01*
X10713161Y2287270D01*
X10713720Y2280666D01*
X10713466Y2275179D01*
X10712450Y2269490D01*
X10695025Y2264410D01*
X10691063Y2262276D01*
X10688777Y2259431D01*
X10688066Y2255520D01*
X10688472Y2252624D01*
X10689590Y2250084D01*
X10691469Y2247900D01*
X10694162Y2246122D01*
X10700816Y2247950D01*
X10706455Y2250744D01*
X10711129Y2254402D01*
X10714888Y2258872D01*
X10717784Y2264105D01*
X10719765Y2269998D01*
X10720933Y2276449D01*
X10721340Y2283460D01*
X10721035Y2289759D01*
X10720070Y2295652D01*
X10718546Y2301189D01*
X10716463Y2306218D01*
X10713872Y2310841D01*
X10710824Y2314905D01*
X10707268Y2318410D01*
X10703356Y2321407D01*
X10699038Y2323744D01*
X10694416Y2325471D01*
X10689488Y2326538D01*
G37*
G36*
X10703814Y2229612D02*
G01*
X10703814Y2162048D01*
X10666222Y2197963D01*
X10654792Y2208022D01*
X10649813Y2212035D01*
X10645140Y2215438D01*
X10640771Y2218182D01*
X10636554Y2220366D01*
X10632490Y2222042D01*
X10628477Y2223160D01*
X10624413Y2223820D01*
X10620248Y2224024D01*
X10615320Y2223770D01*
X10610646Y2223058D01*
X10606278Y2221890D01*
X10602264Y2220214D01*
X10598607Y2217978D01*
X10595356Y2215286D01*
X10592511Y2212035D01*
X10590123Y2208276D01*
X10588244Y2204008D01*
X10586872Y2199132D01*
X10586008Y2193696D01*
X10585704Y2187702D01*
X10586161Y2180590D01*
X10587532Y2173833D01*
X10589869Y2167585D01*
X10593120Y2161946D01*
X10597235Y2157120D01*
X10602315Y2153158D01*
X10608310Y2150262D01*
X10615168Y2148586D01*
X10617708Y2150364D01*
X10619638Y2152497D01*
X10620857Y2155088D01*
X10621264Y2157984D01*
X10620603Y2161489D01*
X10618470Y2164384D01*
X10614609Y2166721D01*
X10608818Y2168652D01*
X10594594Y2172716D01*
X10593781Y2178405D01*
X10593578Y2183130D01*
X10594086Y2188362D01*
X10595559Y2193086D01*
X10597896Y2197150D01*
X10601147Y2200605D01*
X10605160Y2203348D01*
X10609884Y2205329D01*
X10615269Y2206599D01*
X10621264Y2207006D01*
X10627055Y2206599D01*
X10632846Y2205329D01*
X10638790Y2203196D01*
X10644936Y2200198D01*
X10651337Y2196287D01*
X10658144Y2191461D01*
X10665460Y2185720D01*
X10706608Y2149602D01*
X10718800Y2149602D01*
X10718800Y2229612D01*
G37*
G36*
X10580624Y2139188D02*
G01*
X10580624Y2129028D01*
X10749788Y2076704D01*
X10749788Y2087372D01*
G37*
G36*
X10703814Y2068068D02*
G01*
X10703814Y2000504D01*
X10666222Y2036419D01*
X10654792Y2046478D01*
X10649813Y2050491D01*
X10645140Y2053894D01*
X10640771Y2056638D01*
X10636554Y2058822D01*
X10632490Y2060498D01*
X10628477Y2061616D01*
X10624413Y2062276D01*
X10620248Y2062480D01*
X10615320Y2062225D01*
X10610646Y2061514D01*
X10606278Y2060346D01*
X10602264Y2058670D01*
X10598607Y2056434D01*
X10595356Y2053742D01*
X10592511Y2050491D01*
X10590123Y2046732D01*
X10588244Y2042464D01*
X10586872Y2037588D01*
X10586008Y2032152D01*
X10585704Y2026157D01*
X10586161Y2019046D01*
X10587532Y2012289D01*
X10589869Y2006041D01*
X10593120Y2000402D01*
X10597235Y1995576D01*
X10602315Y1991614D01*
X10608310Y1988718D01*
X10615168Y1987042D01*
X10617708Y1988820D01*
X10619638Y1990953D01*
X10620857Y1993544D01*
X10621264Y1996439D01*
X10620603Y1999945D01*
X10618470Y2002840D01*
X10614609Y2005177D01*
X10608818Y2007107D01*
X10594594Y2011172D01*
X10593781Y2016861D01*
X10593578Y2021586D01*
X10594086Y2026767D01*
X10595559Y2031441D01*
X10597896Y2035505D01*
X10601147Y2038959D01*
X10605160Y2041702D01*
X10609884Y2043785D01*
X10615269Y2045004D01*
X10621264Y2045462D01*
X10627055Y2045055D01*
X10632846Y2043785D01*
X10638790Y2041652D01*
X10644936Y2038654D01*
X10651337Y2034743D01*
X10658144Y2029917D01*
X10665460Y2024176D01*
X10706608Y1988057D01*
X10718800Y1988057D01*
X10718800Y2068068D01*
G37*
G36*
X10703814Y1970278D02*
G01*
X10703814Y1902714D01*
X10679938Y1925828D01*
X10666222Y1938782D01*
X10654792Y1948840D01*
X10649813Y1952853D01*
X10645140Y1956257D01*
X10640771Y1959051D01*
X10636554Y1961235D01*
X10632490Y1962912D01*
X10628477Y1964080D01*
X10624413Y1964740D01*
X10620248Y1964943D01*
X10612932Y1964385D01*
X10606278Y1962759D01*
X10600385Y1960016D01*
X10595356Y1956104D01*
X10591292Y1951075D01*
X10588244Y1944776D01*
X10586364Y1937308D01*
X10585704Y1928622D01*
X10586161Y1921408D01*
X10587532Y1914601D01*
X10589869Y1908302D01*
X10593120Y1902663D01*
X10597235Y1897837D01*
X10602315Y1893925D01*
X10608310Y1891131D01*
X10615168Y1889506D01*
X10617708Y1891131D01*
X10619638Y1893366D01*
X10620857Y1895957D01*
X10621264Y1898904D01*
X10620603Y1902307D01*
X10618470Y1905203D01*
X10614609Y1907641D01*
X10608818Y1909572D01*
X10594594Y1913382D01*
X10593781Y1919071D01*
X10593578Y1924050D01*
X10594086Y1929231D01*
X10595559Y1933854D01*
X10597896Y1937867D01*
X10601147Y1941271D01*
X10605160Y1944014D01*
X10609884Y1945995D01*
X10615269Y1947265D01*
X10621264Y1947672D01*
X10627055Y1947265D01*
X10632846Y1945995D01*
X10638790Y1943862D01*
X10644936Y1940864D01*
X10651337Y1936953D01*
X10658144Y1932127D01*
X10665460Y1926386D01*
X10684967Y1909521D01*
X10706608Y1890268D01*
X10718800Y1890268D01*
X10718800Y1970278D01*
G37*
G36*
X10652760Y1872742D02*
G01*
X10643971Y1872488D01*
X10635894Y1871827D01*
X10628477Y1870760D01*
X10621721Y1869287D01*
X10615574Y1867458D01*
X10610088Y1865325D01*
X10605211Y1862836D01*
X10600944Y1860143D01*
X10597235Y1857197D01*
X10594086Y1853996D01*
X10591444Y1850643D01*
X10589310Y1847138D01*
X10587736Y1843481D01*
X10586567Y1839772D01*
X10585907Y1835962D01*
X10585704Y1832102D01*
X10593578Y1832102D01*
X10593832Y1835048D01*
X10594695Y1837943D01*
X10596219Y1840738D01*
X10598454Y1843379D01*
X10601553Y1845868D01*
X10605566Y1848154D01*
X10610494Y1850136D01*
X10616539Y1851863D01*
X10623702Y1853285D01*
X10632084Y1854352D01*
X10641736Y1855012D01*
X10652760Y1855216D01*
X10664088Y1855012D01*
X10674045Y1854352D01*
X10682630Y1853285D01*
X10689996Y1851863D01*
X10696194Y1850136D01*
X10701324Y1848154D01*
X10705439Y1845868D01*
X10708640Y1843379D01*
X10710976Y1840738D01*
X10712551Y1837943D01*
X10713466Y1835048D01*
X10713720Y1832102D01*
X10713466Y1829003D01*
X10712551Y1826006D01*
X10711027Y1823161D01*
X10708690Y1820468D01*
X10705541Y1817928D01*
X10701426Y1815642D01*
X10696346Y1813560D01*
X10690148Y1811832D01*
X10682732Y1810410D01*
X10674096Y1809343D01*
X10664139Y1808683D01*
X10652760Y1808480D01*
X10641736Y1808683D01*
X10632084Y1809343D01*
X10623702Y1810410D01*
X10616539Y1811832D01*
X10610494Y1813560D01*
X10605566Y1815642D01*
X10601553Y1817928D01*
X10598454Y1820468D01*
X10596219Y1823161D01*
X10594695Y1826006D01*
X10593832Y1829003D01*
X10593578Y1832102D01*
X10585704Y1832102D01*
X10585907Y1828190D01*
X10586567Y1824380D01*
X10587736Y1820570D01*
X10589310Y1816912D01*
X10591444Y1813407D01*
X10594086Y1810004D01*
X10597235Y1806803D01*
X10600944Y1803857D01*
X10605211Y1801114D01*
X10610088Y1798675D01*
X10615574Y1796491D01*
X10621721Y1794662D01*
X10628477Y1793189D01*
X10635894Y1792122D01*
X10643971Y1791462D01*
X10652760Y1791207D01*
X10661802Y1791462D01*
X10670133Y1792122D01*
X10677753Y1793189D01*
X10684713Y1794662D01*
X10690961Y1796491D01*
X10696549Y1798675D01*
X10701528Y1801114D01*
X10705896Y1803857D01*
X10709706Y1806803D01*
X10712907Y1810004D01*
X10715548Y1813407D01*
X10717682Y1816912D01*
X10719308Y1820570D01*
X10720476Y1824380D01*
X10721136Y1828190D01*
X10721340Y1832102D01*
X10721136Y1835962D01*
X10720476Y1839772D01*
X10719308Y1843481D01*
X10717682Y1847138D01*
X10715548Y1850643D01*
X10712907Y1853996D01*
X10709706Y1857197D01*
X10705896Y1860143D01*
X10701528Y1862836D01*
X10696549Y1865325D01*
X10690961Y1867458D01*
X10684713Y1869287D01*
X10677753Y1870760D01*
X10670133Y1871827D01*
X10661802Y1872488D01*
G37*
G36*
X10703814Y1775206D02*
G01*
X10703814Y1707642D01*
X10666222Y1743557D01*
X10654792Y1753616D01*
X10649813Y1757629D01*
X10645140Y1761032D01*
X10640771Y1763775D01*
X10636554Y1765960D01*
X10632490Y1767636D01*
X10628477Y1768754D01*
X10624413Y1769414D01*
X10620248Y1769618D01*
X10615320Y1769364D01*
X10610646Y1768652D01*
X10606278Y1767484D01*
X10602264Y1765807D01*
X10598607Y1763572D01*
X10595356Y1760880D01*
X10592511Y1757629D01*
X10590123Y1753870D01*
X10588244Y1749602D01*
X10586872Y1744725D01*
X10586008Y1739290D01*
X10585704Y1733296D01*
X10586161Y1726184D01*
X10587532Y1719427D01*
X10589869Y1713179D01*
X10593120Y1707540D01*
X10597235Y1702714D01*
X10602315Y1698752D01*
X10608310Y1695856D01*
X10615168Y1694180D01*
X10617708Y1695957D01*
X10619638Y1698142D01*
X10620857Y1700682D01*
X10621264Y1703578D01*
X10620603Y1707083D01*
X10618470Y1709978D01*
X10614609Y1712315D01*
X10608818Y1714246D01*
X10594594Y1718310D01*
X10593781Y1723999D01*
X10593578Y1728724D01*
X10594086Y1733905D01*
X10595559Y1738579D01*
X10597896Y1742643D01*
X10601147Y1746097D01*
X10605160Y1748840D01*
X10609884Y1750923D01*
X10615269Y1752142D01*
X10621264Y1752600D01*
X10627055Y1752193D01*
X10632846Y1750923D01*
X10638790Y1748789D01*
X10644936Y1745792D01*
X10651337Y1741881D01*
X10658144Y1737055D01*
X10665460Y1731314D01*
X10706608Y1695196D01*
X10718800Y1695196D01*
X10718800Y1775206D01*
G37*
G36*
X10711942Y1638300D02*
G01*
X10710164Y1622806D01*
X10587482Y1580896D01*
X10587482Y1570228D01*
X10607548Y1570228D01*
X10668000Y1590548D01*
X10668000Y1550416D01*
X10607548Y1570228D01*
X10587482Y1570228D01*
X10587482Y1569466D01*
X10709656Y1528064D01*
X10711942Y1512316D01*
X10718800Y1512316D01*
X10718800Y1555750D01*
X10711942Y1555750D01*
X10709656Y1536700D01*
X10675620Y1547876D01*
X10675620Y1593088D01*
X10709656Y1604518D01*
X10711942Y1585214D01*
X10718800Y1585214D01*
X10718800Y1638300D01*
G37*
G36*
X10588498Y1501902D02*
G01*
X10588498Y1464564D01*
X10696702Y1422400D01*
X10588498Y1378458D01*
X10588498Y1342898D01*
X10595356Y1342898D01*
X10597388Y1360678D01*
X10709656Y1360424D01*
X10711942Y1342898D01*
X10718800Y1342898D01*
X10718800Y1386332D01*
X10711942Y1386332D01*
X10709656Y1369568D01*
X10646613Y1369517D01*
X10607040Y1368552D01*
X10718800Y1414018D01*
X10718800Y1422400D01*
X10606786Y1466342D01*
X10710164Y1465834D01*
X10711942Y1448816D01*
X10718800Y1448816D01*
X10718800Y1501902D01*
X10711942Y1501902D01*
X10710164Y1483868D01*
X10684306Y1483664D01*
X10616387Y1483664D01*
X10597134Y1483868D01*
X10595356Y1501902D01*
G37*
G36*
X10656824Y1332484D02*
G01*
X10656824Y1281684D01*
X10663428Y1281684D01*
X10665206Y1302258D01*
X10709148Y1302766D01*
X10710976Y1297330D01*
X10712246Y1291945D01*
X10712958Y1286510D01*
X10713212Y1280922D01*
X10712958Y1275435D01*
X10712196Y1270203D01*
X10710926Y1265275D01*
X10709148Y1260652D01*
X10706912Y1256334D01*
X10704169Y1252321D01*
X10700969Y1248664D01*
X10697362Y1245311D01*
X10693298Y1242314D01*
X10688828Y1239672D01*
X10683900Y1237437D01*
X10678617Y1235557D01*
X10672876Y1234084D01*
X10666831Y1233017D01*
X10660329Y1232357D01*
X10653522Y1232154D01*
X10646613Y1232408D01*
X10640110Y1233068D01*
X10633964Y1234236D01*
X10628274Y1235760D01*
X10622991Y1237742D01*
X10618063Y1240078D01*
X10613644Y1242771D01*
X10609630Y1245819D01*
X10606024Y1249172D01*
X10602925Y1252880D01*
X10600232Y1256842D01*
X10598048Y1261110D01*
X10596321Y1265580D01*
X10595102Y1270304D01*
X10594340Y1275283D01*
X10594086Y1280414D01*
X10594441Y1286306D01*
X10595457Y1291894D01*
X10597184Y1297178D01*
X10599674Y1302258D01*
X10623804Y1307084D01*
X10623804Y1317752D01*
X10595102Y1317244D01*
X10592816Y1313180D01*
X10590784Y1308963D01*
X10589158Y1304544D01*
X10587786Y1299921D01*
X10586770Y1294993D01*
X10586008Y1289812D01*
X10585602Y1284274D01*
X10585450Y1278382D01*
X10585653Y1272590D01*
X10586313Y1267002D01*
X10587329Y1261618D01*
X10588752Y1256487D01*
X10590530Y1251508D01*
X10592714Y1246835D01*
X10595203Y1242364D01*
X10598048Y1238148D01*
X10601248Y1234236D01*
X10604703Y1230579D01*
X10608513Y1227226D01*
X10612577Y1224178D01*
X10616895Y1221435D01*
X10621467Y1218996D01*
X10626293Y1216964D01*
X10631322Y1215237D01*
X10636605Y1213866D01*
X10642041Y1212900D01*
X10647680Y1212291D01*
X10653522Y1212088D01*
X10659414Y1212291D01*
X10665104Y1212850D01*
X10670641Y1213815D01*
X10675924Y1215186D01*
X10681004Y1216863D01*
X10685830Y1218895D01*
X10690402Y1221282D01*
X10694720Y1223975D01*
X10698734Y1226972D01*
X10702493Y1230325D01*
X10705947Y1233932D01*
X10709097Y1237843D01*
X10711942Y1242009D01*
X10714431Y1246428D01*
X10716564Y1251102D01*
X10718342Y1256030D01*
X10719765Y1261160D01*
X10720781Y1266545D01*
X10721390Y1272082D01*
X10721594Y1277874D01*
X10721390Y1283665D01*
X10720832Y1289202D01*
X10719866Y1294587D01*
X10718546Y1299819D01*
X10716920Y1304950D01*
X10712704Y1315008D01*
X10710164Y1320038D01*
X10664444Y1320546D01*
X10663428Y1332484D01*
G37*
G36*
X10684256Y1195324D02*
G01*
X10684256Y1185672D01*
X10710164Y1180592D01*
X10710164Y1130554D01*
X10656316Y1130300D01*
X10656316Y1159764D01*
X10675112Y1162304D01*
X10675112Y1170432D01*
X10629392Y1170432D01*
X10629392Y1162304D01*
X10648696Y1159510D01*
X10648696Y1130300D01*
X10596880Y1130554D01*
X10596880Y1176782D01*
X10622788Y1181862D01*
X10622788Y1191514D01*
X10588498Y1190498D01*
X10588498Y1093978D01*
X10595356Y1093978D01*
X10597134Y1112012D01*
X10616387Y1112418D01*
X10671556Y1112520D01*
X10697362Y1112316D01*
X10710164Y1112012D01*
X10711942Y1093978D01*
X10718800Y1093978D01*
X10718800Y1194308D01*
G37*
G36*
X10588498Y1076452D02*
G01*
X10588498Y1021842D01*
X10595356Y1021842D01*
X10597134Y1039876D01*
X10616387Y1040282D01*
X10671556Y1040384D01*
X10697362Y1040180D01*
X10710164Y1039876D01*
X10711942Y1021842D01*
X10718800Y1021842D01*
X10718800Y1076452D01*
X10711942Y1076452D01*
X10709910Y1058418D01*
X10677804Y1058164D01*
X10597134Y1058418D01*
X10595356Y1076452D01*
G37*
G36*
X10684764Y1006602D02*
G01*
X10678160Y1006144D01*
X10672216Y1004671D01*
X10666831Y1002182D01*
X10661904Y998524D01*
X10657382Y993698D01*
X10653115Y987552D01*
X10649051Y980033D01*
X10645140Y971042D01*
X10639958Y958138D01*
X10637621Y953719D01*
X10634980Y949909D01*
X10632084Y946810D01*
X10628782Y944321D01*
X10625175Y942543D01*
X10621162Y941425D01*
X10616692Y941069D01*
X10611408Y941578D01*
X10606836Y943152D01*
X10602976Y945591D01*
X10599775Y948842D01*
X10597286Y952855D01*
X10595508Y957478D01*
X10594441Y962609D01*
X10594086Y968248D01*
X10594289Y972616D01*
X10594949Y976579D01*
X10596118Y980338D01*
X10597896Y983996D01*
X10621264Y989076D01*
X10621264Y999236D01*
X10595864Y1000506D01*
X10591546Y993698D01*
X10588294Y986231D01*
X10586161Y977849D01*
X10585450Y968502D01*
X10585704Y962456D01*
X10586516Y956716D01*
X10587888Y951331D01*
X10589717Y946302D01*
X10592054Y941679D01*
X10594898Y937564D01*
X10598200Y933907D01*
X10601909Y930859D01*
X10606125Y928369D01*
X10610748Y926592D01*
X10615828Y925474D01*
X10621264Y925068D01*
X10628223Y925677D01*
X10634421Y927506D01*
X10640009Y930402D01*
X10644987Y934313D01*
X10649407Y939190D01*
X10653369Y944880D01*
X10656925Y951382D01*
X10665714Y972058D01*
X10668304Y977188D01*
X10670946Y981456D01*
X10673791Y984859D01*
X10676940Y987450D01*
X10680446Y989228D01*
X10684357Y990244D01*
X10688828Y990600D01*
X10694416Y990041D01*
X10699292Y988364D01*
X10703458Y985672D01*
X10706912Y982014D01*
X10709656Y977493D01*
X10711637Y972159D01*
X10712805Y966114D01*
X10713212Y959358D01*
X10712907Y953516D01*
X10712043Y948334D01*
X10710519Y943610D01*
X10708386Y939037D01*
X10684002Y933958D01*
X10684002Y924052D01*
X10711434Y922782D01*
X10713466Y926337D01*
X10715396Y930351D01*
X10717123Y934770D01*
X10718596Y939495D01*
X10719866Y944524D01*
X10720781Y949756D01*
X10721390Y955141D01*
X10721594Y960628D01*
X10721289Y967181D01*
X10720476Y973378D01*
X10719104Y979169D01*
X10717174Y984503D01*
X10714786Y989380D01*
X10711840Y993698D01*
X10708436Y997508D01*
X10704576Y1000658D01*
X10700258Y1003198D01*
X10695533Y1005078D01*
X10690352Y1006195D01*
G37*
G36*
X10580370Y6465316D02*
G01*
X10577271Y6462979D01*
X10574985Y6459626D01*
X10573512Y6455562D01*
X10573004Y6451092D01*
X10573461Y6447078D01*
X10574731Y6443065D01*
X10576814Y6439154D01*
X10579709Y6435344D01*
X10583316Y6431737D01*
X10587685Y6428384D01*
X10592714Y6425336D01*
X10598404Y6422644D01*
X10575036Y6420866D01*
X10573258Y6418072D01*
X10583926Y6390640D01*
X10589768Y6390640D01*
X10591292Y6406134D01*
X10602976Y6406591D01*
X10659872Y6406388D01*
X10661904Y6392164D01*
X10668000Y6392164D01*
X10668000Y6439408D01*
X10661904Y6439408D01*
X10659618Y6423406D01*
X10627106Y6422898D01*
X10611866Y6422898D01*
X10603585Y6425996D01*
X10596626Y6429806D01*
X10590784Y6434378D01*
X10585958Y6439916D01*
X10588244Y6442202D01*
X10590479Y6444945D01*
X10592155Y6447790D01*
X10593222Y6450838D01*
X10593578Y6454140D01*
X10592663Y6459220D01*
X10590022Y6462674D01*
X10585856Y6464655D01*
G37*
G36*
X10610088Y6375146D02*
G01*
X10604550Y6374841D01*
X10599420Y6373876D01*
X10594644Y6372402D01*
X10590326Y6370370D01*
X10586415Y6367780D01*
X10582960Y6364782D01*
X10580014Y6361277D01*
X10577525Y6357416D01*
X10575594Y6353200D01*
X10574172Y6348577D01*
X10573308Y6343700D01*
X10573056Y6337808D01*
X10580624Y6337808D01*
X10581081Y6342380D01*
X10582452Y6346545D01*
X10584586Y6350203D01*
X10587329Y6353352D01*
X10590733Y6355892D01*
X10594543Y6357823D01*
X10598759Y6358991D01*
X10603230Y6359398D01*
X10607598Y6358940D01*
X10610951Y6357315D01*
X10613136Y6354064D01*
X10613898Y6348730D01*
X10613644Y6311392D01*
X10605566Y6312560D01*
X10598708Y6314592D01*
X10593019Y6317386D01*
X10588447Y6320790D01*
X10584992Y6324650D01*
X10582554Y6328918D01*
X10581081Y6333337D01*
X10580624Y6337808D01*
X10573056Y6337808D01*
X10573410Y6332677D01*
X10574578Y6326987D01*
X10576509Y6321552D01*
X10579201Y6316421D01*
X10582554Y6311696D01*
X10586516Y6307378D01*
X10591139Y6303568D01*
X10596372Y6300317D01*
X10602163Y6297726D01*
X10608462Y6295745D01*
X10615269Y6294526D01*
X10622534Y6294120D01*
X10629900Y6294475D01*
X10636656Y6295542D01*
X10642904Y6297320D01*
X10648543Y6299708D01*
X10653572Y6302705D01*
X10657941Y6306261D01*
X10661751Y6310426D01*
X10664850Y6315049D01*
X10667339Y6320180D01*
X10669117Y6325717D01*
X10670184Y6331712D01*
X10670540Y6338062D01*
X10670133Y6344208D01*
X10668965Y6349949D01*
X10667085Y6355232D01*
X10664494Y6360058D01*
X10661294Y6364427D01*
X10657484Y6368338D01*
X10653064Y6371742D01*
X10648188Y6374638D01*
X10645648Y6370828D01*
X10651388Y6365494D01*
X10655757Y6359398D01*
X10658602Y6352184D01*
X10659618Y6343396D01*
X10659008Y6336538D01*
X10657179Y6330340D01*
X10654131Y6324904D01*
X10649915Y6320231D01*
X10644428Y6316421D01*
X10637774Y6313627D01*
X10629849Y6311798D01*
X10620756Y6311138D01*
X10621010Y6373622D01*
X10618876Y6374282D01*
X10613390Y6375044D01*
G37*
G36*
X10661904Y6280404D02*
G01*
X10659872Y6264656D01*
X10643463Y6264452D01*
X10553192Y6264402D01*
X10525506Y6265164D01*
X10523982Y6262624D01*
X10527538Y6255258D01*
X10525150Y6251397D01*
X10523423Y6246571D01*
X10522305Y6241135D01*
X10521950Y6235446D01*
X10522458Y6228232D01*
X10524236Y6220764D01*
X10527538Y6213246D01*
X10532618Y6205728D01*
X10536275Y6202019D01*
X10540238Y6198920D01*
X10544606Y6196330D01*
X10549483Y6194247D01*
X10554868Y6192520D01*
X10560964Y6191148D01*
X10567720Y6190081D01*
X10575290Y6189218D01*
X10575798Y6185408D01*
X10575798Y6145784D01*
X10568686Y6145682D01*
X10562386Y6145834D01*
X10556798Y6146342D01*
X10551871Y6147054D01*
X10547604Y6148019D01*
X10543844Y6149238D01*
X10540542Y6150610D01*
X10537698Y6152134D01*
X10535361Y6153759D01*
X10533329Y6155537D01*
X10531551Y6157468D01*
X10530078Y6159500D01*
X10537190Y6168390D01*
X10539171Y6171895D01*
X10540339Y6175349D01*
X10540746Y6178804D01*
X10540136Y6183376D01*
X10538358Y6186728D01*
X10535716Y6188862D01*
X10532364Y6189726D01*
X10527639Y6187287D01*
X10524388Y6183274D01*
X10522559Y6177889D01*
X10521950Y6171438D01*
X10522508Y6164630D01*
X10524490Y6157671D01*
X10528147Y6150813D01*
X10533888Y6144260D01*
X10537342Y6141313D01*
X10541101Y6138773D01*
X10545267Y6136589D01*
X10549940Y6134760D01*
X10555173Y6133236D01*
X10561066Y6131915D01*
X10567771Y6130899D01*
X10575290Y6130036D01*
X10577322Y6113780D01*
X10584180Y6113780D01*
X10584180Y6130036D01*
X10643412Y6129985D01*
X10659872Y6129528D01*
X10661904Y6113780D01*
X10668000Y6113780D01*
X10668000Y6164072D01*
X10661904Y6164072D01*
X10659618Y6146546D01*
X10627106Y6146038D01*
X10584180Y6146038D01*
X10584180Y6189218D01*
X10643412Y6189167D01*
X10659872Y6188710D01*
X10661904Y6173216D01*
X10668000Y6173216D01*
X10668000Y6223254D01*
X10661904Y6223254D01*
X10659618Y6205728D01*
X10627106Y6205220D01*
X10584180Y6205220D01*
X10584180Y6231890D01*
X10575798Y6231890D01*
X10575798Y6204966D01*
X10569092Y6204813D01*
X10562996Y6205016D01*
X10557510Y6205575D01*
X10552582Y6206490D01*
X10548112Y6207760D01*
X10544098Y6209487D01*
X10540492Y6211570D01*
X10537190Y6214110D01*
X10534650Y6216853D01*
X10532618Y6219850D01*
X10530992Y6223050D01*
X10529570Y6226556D01*
X10535361Y6233871D01*
X10538256Y6238900D01*
X10540034Y6243828D01*
X10540746Y6248400D01*
X10635234Y6248349D01*
X10659872Y6247892D01*
X10661904Y6232398D01*
X10668000Y6232398D01*
X10668000Y6280404D01*
G37*
G36*
X10622026Y6098540D02*
G01*
X10614304Y6098082D01*
X10607192Y6096762D01*
X10600740Y6094679D01*
X10595000Y6091885D01*
X10589869Y6088481D01*
X10585399Y6084519D01*
X10581640Y6080099D01*
X10578541Y6075273D01*
X10576102Y6070142D01*
X10574375Y6064758D01*
X10573359Y6059220D01*
X10573004Y6053582D01*
X10580624Y6053582D01*
X10581284Y6059627D01*
X10583316Y6064961D01*
X10586618Y6069584D01*
X10591241Y6073444D01*
X10597083Y6076492D01*
X10604195Y6078677D01*
X10612526Y6080048D01*
X10622026Y6080506D01*
X10631525Y6080048D01*
X10639755Y6078677D01*
X10646816Y6076492D01*
X10652556Y6073444D01*
X10657078Y6069584D01*
X10660329Y6064961D01*
X10662259Y6059627D01*
X10662920Y6053582D01*
X10662259Y6047536D01*
X10660329Y6042202D01*
X10657078Y6037580D01*
X10652556Y6033719D01*
X10646816Y6030671D01*
X10639755Y6028486D01*
X10631525Y6027115D01*
X10622026Y6026658D01*
X10612526Y6027115D01*
X10604195Y6028486D01*
X10597083Y6030671D01*
X10591241Y6033719D01*
X10586618Y6037580D01*
X10583316Y6042202D01*
X10581284Y6047536D01*
X10580624Y6053582D01*
X10573004Y6053582D01*
X10573359Y6047943D01*
X10574426Y6042406D01*
X10576153Y6037072D01*
X10578592Y6031941D01*
X10581741Y6027166D01*
X10585500Y6022746D01*
X10589971Y6018834D01*
X10595102Y6015431D01*
X10600842Y6012688D01*
X10607294Y6010605D01*
X10614355Y6009335D01*
X10622026Y6008878D01*
X10629696Y6009335D01*
X10636707Y6010605D01*
X10643108Y6012637D01*
X10648848Y6015380D01*
X10653877Y6018733D01*
X10658297Y6022644D01*
X10662005Y6027064D01*
X10665053Y6031839D01*
X10667441Y6036970D01*
X10669168Y6042355D01*
X10670184Y6047892D01*
X10670540Y6053582D01*
X10670184Y6059271D01*
X10669168Y6064859D01*
X10667492Y6070244D01*
X10665155Y6075375D01*
X10662107Y6080201D01*
X10658398Y6084620D01*
X10653979Y6088583D01*
X10648950Y6091986D01*
X10643209Y6094730D01*
X10636808Y6096812D01*
X10629747Y6098082D01*
G37*
G36*
X10540492Y6084824D02*
G01*
X10536275Y6083960D01*
X10532973Y6081623D01*
X10530840Y6078169D01*
X10530078Y6073902D01*
X10530840Y6069685D01*
X10532973Y6066129D01*
X10536275Y6063640D01*
X10540492Y6062726D01*
X10544860Y6063640D01*
X10548213Y6066129D01*
X10550398Y6069685D01*
X10551160Y6073902D01*
X10550398Y6078169D01*
X10548213Y6081674D01*
X10544860Y6083960D01*
G37*
G36*
X10540492Y6044692D02*
G01*
X10536275Y6043777D01*
X10532973Y6041237D01*
X10530840Y6037630D01*
X10530078Y6033262D01*
X10530840Y6029096D01*
X10532973Y6025591D01*
X10536275Y6023203D01*
X10540492Y6022340D01*
X10544860Y6023203D01*
X10548213Y6025591D01*
X10550398Y6029096D01*
X10551160Y6033262D01*
X10550398Y6037630D01*
X10548213Y6041237D01*
X10544860Y6043777D01*
G37*
G36*
X10631424Y5991860D02*
G01*
X10631424Y5981700D01*
X10659618Y5975096D01*
X10659618Y5930392D01*
X10634370Y5930188D01*
X10565587Y5930188D01*
X10546334Y5930392D01*
X10544556Y5948680D01*
X10537698Y5948680D01*
X10537698Y5893816D01*
X10544556Y5893816D01*
X10546334Y5911850D01*
X10565587Y5912256D01*
X10620806Y5912358D01*
X10646410Y5912154D01*
X10659364Y5911850D01*
X10661142Y5893816D01*
X10668000Y5893816D01*
X10668000Y5990336D01*
G37*
G36*
X10661904Y5833618D02*
G01*
X10659872Y5819902D01*
X10608564Y5819648D01*
X10599826Y5819241D01*
X10592409Y5818073D01*
X10586262Y5816142D01*
X10581335Y5813399D01*
X10577626Y5809894D01*
X10575036Y5805627D01*
X10573512Y5800547D01*
X10573004Y5794756D01*
X10573308Y5790133D01*
X10574274Y5785510D01*
X10575747Y5780938D01*
X10577830Y5776366D01*
X10580420Y5771946D01*
X10583519Y5767628D01*
X10587075Y5763564D01*
X10591038Y5759704D01*
X10575036Y5758180D01*
X10573258Y5755386D01*
X10583926Y5727954D01*
X10589768Y5727954D01*
X10591292Y5743448D01*
X10602976Y5743905D01*
X10659872Y5743702D01*
X10661904Y5729224D01*
X10668000Y5729224D01*
X10668000Y5774182D01*
X10661904Y5774182D01*
X10659872Y5760720D01*
X10627106Y5760212D01*
X10598404Y5760212D01*
X10592358Y5767527D01*
X10588294Y5774385D01*
X10585958Y5780938D01*
X10585196Y5787390D01*
X10586415Y5794756D01*
X10590479Y5799785D01*
X10597845Y5802731D01*
X10609072Y5803646D01*
X10659872Y5803392D01*
X10661904Y5788914D01*
X10668000Y5788914D01*
X10668000Y5833618D01*
G37*
G36*
X10660126Y5720842D02*
G01*
X10656570Y5717286D01*
X10658449Y5715558D01*
X10659922Y5713780D01*
X10660837Y5711799D01*
X10661142Y5709666D01*
X10660532Y5706618D01*
X10658449Y5704382D01*
X10654588Y5703011D01*
X10648696Y5702554D01*
X10606532Y5702554D01*
X10598150Y5702096D01*
X10591088Y5700674D01*
X10585297Y5698337D01*
X10580725Y5695086D01*
X10577271Y5690819D01*
X10574832Y5685637D01*
X10573461Y5679440D01*
X10573004Y5672328D01*
X10573410Y5665063D01*
X10574680Y5658459D01*
X10576712Y5652465D01*
X10579455Y5647232D01*
X10582910Y5642711D01*
X10587024Y5639054D01*
X10591800Y5636310D01*
X10597134Y5634482D01*
X10600334Y5635345D01*
X10602620Y5637123D01*
X10604042Y5639816D01*
X10604500Y5643372D01*
X10603941Y5646724D01*
X10602214Y5649417D01*
X10599369Y5651550D01*
X10595356Y5653024D01*
X10582148Y5656834D01*
X10580979Y5662574D01*
X10580624Y5667756D01*
X10580878Y5672378D01*
X10581690Y5676239D01*
X10583164Y5679490D01*
X10585450Y5682081D01*
X10588650Y5684062D01*
X10592816Y5685485D01*
X10598150Y5686298D01*
X10610850Y5686552D01*
X10647680Y5686552D01*
X10653115Y5679440D01*
X10656620Y5673852D01*
X10658551Y5669026D01*
X10659110Y5664200D01*
X10658246Y5657900D01*
X10655503Y5652871D01*
X10650728Y5649620D01*
X10643870Y5648452D01*
X10638586Y5649214D01*
X10633151Y5652109D01*
X10627817Y5658205D01*
X10622788Y5668518D01*
X10619841Y5676493D01*
X10616692Y5686552D01*
X10610850Y5686552D01*
X10613847Y5674664D01*
X10615472Y5669026D01*
X10617200Y5663946D01*
X10620603Y5655259D01*
X10624007Y5648248D01*
X10627410Y5642660D01*
X10630865Y5638444D01*
X10634522Y5635345D01*
X10638332Y5633364D01*
X10642346Y5632297D01*
X10646664Y5631942D01*
X10652201Y5632450D01*
X10657027Y5633974D01*
X10661142Y5636310D01*
X10664494Y5639409D01*
X10667136Y5643219D01*
X10669016Y5647588D01*
X10670184Y5652414D01*
X10670540Y5657596D01*
X10669524Y5665571D01*
X10666577Y5672582D01*
X10661650Y5679389D01*
X10654792Y5686806D01*
X10661142Y5688838D01*
X10665917Y5692495D01*
X10668965Y5697728D01*
X10670032Y5704332D01*
X10669524Y5709107D01*
X10667847Y5713425D01*
X10664799Y5717387D01*
G37*
G36*
X10661904Y5616194D02*
G01*
X10659872Y5602986D01*
X10627106Y5602478D01*
X10600944Y5602478D01*
X10575036Y5602986D01*
X10573258Y5600192D01*
X10583672Y5570474D01*
X10589514Y5570474D01*
X10591038Y5586222D01*
X10616692Y5586730D01*
X10659872Y5586476D01*
X10661904Y5571490D01*
X10668000Y5571490D01*
X10668000Y5616194D01*
G37*
G36*
X10538714Y5606796D02*
G01*
X10533837Y5605830D01*
X10530078Y5603138D01*
X10527639Y5599176D01*
X10526776Y5594350D01*
X10527639Y5589371D01*
X10530078Y5585307D01*
X10533837Y5582615D01*
X10538714Y5581650D01*
X10543489Y5582615D01*
X10547400Y5585307D01*
X10549940Y5589371D01*
X10550906Y5594350D01*
X10549940Y5599176D01*
X10547400Y5603138D01*
X10543489Y5605830D01*
G37*
G36*
X10580370Y5563362D02*
G01*
X10577271Y5560923D01*
X10574985Y5557570D01*
X10573512Y5553557D01*
X10573004Y5549138D01*
X10573461Y5545124D01*
X10574731Y5541060D01*
X10576814Y5537098D01*
X10579709Y5533288D01*
X10583316Y5529681D01*
X10587685Y5526328D01*
X10592714Y5523280D01*
X10598404Y5520690D01*
X10575036Y5518912D01*
X10573258Y5516118D01*
X10583926Y5488686D01*
X10589768Y5488686D01*
X10591292Y5504180D01*
X10602976Y5504637D01*
X10659872Y5504434D01*
X10661904Y5490210D01*
X10668000Y5490210D01*
X10668000Y5537454D01*
X10661904Y5537454D01*
X10659618Y5521198D01*
X10611866Y5520944D01*
X10603585Y5524042D01*
X10596626Y5527802D01*
X10590784Y5532323D01*
X10585958Y5537708D01*
X10590479Y5542991D01*
X10592155Y5545836D01*
X10593222Y5548884D01*
X10593578Y5552186D01*
X10592663Y5557266D01*
X10590022Y5560720D01*
X10585856Y5562701D01*
G37*
G36*
X10660126Y5481574D02*
G01*
X10656570Y5478018D01*
X10658449Y5476189D01*
X10659922Y5474360D01*
X10660837Y5472430D01*
X10661142Y5470144D01*
X10660532Y5467197D01*
X10658449Y5464962D01*
X10654588Y5463540D01*
X10648696Y5463032D01*
X10606532Y5463032D01*
X10598150Y5462574D01*
X10591088Y5461203D01*
X10585297Y5458917D01*
X10580725Y5455615D01*
X10577271Y5451398D01*
X10574832Y5446217D01*
X10573461Y5440019D01*
X10573004Y5432806D01*
X10573410Y5425541D01*
X10574680Y5418937D01*
X10576712Y5412943D01*
X10579455Y5407710D01*
X10582910Y5403291D01*
X10587024Y5399684D01*
X10591800Y5396941D01*
X10597134Y5395214D01*
X10600334Y5396026D01*
X10602620Y5397703D01*
X10604042Y5400344D01*
X10604500Y5403850D01*
X10603941Y5407304D01*
X10602214Y5410149D01*
X10599369Y5412282D01*
X10595356Y5413756D01*
X10582148Y5417566D01*
X10580979Y5423306D01*
X10580624Y5428488D01*
X10580878Y5433060D01*
X10581690Y5436971D01*
X10583164Y5440172D01*
X10585450Y5442712D01*
X10588650Y5444642D01*
X10592816Y5446014D01*
X10598150Y5446776D01*
X10610850Y5447030D01*
X10647680Y5447030D01*
X10653115Y5440019D01*
X10656620Y5434533D01*
X10658551Y5429758D01*
X10659110Y5424932D01*
X10658246Y5418632D01*
X10655503Y5413654D01*
X10650728Y5410352D01*
X10643870Y5409184D01*
X10638586Y5409946D01*
X10633151Y5412841D01*
X10627817Y5418937D01*
X10622788Y5429250D01*
X10619841Y5437174D01*
X10616692Y5447030D01*
X10610850Y5447030D01*
X10615472Y5429758D01*
X10617200Y5424678D01*
X10620603Y5415991D01*
X10624007Y5408980D01*
X10627410Y5403392D01*
X10630865Y5399176D01*
X10634522Y5396128D01*
X10638332Y5394096D01*
X10642346Y5393029D01*
X10646664Y5392674D01*
X10652201Y5393182D01*
X10657027Y5394706D01*
X10661142Y5397042D01*
X10664494Y5400192D01*
X10667136Y5403951D01*
X10669016Y5408320D01*
X10670184Y5413146D01*
X10670540Y5418328D01*
X10669524Y5426303D01*
X10666577Y5433314D01*
X10661650Y5440121D01*
X10654792Y5447538D01*
X10661142Y5449570D01*
X10665917Y5453227D01*
X10668965Y5458358D01*
X10670032Y5464810D01*
X10669524Y5469737D01*
X10667847Y5474157D01*
X10664799Y5478119D01*
G37*
G36*
X10537698Y5378450D02*
G01*
X10537698Y5341112D01*
X10645902Y5298948D01*
X10537698Y5255006D01*
X10537698Y5219446D01*
X10544556Y5219446D01*
X10546588Y5237226D01*
X10658856Y5236972D01*
X10661142Y5219446D01*
X10668000Y5219446D01*
X10668000Y5262880D01*
X10661142Y5262880D01*
X10658856Y5246116D01*
X10595813Y5246065D01*
X10556240Y5245100D01*
X10668000Y5290566D01*
X10668000Y5298948D01*
X10555986Y5342890D01*
X10633862Y5342585D01*
X10659364Y5342128D01*
X10661142Y5325364D01*
X10668000Y5325364D01*
X10668000Y5378450D01*
X10661142Y5378450D01*
X10659364Y5360416D01*
X10633506Y5359958D01*
X10565587Y5360009D01*
X10546334Y5360416D01*
X10544556Y5378450D01*
G37*
G36*
X10575798Y5166614D02*
G01*
X10575798Y5128768D01*
X10581894Y5128768D01*
X10583672Y5146548D01*
X10653014Y5121910D01*
X10583672Y5096256D01*
X10581894Y5113274D01*
X10575798Y5113274D01*
X10575798Y5067046D01*
X10581894Y5067046D01*
X10583164Y5077968D01*
X10673588Y5114290D01*
X10675874Y5113528D01*
X10684357Y5109870D01*
X10692180Y5105603D01*
X10699038Y5100574D01*
X10704830Y5094478D01*
X10703306Y5093208D01*
X10700156Y5089499D01*
X10697921Y5086096D01*
X10696651Y5082692D01*
X10696194Y5078984D01*
X10696702Y5074767D01*
X10698175Y5071059D01*
X10700715Y5068214D01*
X10704322Y5066538D01*
X10709351Y5067960D01*
X10713161Y5071770D01*
X10715650Y5077256D01*
X10716514Y5083810D01*
X10716260Y5087315D01*
X10715396Y5090769D01*
X10713923Y5094173D01*
X10711840Y5097526D01*
X10709148Y5100777D01*
X10705744Y5104028D01*
X10701680Y5107228D01*
X10696854Y5110429D01*
X10691317Y5113578D01*
X10685018Y5116677D01*
X10677956Y5119827D01*
X10583672Y5155692D01*
X10581894Y5166614D01*
G37*
G36*
X10620756Y5059934D02*
G01*
X10613542Y5059578D01*
X10606836Y5058613D01*
X10600639Y5057089D01*
X10595051Y5054955D01*
X10590022Y5052314D01*
X10585653Y5049215D01*
X10581843Y5045659D01*
X10578744Y5041696D01*
X10576255Y5037429D01*
X10574477Y5032806D01*
X10573359Y5027930D01*
X10573004Y5022850D01*
X10573624Y5017262D01*
X10582910Y5017262D01*
X10583519Y5022646D01*
X10585399Y5027574D01*
X10588447Y5031943D01*
X10592765Y5035702D01*
X10598302Y5038750D01*
X10605109Y5041036D01*
X10613085Y5042408D01*
X10622280Y5042916D01*
X10631728Y5042357D01*
X10639755Y5040731D01*
X10646359Y5038242D01*
X10651642Y5034940D01*
X10655655Y5030978D01*
X10658449Y5026507D01*
X10660126Y5021630D01*
X10660634Y5016500D01*
X10660024Y5010861D01*
X10658144Y5005019D01*
X10654842Y4999075D01*
X10649966Y4993132D01*
X10594086Y4993132D01*
X10588142Y5000548D01*
X10584789Y5006898D01*
X10583265Y5012436D01*
X10582910Y5017262D01*
X10573624Y5017262D01*
X10573867Y5015077D01*
X10576560Y5007356D01*
X10581132Y4999837D01*
X10587736Y4992624D01*
X10553192Y4992624D01*
X10525506Y4993132D01*
X10523982Y4990846D01*
X10532110Y4961128D01*
X10537952Y4961128D01*
X10539730Y4977130D01*
X10634675Y4977079D01*
X10659872Y4976622D01*
X10661904Y4962144D01*
X10668000Y4962144D01*
X10670032Y4991100D01*
X10656570Y4992624D01*
X10663377Y4999431D01*
X10667644Y5006340D01*
X10669879Y5013248D01*
X10670540Y5020056D01*
X10670133Y5025745D01*
X10668914Y5031130D01*
X10666882Y5036159D01*
X10664190Y5040782D01*
X10660786Y5044998D01*
X10656722Y5048758D01*
X10651998Y5052009D01*
X10646765Y5054803D01*
X10640974Y5056987D01*
X10634675Y5058613D01*
X10627918Y5059578D01*
G37*
G36*
X10661904Y4907026D02*
G01*
X10660126Y4891278D01*
X10553192Y4891278D01*
X10525506Y4891786D01*
X10523982Y4889246D01*
X10532110Y4859274D01*
X10537952Y4859274D01*
X10539476Y4875530D01*
X10585704Y4875530D01*
X10579658Y4869383D01*
X10575747Y4863084D01*
X10573613Y4856581D01*
X10573304Y4853178D01*
X10582910Y4853178D01*
X10583367Y4858156D01*
X10585043Y4863388D01*
X10588142Y4868976D01*
X10593070Y4875276D01*
X10649458Y4875276D01*
X10654741Y4869789D01*
X10658195Y4864506D01*
X10660075Y4858969D01*
X10660634Y4852924D01*
X10660075Y4847234D01*
X10658398Y4842002D01*
X10655604Y4837328D01*
X10651540Y4833315D01*
X10646206Y4830013D01*
X10639501Y4827574D01*
X10631474Y4826000D01*
X10622026Y4825492D01*
X10612323Y4826050D01*
X10604144Y4827727D01*
X10597388Y4830318D01*
X10592003Y4833721D01*
X10587939Y4837836D01*
X10585094Y4842510D01*
X10583468Y4847691D01*
X10582910Y4853178D01*
X10573304Y4853178D01*
X10573004Y4849876D01*
X10573410Y4844034D01*
X10574578Y4838496D01*
X10576509Y4833315D01*
X10579201Y4828489D01*
X10582554Y4824069D01*
X10586567Y4820107D01*
X10591190Y4816652D01*
X10596422Y4813706D01*
X10602264Y4811369D01*
X10608614Y4809642D01*
X10615472Y4808575D01*
X10622788Y4808220D01*
X10629696Y4808575D01*
X10636199Y4809540D01*
X10642244Y4811115D01*
X10647832Y4813300D01*
X10652861Y4816043D01*
X10657332Y4819345D01*
X10661243Y4823104D01*
X10664494Y4827320D01*
X10667085Y4831994D01*
X10668965Y4837074D01*
X10670133Y4842560D01*
X10670540Y4848352D01*
X10669574Y4856683D01*
X10666780Y4863896D01*
X10662412Y4870196D01*
X10656570Y4875784D01*
X10670032Y4876800D01*
X10668000Y4907026D01*
G37*
G36*
X10610088Y4790440D02*
G01*
X10604550Y4790135D01*
X10599420Y4789220D01*
X10594644Y4787696D01*
X10590326Y4785664D01*
X10586415Y4783124D01*
X10582960Y4780076D01*
X10580014Y4776622D01*
X10577525Y4772812D01*
X10575594Y4768596D01*
X10574172Y4764024D01*
X10573308Y4759198D01*
X10573073Y4753102D01*
X10580624Y4753102D01*
X10581081Y4757674D01*
X10582452Y4761839D01*
X10584586Y4765497D01*
X10587329Y4768646D01*
X10590733Y4771186D01*
X10594543Y4773117D01*
X10598759Y4774285D01*
X10603230Y4774692D01*
X10607598Y4774234D01*
X10610951Y4772609D01*
X10613136Y4769459D01*
X10613898Y4764278D01*
X10613644Y4726686D01*
X10605566Y4727905D01*
X10598708Y4729988D01*
X10593019Y4732782D01*
X10588447Y4736185D01*
X10584992Y4740046D01*
X10582554Y4744212D01*
X10581081Y4748631D01*
X10580624Y4753102D01*
X10573073Y4753102D01*
X10573410Y4748174D01*
X10574578Y4742434D01*
X10576509Y4736947D01*
X10579201Y4731816D01*
X10582554Y4727041D01*
X10586516Y4722723D01*
X10591139Y4718913D01*
X10596372Y4715662D01*
X10602163Y4713020D01*
X10608462Y4711039D01*
X10615269Y4709820D01*
X10622534Y4709414D01*
X10629900Y4709769D01*
X10636656Y4710836D01*
X10642904Y4712614D01*
X10648543Y4715002D01*
X10653572Y4717999D01*
X10657941Y4721555D01*
X10661751Y4725720D01*
X10664850Y4730343D01*
X10667339Y4735474D01*
X10669117Y4741011D01*
X10670184Y4747006D01*
X10670540Y4753356D01*
X10670133Y4759604D01*
X10668965Y4765395D01*
X10667085Y4770729D01*
X10664494Y4775555D01*
X10661294Y4779975D01*
X10657484Y4783836D01*
X10653064Y4787290D01*
X10648188Y4790186D01*
X10645648Y4786376D01*
X10651388Y4780889D01*
X10655757Y4774742D01*
X10658602Y4767580D01*
X10659618Y4758944D01*
X10659008Y4752086D01*
X10657179Y4745888D01*
X10654131Y4740402D01*
X10649915Y4735728D01*
X10644428Y4731918D01*
X10637774Y4729022D01*
X10629849Y4727194D01*
X10620756Y4726432D01*
X10621010Y4789170D01*
X10616336Y4790084D01*
G37*
G36*
X10661904Y4694936D02*
G01*
X10659872Y4681220D01*
X10627106Y4680712D01*
X10608564Y4680712D01*
X10599826Y4680305D01*
X10592409Y4679188D01*
X10586262Y4677257D01*
X10581335Y4674565D01*
X10577626Y4671060D01*
X10575036Y4666792D01*
X10573512Y4661712D01*
X10573004Y4655820D01*
X10573308Y4651298D01*
X10574274Y4646726D01*
X10575747Y4642154D01*
X10577830Y4637684D01*
X10580420Y4633214D01*
X10583519Y4628946D01*
X10587075Y4624882D01*
X10591038Y4621022D01*
X10575036Y4619244D01*
X10573258Y4616704D01*
X10583926Y4589272D01*
X10589768Y4589272D01*
X10591292Y4604766D01*
X10616946Y4605274D01*
X10659872Y4605020D01*
X10661904Y4590542D01*
X10668000Y4590542D01*
X10668000Y4635246D01*
X10661904Y4635246D01*
X10659872Y4621784D01*
X10643209Y4621580D01*
X10598404Y4621530D01*
X10592358Y4628794D01*
X10588294Y4635601D01*
X10585958Y4642154D01*
X10585196Y4648708D01*
X10586415Y4656023D01*
X10590479Y4661001D01*
X10597845Y4663795D01*
X10609072Y4664710D01*
X10659872Y4664456D01*
X10661904Y4649978D01*
X10668000Y4649978D01*
X10668000Y4694936D01*
G37*
G36*
X10575290Y4578350D02*
G01*
X10573258Y4575302D01*
X10580624Y4553204D01*
X10577271Y4548174D01*
X10574934Y4542332D01*
X10573461Y4535728D01*
X10573020Y4528820D01*
X10579862Y4528820D01*
X10580319Y4533138D01*
X10581690Y4536998D01*
X10583824Y4540300D01*
X10586770Y4543044D01*
X10590326Y4545228D01*
X10594543Y4546803D01*
X10599267Y4547819D01*
X10604500Y4548124D01*
X10609986Y4547768D01*
X10614964Y4546752D01*
X10619384Y4545126D01*
X10623194Y4542840D01*
X10626242Y4539996D01*
X10628477Y4536541D01*
X10629900Y4532579D01*
X10630408Y4528058D01*
X10629950Y4523790D01*
X10628579Y4519980D01*
X10626394Y4516678D01*
X10623448Y4513935D01*
X10619740Y4511700D01*
X10615422Y4510074D01*
X10610494Y4509109D01*
X10605008Y4508754D01*
X10599623Y4509109D01*
X10594746Y4510125D01*
X10590479Y4511802D01*
X10586821Y4514138D01*
X10583875Y4516983D01*
X10581690Y4520438D01*
X10580319Y4524400D01*
X10579862Y4528820D01*
X10573020Y4528820D01*
X10573562Y4521250D01*
X10575137Y4514494D01*
X10577779Y4508550D01*
X10581335Y4503420D01*
X10585907Y4499254D01*
X10591342Y4496155D01*
X10597642Y4494174D01*
X10604754Y4493514D01*
X10613948Y4494530D01*
X10621619Y4497425D01*
X10627817Y4502099D01*
X10632440Y4508246D01*
X10638790Y4502099D01*
X10644276Y4498035D01*
X10649254Y4495749D01*
X10654030Y4495038D01*
X10659211Y4495901D01*
X10663428Y4498340D01*
X10666679Y4502302D01*
X10669016Y4507738D01*
X10673994Y4499000D01*
X10679125Y4493056D01*
X10684611Y4489754D01*
X10690606Y4488688D01*
X10695635Y4489297D01*
X10700207Y4491075D01*
X10704322Y4494123D01*
X10707776Y4498441D01*
X10710621Y4504080D01*
X10712704Y4511090D01*
X10714024Y4519472D01*
X10714482Y4529328D01*
X10714126Y4536948D01*
X10713161Y4543907D01*
X10711637Y4550206D01*
X10709605Y4555896D01*
X10707065Y4560874D01*
X10704118Y4565243D01*
X10700867Y4568901D01*
X10697260Y4571949D01*
X10693501Y4574286D01*
X10689488Y4575962D01*
X10685373Y4576978D01*
X10681208Y4577334D01*
X10675721Y4576876D01*
X10670844Y4575454D01*
X10666628Y4573066D01*
X10663072Y4569714D01*
X10660278Y4565345D01*
X10658246Y4559960D01*
X10656976Y4553559D01*
X10656570Y4546092D01*
X10656570Y4520184D01*
X10655909Y4514189D01*
X10654778Y4511802D01*
X10670286Y4511802D01*
X10670794Y4521454D01*
X10670794Y4543806D01*
X10672013Y4552797D01*
X10675315Y4558792D01*
X10680242Y4562094D01*
X10686288Y4563110D01*
X10690504Y4562551D01*
X10694416Y4560976D01*
X10697921Y4558334D01*
X10700969Y4554575D01*
X10703458Y4549851D01*
X10705287Y4544060D01*
X10706455Y4537202D01*
X10706862Y4529328D01*
X10706608Y4523841D01*
X10705744Y4518914D01*
X10704322Y4514596D01*
X10702290Y4510938D01*
X10699648Y4507941D01*
X10696346Y4505756D01*
X10692434Y4504385D01*
X10687812Y4503928D01*
X10683087Y4504385D01*
X10678769Y4505756D01*
X10674553Y4508195D01*
X10670286Y4511802D01*
X10654778Y4511802D01*
X10654080Y4510328D01*
X10651236Y4508347D01*
X10647426Y4507738D01*
X10644124Y4508093D01*
X10640923Y4509058D01*
X10637774Y4510735D01*
X10634472Y4513072D01*
X10635640Y4516729D01*
X10636402Y4520539D01*
X10636859Y4524451D01*
X10637012Y4528566D01*
X10636453Y4535881D01*
X10634878Y4542637D01*
X10632236Y4548581D01*
X10628579Y4553712D01*
X10624007Y4557877D01*
X10618470Y4560976D01*
X10612069Y4562957D01*
X10604754Y4563618D01*
X10599470Y4563262D01*
X10594644Y4562246D01*
X10590225Y4560620D01*
X10586212Y4558538D01*
X10586720Y4578350D01*
G37*
G36*
X10661904Y4475226D02*
G01*
X10659872Y4461764D01*
X10643209Y4461560D01*
X10600944Y4461510D01*
X10575036Y4461764D01*
X10573258Y4459224D01*
X10583672Y4429252D01*
X10589514Y4429252D01*
X10591038Y4445000D01*
X10603026Y4445457D01*
X10659872Y4445254D01*
X10661904Y4430268D01*
X10668000Y4430268D01*
X10668000Y4475226D01*
G37*
G36*
X10538714Y4465574D02*
G01*
X10533837Y4464608D01*
X10530078Y4461916D01*
X10527639Y4457954D01*
X10526776Y4453128D01*
X10527639Y4448200D01*
X10530078Y4444238D01*
X10533837Y4441647D01*
X10538714Y4440682D01*
X10543489Y4441647D01*
X10547400Y4444238D01*
X10549940Y4448200D01*
X10550906Y4453128D01*
X10549940Y4457954D01*
X10547400Y4461916D01*
X10543489Y4464608D01*
G37*
G36*
X10642854Y4415790D02*
G01*
X10638332Y4415434D01*
X10634167Y4414316D01*
X10630255Y4412437D01*
X10626648Y4409694D01*
X10623296Y4406036D01*
X10620197Y4401413D01*
X10617352Y4395825D01*
X10608614Y4374083D01*
X10605008Y4368393D01*
X10600639Y4365244D01*
X10594848Y4364228D01*
X10589107Y4365447D01*
X10584586Y4369104D01*
X10581690Y4375048D01*
X10580624Y4383278D01*
X10580878Y4386834D01*
X10581538Y4390390D01*
X10582656Y4393946D01*
X10584180Y4397502D01*
X10600690Y4401058D01*
X10600690Y4409948D01*
X10581132Y4410456D01*
X10577626Y4404156D01*
X10575086Y4397705D01*
X10573512Y4390847D01*
X10573004Y4383278D01*
X10573613Y4375556D01*
X10575239Y4368800D01*
X10577830Y4363008D01*
X10581284Y4358182D01*
X10585348Y4354423D01*
X10589920Y4351680D01*
X10594949Y4350054D01*
X10600182Y4349496D01*
X10604957Y4349902D01*
X10609224Y4351172D01*
X10613034Y4353204D01*
X10616438Y4355947D01*
X10619435Y4359402D01*
X10622127Y4363415D01*
X10624464Y4368038D01*
X10626598Y4373118D01*
X10629646Y4382262D01*
X10633252Y4390593D01*
X10637113Y4396282D01*
X10641685Y4399534D01*
X10647426Y4400550D01*
X10653725Y4399178D01*
X10658602Y4395063D01*
X10661802Y4388002D01*
X10662920Y4377944D01*
X10662716Y4373575D01*
X10662158Y4369460D01*
X10661192Y4365599D01*
X10659872Y4361942D01*
X10641838Y4357878D01*
X10641838Y4348480D01*
X10663174Y4348988D01*
X10666374Y4355947D01*
X10668660Y4362907D01*
X10670082Y4370222D01*
X10670540Y4378198D01*
X10669930Y4386884D01*
X10668304Y4394454D01*
X10665663Y4400905D01*
X10662208Y4406239D01*
X10658094Y4410405D01*
X10653420Y4413402D01*
X10648289Y4415180D01*
G37*
G36*
X10610088Y4329938D02*
G01*
X10604550Y4329633D01*
X10599420Y4328668D01*
X10594644Y4327194D01*
X10590326Y4325162D01*
X10586415Y4322572D01*
X10582960Y4319574D01*
X10580014Y4316069D01*
X10577525Y4312208D01*
X10575594Y4307992D01*
X10574172Y4303369D01*
X10573308Y4298492D01*
X10573056Y4292600D01*
X10580624Y4292600D01*
X10581081Y4297070D01*
X10582452Y4301185D01*
X10584586Y4304842D01*
X10587329Y4307941D01*
X10590733Y4310481D01*
X10594543Y4312361D01*
X10598759Y4313529D01*
X10603230Y4313936D01*
X10607598Y4313529D01*
X10610951Y4311954D01*
X10613136Y4308805D01*
X10613898Y4303522D01*
X10613644Y4265930D01*
X10605566Y4267149D01*
X10598708Y4269282D01*
X10593019Y4272127D01*
X10588447Y4275531D01*
X10584992Y4279442D01*
X10582554Y4283659D01*
X10581081Y4288129D01*
X10580624Y4292600D01*
X10573056Y4292600D01*
X10573410Y4287469D01*
X10574578Y4281779D01*
X10576509Y4276293D01*
X10579201Y4271162D01*
X10582554Y4266387D01*
X10586516Y4262069D01*
X10591139Y4258208D01*
X10596372Y4254957D01*
X10602163Y4252264D01*
X10608462Y4250334D01*
X10615269Y4249064D01*
X10622534Y4248658D01*
X10629900Y4249013D01*
X10636656Y4250080D01*
X10642904Y4251858D01*
X10648543Y4254246D01*
X10653572Y4257243D01*
X10657941Y4260799D01*
X10661751Y4264964D01*
X10664850Y4269587D01*
X10667339Y4274718D01*
X10669117Y4280255D01*
X10670184Y4286250D01*
X10670540Y4292600D01*
X10670133Y4298848D01*
X10668965Y4304639D01*
X10667085Y4309973D01*
X10664494Y4314850D01*
X10661294Y4319219D01*
X10657484Y4323080D01*
X10653064Y4326534D01*
X10648188Y4329430D01*
X10645648Y4325620D01*
X10651388Y4320235D01*
X10655757Y4314088D01*
X10658602Y4306874D01*
X10659618Y4298188D01*
X10659008Y4291330D01*
X10657179Y4285132D01*
X10654131Y4279696D01*
X10649915Y4275023D01*
X10644428Y4271213D01*
X10637774Y4268419D01*
X10629849Y4266590D01*
X10620756Y4265930D01*
X10621010Y4328414D01*
X10618876Y4329074D01*
X10613390Y4329836D01*
G37*
G36*
X10602976Y4230878D02*
G01*
X10595356Y4230573D01*
X10588142Y4229709D01*
X10581386Y4228287D01*
X10575086Y4226306D01*
X10569244Y4223816D01*
X10563910Y4220870D01*
X10559034Y4217365D01*
X10554614Y4213453D01*
X10550702Y4209084D01*
X10547299Y4204258D01*
X10544403Y4199077D01*
X10542016Y4193489D01*
X10540136Y4187545D01*
X10538764Y4181195D01*
X10537952Y4174591D01*
X10537698Y4167632D01*
X10537698Y4147312D01*
X10545318Y4147312D01*
X10545318Y4164329D01*
X10545572Y4169714D01*
X10546232Y4174794D01*
X10547400Y4179519D01*
X10549026Y4183989D01*
X10551109Y4188104D01*
X10553649Y4191914D01*
X10556646Y4195368D01*
X10560050Y4198467D01*
X10563910Y4201261D01*
X10568228Y4203700D01*
X10572953Y4205782D01*
X10578084Y4207459D01*
X10583672Y4208830D01*
X10589717Y4209796D01*
X10596118Y4210354D01*
X10602976Y4210558D01*
X10609580Y4210354D01*
X10615777Y4209796D01*
X10621619Y4208830D01*
X10627106Y4207459D01*
X10632236Y4205732D01*
X10636910Y4203598D01*
X10641177Y4201160D01*
X10645089Y4198315D01*
X10648543Y4195114D01*
X10651540Y4191508D01*
X10654131Y4187596D01*
X10656265Y4183329D01*
X10657941Y4178706D01*
X10659160Y4173778D01*
X10659872Y4168444D01*
X10660126Y4162806D01*
X10660126Y4147312D01*
X10633405Y4147108D01*
X10564926Y4147108D01*
X10537698Y4147312D01*
X10537698Y4110736D01*
X10544556Y4110736D01*
X10546334Y4129024D01*
X10572191Y4129227D01*
X10639907Y4129227D01*
X10659364Y4129024D01*
X10661142Y4110736D01*
X10668000Y4110736D01*
X10668000Y4164076D01*
X10667847Y4169765D01*
X10667288Y4175302D01*
X10666425Y4180687D01*
X10665256Y4185869D01*
X10663682Y4190796D01*
X10661802Y4195521D01*
X10659618Y4200042D01*
X10657128Y4204258D01*
X10654284Y4208272D01*
X10651134Y4211980D01*
X10647629Y4215384D01*
X10643870Y4218482D01*
X10639755Y4221276D01*
X10635386Y4223766D01*
X10630712Y4225848D01*
X10625734Y4227626D01*
X10620451Y4229049D01*
X10614914Y4230065D01*
X10609072Y4230674D01*
G37*
D10*
X8848343Y6466078D02*
G01*
X8756141Y6466078D01*
X8746743Y6383020D01*
X8756141Y6392163D01*
X8783827Y6401562D01*
X8811513Y6401562D01*
X8839200Y6392163D01*
X8857741Y6373876D01*
X8866886Y6346189D01*
X8866886Y6327647D01*
X8857741Y6299962D01*
X8839200Y6281420D01*
X8811513Y6272276D01*
X8783827Y6272276D01*
X8756141Y6281420D01*
X8746743Y6290563D01*
X8737600Y6309105D01*
X8927845Y6466078D02*
G01*
X9001759Y6272276D01*
X9075674Y6466078D02*
G01*
X9001759Y6272276D01*
X9472929Y6457950D02*
G01*
X9463786Y6476492D01*
X9445243Y6495034D01*
X9426956Y6504178D01*
X9389872Y6504178D01*
X9371329Y6495034D01*
X9353041Y6476492D01*
X9343643Y6457950D01*
X9334500Y6430263D01*
X9334500Y6384289D01*
X9343643Y6356350D01*
X9353041Y6338062D01*
X9371329Y6319520D01*
X9389872Y6310376D01*
X9426956Y6310376D01*
X9445243Y6319520D01*
X9463786Y6338062D01*
X9472929Y6356350D01*
X9472929Y6384289D01*
X9426956Y6384289D02*
G01*
X9472929Y6384289D01*
X9533890Y6504178D02*
G01*
X9533890Y6310376D01*
X9533890Y6504178D02*
G01*
X9663429Y6310376D01*
X9663429Y6504178D02*
G01*
X9663429Y6310376D01*
X9724390Y6504178D02*
G01*
X9724390Y6310376D01*
X9724390Y6504178D02*
G01*
X9788906Y6504178D01*
X9816591Y6495034D01*
X9835134Y6476492D01*
X9844277Y6457950D01*
X9853675Y6430263D01*
X9853675Y6384289D01*
X9844277Y6356350D01*
X9835134Y6338062D01*
X9816591Y6319520D01*
X9788906Y6310376D01*
X9724390Y6310376D01*
X283971Y1589531D02*
G01*
X279654Y1598676D01*
X270510Y1607565D01*
X261365Y1612137D01*
X243078Y1612137D01*
X234187Y1607565D01*
X225044Y1598676D01*
X220471Y1589531D01*
X215900Y1575815D01*
X215900Y1553210D01*
X220471Y1539494D01*
X225044Y1530350D01*
X234187Y1521205D01*
X243078Y1516634D01*
X261365Y1516634D01*
X270510Y1521205D01*
X279654Y1530350D01*
X283971Y1539494D01*
X283971Y1553210D01*
X261365Y1553210D02*
G01*
X283971Y1553210D01*
X314197Y1612137D02*
G01*
X314197Y1516634D01*
X314197Y1612137D02*
G01*
X377697Y1516634D01*
X377697Y1612137D02*
G01*
X377697Y1516634D01*
X407670Y1612137D02*
G01*
X407670Y1516634D01*
X407670Y1612137D02*
G01*
X439420Y1612137D01*
X453136Y1607565D01*
X462279Y1598676D01*
X466852Y1589531D01*
X471423Y1575815D01*
X471423Y1553210D01*
X466852Y1539494D01*
X462279Y1530350D01*
X453136Y1521205D01*
X439420Y1516634D01*
X407670Y1516634D01*
X359410Y1358137D02*
G01*
X313944Y1358137D01*
X309371Y1317244D01*
X313944Y1321815D01*
X327405Y1326387D01*
X341121Y1326387D01*
X354837Y1321815D01*
X363981Y1312671D01*
X368554Y1299210D01*
X368554Y1290065D01*
X363981Y1276350D01*
X354837Y1267205D01*
X341121Y1262634D01*
X327405Y1262634D01*
X313944Y1267205D01*
X309371Y1271778D01*
X304800Y1280921D01*
X398526Y1358137D02*
G01*
X434847Y1262634D01*
X471170Y1358137D02*
G01*
X434847Y1262634D01*
X233171Y1068831D02*
G01*
X233171Y1073404D01*
X237744Y1082294D01*
X242315Y1086865D01*
X251205Y1091437D01*
X269494Y1091437D01*
X278637Y1086865D01*
X283210Y1082294D01*
X287781Y1073404D01*
X287781Y1064260D01*
X283210Y1055115D01*
X274065Y1041400D01*
X228600Y995934D01*
X292354Y995934D01*
X367792Y1091437D02*
G01*
X322326Y1027937D01*
X390397Y1027937D01*
X367792Y1091437D02*
G01*
X367792Y995934D01*
X420370Y1091437D02*
G01*
X456692Y995934D01*
X493268Y1091437D02*
G01*
X456692Y995934D01*
X309371Y789431D02*
G01*
X305054Y798576D01*
X295910Y807465D01*
X286765Y812037D01*
X268478Y812037D01*
X259587Y807465D01*
X250444Y798576D01*
X245871Y789431D01*
X241300Y775715D01*
X241300Y753110D01*
X245871Y739394D01*
X250444Y730250D01*
X259587Y721105D01*
X268478Y716534D01*
X286765Y716534D01*
X295910Y721105D01*
X305054Y730250D01*
X309371Y739394D01*
X309371Y753110D01*
X286765Y753110D02*
G01*
X309371Y753110D01*
X339597Y812037D02*
G01*
X339597Y716534D01*
X339597Y812037D02*
G01*
X403097Y716534D01*
X403097Y812037D02*
G01*
X403097Y716534D01*
X433070Y812037D02*
G01*
X433070Y716534D01*
X433070Y812037D02*
G01*
X464820Y812037D01*
X478536Y807465D01*
X487679Y798576D01*
X492252Y789431D01*
X496823Y775715D01*
X496823Y753110D01*
X492252Y739394D01*
X487679Y730250D01*
X478536Y721105D01*
X464820Y716534D01*
X433070Y716534D01*
D11*
X3440429Y6592315D02*
G01*
X3388613Y6592315D01*
X3383279Y6545579D01*
X3388613Y6550660D01*
X3404108Y6555994D01*
X3419856Y6555994D01*
X3435350Y6550660D01*
X3445763Y6540500D01*
X3450843Y6524752D01*
X3450843Y6514337D01*
X3445763Y6498844D01*
X3435350Y6488429D01*
X3419856Y6483350D01*
X3404108Y6483350D01*
X3388613Y6488429D01*
X3383279Y6493510D01*
X3378200Y6503923D01*
X3485134Y6592315D02*
G01*
X3526790Y6483350D01*
X3568445Y6592315D02*
G01*
X3526790Y6483350D01*
X3602736Y6446773D02*
G01*
X3696208Y6446773D01*
X3730497Y6592315D02*
G01*
X3730497Y6483350D01*
X3730497Y6592315D02*
G01*
X3777234Y6592315D01*
X3792727Y6587236D01*
X3798061Y6581902D01*
X3803141Y6571487D01*
X3803141Y6561073D01*
X3798061Y6550660D01*
X3792727Y6545579D01*
X3777234Y6540500D01*
X3730497Y6540500D02*
G01*
X3777234Y6540500D01*
X3792727Y6535165D01*
X3798061Y6530086D01*
X3803141Y6519671D01*
X3803141Y6503923D01*
X3798061Y6493510D01*
X3792727Y6488429D01*
X3777234Y6483350D01*
X3730497Y6483350D01*
X3837431Y6592315D02*
G01*
X3837431Y6483350D01*
X3837431Y6592315D02*
G01*
X3884168Y6592315D01*
X3899915Y6587236D01*
X3904995Y6581902D01*
X3910329Y6571487D01*
X3910329Y6561073D01*
X3904995Y6550660D01*
X3899915Y6545579D01*
X3884168Y6540500D01*
X3837431Y6540500D01*
X3873754Y6540500D02*
G01*
X3910329Y6483350D01*
X3944620Y6592315D02*
G01*
X3944620Y6483350D01*
X3978909Y6592315D02*
G01*
X3978909Y6483350D01*
X3978909Y6592315D02*
G01*
X4015231Y6592315D01*
X4030725Y6587236D01*
X4041140Y6576821D01*
X4046220Y6566408D01*
X4051554Y6550660D01*
X4051554Y6524752D01*
X4046220Y6509257D01*
X4041140Y6498844D01*
X4030725Y6488429D01*
X4015231Y6483350D01*
X3978909Y6483350D01*
X4163822Y6566408D02*
G01*
X4158488Y6576821D01*
X4148074Y6587236D01*
X4137659Y6592315D01*
X4117086Y6592315D01*
X4106672Y6587236D01*
X4096258Y6576821D01*
X4090924Y6566408D01*
X4085843Y6550660D01*
X4085843Y6524752D01*
X4090924Y6509257D01*
X4096258Y6498844D01*
X4106672Y6488429D01*
X4117086Y6483350D01*
X4137659Y6483350D01*
X4148074Y6488429D01*
X4158488Y6498844D01*
X4163822Y6509257D01*
X4163822Y6524752D01*
X4137659Y6524752D02*
G01*
X4163822Y6524752D01*
X4198111Y6592315D02*
G01*
X4198111Y6483350D01*
X4198111Y6592315D02*
G01*
X4265675Y6592315D01*
X4198111Y6540500D02*
G01*
X4239513Y6540500D01*
X4198111Y6483350D02*
G01*
X4265675Y6483350D01*
X8801100Y5322315D02*
G01*
X8801100Y5213350D01*
X8801100Y5213350D02*
G01*
X8863329Y5213350D01*
X8897620Y5322315D02*
G01*
X8897620Y5213350D01*
X8897620Y5322315D02*
G01*
X8965184Y5322315D01*
X8897620Y5270500D02*
G01*
X8939275Y5270500D01*
X8897620Y5213350D02*
G01*
X8965184Y5213350D01*
X8999474Y5322315D02*
G01*
X8999474Y5213350D01*
X8999474Y5322315D02*
G01*
X9036050Y5322315D01*
X9051543Y5317236D01*
X9061958Y5306821D01*
X9067038Y5296407D01*
X9072372Y5280660D01*
X9072372Y5254752D01*
X9067038Y5239257D01*
X9061958Y5228844D01*
X9051543Y5218429D01*
X9036050Y5213350D01*
X8999474Y5213350D01*
X7263256Y5196204D02*
G01*
X7372477Y5196204D01*
X7372477Y5196204D02*
G01*
X7372477Y5258435D01*
X7279004Y5365622D02*
G01*
X7268590Y5355209D01*
X7263256Y5339714D01*
X7263256Y5318887D01*
X7268590Y5303138D01*
X7279004Y5292725D01*
X7289418Y5292725D01*
X7299833Y5298059D01*
X7304913Y5303138D01*
X7310247Y5313553D01*
X7320406Y5344795D01*
X7325740Y5355209D01*
X7330820Y5360288D01*
X7341234Y5365622D01*
X7356983Y5365622D01*
X7367397Y5355209D01*
X7372477Y5339714D01*
X7372477Y5318887D01*
X7367397Y5303138D01*
X7356983Y5292725D01*
X7284084Y5399912D02*
G01*
X7279004Y5410327D01*
X7263256Y5425820D01*
X7372477Y5425820D01*
X6298056Y5196204D02*
G01*
X6407277Y5196204D01*
X6407277Y5196204D02*
G01*
X6407277Y5258435D01*
X6313804Y5365622D02*
G01*
X6303390Y5355209D01*
X6298056Y5339714D01*
X6298056Y5318887D01*
X6303390Y5303138D01*
X6313804Y5292725D01*
X6324218Y5292725D01*
X6334633Y5298059D01*
X6339713Y5303138D01*
X6345047Y5313553D01*
X6355206Y5344795D01*
X6360540Y5355209D01*
X6365620Y5360288D01*
X6376034Y5365622D01*
X6391783Y5365622D01*
X6402197Y5355209D01*
X6407277Y5339714D01*
X6407277Y5318887D01*
X6402197Y5303138D01*
X6391783Y5292725D01*
X6324218Y5404993D02*
G01*
X6318884Y5404993D01*
X6308470Y5410327D01*
X6303390Y5415406D01*
X6298056Y5425820D01*
X6298056Y5446648D01*
X6303390Y5457062D01*
X6308470Y5462143D01*
X6318884Y5467477D01*
X6329299Y5467477D01*
X6339713Y5462143D01*
X6355206Y5451729D01*
X6407277Y5399912D01*
X6407277Y5472556D01*
X5345556Y5196204D02*
G01*
X5454777Y5196204D01*
X5454777Y5196204D02*
G01*
X5454777Y5258435D01*
X5361304Y5365622D02*
G01*
X5350890Y5355209D01*
X5345556Y5339714D01*
X5345556Y5318887D01*
X5350890Y5303138D01*
X5361304Y5292725D01*
X5371718Y5292725D01*
X5382133Y5298059D01*
X5387213Y5303138D01*
X5392547Y5313553D01*
X5402706Y5344795D01*
X5408040Y5355209D01*
X5413120Y5360288D01*
X5423534Y5365622D01*
X5439283Y5365622D01*
X5449697Y5355209D01*
X5454777Y5339714D01*
X5454777Y5318887D01*
X5449697Y5303138D01*
X5439283Y5292725D01*
X5345556Y5410327D02*
G01*
X5345556Y5467477D01*
X5387213Y5436235D01*
X5387213Y5451729D01*
X5392547Y5462143D01*
X5397627Y5467477D01*
X5413120Y5472556D01*
X5423534Y5472556D01*
X5439283Y5467477D01*
X5449697Y5457062D01*
X5454777Y5441314D01*
X5454777Y5425820D01*
X5449697Y5410327D01*
X5444363Y5404993D01*
X5433949Y5399912D01*
X4380356Y5196204D02*
G01*
X4489577Y5196204D01*
X4489577Y5196204D02*
G01*
X4489577Y5258435D01*
X4396104Y5365622D02*
G01*
X4385690Y5355209D01*
X4380356Y5339714D01*
X4380356Y5318887D01*
X4385690Y5303138D01*
X4396104Y5292725D01*
X4406518Y5292725D01*
X4416933Y5298059D01*
X4422013Y5303138D01*
X4427347Y5313553D01*
X4437506Y5344795D01*
X4442840Y5355209D01*
X4447920Y5360288D01*
X4458334Y5365622D01*
X4474083Y5365622D01*
X4484497Y5355209D01*
X4489577Y5339714D01*
X4489577Y5318887D01*
X4484497Y5303138D01*
X4474083Y5292725D01*
X4380356Y5451729D02*
G01*
X4453254Y5399912D01*
X4453254Y5477890D01*
X4380356Y5451729D02*
G01*
X4489577Y5451729D01*
X3021584Y5268721D02*
G01*
X3130550Y5268721D01*
X3021584Y5232400D02*
G01*
X3021584Y5305044D01*
X3021584Y5339334D02*
G01*
X3130550Y5339334D01*
X3021584Y5373623D02*
G01*
X3130550Y5373623D01*
X3021584Y5373623D02*
G01*
X3130550Y5446521D01*
X3021584Y5446521D02*
G01*
X3130550Y5446521D01*
X3021584Y5480812D02*
G01*
X3073400Y5522213D01*
X3130550Y5522213D01*
X3021584Y5563870D02*
G01*
X3073400Y5522213D01*
X3047491Y5603239D02*
G01*
X3042411Y5603239D01*
X3031997Y5608573D01*
X3026663Y5613654D01*
X3021584Y5624068D01*
X3021584Y5644895D01*
X3026663Y5655310D01*
X3031997Y5660389D01*
X3042411Y5665723D01*
X3052825Y5665723D01*
X3063240Y5660389D01*
X3078734Y5650229D01*
X3130550Y5598160D01*
X3130550Y5670804D01*
X3021584Y5736336D02*
G01*
X3026663Y5720842D01*
X3042411Y5710428D01*
X3068320Y5705094D01*
X3083813Y5705094D01*
X3109975Y5710428D01*
X3125470Y5720842D01*
X3130550Y5736336D01*
X3130550Y5746750D01*
X3125470Y5762244D01*
X3109975Y5772657D01*
X3083813Y5777992D01*
X3068320Y5777992D01*
X3042411Y5772657D01*
X3026663Y5762244D01*
X3021584Y5746750D01*
X3021584Y5736336D01*
X3021584Y5864097D02*
G01*
X3094227Y5812281D01*
X3094227Y5890260D01*
X3021584Y5864097D02*
G01*
X3130550Y5864097D01*
X3021584Y5955537D02*
G01*
X3026663Y5940044D01*
X3042411Y5929629D01*
X3068320Y5924550D01*
X3083813Y5924550D01*
X3109975Y5929629D01*
X3125470Y5940044D01*
X3130550Y5955537D01*
X3130550Y5965952D01*
X3125470Y5981700D01*
X3109975Y5991860D01*
X3083813Y5997194D01*
X3068320Y5997194D01*
X3042411Y5991860D01*
X3026663Y5981700D01*
X3021584Y5965952D01*
X3021584Y5955537D01*
X7620000Y6693915D02*
G01*
X7620000Y6584950D01*
X7620000Y6584950D02*
G01*
X7682229Y6584950D01*
X7716520Y6693915D02*
G01*
X7716520Y6584950D01*
X7716520Y6693915D02*
G01*
X7784084Y6693915D01*
X7716520Y6642100D02*
G01*
X7758175Y6642100D01*
X7716520Y6584950D02*
G01*
X7784084Y6584950D01*
X7818374Y6693915D02*
G01*
X7818374Y6584950D01*
X7818374Y6693915D02*
G01*
X7854950Y6693915D01*
X7870443Y6688836D01*
X7880858Y6678421D01*
X7885938Y6668008D01*
X7891272Y6652260D01*
X7891272Y6626352D01*
X7885938Y6610858D01*
X7880858Y6600444D01*
X7870443Y6590029D01*
X7854950Y6584950D01*
X7818374Y6584950D01*
X7925561Y6548373D02*
G01*
X8019034Y6548373D01*
X8053324Y6693915D02*
G01*
X8053324Y6584950D01*
X8053324Y6693915D02*
G01*
X8100059Y6693915D01*
X8115554Y6688836D01*
X8120888Y6683502D01*
X8125968Y6673087D01*
X8125968Y6662673D01*
X8120888Y6652260D01*
X8115554Y6647179D01*
X8100059Y6642100D01*
X8053324Y6642100D01*
X8089645Y6642100D02*
G01*
X8125968Y6584950D01*
X8160258Y6693915D02*
G01*
X8160258Y6584950D01*
X8194547Y6693915D02*
G01*
X8194547Y6584950D01*
X8194547Y6693915D02*
G01*
X8267445Y6584950D01*
X8267445Y6693915D02*
G01*
X8267445Y6584950D01*
X8379459Y6668008D02*
G01*
X8374379Y6678421D01*
X8363965Y6688836D01*
X8353552Y6693915D01*
X8332724Y6693915D01*
X8322309Y6688836D01*
X8312150Y6678421D01*
X8306815Y6668008D01*
X8301736Y6652260D01*
X8301736Y6626352D01*
X8306815Y6610858D01*
X8312150Y6600444D01*
X8322309Y6590029D01*
X8332724Y6584950D01*
X8353552Y6584950D01*
X8363965Y6590029D01*
X8374379Y6600444D01*
X8379459Y6610858D01*
X8379459Y6626352D01*
X8353552Y6626352D02*
G01*
X8379459Y6626352D01*
X100584Y2095500D02*
G01*
X209550Y2095500D01*
X209550Y2095500D02*
G01*
X209550Y2157729D01*
X100584Y2192020D02*
G01*
X209550Y2192020D01*
X100584Y2192020D02*
G01*
X100584Y2259584D01*
X152400Y2192020D02*
G01*
X152400Y2233676D01*
X209550Y2192020D02*
G01*
X209550Y2259584D01*
X100584Y2293873D02*
G01*
X209550Y2293873D01*
X100584Y2293873D02*
G01*
X100584Y2330450D01*
X105663Y2345944D01*
X116078Y2356357D01*
X126492Y2361437D01*
X142239Y2366771D01*
X168147Y2366771D01*
X183642Y2361437D01*
X194055Y2356357D01*
X204470Y2345944D01*
X209550Y2330450D01*
X209550Y2293873D01*
X246126Y2401062D02*
G01*
X246126Y2494534D01*
X116078Y2601468D02*
G01*
X105663Y2591054D01*
X100584Y2575560D01*
X100584Y2554731D01*
X105663Y2539237D01*
X116078Y2528823D01*
X126492Y2528823D01*
X136905Y2533904D01*
X142239Y2539237D01*
X147320Y2549652D01*
X157734Y2580639D01*
X162813Y2591054D01*
X168147Y2596387D01*
X178562Y2601468D01*
X194055Y2601468D01*
X204470Y2591054D01*
X209550Y2575560D01*
X209550Y2554731D01*
X204470Y2539237D01*
X194055Y2528823D01*
X100584Y2672079D02*
G01*
X209550Y2672079D01*
X100584Y2635757D02*
G01*
X100584Y2708655D01*
X100584Y2742945D02*
G01*
X209550Y2742945D01*
X100584Y2742945D02*
G01*
X100584Y2789681D01*
X105663Y2805176D01*
X110997Y2810510D01*
X121412Y2815589D01*
X131826Y2815589D01*
X142239Y2810510D01*
X147320Y2805176D01*
X152400Y2789681D01*
X152400Y2742945D01*
X152400Y2779268D02*
G01*
X209550Y2815589D01*
X100584Y2849879D02*
G01*
X209550Y2849879D01*
X100584Y2884170D02*
G01*
X209550Y2884170D01*
X100584Y2884170D02*
G01*
X100584Y2930905D01*
X105663Y2946400D01*
X110997Y2951734D01*
X121412Y2956813D01*
X136905Y2956813D01*
X147320Y2951734D01*
X152400Y2946400D01*
X157734Y2930905D01*
X157734Y2884170D01*
X4362810Y1559722D02*
G01*
X4362810Y1450756D01*
X4362810Y1559722D02*
G01*
X4404466Y1450756D01*
X4445868Y1559722D02*
G01*
X4404466Y1450756D01*
X4445868Y1559722D02*
G01*
X4445868Y1450756D01*
X4485492Y1533814D02*
G01*
X4485492Y1538894D01*
X4490572Y1549308D01*
X4495906Y1554642D01*
X4506320Y1559722D01*
X4526894Y1559722D01*
X4537308Y1554642D01*
X4542642Y1549308D01*
X4547722Y1538894D01*
X4547722Y1528480D01*
X4542642Y1518066D01*
X4532228Y1502572D01*
X4480158Y1450756D01*
X4553056Y1450756D01*
X6852010Y1559722D02*
G01*
X6852010Y1450756D01*
X6852010Y1559722D02*
G01*
X6893666Y1450756D01*
X6935068Y1559722D02*
G01*
X6893666Y1450756D01*
X6935068Y1559722D02*
G01*
X6935068Y1450756D01*
X6979772Y1559722D02*
G01*
X7036922Y1559722D01*
X7005680Y1518066D01*
X7021428Y1518066D01*
X7031842Y1512986D01*
X7036922Y1507906D01*
X7042256Y1492158D01*
X7042256Y1481744D01*
X7036922Y1466250D01*
X7026508Y1455836D01*
X7011014Y1450756D01*
X6995520Y1450756D01*
X6979772Y1455836D01*
X6974692Y1460916D01*
X6969358Y1471330D01*
X9315810Y1559722D02*
G01*
X9315810Y1450756D01*
X9315810Y1559722D02*
G01*
X9357466Y1450756D01*
X9398868Y1559722D02*
G01*
X9357466Y1450756D01*
X9398868Y1559722D02*
G01*
X9398868Y1450756D01*
X9485228Y1559722D02*
G01*
X9433158Y1487078D01*
X9511136Y1487078D01*
X9485228Y1559722D02*
G01*
X9485228Y1450756D01*
X1042415Y1549400D02*
G01*
X933450Y1549400D01*
X1042415Y1549400D02*
G01*
X1042415Y1502663D01*
X1037336Y1487170D01*
X1032002Y1481836D01*
X1021587Y1476755D01*
X1006094Y1476755D01*
X995679Y1481836D01*
X990600Y1487170D01*
X985265Y1502663D01*
X985265Y1549400D01*
X1042415Y1411223D02*
G01*
X1037336Y1421637D01*
X1026921Y1432052D01*
X1016507Y1437131D01*
X1000760Y1442465D01*
X974852Y1442465D01*
X959357Y1437131D01*
X948944Y1432052D01*
X938529Y1421637D01*
X933450Y1411223D01*
X933450Y1390395D01*
X938529Y1379981D01*
X948944Y1369568D01*
X959357Y1364487D01*
X974852Y1359154D01*
X1000760Y1359154D01*
X1016507Y1364487D01*
X1026921Y1369568D01*
X1037336Y1379981D01*
X1042415Y1390395D01*
X1042415Y1411223D01*
X1042415Y1324863D02*
G01*
X933450Y1298955D01*
X1042415Y1273047D02*
G01*
X933450Y1298955D01*
X1042415Y1273047D02*
G01*
X933450Y1247139D01*
X1042415Y1220978D02*
G01*
X933450Y1247139D01*
X1042415Y1186687D02*
G01*
X933450Y1186687D01*
X1042415Y1186687D02*
G01*
X1042415Y1119123D01*
X990600Y1186687D02*
G01*
X990600Y1145286D01*
X933450Y1186687D02*
G01*
X933450Y1119123D01*
X1042415Y1084834D02*
G01*
X933450Y1084834D01*
X1042415Y1084834D02*
G01*
X1042415Y1038097D01*
X1037336Y1022604D01*
X1032002Y1017270D01*
X1021587Y1012189D01*
X1011173Y1012189D01*
X1000760Y1017270D01*
X995679Y1022604D01*
X990600Y1038097D01*
X990600Y1084834D01*
X990600Y1048512D02*
G01*
X933450Y1012189D01*
X896873Y977900D02*
G01*
X896873Y884428D01*
X1016507Y772160D02*
G01*
X1026921Y777239D01*
X1037336Y787654D01*
X1042415Y798068D01*
X1042415Y818895D01*
X1037336Y829310D01*
X1026921Y839723D01*
X1016507Y844804D01*
X1000760Y850137D01*
X974852Y850137D01*
X959357Y844804D01*
X948944Y839723D01*
X938529Y829310D01*
X933450Y818895D01*
X933450Y798068D01*
X938529Y787654D01*
X948944Y777239D01*
X959357Y772160D01*
X1042415Y706628D02*
G01*
X1037336Y717042D01*
X1026921Y727455D01*
X1016507Y732789D01*
X1000760Y737870D01*
X974852Y737870D01*
X959357Y732789D01*
X948944Y727455D01*
X938529Y717042D01*
X933450Y706628D01*
X933450Y685800D01*
X938529Y675639D01*
X948944Y665226D01*
X959357Y659892D01*
X974852Y654812D01*
X1000760Y654812D01*
X1016507Y659892D01*
X1026921Y665226D01*
X1037336Y675639D01*
X1042415Y685800D01*
X1042415Y706628D01*
X1042415Y620521D02*
G01*
X933450Y620521D01*
X1042415Y620521D02*
G01*
X933450Y547623D01*
X1042415Y547623D02*
G01*
X933450Y547623D01*
X8242300Y4649215D02*
G01*
X8242300Y4540250D01*
X8242300Y4649215D02*
G01*
X8289036Y4649215D01*
X8304529Y4644136D01*
X8309863Y4638802D01*
X8314943Y4628387D01*
X8314943Y4617973D01*
X8309863Y4607560D01*
X8304529Y4602479D01*
X8289036Y4597400D01*
X8242300Y4597400D01*
X8278622Y4597400D02*
G01*
X8314943Y4540250D01*
X8354568Y4623307D02*
G01*
X8354568Y4628387D01*
X8359647Y4638802D01*
X8364981Y4644136D01*
X8375395Y4649215D01*
X8395970Y4649215D01*
X8406384Y4644136D01*
X8411718Y4638802D01*
X8416797Y4628387D01*
X8416797Y4617973D01*
X8411718Y4607560D01*
X8401304Y4592065D01*
X8349234Y4540250D01*
X8422131Y4540250D01*
X3274822Y4512055D02*
G01*
X3274822Y4403089D01*
X3238500Y4512055D02*
G01*
X3311143Y4512055D01*
X3345434Y4512055D02*
G01*
X3418331Y4403089D01*
X3418331Y4512055D02*
G01*
X3345434Y4403089D01*
X876300Y4319015D02*
G01*
X876300Y4210050D01*
X876300Y4319015D02*
G01*
X923036Y4319015D01*
X938529Y4313936D01*
X943863Y4308602D01*
X948944Y4298187D01*
X948944Y4287773D01*
X943863Y4277360D01*
X938529Y4272279D01*
X923036Y4267200D01*
X876300Y4267200D01*
X912621Y4267200D02*
G01*
X948944Y4210050D01*
X983234Y4319015D02*
G01*
X1056131Y4210050D01*
X1056131Y4319015D02*
G01*
X983234Y4210050D01*
X2076704Y1559813D02*
G01*
X2076704Y1450594D01*
X2076704Y1559813D02*
G01*
X2118359Y1450594D01*
X2160015Y1559813D02*
G01*
X2118359Y1450594D01*
X2160015Y1559813D02*
G01*
X2160015Y1450594D01*
X2194306Y1538986D02*
G01*
X2204720Y1544065D01*
X2220213Y1559813D01*
X2220213Y1450594D01*
X6870700Y5802884D02*
G01*
X6870700Y5911850D01*
X6870700Y5802884D02*
G01*
X6823963Y5802884D01*
X6808470Y5807963D01*
X6803136Y5813297D01*
X6798056Y5823712D01*
X6798056Y5834126D01*
X6803136Y5844539D01*
X6808470Y5849620D01*
X6823963Y5854700D01*
X6870700Y5854700D01*
X6834377Y5854700D02*
G01*
X6798056Y5911850D01*
X6701281Y5802884D02*
G01*
X6753352Y5802884D01*
X6758431Y5849620D01*
X6753352Y5844539D01*
X6737604Y5839205D01*
X6722109Y5839205D01*
X6706615Y5844539D01*
X6696202Y5854700D01*
X6690868Y5870447D01*
X6690868Y5880862D01*
X6696202Y5896355D01*
X6706615Y5906770D01*
X6722109Y5911850D01*
X6737604Y5911850D01*
X6753352Y5906770D01*
X6758431Y5901689D01*
X6763765Y5891276D01*
X6299200Y5802884D02*
G01*
X6299200Y5911850D01*
X6299200Y5802884D02*
G01*
X6252463Y5802884D01*
X6236970Y5807963D01*
X6231636Y5813297D01*
X6226556Y5823712D01*
X6226556Y5834126D01*
X6231636Y5844539D01*
X6236970Y5849620D01*
X6252463Y5854700D01*
X6299200Y5854700D01*
X6262877Y5854700D02*
G01*
X6226556Y5911850D01*
X6129781Y5818378D02*
G01*
X6135115Y5807963D01*
X6150609Y5802884D01*
X6161024Y5802884D01*
X6176518Y5807963D01*
X6186931Y5823712D01*
X6192265Y5849620D01*
X6192265Y5875528D01*
X6186931Y5896355D01*
X6176518Y5906770D01*
X6161024Y5911850D01*
X6155690Y5911850D01*
X6140195Y5906770D01*
X6129781Y5896355D01*
X6124702Y5880862D01*
X6124702Y5875528D01*
X6129781Y5860034D01*
X6140195Y5849620D01*
X6155690Y5844539D01*
X6161024Y5844539D01*
X6176518Y5849620D01*
X6186931Y5860034D01*
X6192265Y5875528D01*
X5702300Y5802884D02*
G01*
X5702300Y5911850D01*
X5702300Y5802884D02*
G01*
X5655563Y5802884D01*
X5640070Y5807963D01*
X5634736Y5813297D01*
X5629656Y5823712D01*
X5629656Y5834126D01*
X5634736Y5844539D01*
X5640070Y5849620D01*
X5655563Y5854700D01*
X5702300Y5854700D01*
X5665977Y5854700D02*
G01*
X5629656Y5911850D01*
X5522468Y5802884D02*
G01*
X5574538Y5911850D01*
X5595365Y5802884D02*
G01*
X5522468Y5802884D01*
X4940300Y5790184D02*
G01*
X4940300Y5899150D01*
X4940300Y5790184D02*
G01*
X4893563Y5790184D01*
X4878070Y5795263D01*
X4872736Y5800597D01*
X4867656Y5811012D01*
X4867656Y5821426D01*
X4872736Y5831839D01*
X4878070Y5836920D01*
X4893563Y5842000D01*
X4940300Y5842000D01*
X4903977Y5842000D02*
G01*
X4867656Y5899150D01*
X4807204Y5790184D02*
G01*
X4822952Y5795263D01*
X4828031Y5805678D01*
X4828031Y5816092D01*
X4822952Y5826505D01*
X4812538Y5831839D01*
X4791709Y5836920D01*
X4776215Y5842000D01*
X4765802Y5852413D01*
X4760468Y5862828D01*
X4760468Y5878576D01*
X4765802Y5888989D01*
X4770881Y5894070D01*
X4786629Y5899150D01*
X4807204Y5899150D01*
X4822952Y5894070D01*
X4828031Y5888989D01*
X4833365Y5878576D01*
X4833365Y5862828D01*
X4828031Y5852413D01*
X4817618Y5842000D01*
X4802124Y5836920D01*
X4781295Y5831839D01*
X4770881Y5826505D01*
X4765802Y5816092D01*
X4765802Y5805678D01*
X4770881Y5795263D01*
X4786629Y5790184D01*
X4807204Y5790184D01*
X913384Y2984500D02*
G01*
X991362Y2984500D01*
X1006855Y2989579D01*
X1017270Y2999994D01*
X1022350Y3015742D01*
X1022350Y3026155D01*
X1017270Y3041650D01*
X1006855Y3052063D01*
X991362Y3057144D01*
X913384Y3057144D01*
X934212Y3091434D02*
G01*
X928878Y3101847D01*
X913384Y3117595D01*
X1022350Y3117595D01*
D12*
X1231900Y3790187D02*
G01*
X1231900Y3856989D01*
X1231900Y3790187D02*
G01*
X1209547Y3790187D01*
X1200150Y3793236D01*
X1193800Y3799586D01*
X1190497Y3806189D01*
X1187450Y3815587D01*
X1187450Y3831589D01*
X1190497Y3840987D01*
X1193800Y3847337D01*
X1200150Y3853687D01*
X1209547Y3856989D01*
X1231900Y3856989D01*
X1166368Y3790187D02*
G01*
X1166368Y3856989D01*
X1145286Y3790187D02*
G01*
X1145286Y3856989D01*
X1145286Y3790187D02*
G01*
X1116837Y3790187D01*
X1107186Y3793236D01*
X1103884Y3796537D01*
X1100836Y3802887D01*
X1100836Y3809237D01*
X1103884Y3815587D01*
X1107186Y3818889D01*
X1116837Y3821937D01*
X1145286Y3821937D01*
X1123187Y3821937D02*
G01*
X1100836Y3856989D01*
X3022600Y3790187D02*
G01*
X3022600Y3856989D01*
X3022600Y3790187D02*
G01*
X2981197Y3790187D01*
X3022600Y3821937D02*
G01*
X2997200Y3821937D01*
X3022600Y3856989D02*
G01*
X2981197Y3856989D01*
X2960115Y3790187D02*
G01*
X2960115Y3856989D01*
X2960115Y3790187D02*
G01*
X2915665Y3856989D01*
X2915665Y3790187D02*
G01*
X2915665Y3856989D01*
X3035300Y2113787D02*
G01*
X3009900Y2180589D01*
X2984500Y2113787D02*
G01*
X3009900Y2180589D01*
X2963418Y2113787D02*
G01*
X2963418Y2180589D01*
X2963418Y2113787D02*
G01*
X2938018Y2180589D01*
X2912363Y2113787D02*
G01*
X2938018Y2180589D01*
X2912363Y2113787D02*
G01*
X2912363Y2180589D01*
X1222247Y2129789D02*
G01*
X1225550Y2123186D01*
X1231900Y2116836D01*
X1238250Y2113787D01*
X1250950Y2113787D01*
X1257300Y2116836D01*
X1263650Y2123186D01*
X1266697Y2129789D01*
X1270000Y2139187D01*
X1270000Y2155189D01*
X1266697Y2164587D01*
X1263650Y2170937D01*
X1257300Y2177287D01*
X1250950Y2180589D01*
X1238250Y2180589D01*
X1231900Y2177287D01*
X1225550Y2170937D01*
X1222247Y2164587D01*
X1222247Y2155189D01*
X1238250Y2155189D02*
G01*
X1222247Y2155189D01*
X1201165Y2113787D02*
G01*
X1201165Y2180589D01*
X1201165Y2113787D02*
G01*
X1156715Y2180589D01*
X1156715Y2113787D02*
G01*
X1156715Y2180589D01*
X1135634Y2113787D02*
G01*
X1135634Y2180589D01*
X1135634Y2113787D02*
G01*
X1113536Y2113787D01*
X1103884Y2116836D01*
X1097534Y2123186D01*
X1094486Y2129789D01*
X1091184Y2139187D01*
X1091184Y2155189D01*
X1094486Y2164587D01*
X1097534Y2170937D01*
X1103884Y2177287D01*
X1113536Y2180589D01*
X1135634Y2180589D01*
X2679700Y3332987D02*
G01*
X2654300Y3399789D01*
X2628900Y3332987D02*
G01*
X2654300Y3399789D01*
X2607818Y3422142D02*
G01*
X2550413Y3422142D01*
X2529586Y3332987D02*
G01*
X2529586Y3399789D01*
X2529586Y3332987D02*
G01*
X2500884Y3332987D01*
X2491231Y3336036D01*
X2488184Y3339337D01*
X2484881Y3345687D01*
X2484881Y3352037D01*
X2488184Y3358387D01*
X2491231Y3361689D01*
X2500884Y3364737D01*
X2529586Y3364737D01*
X2507234Y3364737D02*
G01*
X2484881Y3399789D01*
X2464054Y3332987D02*
G01*
X2464054Y3399789D01*
X2464054Y3332987D02*
G01*
X2422652Y3332987D01*
X2464054Y3364737D02*
G01*
X2438400Y3364737D01*
X2464054Y3399789D02*
G01*
X2422652Y3399789D01*
X2401570Y3332987D02*
G01*
X2401570Y3399789D01*
X2401570Y3332987D02*
G01*
X2360168Y3332987D01*
X2401570Y3364737D02*
G01*
X2376170Y3364737D01*
D13*
X1385315Y2562352D02*
G01*
X1528571Y2562352D01*
X1385315Y2514600D02*
G01*
X1385315Y2610104D01*
X1385315Y2655062D02*
G01*
X1528571Y2655062D01*
X1385315Y2655062D02*
G01*
X1528571Y2709671D01*
X1385315Y2764028D02*
G01*
X1528571Y2709671D01*
X1385315Y2764028D02*
G01*
X1528571Y2764028D01*
X1419352Y2911347D02*
G01*
X1405889Y2904489D01*
X1392173Y2891028D01*
X1385315Y2877312D01*
X1385315Y2850134D01*
X1392173Y2836418D01*
X1405889Y2822702D01*
X1419352Y2815844D01*
X1439926Y2809239D01*
X1473962Y2809239D01*
X1494536Y2815844D01*
X1507997Y2822702D01*
X1521713Y2836418D01*
X1528571Y2850134D01*
X1528571Y2877312D01*
X1521713Y2891028D01*
X1507997Y2904489D01*
X1494536Y2911347D01*
X1419352Y2963163D02*
G01*
X1412494Y2963163D01*
X1399031Y2970021D01*
X1392173Y2976879D01*
X1385315Y2990595D01*
X1385315Y3017773D01*
X1392173Y3031489D01*
X1399031Y3038347D01*
X1412494Y3044952D01*
X1426210Y3044952D01*
X1439926Y3038347D01*
X1460245Y3024631D01*
X1528571Y2956305D01*
X1528571Y3051810D01*
X1419352Y3103626D02*
G01*
X1412494Y3103626D01*
X1399031Y3110484D01*
X1392173Y3117342D01*
X1385315Y3131057D01*
X1385315Y3158236D01*
X1392173Y3171952D01*
X1399031Y3178810D01*
X1412494Y3185413D01*
X1426210Y3185413D01*
X1439926Y3178810D01*
X1460245Y3165094D01*
X1528571Y3096768D01*
X1528571Y3192271D01*
X1385315Y3278123D02*
G01*
X1392173Y3257804D01*
X1412494Y3244087D01*
X1446784Y3237229D01*
X1467104Y3237229D01*
X1501139Y3244087D01*
X1521713Y3257804D01*
X1528571Y3278123D01*
X1528571Y3291839D01*
X1521713Y3312413D01*
X1501139Y3325876D01*
X1467104Y3332734D01*
X1446784Y3332734D01*
X1412494Y3325876D01*
X1392173Y3312413D01*
X1385315Y3291839D01*
X1385315Y3278123D01*
X1433068Y3466337D02*
G01*
X1453642Y3459479D01*
X1467104Y3446018D01*
X1473962Y3425444D01*
X1473962Y3418586D01*
X1467104Y3398265D01*
X1453642Y3384550D01*
X1433068Y3377692D01*
X1426210Y3377692D01*
X1405889Y3384550D01*
X1392173Y3398265D01*
X1385315Y3418586D01*
X1385315Y3425444D01*
X1392173Y3446018D01*
X1405889Y3459479D01*
X1433068Y3466337D01*
X1467104Y3466337D01*
X1501139Y3459479D01*
X1521713Y3446018D01*
X1528571Y3425444D01*
X1528571Y3411981D01*
X1521713Y3391407D01*
X1507997Y3384550D01*
D11*
X3250184Y2997200D02*
G01*
X3328161Y2997200D01*
X3343656Y3002279D01*
X3354070Y3012694D01*
X3359150Y3028442D01*
X3359150Y3038855D01*
X3354070Y3054350D01*
X3343656Y3064763D01*
X3328161Y3069844D01*
X3250184Y3069844D01*
X3276091Y3109468D02*
G01*
X3271011Y3109468D01*
X3260597Y3114547D01*
X3255263Y3119881D01*
X3250184Y3130295D01*
X3250184Y3150870D01*
X3255263Y3161284D01*
X3260597Y3166618D01*
X3271011Y3171697D01*
X3281425Y3171697D01*
X3291840Y3166618D01*
X3307334Y3156204D01*
X3359150Y3104134D01*
X3359150Y3177031D01*
D12*
X3568700Y3802887D02*
G01*
X3568700Y3869689D01*
X3568700Y3802887D02*
G01*
X3546347Y3802887D01*
X3536950Y3805936D01*
X3530600Y3812286D01*
X3527297Y3818889D01*
X3524250Y3828287D01*
X3524250Y3844289D01*
X3527297Y3853687D01*
X3530600Y3860037D01*
X3536950Y3866387D01*
X3546347Y3869689D01*
X3568700Y3869689D01*
X3503168Y3802887D02*
G01*
X3503168Y3869689D01*
X3482086Y3802887D02*
G01*
X3482086Y3869689D01*
X3482086Y3802887D02*
G01*
X3453638Y3802887D01*
X3443986Y3805936D01*
X3440684Y3809237D01*
X3437636Y3815587D01*
X3437636Y3821937D01*
X3440684Y3828287D01*
X3443986Y3831589D01*
X3453638Y3834637D01*
X3482086Y3834637D01*
X3459988Y3834637D02*
G01*
X3437636Y3869689D01*
X5359400Y3802887D02*
G01*
X5359400Y3869689D01*
X5359400Y3802887D02*
G01*
X5317997Y3802887D01*
X5359400Y3834637D02*
G01*
X5334000Y3834637D01*
X5359400Y3869689D02*
G01*
X5317997Y3869689D01*
X5296915Y3802887D02*
G01*
X5296915Y3869689D01*
X5296915Y3802887D02*
G01*
X5252465Y3869689D01*
X5252465Y3802887D02*
G01*
X5252465Y3869689D01*
X5372100Y2126487D02*
G01*
X5346700Y2193289D01*
X5321300Y2126487D02*
G01*
X5346700Y2193289D01*
X5300218Y2126487D02*
G01*
X5300218Y2193289D01*
X5300218Y2126487D02*
G01*
X5274818Y2193289D01*
X5249163Y2126487D02*
G01*
X5274818Y2193289D01*
X5249163Y2126487D02*
G01*
X5249163Y2193289D01*
X3559047Y2142489D02*
G01*
X3562350Y2135886D01*
X3568700Y2129536D01*
X3575050Y2126487D01*
X3587750Y2126487D01*
X3594100Y2129536D01*
X3600450Y2135886D01*
X3603497Y2142489D01*
X3606800Y2151887D01*
X3606800Y2167889D01*
X3603497Y2177287D01*
X3600450Y2183637D01*
X3594100Y2189987D01*
X3587750Y2193289D01*
X3575050Y2193289D01*
X3568700Y2189987D01*
X3562350Y2183637D01*
X3559047Y2177287D01*
X3559047Y2167889D01*
X3575050Y2167889D02*
G01*
X3559047Y2167889D01*
X3537965Y2126487D02*
G01*
X3537965Y2193289D01*
X3537965Y2126487D02*
G01*
X3493515Y2193289D01*
X3493515Y2126487D02*
G01*
X3493515Y2193289D01*
X3472434Y2126487D02*
G01*
X3472434Y2193289D01*
X3472434Y2126487D02*
G01*
X3450336Y2126487D01*
X3440684Y2129536D01*
X3434334Y2135886D01*
X3431286Y2142489D01*
X3427984Y2151887D01*
X3427984Y2167889D01*
X3431286Y2177287D01*
X3434334Y2183637D01*
X3440684Y2189987D01*
X3450336Y2193289D01*
X3472434Y2193289D01*
X5016500Y3345687D02*
G01*
X4991100Y3412489D01*
X4965700Y3345687D02*
G01*
X4991100Y3412489D01*
X4944618Y3434842D02*
G01*
X4887213Y3434842D01*
X4866386Y3345687D02*
G01*
X4866386Y3412489D01*
X4866386Y3345687D02*
G01*
X4837684Y3345687D01*
X4828031Y3348736D01*
X4824984Y3352037D01*
X4821681Y3358387D01*
X4821681Y3364737D01*
X4824984Y3371087D01*
X4828031Y3374389D01*
X4837684Y3377437D01*
X4866386Y3377437D01*
X4844034Y3377437D02*
G01*
X4821681Y3412489D01*
X4800854Y3345687D02*
G01*
X4800854Y3412489D01*
X4800854Y3345687D02*
G01*
X4759452Y3345687D01*
X4800854Y3377437D02*
G01*
X4775200Y3377437D01*
X4800854Y3412489D02*
G01*
X4759452Y3412489D01*
X4738370Y3345687D02*
G01*
X4738370Y3412489D01*
X4738370Y3345687D02*
G01*
X4696968Y3345687D01*
X4738370Y3377437D02*
G01*
X4712970Y3377437D01*
D13*
X3722115Y2575052D02*
G01*
X3865372Y2575052D01*
X3722115Y2527300D02*
G01*
X3722115Y2622804D01*
X3722115Y2667762D02*
G01*
X3865372Y2667762D01*
X3722115Y2667762D02*
G01*
X3865372Y2722371D01*
X3722115Y2776728D02*
G01*
X3865372Y2722371D01*
X3722115Y2776728D02*
G01*
X3865372Y2776728D01*
X3756152Y2924047D02*
G01*
X3742690Y2917189D01*
X3728974Y2903728D01*
X3722115Y2890012D01*
X3722115Y2862834D01*
X3728974Y2849118D01*
X3742690Y2835402D01*
X3756152Y2828544D01*
X3776725Y2821939D01*
X3810761Y2821939D01*
X3831336Y2828544D01*
X3844797Y2835402D01*
X3858513Y2849118D01*
X3865372Y2862834D01*
X3865372Y2890012D01*
X3858513Y2903728D01*
X3844797Y2917189D01*
X3831336Y2924047D01*
X3756152Y2975863D02*
G01*
X3749293Y2975863D01*
X3735831Y2982721D01*
X3728974Y2989579D01*
X3722115Y3003295D01*
X3722115Y3030473D01*
X3728974Y3044189D01*
X3735831Y3051047D01*
X3749293Y3057652D01*
X3763009Y3057652D01*
X3776725Y3051047D01*
X3797045Y3037331D01*
X3865372Y2969005D01*
X3865372Y3064510D01*
X3756152Y3116326D02*
G01*
X3749293Y3116326D01*
X3735831Y3123184D01*
X3728974Y3130042D01*
X3722115Y3143757D01*
X3722115Y3170936D01*
X3728974Y3184652D01*
X3735831Y3191510D01*
X3749293Y3198113D01*
X3763009Y3198113D01*
X3776725Y3191510D01*
X3797045Y3177794D01*
X3865372Y3109468D01*
X3865372Y3204971D01*
X3722115Y3290823D02*
G01*
X3728974Y3270504D01*
X3749293Y3256787D01*
X3783584Y3249929D01*
X3803904Y3249929D01*
X3837940Y3256787D01*
X3858513Y3270504D01*
X3865372Y3290823D01*
X3865372Y3304539D01*
X3858513Y3325113D01*
X3837940Y3338576D01*
X3803904Y3345434D01*
X3783584Y3345434D01*
X3749293Y3338576D01*
X3728974Y3325113D01*
X3722115Y3304539D01*
X3722115Y3290823D01*
X3769868Y3479037D02*
G01*
X3790441Y3472179D01*
X3803904Y3458718D01*
X3810761Y3438144D01*
X3810761Y3431286D01*
X3803904Y3410965D01*
X3790441Y3397250D01*
X3769868Y3390392D01*
X3763009Y3390392D01*
X3742690Y3397250D01*
X3728974Y3410965D01*
X3722115Y3431286D01*
X3722115Y3438144D01*
X3728974Y3458718D01*
X3742690Y3472179D01*
X3769868Y3479037D01*
X3803904Y3479037D01*
X3837940Y3472179D01*
X3858513Y3458718D01*
X3865372Y3438144D01*
X3865372Y3424681D01*
X3858513Y3404107D01*
X3844797Y3397250D01*
D11*
X5739384Y2984500D02*
G01*
X5817361Y2984500D01*
X5832856Y2989579D01*
X5843270Y2999994D01*
X5848350Y3015742D01*
X5848350Y3026155D01*
X5843270Y3041650D01*
X5832856Y3052063D01*
X5817361Y3057144D01*
X5739384Y3057144D01*
X5739384Y3101847D02*
G01*
X5739384Y3158997D01*
X5781040Y3128010D01*
X5781040Y3143504D01*
X5786120Y3153918D01*
X5791200Y3158997D01*
X5806947Y3164331D01*
X5817361Y3164331D01*
X5832856Y3158997D01*
X5843270Y3148584D01*
X5848350Y3133089D01*
X5848350Y3117595D01*
X5843270Y3101847D01*
X5838190Y3096768D01*
X5827775Y3091434D01*
D12*
X6057900Y3790187D02*
G01*
X6057900Y3856989D01*
X6057900Y3790187D02*
G01*
X6035547Y3790187D01*
X6026150Y3793236D01*
X6019800Y3799586D01*
X6016497Y3806189D01*
X6013450Y3815587D01*
X6013450Y3831589D01*
X6016497Y3840987D01*
X6019800Y3847337D01*
X6026150Y3853687D01*
X6035547Y3856989D01*
X6057900Y3856989D01*
X5992368Y3790187D02*
G01*
X5992368Y3856989D01*
X5971286Y3790187D02*
G01*
X5971286Y3856989D01*
X5971286Y3790187D02*
G01*
X5942838Y3790187D01*
X5933186Y3793236D01*
X5929884Y3796537D01*
X5926836Y3802887D01*
X5926836Y3809237D01*
X5929884Y3815587D01*
X5933186Y3818889D01*
X5942838Y3821937D01*
X5971286Y3821937D01*
X5949188Y3821937D02*
G01*
X5926836Y3856989D01*
X7848600Y3790187D02*
G01*
X7848600Y3856989D01*
X7848600Y3790187D02*
G01*
X7807197Y3790187D01*
X7848600Y3821937D02*
G01*
X7823200Y3821937D01*
X7848600Y3856989D02*
G01*
X7807197Y3856989D01*
X7786115Y3790187D02*
G01*
X7786115Y3856989D01*
X7786115Y3790187D02*
G01*
X7741665Y3856989D01*
X7741665Y3790187D02*
G01*
X7741665Y3856989D01*
X7861300Y2113787D02*
G01*
X7835900Y2180589D01*
X7810500Y2113787D02*
G01*
X7835900Y2180589D01*
X7789418Y2113787D02*
G01*
X7789418Y2180589D01*
X7789418Y2113787D02*
G01*
X7764018Y2180589D01*
X7738363Y2113787D02*
G01*
X7764018Y2180589D01*
X7738363Y2113787D02*
G01*
X7738363Y2180589D01*
X6048247Y2129789D02*
G01*
X6051550Y2123186D01*
X6057900Y2116836D01*
X6064250Y2113787D01*
X6076950Y2113787D01*
X6083300Y2116836D01*
X6089650Y2123186D01*
X6092697Y2129789D01*
X6096000Y2139187D01*
X6096000Y2155189D01*
X6092697Y2164587D01*
X6089650Y2170937D01*
X6083300Y2177287D01*
X6076950Y2180589D01*
X6064250Y2180589D01*
X6057900Y2177287D01*
X6051550Y2170937D01*
X6048247Y2164587D01*
X6048247Y2155189D01*
X6064250Y2155189D02*
G01*
X6048247Y2155189D01*
X6027165Y2113787D02*
G01*
X6027165Y2180589D01*
X6027165Y2113787D02*
G01*
X5982715Y2180589D01*
X5982715Y2113787D02*
G01*
X5982715Y2180589D01*
X5961634Y2113787D02*
G01*
X5961634Y2180589D01*
X5961634Y2113787D02*
G01*
X5939536Y2113787D01*
X5929884Y2116836D01*
X5923534Y2123186D01*
X5920486Y2129789D01*
X5917184Y2139187D01*
X5917184Y2155189D01*
X5920486Y2164587D01*
X5923534Y2170937D01*
X5929884Y2177287D01*
X5939536Y2180589D01*
X5961634Y2180589D01*
X7505700Y3332987D02*
G01*
X7480300Y3399789D01*
X7454900Y3332987D02*
G01*
X7480300Y3399789D01*
X7433818Y3422142D02*
G01*
X7376413Y3422142D01*
X7355586Y3332987D02*
G01*
X7355586Y3399789D01*
X7355586Y3332987D02*
G01*
X7326884Y3332987D01*
X7317231Y3336036D01*
X7314184Y3339337D01*
X7310881Y3345687D01*
X7310881Y3352037D01*
X7314184Y3358387D01*
X7317231Y3361689D01*
X7326884Y3364737D01*
X7355586Y3364737D01*
X7333234Y3364737D02*
G01*
X7310881Y3399789D01*
X7290054Y3332987D02*
G01*
X7290054Y3399789D01*
X7290054Y3332987D02*
G01*
X7248652Y3332987D01*
X7290054Y3364737D02*
G01*
X7264400Y3364737D01*
X7290054Y3399789D02*
G01*
X7248652Y3399789D01*
X7227570Y3332987D02*
G01*
X7227570Y3399789D01*
X7227570Y3332987D02*
G01*
X7186168Y3332987D01*
X7227570Y3364737D02*
G01*
X7202170Y3364737D01*
D13*
X6211315Y2562352D02*
G01*
X6354572Y2562352D01*
X6211315Y2514600D02*
G01*
X6211315Y2610104D01*
X6211315Y2655062D02*
G01*
X6354572Y2655062D01*
X6211315Y2655062D02*
G01*
X6354572Y2709671D01*
X6211315Y2764028D02*
G01*
X6354572Y2709671D01*
X6211315Y2764028D02*
G01*
X6354572Y2764028D01*
X6245352Y2911347D02*
G01*
X6231890Y2904489D01*
X6218174Y2891028D01*
X6211315Y2877312D01*
X6211315Y2850134D01*
X6218174Y2836418D01*
X6231890Y2822702D01*
X6245352Y2815844D01*
X6265925Y2809239D01*
X6299961Y2809239D01*
X6320536Y2815844D01*
X6333997Y2822702D01*
X6347713Y2836418D01*
X6354572Y2850134D01*
X6354572Y2877312D01*
X6347713Y2891028D01*
X6333997Y2904489D01*
X6320536Y2911347D01*
X6245352Y2963163D02*
G01*
X6238493Y2963163D01*
X6225031Y2970021D01*
X6218174Y2976879D01*
X6211315Y2990595D01*
X6211315Y3017773D01*
X6218174Y3031489D01*
X6225031Y3038347D01*
X6238493Y3044952D01*
X6252209Y3044952D01*
X6265925Y3038347D01*
X6286245Y3024631D01*
X6354572Y2956305D01*
X6354572Y3051810D01*
X6245352Y3103626D02*
G01*
X6238493Y3103626D01*
X6225031Y3110484D01*
X6218174Y3117342D01*
X6211315Y3131057D01*
X6211315Y3158236D01*
X6218174Y3171952D01*
X6225031Y3178810D01*
X6238493Y3185413D01*
X6252209Y3185413D01*
X6265925Y3178810D01*
X6286245Y3165094D01*
X6354572Y3096768D01*
X6354572Y3192271D01*
X6211315Y3278123D02*
G01*
X6218174Y3257804D01*
X6238493Y3244087D01*
X6272784Y3237229D01*
X6293104Y3237229D01*
X6327140Y3244087D01*
X6347713Y3257804D01*
X6354572Y3278123D01*
X6354572Y3291839D01*
X6347713Y3312413D01*
X6327140Y3325876D01*
X6293104Y3332734D01*
X6272784Y3332734D01*
X6238493Y3325876D01*
X6218174Y3312413D01*
X6211315Y3291839D01*
X6211315Y3278123D01*
X6259068Y3466337D02*
G01*
X6279641Y3459479D01*
X6293104Y3446018D01*
X6299961Y3425444D01*
X6299961Y3418586D01*
X6293104Y3398265D01*
X6279641Y3384550D01*
X6259068Y3377692D01*
X6252209Y3377692D01*
X6231890Y3384550D01*
X6218174Y3398265D01*
X6211315Y3418586D01*
X6211315Y3425444D01*
X6218174Y3446018D01*
X6231890Y3459479D01*
X6259068Y3466337D01*
X6293104Y3466337D01*
X6327140Y3459479D01*
X6347713Y3446018D01*
X6354572Y3425444D01*
X6354572Y3411981D01*
X6347713Y3391407D01*
X6333997Y3384550D01*
D11*
X8139684Y2971800D02*
G01*
X8217661Y2971800D01*
X8233156Y2976879D01*
X8243570Y2987294D01*
X8248650Y3003042D01*
X8248650Y3013455D01*
X8243570Y3028950D01*
X8233156Y3039363D01*
X8217661Y3044444D01*
X8139684Y3044444D01*
X8139684Y3130804D02*
G01*
X8212327Y3078734D01*
X8212327Y3156712D01*
X8139684Y3130804D02*
G01*
X8248650Y3130804D01*
D12*
X8458200Y3777487D02*
G01*
X8458200Y3844289D01*
X8458200Y3777487D02*
G01*
X8435847Y3777487D01*
X8426450Y3780536D01*
X8420100Y3786886D01*
X8416797Y3793489D01*
X8413750Y3802887D01*
X8413750Y3818889D01*
X8416797Y3828287D01*
X8420100Y3834637D01*
X8426450Y3840987D01*
X8435847Y3844289D01*
X8458200Y3844289D01*
X8392668Y3777487D02*
G01*
X8392668Y3844289D01*
X8371586Y3777487D02*
G01*
X8371586Y3844289D01*
X8371586Y3777487D02*
G01*
X8343138Y3777487D01*
X8333486Y3780536D01*
X8330184Y3783837D01*
X8327136Y3790187D01*
X8327136Y3796537D01*
X8330184Y3802887D01*
X8333486Y3806189D01*
X8343138Y3809237D01*
X8371586Y3809237D01*
X8349488Y3809237D02*
G01*
X8327136Y3844289D01*
X10248900Y3777487D02*
G01*
X10248900Y3844289D01*
X10248900Y3777487D02*
G01*
X10207497Y3777487D01*
X10248900Y3809237D02*
G01*
X10223500Y3809237D01*
X10248900Y3844289D02*
G01*
X10207497Y3844289D01*
X10186415Y3777487D02*
G01*
X10186415Y3844289D01*
X10186415Y3777487D02*
G01*
X10141965Y3844289D01*
X10141965Y3777487D02*
G01*
X10141965Y3844289D01*
X10261600Y2101087D02*
G01*
X10236200Y2167889D01*
X10210800Y2101087D02*
G01*
X10236200Y2167889D01*
X10189718Y2101087D02*
G01*
X10189718Y2167889D01*
X10189718Y2101087D02*
G01*
X10164318Y2167889D01*
X10138663Y2101087D02*
G01*
X10164318Y2167889D01*
X10138663Y2101087D02*
G01*
X10138663Y2167889D01*
X8448547Y2117089D02*
G01*
X8451850Y2110486D01*
X8458200Y2104136D01*
X8464550Y2101087D01*
X8477250Y2101087D01*
X8483600Y2104136D01*
X8489950Y2110486D01*
X8492997Y2117089D01*
X8496300Y2126487D01*
X8496300Y2142489D01*
X8492997Y2151887D01*
X8489950Y2158237D01*
X8483600Y2164587D01*
X8477250Y2167889D01*
X8464550Y2167889D01*
X8458200Y2164587D01*
X8451850Y2158237D01*
X8448547Y2151887D01*
X8448547Y2142489D01*
X8464550Y2142489D02*
G01*
X8448547Y2142489D01*
X8427465Y2101087D02*
G01*
X8427465Y2167889D01*
X8427465Y2101087D02*
G01*
X8383015Y2167889D01*
X8383015Y2101087D02*
G01*
X8383015Y2167889D01*
X8361934Y2101087D02*
G01*
X8361934Y2167889D01*
X8361934Y2101087D02*
G01*
X8339836Y2101087D01*
X8330184Y2104136D01*
X8323834Y2110486D01*
X8320786Y2117089D01*
X8317484Y2126487D01*
X8317484Y2142489D01*
X8320786Y2151887D01*
X8323834Y2158237D01*
X8330184Y2164587D01*
X8339836Y2167889D01*
X8361934Y2167889D01*
X9906000Y3320287D02*
G01*
X9880600Y3387089D01*
X9855200Y3320287D02*
G01*
X9880600Y3387089D01*
X9834118Y3409442D02*
G01*
X9776713Y3409442D01*
X9755886Y3320287D02*
G01*
X9755886Y3387089D01*
X9755886Y3320287D02*
G01*
X9727184Y3320287D01*
X9717531Y3323336D01*
X9714484Y3326637D01*
X9711181Y3332987D01*
X9711181Y3339337D01*
X9714484Y3345687D01*
X9717531Y3348989D01*
X9727184Y3352037D01*
X9755886Y3352037D01*
X9733534Y3352037D02*
G01*
X9711181Y3387089D01*
X9690354Y3320287D02*
G01*
X9690354Y3387089D01*
X9690354Y3320287D02*
G01*
X9648952Y3320287D01*
X9690354Y3352037D02*
G01*
X9664700Y3352037D01*
X9690354Y3387089D02*
G01*
X9648952Y3387089D01*
X9627870Y3320287D02*
G01*
X9627870Y3387089D01*
X9627870Y3320287D02*
G01*
X9586468Y3320287D01*
X9627870Y3352037D02*
G01*
X9602470Y3352037D01*
D13*
X8611615Y2549652D02*
G01*
X8754872Y2549652D01*
X8611615Y2501900D02*
G01*
X8611615Y2597404D01*
X8611615Y2642362D02*
G01*
X8754872Y2642362D01*
X8611615Y2642362D02*
G01*
X8754872Y2696971D01*
X8611615Y2751328D02*
G01*
X8754872Y2696971D01*
X8611615Y2751328D02*
G01*
X8754872Y2751328D01*
X8645652Y2898647D02*
G01*
X8632190Y2891789D01*
X8618474Y2878328D01*
X8611615Y2864612D01*
X8611615Y2837434D01*
X8618474Y2823718D01*
X8632190Y2810002D01*
X8645652Y2803144D01*
X8666225Y2796539D01*
X8700261Y2796539D01*
X8720836Y2803144D01*
X8734297Y2810002D01*
X8748013Y2823718D01*
X8754872Y2837434D01*
X8754872Y2864612D01*
X8748013Y2878328D01*
X8734297Y2891789D01*
X8720836Y2898647D01*
X8645652Y2950463D02*
G01*
X8638793Y2950463D01*
X8625331Y2957321D01*
X8618474Y2964179D01*
X8611615Y2977895D01*
X8611615Y3005073D01*
X8618474Y3018789D01*
X8625331Y3025647D01*
X8638793Y3032252D01*
X8652509Y3032252D01*
X8666225Y3025647D01*
X8686545Y3011931D01*
X8754872Y2943605D01*
X8754872Y3039110D01*
X8645652Y3090926D02*
G01*
X8638793Y3090926D01*
X8625331Y3097784D01*
X8618474Y3104642D01*
X8611615Y3118357D01*
X8611615Y3145536D01*
X8618474Y3159252D01*
X8625331Y3166110D01*
X8638793Y3172713D01*
X8652509Y3172713D01*
X8666225Y3166110D01*
X8686545Y3152394D01*
X8754872Y3084068D01*
X8754872Y3179571D01*
X8611615Y3265423D02*
G01*
X8618474Y3245104D01*
X8638793Y3231387D01*
X8673084Y3224529D01*
X8693404Y3224529D01*
X8727440Y3231387D01*
X8748013Y3245104D01*
X8754872Y3265423D01*
X8754872Y3279139D01*
X8748013Y3299713D01*
X8727440Y3313176D01*
X8693404Y3320034D01*
X8673084Y3320034D01*
X8638793Y3313176D01*
X8618474Y3299713D01*
X8611615Y3279139D01*
X8611615Y3265423D01*
X8659368Y3453637D02*
G01*
X8679941Y3446779D01*
X8693404Y3433318D01*
X8700261Y3412744D01*
X8700261Y3405886D01*
X8693404Y3385565D01*
X8679941Y3371850D01*
X8659368Y3364992D01*
X8652509Y3364992D01*
X8632190Y3371850D01*
X8618474Y3385565D01*
X8611615Y3405886D01*
X8611615Y3412744D01*
X8618474Y3433318D01*
X8632190Y3446779D01*
X8659368Y3453637D01*
X8693404Y3453637D01*
X8727440Y3446779D01*
X8748013Y3433318D01*
X8754872Y3412744D01*
X8754872Y3399281D01*
X8748013Y3378707D01*
X8734297Y3371850D01*
D11*
X2159000Y4534915D02*
G01*
X2159000Y4425950D01*
X2159000Y4534915D02*
G01*
X2205736Y4534915D01*
X2221229Y4529836D01*
X2226563Y4524502D01*
X2231643Y4514087D01*
X2231643Y4503673D01*
X2226563Y4493260D01*
X2221229Y4488179D01*
X2205736Y4483100D01*
X2159000Y4483100D01*
X2195322Y4483100D02*
G01*
X2231643Y4425950D01*
X2265934Y4514087D02*
G01*
X2276347Y4519421D01*
X2292095Y4534915D01*
X2292095Y4425950D01*
D10*
X4102100Y6413500D02*
G01*
X4102100Y6162039D01*
X3594100Y6162039D01*
X3594100Y6413500D01*
X4102100Y6413500D01*
D14*
X8827820Y4569460D02*
G01*
X9577831Y4569460D01*
X8825991Y5148579D02*
G01*
X8825991Y4568570D01*
X8825991Y5148579D02*
G01*
X9576003Y5148579D01*
X9577831Y5148579D02*
G01*
X9577831Y4569460D01*
X8886952Y5085079D02*
G01*
X9514331Y5085079D01*
X9514331Y4630420D01*
X9572752Y5146039D02*
G01*
X9572752Y5138420D01*
X9511791Y5077460D01*
X8828531Y5146039D02*
G01*
X8828531Y5138420D01*
X8889491Y5077460D01*
X8825991Y4716779D02*
G01*
X8884411Y4716779D01*
X9516872Y4699000D02*
G01*
X9575291Y4699000D01*
X8950452Y4572000D02*
G01*
X8950452Y4630420D01*
X9514331Y4630420D02*
G01*
X8886952Y4630420D01*
X8886952Y4630420D02*
G01*
X8886952Y5082539D01*
X8889491Y5082539D01*
X9027922Y4570729D02*
G01*
X9027922Y4629150D01*
X9374631Y4572000D02*
G01*
X9374631Y4630420D01*
X9452102Y4570729D02*
G01*
X9452102Y4629150D01*
X8003666Y4827193D02*
G01*
X8003666Y5577204D01*
X7424547Y4825364D02*
G01*
X8004556Y4825364D01*
X7424547Y4825364D02*
G01*
X7424547Y5575376D01*
X7424547Y5577204D02*
G01*
X8003666Y5577204D01*
X7488047Y4886325D02*
G01*
X7488047Y5513704D01*
X7942706Y5513704D01*
X7427086Y5572125D02*
G01*
X7434706Y5572125D01*
X7495666Y5511164D01*
X7427086Y4827904D02*
G01*
X7434706Y4827904D01*
X7495666Y4888864D01*
X7856347Y4825364D02*
G01*
X7856347Y4883785D01*
X7874127Y5516245D02*
G01*
X7874127Y5574664D01*
X8001127Y4949825D02*
G01*
X7942706Y4949825D01*
X7942706Y5513704D02*
G01*
X7942706Y4886325D01*
X7942706Y4886325D02*
G01*
X7490586Y4886325D01*
X7490586Y4888864D01*
X8002397Y5027295D02*
G01*
X7943977Y5027295D01*
X8001127Y5374004D02*
G01*
X7942706Y5374004D01*
X8002397Y5451475D02*
G01*
X7943977Y5451475D01*
X7038466Y4827193D02*
G01*
X7038466Y5577204D01*
X6459347Y4825364D02*
G01*
X7039356Y4825364D01*
X6459347Y4825364D02*
G01*
X6459347Y5575376D01*
X6459347Y5577204D02*
G01*
X7038466Y5577204D01*
X6522847Y4886325D02*
G01*
X6522847Y5513704D01*
X6977506Y5513704D01*
X6461886Y5572125D02*
G01*
X6469506Y5572125D01*
X6530466Y5511164D01*
X6461886Y4827904D02*
G01*
X6469506Y4827904D01*
X6530466Y4888864D01*
X6891147Y4825364D02*
G01*
X6891147Y4883785D01*
X6908927Y5516245D02*
G01*
X6908927Y5574664D01*
X7035927Y4949825D02*
G01*
X6977506Y4949825D01*
X6977506Y5513704D02*
G01*
X6977506Y4886325D01*
X6977506Y4886325D02*
G01*
X6525386Y4886325D01*
X6525386Y4888864D01*
X7037197Y5027295D02*
G01*
X6978777Y5027295D01*
X7035927Y5374004D02*
G01*
X6977506Y5374004D01*
X7037197Y5451475D02*
G01*
X6978777Y5451475D01*
X6085966Y4827193D02*
G01*
X6085966Y5577204D01*
X5506847Y4825364D02*
G01*
X6086856Y4825364D01*
X5506847Y4825364D02*
G01*
X5506847Y5575376D01*
X5506847Y5577204D02*
G01*
X6085966Y5577204D01*
X5570347Y4886325D02*
G01*
X5570347Y5513704D01*
X6025006Y5513704D01*
X5509386Y5572125D02*
G01*
X5517006Y5572125D01*
X5577966Y5511164D01*
X5509386Y4827904D02*
G01*
X5517006Y4827904D01*
X5577966Y4888864D01*
X5938647Y4825364D02*
G01*
X5938647Y4883785D01*
X5956427Y5516245D02*
G01*
X5956427Y5574664D01*
X6083427Y4949825D02*
G01*
X6025006Y4949825D01*
X6025006Y5513704D02*
G01*
X6025006Y4886325D01*
X6025006Y4886325D02*
G01*
X5572886Y4886325D01*
X5572886Y4888864D01*
X6084697Y5027295D02*
G01*
X6026277Y5027295D01*
X6083427Y5374004D02*
G01*
X6025006Y5374004D01*
X6084697Y5451475D02*
G01*
X6026277Y5451475D01*
X5120766Y4827193D02*
G01*
X5120766Y5577204D01*
X4541647Y4825364D02*
G01*
X5121656Y4825364D01*
X4541647Y4825364D02*
G01*
X4541647Y5575376D01*
X4541647Y5577204D02*
G01*
X5120766Y5577204D01*
X4605147Y4886325D02*
G01*
X4605147Y5513704D01*
X5059806Y5513704D01*
X4544186Y5572125D02*
G01*
X4551806Y5572125D01*
X4612766Y5511164D01*
X4544186Y4827904D02*
G01*
X4551806Y4827904D01*
X4612766Y4888864D01*
X4973447Y4825364D02*
G01*
X4973447Y4883785D01*
X4991227Y5516245D02*
G01*
X4991227Y5574664D01*
X5118227Y4949825D02*
G01*
X5059806Y4949825D01*
X5059806Y5513704D02*
G01*
X5059806Y4886325D01*
X5059806Y4886325D02*
G01*
X4607686Y4886325D01*
X4607686Y4888864D01*
X5119497Y5027295D02*
G01*
X5061077Y5027295D01*
X5118227Y5374004D02*
G01*
X5059806Y5374004D01*
X5119497Y5451475D02*
G01*
X5061077Y5451475D01*
X990600Y4927600D02*
G01*
X990600Y6311900D01*
X2921000Y6311900D01*
X2921000Y4927600D01*
X990600Y4927600D01*
X7407643Y6071735D02*
G01*
X7469261Y6071735D01*
X7469261Y6452199D01*
X8339259Y6452199D01*
X8339259Y6072200D01*
X8408657Y6072200D01*
X8249272Y5928360D02*
G01*
X8249272Y5982207D01*
X8285619Y5982207D01*
X8408657Y5982207D01*
X7681097Y5928360D02*
G01*
X7681097Y5982200D01*
X8129259Y5982200D01*
X8129259Y5928360D01*
X7570607Y5928360D02*
G01*
X7570607Y5982200D01*
X7407643Y5982200D01*
X7407643Y6509004D02*
G01*
X7407643Y5928995D01*
X7407897Y6510020D02*
G01*
X8407895Y6510020D01*
X8408657Y6510020D02*
G01*
X8408657Y5930900D01*
X7407897Y5928360D02*
G01*
X8407895Y5928360D01*
X646564Y2010143D02*
G01*
X646564Y2071761D01*
X266100Y2071761D01*
X266100Y2941759D01*
X646099Y2941759D01*
X646099Y3011157D01*
X789939Y2851772D02*
G01*
X736092Y2851772D01*
X736092Y2888119D01*
X736092Y3011157D01*
X789939Y2283597D02*
G01*
X736099Y2283597D01*
X736099Y2731759D01*
X789939Y2731759D01*
X789939Y2173107D02*
G01*
X736099Y2173107D01*
X736099Y2010143D01*
X209295Y2010143D02*
G01*
X789304Y2010143D01*
X208279Y2010397D02*
G01*
X208279Y3010395D01*
X208279Y3011157D02*
G01*
X787400Y3011157D01*
X789939Y2010397D02*
G01*
X789939Y3010395D01*
X4560028Y1405897D02*
G01*
X4560028Y1328399D01*
X4726332Y1328399D01*
X4726332Y1401137D01*
X4721572Y1405897D01*
X4011261Y1405897D02*
G01*
X4011261Y1328399D01*
X4177565Y1328399D01*
X4177565Y1401137D01*
X4172805Y1405897D01*
X3743799Y825903D02*
G01*
X3743799Y1405897D01*
X4993800Y1405897D01*
X4993800Y825903D01*
X3744798Y825903D01*
X3743799Y826902D01*
X7049228Y1405897D02*
G01*
X7049228Y1328399D01*
X7215532Y1328399D01*
X7215532Y1401137D01*
X7210772Y1405897D01*
X6500461Y1405897D02*
G01*
X6500461Y1328399D01*
X6666765Y1328399D01*
X6666765Y1401137D01*
X6662005Y1405897D01*
X6232999Y825903D02*
G01*
X6232999Y1405897D01*
X7483000Y1405897D01*
X7483000Y825903D01*
X6233998Y825903D01*
X6232999Y826902D01*
X9513028Y1405897D02*
G01*
X9513028Y1328399D01*
X9679332Y1328399D01*
X9679332Y1401137D01*
X9674572Y1405897D01*
X8964261Y1405897D02*
G01*
X8964261Y1328399D01*
X9130565Y1328399D01*
X9130565Y1401137D01*
X9125805Y1405897D01*
X8696799Y825903D02*
G01*
X8696799Y1405897D01*
X9946800Y1405897D01*
X9946800Y825903D01*
X8697798Y825903D01*
X8696799Y826902D01*
D10*
X812800Y647700D02*
G01*
X558800Y647700D01*
X558800Y1663700D01*
X812800Y1663700D01*
X812800Y1473200D01*
D15*
X812800Y647700D02*
G01*
X812800Y1473200D01*
D14*
X7988300Y4406900D02*
G01*
X7962900Y4406900D01*
X8496300Y4406900D02*
G01*
X8521700Y4406900D01*
X7988300Y4406900D02*
G01*
X7988300Y4483100D01*
X7988300Y4330700D02*
G01*
X7988300Y4406900D01*
X8496300Y4330700D02*
G01*
X7988300Y4330700D01*
X8496300Y4406900D02*
G01*
X8496300Y4330700D01*
X8496300Y4483100D02*
G01*
X8496300Y4406900D01*
X7988300Y4483100D02*
G01*
X8496300Y4483100D01*
D10*
X3365500Y4127500D02*
G01*
X3111500Y4127500D01*
X3111500Y4381500D01*
X3365500Y4381500D01*
X3365500Y4191000D01*
D15*
X3365500Y4127500D02*
G01*
X3365500Y4191000D01*
D10*
X1397000Y4127500D02*
G01*
X1143000Y4127500D01*
X1143000Y4381500D01*
X1397000Y4381500D01*
X1397000Y4191000D01*
D15*
X1397000Y4127500D02*
G01*
X1397000Y4191000D01*
D14*
X2273922Y1405989D02*
G01*
X2273922Y1328491D01*
X2440226Y1328491D01*
X2440226Y1401229D01*
X2435466Y1405989D01*
X1725155Y1405989D02*
G01*
X1725155Y1328491D01*
X1891459Y1328491D01*
X1891459Y1401229D01*
X1886699Y1405989D01*
X1457693Y825995D02*
G01*
X1457693Y1405989D01*
X2707693Y1405989D01*
X2707693Y825995D01*
X1458691Y825995D01*
X1457693Y826993D01*
D11*
X6828078Y6085860D02*
G01*
X6732191Y6085860D01*
X6732191Y5953739D01*
X6828078Y5953739D01*
X6913321Y6085860D02*
G01*
X7009208Y6085860D01*
X7009208Y5953739D01*
X6913321Y5953739D01*
X6256578Y6085860D02*
G01*
X6160691Y6085860D01*
X6160691Y5953739D01*
X6256578Y5953739D01*
X6341821Y6085860D02*
G01*
X6437708Y6085860D01*
X6437708Y5953739D01*
X6341821Y5953739D01*
X5659678Y6085860D02*
G01*
X5563791Y6085860D01*
X5563791Y5953739D01*
X5659678Y5953739D01*
X5744921Y6085860D02*
G01*
X5840808Y6085860D01*
X5840808Y5953739D01*
X5744921Y5953739D01*
X4897678Y6073160D02*
G01*
X4801791Y6073160D01*
X4801791Y5941039D01*
X4897678Y5941039D01*
X4982921Y6073160D02*
G01*
X5078808Y6073160D01*
X5078808Y5941039D01*
X4982921Y5941039D01*
D14*
X2711450Y3365500D02*
G01*
X2876550Y3365500D01*
X1054100Y2222500D02*
G01*
X1054100Y3746500D01*
X3086100Y3746500D01*
X3086100Y2222500D01*
X1054100Y2222500D01*
X5048250Y3378200D02*
G01*
X5213350Y3378200D01*
X3390900Y2235200D02*
G01*
X3390900Y3759200D01*
X5422900Y3759200D01*
X5422900Y2235200D01*
X3390900Y2235200D01*
X7537450Y3365500D02*
G01*
X7702550Y3365500D01*
X5880100Y2222500D02*
G01*
X5880100Y3746500D01*
X7912100Y3746500D01*
X7912100Y2222500D01*
X5880100Y2222500D01*
X9937750Y3352800D02*
G01*
X10102850Y3352800D01*
X8280400Y2209800D02*
G01*
X8280400Y3733800D01*
X10312400Y3733800D01*
X10312400Y2209800D01*
X8280400Y2209800D01*
D11*
X2328621Y4188439D02*
G01*
X2424508Y4188439D01*
X2424508Y4320560D01*
X2328621Y4320560D01*
X2243378Y4188439D02*
G01*
X2147491Y4188439D01*
X2147491Y4320560D01*
X2243378Y4320560D01*
D14*
G75*
G01*
X990600Y5537200D02*
G03*
X990600Y5689600I0J76200D01*
G75*
G01
X3009900Y3365500D02*
G03X3009900Y3365500I-50800J0D01*
G75*
G01
X3009900Y3111500D02*
G03X3009900Y3111500I-50800J0D01*
G75*
G01
X2882900Y3238500D02*
G03X2882900Y3238500I-50800J0D01*
G75*
G01
X5346700Y3378200D02*
G03X5346700Y3378200I-50800J0D01*
G75*
G01
X5346700Y3124200D02*
G03X5346700Y3124200I-50800J0D01*
G75*
G01
X5219700Y3251200D02*
G03X5219700Y3251200I-50800J0D01*
G75*
G01
X7835900Y3365500D02*
G03X7835900Y3365500I-50800J0D01*
G75*
G01
X7835900Y3111500D02*
G03X7835900Y3111500I-50800J0D01*
G75*
G01
X7708900Y3238500D02*
G03X7708900Y3238500I-50800J0D01*
G75*
G01
X10236200Y3352800D02*
G03X10236200Y3352800I-50800J0D01*
G75*
G01
X10236200Y3098800D02*
G03X10236200Y3098800I-50800J0D01*
G75*
G01
X10109200Y3225800D02*
G03X10109200Y3225800I-50800J0D01*
M02*
